<?xml version="1.0" encoding="UTF-8"?>
<svg width="202px" height="202px" viewBox="0 0 202 202" version="1.1" xmlns="http://www.w3.org/2000/svg" xmlns:xlink="http://www.w3.org/1999/xlink">
    <!-- Generator: Sketch 47.1 (45422) - http://www.bohemiancoding.com/sketch -->
    <title>University</title>
    <desc>Created with Sketch.</desc>
    <defs></defs>
    <g id="END-FUND" stroke="none" stroke-width="1" fill="none" fill-rule="evenodd">
        <g id="Desktop-HD" transform="translate(-1047.000000, -7927.000000)">
            <g id="University" transform="translate(1048.000000, 7928.000000)">
                <circle id="Oval" stroke="#9B9B9B" fill="#FFFFFF" stroke-linejoin="round" stroke-dasharray="1,4,1,4" cx="100" cy="100" r="100"></circle>
                <circle id="Oval-3" stroke="#2558A7" stroke-width="2" cx="100" cy="100" r="88.7850467"></circle>
                <g id="Ресурс-1" transform="translate(39.252336, 76.635514)" fill-rule="nonzero">
                    <path d="M38.2720845,19.1282243 C38.2720845,20.0742814 37.7021935,20.9271836 36.8281507,21.2892239 C35.9541079,21.6512643 34.9480412,21.4511452 34.2790778,20.7821818 C33.6101144,20.1132185 33.4099953,19.1071517 33.7720357,18.2331089 C34.1340761,17.3590662 34.9869783,16.7891751 35.9330354,16.7891751 C36.5535221,16.7887431 37.1487195,17.0350392 37.58747,17.4737897 C38.0262205,17.9125402 38.2725166,18.5077375 38.2720845,19.1282243" id="Shape" fill="#1946BA"></path>
                    <path d="M44.9907338,9.05444453 C44.9915884,10.0017402 44.421496,10.8561947 43.5464722,11.219104 C42.6714483,11.5820132 41.6639605,11.3818477 40.9941211,10.7120082 C40.3242816,10.0421687 40.124116,9.03468092 40.4870252,8.15965705 C40.8499345,7.28463319 41.704389,6.71454079 42.6516847,6.71539537 C43.9432643,6.71597834 44.9901509,7.7628649 44.9907338,9.05444453" id="Shape" fill="#1946BA"></path>
                    <path d="M51.7061503,12.4125965 C51.7070049,13.3598922 51.1369125,14.2143467 50.2618887,14.577256 C49.3868648,14.9401652 48.379377,14.7399996 47.7095376,14.0701601 C47.0396981,13.4003206 46.8395325,12.3928329 47.2024417,11.517809 C47.565351,10.6427852 48.4198055,10.0726928 49.3671012,10.0735473 C50.6580588,10.0756297 51.7040679,11.1216389 51.7061503,12.4125965" id="Shape" fill="#1946BA"></path>
                    <path d="M58.4217359,15.769861 C58.4225905,16.7171567 57.8524981,17.5716112 56.9774742,17.9345205 C56.1024503,18.2974297 55.0949626,18.0972642 54.4251231,17.4274247 C53.7552836,16.7575852 53.555118,15.7500974 53.9180273,14.8750736 C54.2809365,14.0000497 55.135391,13.4299573 56.0826867,13.4308119 C56.7030669,13.4307278 57.2980621,13.6771356 57.7367371,14.1158107 C58.1754121,14.5544857 58.42182,15.1494809 58.4217359,15.769861" id="Shape" fill="#1946BA"></path>
                    <path d="M51.7061503,19.1282243 C51.7070049,20.07552 51.1369125,20.9299745 50.2618887,21.2928837 C49.3868648,21.655793 48.379377,21.4556274 47.7095376,20.7857879 C47.0396981,20.1159484 46.8395325,19.1084607 47.2024417,18.2334368 C47.565351,17.3584129 48.4198055,16.7883206 49.3671012,16.7891751 C50.6586808,16.7897581 51.7055674,17.8366447 51.7061503,19.1282243" id="Shape" fill="#1946BA"></path>
                    <path d="M65.13823,19.1282243 C65.13823,20.4200455 64.091002,21.4672735 62.7991808,21.4672735 C61.5073596,21.4672735 60.4601317,20.4200455 60.4601317,19.1282243 C60.4601317,17.8364031 61.5073596,16.7891751 62.7991808,16.7891751 C64.0907605,16.7897581 65.137647,17.8366447 65.13823,19.1282243" id="Shape" fill="#1946BA"></path>
                    <path d="M65.13823,25.8436408 C65.13823,26.7896979 64.568339,27.6426001 63.6942962,28.0046404 C62.8202534,28.3666808 61.8141867,28.1665617 61.1452233,27.4975983 C60.4762599,26.8286349 60.2761408,25.8225682 60.6381812,24.9485254 C61.0002215,24.0744827 61.8531237,23.5045916 62.7991808,23.5045916 C64.0907605,23.5051746 65.137647,24.5520612 65.13823,25.8436408" id="Shape" fill="#1946BA"></path>
                    <path d="M71.8536254,22.486334 C71.8536254,23.7781552 70.8063974,24.8253832 69.5145762,24.8253832 C68.222755,24.8253832 67.175527,23.7781552 67.175527,22.486334 C67.175527,21.1945128 68.222755,20.1472848 69.5145762,20.1472848 C70.1350629,20.1468528 70.7302603,20.3931489 71.1690108,20.8318994 C71.6077613,21.2706499 71.8540574,21.8658473 71.8536254,22.486334" id="Shape" fill="#1946BA"></path>
                    <path d="M71.8536254,15.769861 C71.8536254,17.0616822 70.8063974,18.1089102 69.5145762,18.1089102 C68.222755,18.1089102 67.175527,17.0616822 67.175527,15.769861 C67.175527,14.4780398 68.222755,13.4308119 69.5145762,13.4308119 C70.8061558,13.4313948 71.8530424,14.4782814 71.8536254,15.769861" id="Shape" fill="#1946BA"></path>
                    <path d="M65.13823,12.4125965 C65.13823,13.7044177 64.091002,14.7516457 62.7991808,14.7516457 C61.5073596,14.7516457 60.4601317,13.7044177 60.4601317,12.4125965 C60.4601317,11.1207753 61.5073596,10.0735473 62.7991808,10.0735473 C64.0901385,10.0756297 65.1361476,11.1216389 65.13823,12.4125965" id="Shape" fill="#1946BA"></path>
                    <path d="M58.4217359,22.486334 C58.4217359,23.7781552 57.3745079,24.8253832 56.0826867,24.8253832 C54.7908655,24.8253832 53.7436375,23.7781552 53.7436375,22.486334 C53.7436375,21.1945128 54.7908655,20.1472848 56.0826867,20.1472848 C56.7030669,20.1472008 57.2980621,20.3936086 57.7367371,20.8322836 C58.1754121,21.2709587 58.42182,21.8659538 58.4217359,22.486334" id="Shape" fill="#1946BA"></path>
                    <path d="M71.8536254,9.05444453 C71.8536254,10.3462657 70.8063974,11.3934937 69.5145762,11.3934937 C68.222755,11.3934937 67.175527,10.3462657 67.175527,9.05444453 C67.175527,7.76262335 68.222755,6.71539537 69.5145762,6.71539537 C70.8061558,6.71597834 71.8530424,7.7628649 71.8536254,9.05444453" id="Shape" fill="#1946BA"></path>
                    <path d="M78.5691052,5.69715888 C78.5691052,6.98898006 77.5218773,8.03620805 76.2300561,8.03620805 C74.9382349,8.03620805 73.8910069,6.98898006 73.8910069,5.69715888 C73.8910069,4.40533769 74.9382349,3.35810971 76.2300561,3.35810971 C77.5216357,3.35869269 78.5685223,4.40557925 78.5691052,5.69715888" id="Shape" fill="#1946BA"></path>
                    <path d="M78.5691052,19.1282243 C78.5691052,20.4200455 77.5218773,21.4672735 76.2300561,21.4672735 C74.9382349,21.4672735 73.8910069,20.4200455 73.8910069,19.1282243 C73.8910069,17.8364031 74.9382349,16.7891751 76.2300561,16.7891751 C77.5216357,16.7897581 78.5685223,17.8366447 78.5691052,19.1282243" id="Shape" fill="#1946BA"></path>
                    <path d="M58.4217359,9.05444453 C58.4217359,10.3462657 57.3745079,11.3934937 56.0826867,11.3934937 C54.7908655,11.3934937 53.7436375,10.3462657 53.7436375,9.05444453 C53.7436375,7.76262335 54.7908655,6.71539537 56.0826867,6.71539537 C57.3742663,6.71597834 58.4211529,7.7628649 58.4217359,9.05444453" id="Shape" fill="#1946BA"></path>
                    <path d="M51.7031711,25.8436408 C51.7031711,26.7896979 51.13328,27.6426001 50.2592373,28.0046404 C49.3851945,28.3666808 48.3791277,28.1665617 47.7101644,27.4975983 C47.041201,26.8286349 46.8410819,25.8225682 47.2031223,24.9485254 C47.5651626,24.0744827 48.4180648,23.5045916 49.3641219,23.5045916 C49.9846087,23.5041596 50.579806,23.7504557 51.0185565,24.1892062 C51.457307,24.6279567 51.7036031,25.223154 51.7031711,25.8436408" id="Shape" fill="#1946BA"></path>
                    <path d="M44.9907338,15.769861 C44.9915884,16.7171567 44.421496,17.5716112 43.5464722,17.9345205 C42.6714483,18.2974297 41.6639605,18.0972642 40.9941211,17.4274247 C40.3242816,16.7575852 40.124116,15.7500974 40.4870252,14.8750736 C40.8499345,14.0000497 41.704389,13.4299573 42.6516847,13.4308119 C43.9432643,13.4313948 44.9901509,14.4782814 44.9907338,15.769861" id="Shape" fill="#1946BA"></path>
                    <path d="M38.2752751,12.4125965 C38.2761297,13.3598922 37.7060373,14.2143467 36.8310134,14.577256 C35.9559895,14.9401652 34.9485018,14.7399996 34.2786623,14.0701601 C33.6088228,13.4003206 33.4086572,12.3928329 33.7715665,11.517809 C34.1344757,10.6427852 34.9889302,10.0726928 35.9362259,10.0735473 C37.2278056,10.0741303 38.2746921,11.1210169 38.2752751,12.4125965" id="RED" fill="#EB1946"></path>
                    <path d="M31.5556961,22.486334 C31.5556961,23.7781552 30.5084681,24.8253832 29.2166469,24.8253832 C27.9248257,24.8253832 26.8775977,23.7781552 26.8775977,22.486334 C26.8775977,21.1945128 27.9248257,20.1472848 29.2166469,20.1472848 C29.8370271,20.1472008 30.4320222,20.3936086 30.8706973,20.8322836 C31.3093723,21.2709587 31.5557801,21.8659538 31.5556961,22.486334" id="Shape" fill="#1946BA"></path>
                    <path d="M31.5556961,15.769861 C31.5556961,17.0616822 30.5084681,18.1089102 29.2166469,18.1089102 C27.9248257,18.1089102 26.8775977,17.0616822 26.8775977,15.769861 C26.8775977,14.4780398 27.9248257,13.4308119 29.2166469,13.4308119 C30.5082265,13.4313948 31.5551131,14.4782814 31.5556961,15.769861" id="Shape" fill="#1946BA"></path>
                    <path d="M44.9875855,22.4390037 C44.9875855,23.7308248 43.9403576,24.7780528 42.6485364,24.7780528 C41.3567152,24.7780528 40.3094872,23.7308248 40.3094872,22.4390037 C40.3094872,21.1471825 41.3567152,20.0999545 42.6485364,20.0999545 C43.940116,20.1005375 44.9870026,21.147424 44.9875855,22.4390037" id="Shape" fill="#1946BA"></path>
                    <path d="M44.9875855,2.33904917 C44.9875855,3.6308621 43.9403704,4.67808666 42.6485575,4.67809833 C41.3567446,4.67811 40.3095105,3.63090436 40.3094872,2.33909143 C40.3094639,1.04727849 41.35666,3.50084805e-05 42.648473,-1.88405009e-16 C43.2689597,-0.000432045158 43.8641571,0.245864041 44.3029076,0.684614541 C44.7416581,1.12336504 44.9879542,1.71856241 44.9875221,2.33904917" id="Shape" fill="#1946BA"></path>
                    <path d="M58.3742154,29.2017716 C58.3742154,30.1478287 57.8043243,31.0007309 56.9302816,31.3627713 C56.0562388,31.7248117 55.050172,31.5246925 54.3812087,30.8557292 C53.7122453,30.1867658 53.5121262,29.180699 53.8741665,28.3066563 C54.2362069,27.4326135 55.0891091,26.8627225 56.0351662,26.8627225 C56.6555464,26.8626384 57.2505415,27.1090462 57.6892166,27.5477213 C58.1278916,27.9863963 58.3742994,28.5813915 58.3742154,29.2017716" id="Shape" fill="#1946BA"></path>
                    <path d="M38.2752751,5.69715888 C38.2752751,6.98898006 37.2280471,8.03620805 35.9362259,8.03620805 C34.6444047,8.03620805 33.5971768,6.98898006 33.5971768,5.69715888 C33.5971768,4.40533769 34.6444047,3.35810971 35.9362259,3.35810971 C37.2271836,3.36019212 38.2731927,4.40620124 38.2752751,5.69715888" id="Shape" fill="#1946BA"></path>
                    <path d="M51.7031711,5.69715888 C51.7031711,6.98898006 50.6559431,8.03620805 49.3641219,8.03620805 C48.0723007,8.03620805 47.0250727,6.98898006 47.0250727,5.69715888 C47.0250727,4.40533769 48.0723007,3.35810971 49.3641219,3.35810971 C50.6550795,3.36019212 51.7010887,4.40620124 51.7031711,5.69715888" id="Shape" fill="#1946BA"></path>
                    <path d="M58.3742154,29.2017716 C58.3742154,30.1478287 57.8043243,31.0007309 56.9302816,31.3627713 C56.0562388,31.7248117 55.050172,31.5246925 54.3812087,30.8557292 C53.7122453,30.1867658 53.5121262,29.180699 53.8741665,28.3066563 C54.2362069,27.4326135 55.0891091,26.8627225 56.0351662,26.8627225 C56.6555464,26.8626384 57.2505415,27.1090462 57.6892166,27.5477213 C58.1278916,27.9863963 58.3742994,28.5813915 58.3742154,29.2017716" id="Shape" fill="#1946BA"></path>
                    <path d="M92.004143,12.4125965 C92.0049976,13.3598922 91.4349052,14.2143467 90.5598813,14.577256 C89.6848575,14.9401652 88.6773697,14.7399996 88.0075302,14.0701601 C87.3376907,13.4003206 87.1375252,12.3928329 87.5004344,11.517809 C87.8633437,10.6427852 88.7177982,10.0726928 89.6650939,10.0735473 C90.9566735,10.0741303 92.0035601,11.1210169 92.004143,12.4125965" id="Shape" fill="#1946BA"></path>
                    <path d="M78.5691052,25.8436408 C78.5691052,26.7896979 77.9992142,27.6426001 77.1251714,28.0046404 C76.2511287,28.3666808 75.2450619,28.1665617 74.5760985,27.4975983 C73.9071352,26.8286349 73.7070161,25.8225682 74.0690564,24.9485254 C74.4310968,24.0744827 75.283999,23.5045916 76.2300561,23.5045916 C76.8505428,23.5041596 77.4457402,23.7504557 77.8844907,24.1892062 C78.3232412,24.6279567 78.5695373,25.223154 78.5691052,25.8436408" id="Shape" fill="#1946BA"></path>
                    <path d="M85.2845006,9.05444453 C85.2845006,10.0005016 84.7146096,10.8534038 83.8405668,11.2154442 C82.966524,11.5774846 81.9604573,11.3773654 81.2914939,10.7084021 C80.6225305,10.0394387 80.4224114,9.03337194 80.7844518,8.15932917 C81.1464922,7.2852864 81.9993944,6.71539537 82.9454514,6.71539537 C84.2370311,6.71597834 85.2839176,7.7628649 85.2845006,9.05444453" id="Shape" fill="#1946BA"></path>
                    <path d="M78.5691052,12.4125965 C78.5691052,13.7044177 77.5218773,14.7516457 76.2300561,14.7516457 C74.9382349,14.7516457 73.8910069,13.7044177 73.8910069,12.4125965 C73.8910069,11.1207753 74.9382349,10.0735473 76.2300561,10.0735473 C76.8505428,10.0731153 77.4457402,10.3194114 77.8844907,10.7581619 C78.3232412,11.1969124 78.5695373,11.7921097 78.5691052,12.4125965" id="Shape" fill="#1946BA"></path>
                    <path d="M85.2845006,22.486334 C85.2845006,23.4323911 84.7146096,24.2852933 83.8405668,24.6473337 C82.966524,25.009374 81.9604573,24.8092549 81.2914939,24.1402915 C80.6225305,23.4713282 80.4224114,22.4652614 80.7844518,21.5912186 C81.1464922,20.7171759 81.9993944,20.1472848 82.9454514,20.1472848 C84.2370311,20.1478678 85.2839176,21.1947544 85.2845006,22.486334" id="Shape" fill="#1946BA"></path>
                    <path d="M85.2845006,15.769861 C85.2845006,16.7159181 84.7146096,17.5688203 83.8405668,17.9308607 C82.966524,18.2929011 81.9604573,18.0927819 81.2914939,17.4238186 C80.6225305,16.7548552 80.4224114,15.7487884 80.7844518,14.8747457 C81.1464922,14.0007029 81.9993944,13.4308119 82.9454514,13.4308119 C83.5658282,13.430739 84.1608168,13.6771504 84.5994894,14.115823 C85.038162,14.5544956 85.2845735,15.1494843 85.2845006,15.769861" id="Shape" fill="#1946BA"></path>
                    <path d="M65.13823,5.69715888 C65.13823,6.98898006 64.091002,8.03620805 62.7991808,8.03620805 C61.5073596,8.03620805 60.4601317,6.98898006 60.4601317,5.69715888 C60.4601317,4.40533769 61.5073596,3.35810971 62.7991808,3.35810971 C64.0901385,3.36019212 65.1361476,4.40620124 65.13823,5.69715888" id="Shape" fill="#1946BA"></path>
                    <path d="M85.2845006,2.33904917 C85.2845006,3.6308621 84.2372855,4.67808666 82.9454726,4.67809833 C81.6536596,4.67811 80.6064256,3.63090436 80.6064023,2.33909143 C80.6063789,1.04727849 81.6535751,3.50084805e-05 82.9453881,-2.22044605e-16 C84.2369677,0.00058297442 85.2838542,1.04746954 85.2844372,2.33904917" id="Shape" fill="#1946BA"></path>
                    <path d="M92.0000861,5.69715888 C92.0000861,6.98898006 90.9528582,8.03620805 89.661037,8.03620805 C88.3692158,8.03620805 87.3219878,6.98898006 87.3219878,5.69715888 C87.3219878,4.40533769 88.3692158,3.35810971 89.661037,3.35810971 C90.9519946,3.36019212 91.9980037,4.40620124 92.0000861,5.69715888" id="Shape" fill="#1946BA"></path>
                    <path d="M6.30324096,41.1429451 C6.42070104,40.9251262 6.44508781,40.6690652 6.37085575,40.4329898 C6.30366918,40.2861513 6.17795777,40.1742375 6.02432995,40.1244974 C5.60596343,39.974477 5.27845429,40.1709825 5.05659325,40.7076749 L3.50145307,44.4835384 L1.3525705,40.6294953 C1.25938119,40.4225563 1.09940188,40.2529038 0.898283625,40.1477399 C0.709125886,40.0685967 0.493695219,40.083481 0.317219017,40.1878862 C0.130564068,40.2846841 0.0103263888,40.4743207 0.0023876473,40.6844323 C-0.0106923503,40.9097143 0.0485315134,41.1332844 0.171424624,41.3225469 L2.8062885,45.905562 C2.72173748,46.1504777 2.59596801,46.3791495 2.43440715,46.5817099 C2.3254474,46.7191196 2.15971339,46.7992633 1.9843462,46.799345 C1.90919279,46.7992985 1.83420838,46.7922245 1.76037221,46.7782154 C1.67662133,46.7590818 1.59463044,46.7329295 1.51526859,46.7000358 C1.45062459,46.6712575 1.38341849,46.6486197 1.31453718,46.632421 C0.917300284,46.4993043 0.646841121,46.6112913 0.517950427,46.9535912 C0.444734782,47.1322905 0.447790309,47.3331593 0.526407404,47.509549 C0.605024499,47.6859386 0.752362396,47.8225006 0.934203982,47.8875205 C1.28168124,48.0566915 1.66584865,48.136575 2.05196099,48.1199464 C2.53965278,48.130313 3.00551526,47.9179917 3.31762536,47.5431077 C3.74830046,46.9875605 4.09500771,46.3717458 4.34663795,45.7153954 L6.30324096,41.1429451 Z" id="Shape" fill="#1946BA"></path>
                    <path d="M8.44193905,48.0039659 C8.64098937,48.0149905 8.83510086,47.9395027 8.97440553,47.7968956 C9.10829241,47.6527129 9.17903591,47.4610208 9.17091101,47.2644291 L9.17091101,44.6020967 L12.695332,44.6020967 L12.695332,47.2644291 C12.6872871,47.4594854 12.7546267,47.6501548 12.8833856,47.7968956 C13.0268871,47.9397319 13.2242452,48.0149891 13.4264169,48.0039659 C13.6254672,48.0149905 13.8195787,47.9395027 13.9588834,47.7968956 C14.09044,47.6514282 14.1601657,47.4604404 14.1532759,47.2644291 L14.1532759,40.8135555 C14.1590242,40.6164569 14.0895192,40.4245627 13.9588834,40.2768631 C13.6568522,39.9923019 13.1854168,39.9923019 12.8833856,40.2768631 C12.7555308,40.4257988 12.6883982,40.6173907 12.695332,40.8135555 L12.695332,43.2941731 L9.17091101,43.2941731 L9.17091101,40.8135555 C9.17736565,40.616721 9.10861263,40.424817 8.97863145,40.2768631 C8.83909045,40.131347 8.64330298,40.0534945 8.44193905,40.0634539 C8.2394828,40.0505779 8.04186527,40.12885 7.90313369,40.2768631 C7.77400593,40.4253184 7.70537715,40.6168756 7.71085412,40.8135555 L7.71085412,47.2644291 C7.70425183,47.4600147 7.77309346,47.6506531 7.90313369,47.7968956 C8.04494204,47.939668 8.24101278,48.0150207 8.44193905,48.0039659" id="Shape" fill="#1946BA"></path>
                    <path d="M16.9166079,48.0039659 C17.1943312,47.9791865 17.4437473,47.8238897 17.5885299,47.5855993 L21.2038082,42.6497196 L21.2038082,47.2644291 C21.1976016,47.4572917 21.2648101,47.6453246 21.3918618,47.7905567 C21.5350965,47.9397298 21.7370064,48.0178635 21.943345,48.0039659 C22.1442132,48.0172972 22.340453,47.9397321 22.4779244,47.7926696 C22.6033618,47.645922 22.6689862,47.4573463 22.6617521,47.2644291 L22.6617521,40.8135555 C22.6617521,40.3170093 22.4251004,40.0634539 21.9687005,40.0634539 C21.6818812,40.0733161 21.4191673,40.2264998 21.26931,40.4712556 L17.6793872,45.4367168 L17.6793872,40.8135555 C17.6855952,40.6171326 17.6177141,40.4255571 17.4892206,40.2768631 C17.1831105,39.9923224 16.7092682,39.9923224 16.4031581,40.2768631 C16.2783262,40.4272687 16.2129286,40.6181998 16.2193304,40.8135555 L16.2193304,47.2644291 C16.207506,47.4624779 16.2734638,47.6573187 16.4031581,47.8074604 C16.5378985,47.9440382 16.7251109,48.0156874 16.9166079,48.0039659" id="Shape" fill="#1946BA"></path>
                    <path d="M28.6462316,46.5656725 C28.2674643,46.7758594 27.8359809,46.8719892 27.4038098,46.8424705 C26.9782135,46.8471158 26.5527272,46.8259474 26.1296936,46.7790817 L26.1296936,44.5013084 L27.393245,44.5013084 C28.511002,44.5013084 29.0540333,44.8816416 29.0540333,45.6613247 C29.0869941,46.0135799 28.9320577,46.3571694 28.6462316,46.5656725 M27.2432247,43.3835514 L26.1296936,43.3835514 L26.1296936,41.2874929 C26.4762194,41.2536855 26.8121804,41.2388948 27.1312377,41.2388948 C28.1708151,41.2388948 28.677926,41.5664039 28.677926,42.2488907 C28.677926,43.013783 28.2088484,43.3835514 27.2432247,43.3835514 M29.2103925,43.7533198 C29.4874851,43.6046464 29.719547,43.3842606 29.8823145,43.1152052 C30.0705751,42.8149999 30.1708649,42.4680118 30.1717903,42.1136611 C30.1717903,40.7148801 29.1892629,40.0091508 27.2580154,40.0091508 C26.6418778,40.0035617 26.0263286,40.0487915 25.4176254,40.1443803 C25.218994,40.1590013 25.0345123,40.2526332 24.9054518,40.4043289 C24.7763913,40.5560246 24.7135234,40.7531237 24.7309126,40.9515319 L24.7309126,47.1615278 C24.7116964,47.3551619 24.7734549,47.5481171 24.9015335,47.694607 C25.0296121,47.8410969 25.2125944,47.9280641 25.4070605,47.934872 C26.0493587,48.0273901 26.6978835,48.0697774 27.3467599,48.0616497 C29.4681739,48.0616497 30.5436717,47.2333685 30.5436717,45.6042747 C30.5525855,45.1781131 30.4178792,44.7613422 30.1612255,44.4210158 C29.914619,44.1121397 29.5846436,43.8804236 29.2103925,43.7533198" id="Shape" fill="#1946BA"></path>
                    <path d="M37.4736384,47.8275335 C37.6015304,47.7049171 37.6707598,47.5333819 37.663805,47.356343 C37.6719727,47.1753721 37.6028365,46.9994588 37.4736384,46.8724746 C37.3359041,46.7492197 37.1554061,46.6847561 36.9707534,46.6928728 L33.7294693,46.6928728 L33.7294693,44.5820236 L36.2206518,44.5820236 C36.4094345,44.5914452 36.5941969,44.5252957 36.7341016,44.3981959 C36.863348,44.2729888 36.9326044,44.0983087 36.9242682,43.9185534 C36.933847,43.7392126 36.8643443,43.5646836 36.7341016,43.441024 C36.5898278,43.32297 36.4068396,43.262727 36.2206518,43.271987 L33.7294693,43.271987 L33.7294693,41.372434 L36.8566534,41.372434 C37.040182,41.3823627 37.2201919,41.3193213 37.3574254,41.1970581 C37.4881551,41.0760798 37.5592171,40.9038317 37.551818,40.7258675 C37.5621505,40.5437036 37.4909129,40.3663839 37.3574254,40.2419992 C37.2205316,40.1187469 37.0406766,40.0542419 36.8566534,40.0623974 L33.0131751,40.0623974 C32.8084002,40.0505575 32.6086181,40.1284648 32.4659179,40.2758066 C32.3351974,40.4249994 32.2664149,40.6184973 32.2736384,40.8167249 L32.2736384,47.2549208 C32.2644648,47.4526981 32.3361704,47.645693 32.4722568,47.7895002 C32.6167854,47.9367183 32.8177604,48.0144903 33.0237399,48.0029094 L36.9707534,48.0029094 C37.1548635,48.0124461 37.3353854,47.9494909 37.4736384,47.8275335" id="Shape" fill="#1946BA"></path>
                    <path d="M40.5661487,41.355974 C40.8793792,41.315717 41.1948365,41.2952511 41.5106428,41.2946981 C42.5565591,41.2946981 43.065783,41.7236294 43.065783,42.6026217 C43.065783,43.5428899 42.5312036,44.0014027 41.4282373,44.0014027 C41.1403467,44.0043208 40.8525222,43.9909172 40.5661487,43.9612564 L40.5661487,41.355974 Z M44.5934547,42.5688143 C44.6527092,41.8262057 44.3459072,41.1013956 43.7715124,40.627002 C43.1170585,40.1821638 42.3345892,39.9646463 41.5444502,40.0079041 C40.9536344,40.002339 40.3636127,40.0525687 39.7822397,40.1579244 C39.3659573,40.2072904 39.0665894,40.5819711 39.1103178,40.9988834 L39.1103178,47.2680423 C39.1021847,47.4614638 39.1687617,47.6506029 39.2962584,47.7962828 C39.4374808,47.9416901 39.6347862,48.0187625 39.8371768,48.007579 C40.0370854,48.01619 40.23155,47.9411603 40.3738692,47.8005087 C40.5044489,47.6545878 40.5733715,47.4637252 40.5661487,47.2680423 L40.5661487,45.2269208 C40.8794305,45.2656241 41.195018,45.2825684 41.5106428,45.2776319 C42.307979,45.3121603 43.0928982,45.0711632 43.7334791,44.5951451 C44.3250158,44.0941195 44.6440605,43.3423655 44.5934547,42.5688143 L44.5934547,42.5688143 Z" id="Shape" fill="#1946BA"></path>
                    <path d="M51.0067599,46.3273092 C50.5289746,46.627164 49.9795698,46.7935176 49.4156993,46.8090646 C48.797396,46.8212088 48.2080329,46.5475759 47.8182999,46.0674149 C47.3686412,45.4845806 47.1443201,44.7591006 47.1865242,44.0241804 C47.1511935,43.3067655 47.3580765,42.5983026 47.7739277,42.0126404 C48.4078163,41.197037 49.4516197,41.0364518 50.8546266,41.5773702 C51.3258171,41.752746 51.6385356,41.6787924 51.7779911,41.3702999 C51.8596114,41.2148792 51.8751364,41.0331189 51.8210564,40.8661074 C51.7669765,40.6990959 51.6478579,40.5609346 51.4906282,40.4828557 C50.8508174,40.0941559 50.1082189,39.9085062 49.3607623,39.9503893 C48.3334241,39.8964198 47.3358225,40.3049171 46.6413799,41.0639204 C45.9552381,41.8972311 45.6048602,42.9566533 45.6588525,44.0347452 C45.6025278,45.1063622 45.9290592,46.1630956 46.580104,47.0161349 C47.2738958,47.7826817 48.2806416,48.1891173 49.3121642,48.1191012 C50.148725,48.1527075 50.9737097,47.9147739 51.6638911,47.4408403 C51.840209,47.3158233 51.9678632,47.1336735 52.0252076,46.9252775 C52.0749562,46.7526503 52.0413598,46.5666979 51.9343503,46.4223925 C51.7293929,46.1308037 51.4187875,46.0927704 51.0067599,46.3273092" id="Shape" fill="#1946BA"></path>
                    <path d="M59.3554961,40.06282 C59.0691179,40.0742019 58.8070681,40.2269982 58.6561056,40.4706217 L55.0682958,45.4360829 L55.0682958,40.8129216 C55.07524,40.6167552 55.0081062,40.4251596 54.8802422,40.2762292 C54.7409541,40.1290361 54.5437371,40.0509227 54.3414368,40.06282 C54.1353394,40.0478903 53.9337364,40.1280644 53.7941796,40.2804551 C53.6696545,40.4293809 53.6042284,40.6188909 53.6103519,40.8129216 L53.6103519,47.2637952 C53.5991636,47.4617581 53.6650428,47.6563666 53.7941796,47.8068265 C53.9272273,47.9433258 54.1131513,48.0150724 54.3034035,48.003332 C54.5817755,47.9788453 54.8323283,47.8245987 54.9795514,47.5870784 L58.5927168,42.6533117 L58.5927168,47.2637952 C58.5868842,47.4569742 58.6548871,47.6451156 58.7828834,47.7899228 C59.0890074,48.0720298 59.5595498,48.0747762 59.868946,47.7962617 C59.9953136,47.6483837 60.0609937,47.4581379 60.0527737,47.2637952 L60.0527737,40.8129216 C60.0527737,40.3184884 59.8182349,40.06282 59.3554961,40.06282" id="Shape" fill="#1946BA"></path>
                    <path d="M68.1155628,40.714859 C68.1244272,40.5350159 68.0550875,40.3601257 67.9253962,40.2352166 C67.7801443,40.1174465 67.5966183,40.0572741 67.4098334,40.0661796 L62.0175538,40.0661796 C61.8341276,40.0582649 61.6542555,40.1184731 61.5125559,40.2352166 C61.3820355,40.359568 61.3125389,40.534854 61.3223893,40.714859 C61.3170275,40.8941047 61.385825,41.0676272 61.5125559,41.1945014 C61.6508419,41.3184578 61.8319923,41.3836416 62.0175538,41.3762162 L63.9826087,41.3762162 L63.9826087,47.2671548 C63.9759062,47.4617433 64.0439518,47.6515148 64.1727753,47.7975083 C64.479469,48.0763895 64.9479183,48.0763895 65.2546119,47.7975083 C65.381499,47.650762 65.4472905,47.4609498 65.4384397,47.2671548 L65.4384397,41.3762162 L67.4098334,41.3762162 C67.5988496,41.3854741 67.7839576,41.3202312 67.9253962,41.1945014 C68.0512838,41.0670751 68.119932,40.893929 68.1155628,40.714859" id="Shape" fill="#1946BA"></path>
                    <path d="M74.084343,46.6936969 L70.840946,46.6936969 L70.840946,44.5786217 L73.3342414,44.5786217 C73.5229823,44.5885666 73.7080939,44.524081 73.8498041,44.3990199 C73.9775415,44.2728092 74.0465202,44.0988297 74.0399707,43.9193775 C74.0493744,43.7394455 73.9799491,43.5643394 73.8498041,43.4397351 C73.7047484,43.3216056 73.521081,43.2613868 73.3342414,43.2706981 L70.840946,43.2706981 L70.840946,41.373258 L73.972356,41.373258 C74.1569525,41.3810029 74.3373146,41.3165878 74.475241,41.1936562 C74.6037298,41.0705668 74.673015,40.8981237 74.6654076,40.7203527 C74.6725832,40.5401711 74.6035538,40.3652967 74.475241,40.2385973 C74.3367968,40.1169672 74.1564123,40.05406 73.972356,40.0632215 L70.1246518,40.0632215 C69.9206964,40.0526137 69.7220556,40.1303762 69.5795075,40.2766306 C69.44822,40.4239425 69.3786178,40.6161049 69.385115,40.813323 L69.385115,47.2515189 C69.3788497,47.4504831 69.4509285,47.6439577 69.5858464,47.7903243 C69.7317736,47.9367345 69.932999,48.0143061 70.1394425,48.0037334 L74.084343,48.0037334 C74.2683283,48.0124041 74.4485342,47.9495592 74.587228,47.8283576 C74.7165969,47.7057141 74.786692,47.5331723 74.7795075,47.355054 C74.7883357,47.1729383 74.7182697,46.9958486 74.587228,46.8690727 C74.4485342,46.7478711 74.2683283,46.6850262 74.084343,46.6936969" id="Shape" fill="#1946BA"></path>
                    <path d="M82.1067956,40.714859 C82.1156601,40.5350159 82.0463203,40.3601257 81.916629,40.2352166 C81.7717198,40.1168193 81.5879464,40.0565657 81.4010662,40.0661796 L76.0087867,40.0661796 C75.8259557,40.0579247 75.6466258,40.1182037 75.5059017,40.2352166 C75.3756078,40.359867 75.3055107,40.5347246 75.3136221,40.714859 C75.3082604,40.8941047 75.3770579,41.0676272 75.5037887,41.1945014 C75.6424656,41.3178015 75.8233421,41.3828868 76.0087867,41.3762162 L77.9738415,41.3762162 L77.9738415,47.2671548 C77.967139,47.4617433 78.0351846,47.6515148 78.1640081,47.7975083 C78.4707018,48.0763895 78.9391511,48.0763895 79.2458448,47.7975083 C79.3740174,47.651261 79.4413109,47.4614781 79.4338984,47.2671548 L79.4338984,41.3762162 L81.4010662,41.3762162 C81.5900824,41.3854741 81.7751904,41.3202312 81.916629,41.1945014 C82.0425167,41.0670751 82.1111649,40.893929 82.1067956,40.714859" id="Shape" fill="#1946BA"></path>
                    <path d="M93.0018838,47.2642178 L93.0018838,40.8133442 C93.0018838,40.3146851 92.767345,40.0632426 92.3046063,40.0632426 C92.0192526,40.0743158 91.7583458,40.2273706 91.6094417,40.4710443 L88.0174059,45.4365055 L88.0174059,40.8133442 C88.0240968,40.6175827 87.9578308,40.426315 87.8314653,40.2766518 C87.6918892,40.1285821 87.4936236,40.0503602 87.2905469,40.0632426 C87.0858505,40.0478874 86.8852718,40.1264085 86.7454027,40.2766518 C86.62059,40.4270681 86.5551949,40.6179917 86.561575,40.8133442 L86.561575,47.2642178 C86.5497664,47.4622645 86.6157222,47.6570995 86.7454027,47.8072491 C86.8803965,47.9421045 87.0661763,48.0134992 87.2567395,48.0037546 C87.5353272,47.9782522 87.7857356,47.823312 87.9328874,47.5853881 L91.5460528,42.6495083 L91.5460528,47.2642178 C91.5401205,47.4566656 91.6064547,47.6443612 91.7319935,47.7903454 C91.876083,47.9395517 92.0786314,48.0176333 92.2855896,48.0037546 C92.485708,48.0162564 92.6809609,47.9387751 92.8180561,47.7924584 C92.944356,47.6462073 93.0101022,47.4572813 93.0018838,47.2642178" id="Shape" fill="#1946BA"></path>
                    <path d="M100.363212,40.06282 L94.9709321,40.06282 C94.7872883,40.0539548 94.6072574,40.1159822 94.4680471,40.2360829 C94.3361949,40.357904 94.2656739,40.532269 94.2757676,40.7114994 C94.269871,40.8904302 94.3378832,41.0638995 94.4638212,41.1911418 C94.6030163,41.3149834 94.7847618,41.3801088 94.9709321,41.3728566 L96.935987,41.3728566 L96.935987,47.2637952 C96.9289229,47.4590763 96.9969802,47.6496368 97.1261536,47.7962617 C97.4330887,48.0724162 97.8989422,48.0724162 98.2058773,47.7962617 C98.3359262,47.6501544 98.4041133,47.4592305 98.3960439,47.2637952 L98.3960439,41.3728566 L100.363212,41.3728566 C100.552371,41.3831066 100.737846,41.3177344 100.878774,41.1911418 C101.005328,41.0641512 101.074094,40.8907083 101.068941,40.7114994 C101.077781,40.5329004 101.008348,40.3593166 100.878774,40.2360829 C100.73537,40.1145772 100.550891,40.0525802 100.363212,40.06282" id="Shape" fill="#1946BA"></path>
                    <path d="M108.904692,40.06282 C108.603259,40.0745865 108.33172,40.2483393 108.194737,40.5171069 L105.95711,44.1260463 L103.675111,40.5276717 C103.532992,40.2473907 103.247662,40.0685516 102.933461,40.06282 C102.750294,40.0564527 102.572467,40.1251413 102.441141,40.2529866 C102.303193,40.4104408 102.234626,40.6169029 102.250974,40.8255993 L102.250974,47.2637952 C102.250974,47.7561154 102.481287,48.003332 102.933461,48.003332 C103.387748,48.003332 103.618061,47.7561154 103.618061,47.2637952 L103.618061,42.8498171 L105.213347,45.3557903 C105.346621,45.6071354 105.605091,45.7670639 105.889495,45.7741568 C106.174166,45.7651553 106.430424,45.5991979 106.555078,45.3431126 L108.131348,42.7991061 L108.131348,47.2637952 C108.122995,47.459653 108.192067,47.6509286 108.323628,47.7962617 C108.464391,47.9393026 108.65996,48.0147584 108.86032,48.003332 C109.06196,48.014952 109.258904,47.9395593 109.401239,47.7962617 C109.529114,47.6491304 109.595667,47.4585456 109.587179,47.2637952 L109.587179,40.8129216 C109.596872,40.6182254 109.535274,40.4266705 109.413916,40.2741162 C109.285023,40.1300743 109.0977,40.0523468 108.904692,40.06282" id="Shape" fill="#1946BA"></path>
                    <path d="M116.767997,46.0386997 C116.351947,46.5279812 115.74207,46.809942 115.099813,46.809942 C114.457556,46.809942 113.84768,46.5279812 113.431629,46.0386997 C112.642791,44.8198026 112.642791,43.2514205 113.431629,42.0325234 C113.84768,41.5432419 114.457556,41.2612811 115.099813,41.2612811 C115.74207,41.2612811 116.351947,41.5432419 116.767997,42.0325234 C117.551161,43.2530903 117.551161,44.8181328 116.767997,46.0386997 M117.892093,41.104933 C116.345848,39.5667596 113.847439,39.5667596 112.301195,41.104933 C110.988336,42.840524 110.988336,45.237038 112.301195,46.972629 C113.850905,48.5023805 116.342382,48.5023805 117.892093,46.972629 C119.213373,45.2398735 119.213373,42.8376885 117.892093,41.104933" id="Shape" fill="#1946BA"></path>
                </g>
            </g>
        </g>
    </g>
</svg>