<svg width="174" height="160" version="1.1" viewBox="0 0 174 160" xmlns="http://www.w3.org/2000/svg">
	<g>
		<path d="m0 80v-80h174v160h-174z" style="fill:#f9f9fd"/>
		<path d="m77 153.02c-31.018-3.8711-55.922-26.019-63.464-56.44-2.2628-9.1282-2.2535-26.065.019487-35.235 8.3267-33.594 37.607-56.629 71.929-56.587 13.219.016216 22.771 2.1969 34.396 7.8521 8.1528 3.9661 10.886 5.9867 18.627 13.77 15.105 15.187 21.601 30.763 21.739 52.122.0893 13.785-1.795 21.943-7.969 34.5-3.9459 8.0256-6.076 10.897-13.725 18.5-6.7728 6.7326-11.106 10.074-17.199 13.264-13.405 7.0179-29.807 10.07-44.355 8.2548zm1.4317-24.927c12.512-16.805 18.075-28.628 15.739-33.453-.90679-1.8729-1.0496-1.6415-1.1484 1.8611-.06203 2.2-.69921 5.35-1.416 7l-1.3032 3 .09827-3.1517c.05405-1.7334.43577-2.9444.84827-2.691 1.0492.64451.91127-4.8543-.16439-6.553-1.092-1.7247-4.0856-.72501-4.0856 1.3643 0 2.7-2.8504 1.6422-3.2837-1.2186-.40461-2.6709-.4209-2.6606-.56642.36133-.13255 2.7524-.43822 3.0562-2.6498 2.6334-1.6303-.31166-2.5-1.1443-2.5-2.3936 0-1.0536-1.0125-2.3226-2.25-2.82-2.1628-.86933-2.1434-.90685.5-.96778 2.2836-.052635 2.75.36064 2.75 2.4366 0 1.7444.52895 2.4761 1.75 2.4211 1.0454-.04716 1.2467-.28202.5-.58333-.6875-.27741-1.25-1.1044-1.25-1.8377s.5625-1.5603 1.25-1.8377c.72518-.29262.49048-.53753-.55902-.58333-.99496-.04342-1.5351-.52217-1.2003-1.0639.73628-1.1913-3.8386-.5202-11.297 1.6572-2.9183.852-5.5808 1.2743-5.9167.93842s.25182-.62437 1.306-.64109c1.7958-.02849 1.805-.09544.14564-1.0615-2.6644-1.5512-1.394-2.5045 4.9918-3.7459 3.1786-.61794 6.6793-1.3127 7.7793-1.5439s-.60419-.39493-3.7871-.36383c-3.1829.0311-6.022.43656-6.309.90104-.28706.46448-1.2604.8445-2.1629.8445-3.2277 0 .59346-2.3398 4.9891-3.055l4.2699-.6947-4.14-.12517c-3.437-.10391-5.1351.61987-10 4.2623-3.223 2.4131-7.3114 5.6756-9.0853 7.25-3.0594 2.7153-3.149 2.9911-1.7419 5.3625l1.4834 2.5-.58916-2.6409c-.32599-1.4612-.10627-2.9393.49187-3.309.64818-.4006 1.081.20303 1.081 1.5075 0 1.8057.38263 2.0516 2.25 1.4463 1.2375-.40114 4.5-1.0161 7.25-1.3666 3.8815-.49473 5.2208-1.1406 5.9871-2.8873.54292-1.2375 1.5554-2.25 2.25-2.25.69458 0 1.5891-.03375 1.9879-.075s.87445.37334 1.0571.92131c.18266.54797-.50225.77812-1.522.51145-1.2498-.32683-2.2845.31931-3.1746 1.9824-.796 1.4873-2.5646 2.7187-4.453 3.1002-1.7229.34812-4.37.89252-5.8825 1.2098-1.5125.31725-2.75 1.0061-2.75 1.5307s.7875.70569 1.75.40234 3.1-.14735 4.75.34666l3 .8982-3.75.21096c-2.0625.11602-4.2.32345-4.75.46095s-1.5625.31314-2.25.39031c-.86982.0976-.79378.43478.25 1.1085 1.7613 1.1368 7.3511.31545 11.237-1.6511 3.8619-1.9546 9.8563-7.3884 9.2439-8.3793-.28219-.45659-.14914-1.0551.29566-1.33 1.9631-1.2132.84262 3.9382-1.9917 9.157-2.9948 5.5143-18.048 25.944-20.218 27.439-.6474.44603-.4089.7407.60704.75.92037.008 3.7368-1.5597 6.2587-3.4847s4.8155-3.5 5.0969-3.5-.39748 1.7821-1.5087 3.9602c-2.1537 4.2216-2.5981 7.0398-1.1101 7.0398.50061 0 3.2006-1.8105 6-4.0232 2.7994-2.2128 5.0898-3.8428 5.0898-3.6221s-.675 2.0166-1.5 3.9911c-.825 1.9745-1.5 4.3346-1.5 5.2446 0 2.5069 1.9701.52284 9.4317-9.4986zm-10.619-7.7748c.72188-.28887 1.5844-.25335 1.9167.0789.33229.3323-.25833.56864-1.3125.52522-1.1649-.048-1.4019-.28494-.60417-.60416zm-.22266-2.1715c-.63576-1.0287 4.1522-5.7366 4.9861-4.9027.71046.71046-2.4733 5.7574-3.632 5.7574-.45428 0-1.0637-.38459-1.3542-.85464zm9.1672-5.7217c-.31699-.31699.14196-1.8279 1.0199-3.3576 1.0658-1.8571 2.1887-2.6263 3.3792-2.315 1.6369.42805 1.6604.70315.28777 3.3576-1.3947 2.697-3.3427 3.6592-4.6868 2.315zm-2.757-3.1492c0-.49071.68823-1.7657 1.5294-2.8333 1.4811-1.8798 1.5206-1.8646 1.25.48054-.25782 2.2346-2.7794 4.3692-2.7794 2.3528zm12.812-2.9576c.72188-.28887 1.5844-.25335 1.9167.0789.33229.3323-.25833.56864-1.3125.52522-1.1649-.048-1.4019-.28494-.60417-.60416zm-4-1c.72188-.28887 1.5844-.25335 1.9167.0789.33229.3323-.25833.56864-1.3125.52522-1.1649-.048-1.4019-.28494-.60417-.60416zm3.8375-3.3169c.4577-2.2885.23682-3-.93138-3-1.0085 0-1.3629.64432-1.0379 1.8871.53871 2.06-1.1646 3.757-2.1579 2.1498-.87281-1.4122 1.2696-5.037 2.9771-5.037 1.5762 0 3.5 2.987 3.5 5.4343 0 .86116-.66375 1.5657-1.475 1.5657-1.1056 0-1.3247-.75141-.875-3zm-25.15 0c-1.6665-.71611-1.4482-.87115 1.309-.92971 1.9661-.0418 3.0582.33554 2.691.92971-.72049 1.1658-1.2871 1.1658-4 0zm16.973-.31722c-.41324-1.0168-.24694-2.3088.37757-2.9333 1.6871-1.6871 2.6039-.07013 1.4123 2.491-.96466 2.0733-1.1122 2.1098-1.7899.44236zm-2.7177-3.1828c.26285-1.375.65045-2.5.86133-2.5.21088 0 .38342 1.125.38342 2.5s-.3876 2.5-.86133 2.5c-.47373 0-.64627-1.125-.38342-2.5zm-8.3227.6091c.71346-1.1544 4.5674-3.4827 4.5674-2.7593 0 .2311-1.1804 1.1936-2.6231 2.1389s-2.3177 1.2245-1.9443.62039zm-15.433-1.1405c0-1.2889 2.8491-2.4529 3.7642-1.5378.37285.37285.01594 1.0966-.79313 1.6082-1.9358 1.2242-2.971 1.1997-2.971-.070445zm36.683.38138c-1.0653-1.0653-.80245-4.35.34805-4.35 1.4785 0 2.4094 2.9592 1.2847 4.0839-.5222.5222-1.2569.64195-1.6328.26612zm-28.819-2.9215c4.2756-1.8152 5.7238-1.8427 4.2616-.08083-.61517.74124-2.5828 1.3841-4.3724 1.4285l-3.2539.08083zm-6.504-1.1226c.38341-.38341 1.2466-.8115 1.9182-.95131.67158-.13981 2.2336-.55427 3.4711-.92102 1.3881-.41139 2.25-.23908 2.25.44982 0 .61415-.3375 1.1669-.75 1.2284-4.5635.68017-7.4568.76169-6.8892.19411zm4.6392-3.6834c0-.20766.675-.93776 1.5-1.6224 1.2285-1.0196 1.5-.95124 1.5.37756 0 .89234-.675 1.6224-1.5 1.6224s-1.5-.1699-1.5-.37756zm63 20.723c0-5.5916.0224-5.6347 2-3.845 1.8643 1.6872 2.1241 1.6977 3.8287.15499 2.6155-2.367 3.2029-2.0631 2.5286 1.3082-.32595 1.6298-.30613 4.1048.044 5.5.5631 2.2436 1.1546 2.5368 5.1176 2.5368h4.481v-23h-4.6856c-3.4345 0-5.3035.58056-7 2.1743l-2.3144 2.1743-2.3144-2.1743c-1.6965-1.5938-3.5655-2.1743-7-2.1743h-4.6856v23h10zm-9-5.845v-10.5l8.5.33621-7.5.78452v7.8578c0 9.1174.52682 11.021 3.0495 11.021 1.4327 0 1.9195-.93265 2.2183-4.25l.3828-4.25.1747 4.75.17471 4.75h-7zm19.18 5.25.18025-5.25.37454 4.75c.206 2.6125.79989 4.75 1.3198 4.75.51987 0 .94521-.675.94521-1.5s.675-1.5 1.5-1.5c1.1867 0 1.4968-1.4099 1.4847-6.75-.0175-7.7031-.50468-8.8662-3.9847-9.513-1.8523-.34426-1.5285-.49991 1.25-.60082l3.75-.13618v21h-7zm-85.247-8.1017c-1.4117-.73667-3.8867-1.6219-5.5-1.9672-2.8243-.6045-2.8404-.58786-.43335.44761 1.375.59151 3.175 1.4531 4 1.9146.825.46153 2.175.86284 3 .89179.825.029.34501-.55009-1.0667-1.2868zm6.7958.74757c-.33229-.33229-1.1948-.36781-1.9167-.0789-.79773.31922-.56078.55618.60417.60416 1.0542.0434 1.6448-.19292 1.3125-.52522zm-2.5313-35.396c7.1874-15.361 15.897-24.039 25.949-25.856l4.3532-.78673-3.3488-.77991c-2.1222-.49423-3.7522-.37656-4.45.32125-.60564.60564-2.8862 1.1012-5.0678 1.1012-4.711 0-4.1585-1.0197 1.1056-2.0406l3.761-.72938-3.2983-.115c-1.8141-.063249-5.1611.785-7.4378 1.885-4.1561 2.008-9.7639 2.6962-9.7639 1.1982 0-.441 1.4625-.85034 3.25-.90966 1.7875-.05932 4.6-.82073 6.25-1.692s3.675-1.6318 4.5-1.69c2.7084-.19111-3.4114-1.7048-7.3049-1.8068-11.634-.3048-26.706 16.071-31.302 34.011-1.7269 6.7408-1.4261 17.358.58552 20.665.87727 1.4419.9743 1.315.59282-.77588-1.4886-8.159-1.5718-10.688-.52044-15.815.64121-3.1269 1.5955-6.3603 2.1206-7.1853.6772-1.0639.7793-.67585.35123 1.335-.96785 4.5465.18856 6.665 3.6383 6.665 2.2885 0 3.1769-.54848 3.6442-2.25.56812-2.0684.66198-2.0078 1.1628.75.76963 4.238 4.6998 4.8116 5.5841.81492.34255-1.5482.73406-3.2649.87002-3.8149s.13448 5.3-.0033 13l-.2505 14 .76012-11c.66281-9.5916 1.2095-11.96 4.2694-18.5zm-9.4152 7.4493c-.78626-.78625.35521-5.4493 1.3339-5.4493 1.1374 0 1.1574 4.7127.0229 5.4138-.47329.29251-1.0839.30849-1.3568.03551zm-5.697-2.4493c-.030235-.825.38125-2.175.9144-3 1.1813-1.828 1.1813-.24908 0 2.5-.56668 1.3187-.87816 1.4891-.9144.5zm-3.3102-.5579c-.95036-.95036.38792-4.4421 1.7025-4.4421.78845 0 1.0695.91638.76679 2.5-.46299 2.422-1.3174 3.094-2.4693 1.9421zm8.2246-4.4421c-2.3273-.74532-2.3486-.80753-.30902-.90032 1.205-.054824 2.4691.35032 2.809.90032s.47898.95514.30902.90032-1.434-.45997-2.809-.90032zm-7.1875-1.6831c.72188-.28887 1.5844-.25334 1.9167.07895.33229.33229-.25833.56864-1.3125.52522-1.1649-.04798-1.4019-.28494-.60417-.60417zm7.0443-1.074c-1.3896-.29466-1.4715-.80341-.53076-3.2957 1.0996-2.9131 4.7105-4.2344 4.6385-1.6972-.06824 2.4072-2.4796 5.3382-4.1078 4.9929zm5.175-2.9929c.01749-.4125.66255-1.5826 1.4335-2.6001 1.8862-2.4897 3.9204-1.2403 2.2737 1.3965-1.1798 1.8892-3.7719 2.7308-3.7072 1.2036zm5.9682-2.25c0-.55.47656-1 1.059-1s.7809.45.44098 1-.81648 1-1.059 1-.44098-.45-.44098-1zm-4.1875-4.6831c.72188-.28887 1.5844-.25334 1.9167.07895.33229.33229-.25833.56864-1.3125.52522-1.1649-.04798-1.4019-.28494-.60417-.60417zm3.8259-1.8169c.31658-.825 1.4826-1.5 2.5911-1.5 1.6781 0 1.8071.25105.77057 1.5-.68469.825-1.8507 1.5-2.5911 1.5-.78575 0-1.1065-.62446-.77057-1.5zm-4.4063-1.5c1.2261-1.9634 3.7679-2.7729 3.7679-1.2 0 1.2494-2.2606 3.2-3.7085 3.2-1.0581 0-1.0695-.38262-.05945-2zm-4.6218.17845c-.73116-1.183 1.9231-3.5006 3.4328-2.9974.65642.21881.30193 1.1017-.8671 2.1597-1.1079 1.0026-2.2361 1.371-2.5657.83773zm6.0013-4.3594c.23157-.3745-.058161-.97706-.64384-1.339-1.4042-.86786.70478-3.4801 2.8097-3.4801 1.2842 0 1.2393.32403-.27743 2-.99549 1.1-1.3453 2-.77743 2 .5679 0 1.5927-.675 2.2774-1.5 1.3387-1.6131 5-2.0689 5-.62244 0 1.6221-3.0729 3.4469-5.9531 3.535-1.571.04809-2.6669-.21898-2.4353-.59348zm9.8473-1.8856c-.36253-.58659-.36462-1.3611-.0046-1.721.35998-.35998.96754-.1571 1.3501.45085.3826.60795 1.5956 1.3302 2.6956 1.605 1.5616.39016 1.4102.52511-.69098.61568-1.48.0638-2.9876-.36394-3.3501-.95053zm2.5411-1.9335c0-.55.92656-1 2.059-1s1.7809.45 1.441 1-1.2665 1-2.059 1-1.441-.45-1.441-1zm5-.03139c0-.53273.675-.96861 1.5-.96861s1.5.17686 1.5.39301-.675.65203-1.5.96862c-.825.31658-1.5.13973-1.5-.39301zm-14-4.4686c4.4728-2.395 13.673-3.7028 9.6685-1.3743-1.0073.5857-2.6795.84316-3.7158.57215-1.0928-.28577-1.7936-.01077-1.6685.65469.12128.64483-.73094 1.017-1.9456.84959-1.1888-.16382-2.4528.17368-2.809.75-.35618.57632-1.4085 1.0275-2.3386 1.0027-.93004-.024854.33402-1.1295 2.809-2.4548zm-16.07 51.257c-1.1373-3.9656-1.2143-8.0502-.13918-7.3858.43506.26888.60365-1.116.37466-3.0775-.2883-2.4695-.07024-3.3524.70899-2.8708.61894.38252 1.1253 1.9289 1.1253 3.4365 0 3.1182 1.6112 5.141 4.095 5.141 1.2472 0 1.7957-1.0567 2.0764-4 .3197-3.3523.08428-4-1.454-4-1.2197 0-1.5725.41937-1.0517 1.25 1.5367 2.4511 1.4613 5.75-.13145 5.75-1.0761 0-1.5342-1.0085-1.5342-3.3776 0-3.564-2.0932-6.1844-4.2722-5.3482-1.625.62356-2.1779 11.412-.77413 15.104 1.4066 3.6996 2.0909 3.264.97651-.62158zm3.6858-3.315c-.30425-.79287-1.3548-1.3894-2.3346-1.3256-1.6695.10872-1.6715.14472-.03139.57332 1.0737.2806 1.7948 1.4917 1.866 3.134.07792 1.7981.26981 2.0831.58457.86826.25772-.99463.21964-2.4571-.08462-3.25zm28.884 2.5584c.33992-.55 2.6165-1 5.059-1s4.441-.35964 4.441-.7992c0-.43956-1.6875-.64266-3.75-.45134-5.8447.54216-8.25 1.2039-8.25 2.2696 0 1.2787 1.706 1.2657 2.5-.019052zm16.5-.96862c0-.53274-.675-.70959-1.5-.39301-.825.31658-1.5.75246-1.5.96862s.675.39301 1.5.39301 1.5-.43588 1.5-.96862zm6-.031385c-.825-.53316-2.175-.94464-3-.9144-.98906.03625-.81874.34772.5.9144 2.7491 1.1813 4.328 1.1813 2.5 0zm44.365-2.0726c2.9174-2.2948 3.4587-5.9988 1.1559-7.91-1.0744-.89169-1.2112-1.7278-.5-3.0567 1.4629-2.7334 1.185-6.0756-.676-8.132-1.3898-1.5358-3.2323-1.8287-11.5-1.8287h-9.845v23h9.3651c7.9603 0 9.7604-.31091 12-2.0726zm-20.365-.92742c0-1.1.20917-2 .46482-2s.94648.9 1.5352 2c.85431 1.5963.76049 2-.46482 2-.86851 0-1.5352-.86852-1.5352-2zm6.5-.19414c1.65-.46864 4.4822-.59259 6.2937-.27545 1.8116.31714 4.1255.31264 5.142-.01001 2.0229-.64204 3.4038-4.1405 1.9331-4.8974-.50536-.26012-.34509-.35691.35616-.21508 1.8856.38136 2.0938 3.1305.36779 4.8565-1.0965 1.0965-3.6305 1.4916-9.3 1.4503-6.041-.04401-7.1184-.24832-4.7928-.90884zm2.5-4.841c0-2.7253.20419-2.9259 2-1.9648 2.3962 1.2824 2.6122 3.5511.41821 4.393-2.3627.90667-2.4182.85096-2.4182-2.4282zm0-8.4648c0-2.9485 1.5149-3.275 2.9296-.63148 1.0816 2.0209.51546 3.1315-1.5963 3.1315-.75555 0-1.3333-1.0833-1.3333-2.5zm10.824-.82582c-.37205-1.8248-.23268-2.4824.39346-1.8562.53328.53328.79255 1.8049.57615 2.8258-.29142 1.3748-.54288 1.1234-.96961-.9696zm-19.809-2.9242c-.0136-1.5497.98631-1.727 8.7347-1.5488l8.75.20124-7.9694.34477c-4.7708.20639-8.2766.82801-8.7347 1.5488-.52185.82102-.77014.64734-.78058-.54601zm-83.467 14.253c-.0268-2.1983-.38622-3.9983-.79872-4-.92792-.0039-1.0009 6.4126-.08333 7.3302.36666.36667.72609.66667.79872.66667.07263 0 .11013-1.7986.08333-3.9968zm59.319-.48705c.52907-1.9161 2.1876-8.1948 3.6855-13.953l2.7236-10.469 5.0749-.29746c4.8394-.28365 5.1055-.44824 5.7352-3.5475l.66031-3.25h-16.592l-1.0339 3.25c-.56864 1.7875-2.2145 7.9735-3.6575 13.747s-2.7392 10.612-2.8804 10.753c-.14126.14126-2.8649-3.3654-6.0524-7.7926l-5.7956-8.0494-5.6176.29595c-5.2999.27922-5.6355.45148-5.934 3.046-.29954 2.6033-.09821 2.75 3.7728 2.75 3.976 0 4.2617.23527 10.316 8.4943 6.0994 8.32 6.3134 8.4944 10.43 8.5 3.9507.0054 4.2607-.20338 5.1649-3.4781zm-6.1211 1.7607c2.4569-.30502 3.3984-1.0072 3.8701-2.8865.34282-1.3659.81616-2.2906 1.0519-2.0549.23572.23571.13289 1.6067-.2285 3.0466-.56904 2.2672-1.145 2.5966-4.2987 2.458l-3.6416-.16004zm-22.561-18.027c.2504-1.3186 1.501-1.8251 5.0733-2.0548 2.6076-.16764 4.741.10746 4.741.61133s-1.1175.7025-2.4833.4414c-1.3658-.26109-3.2783-.11682-4.25.32061-1.3584.61153-.84229.95159 2.2333 1.4715l4 .67615-4.8233.14191c-4.0946.12046-4.7731-.1225-4.491-1.6081zm30.18-10.582c.34899-1.0075.63453-2.02.63453-2.25 0-.23002 1.2375-.36601 2.75-.30221 2.0572.08678 2.2462.23399.75.58436-1.1.2576-2.623 1.2179-3.3845 2.134-1.2744 1.5331-1.3341 1.5199-.75-.16615zm8.6345.33179-3.5-.73672 3-.20193c2.5605-.17234 2.707-.31708 1-.98801-1.6306-.64088-1.3073-.86788 1.75-1.2289 2.0625-.24356 3.75-.12 3.75.27458 0 1.4058-1.2248 3.8788-1.857 3.7493-.35365-.072403-2.218-.46316-4.143-.86836zm22.686 1.8257c1.273-1.1959 2.3144-2.7974 2.3144-3.559s.43526-1.1157.96725-.78691c.53198.32878.70073 1.9303.375 3.559l-.59225 2.9612h10.25v-23l-3.75.0068c-3.1997.0058-4.1169.54786-6.25 3.6935l-2.5 3.6867-.31037-3.6935-.31036-3.6935h-9.8793v23h3.6856c2.4077 0 4.488-.75385 6-2.1743zm-8.6856-9.3257v-10.5h3.441c1.8925 0 3.7489.49821 4.1252 1.1071.45321.73331.0142.89448-1.3001.47732-3.9698-1.26-4.7629.03888-5.0552 8.2784-.29294 8.2576.94865 11.057 4.3283 9.7604.89997-.34535 1.3051-.18047.95372.38812-.33602.5437-1.9344.98855-3.5519.98855h-2.941zm14 9.6732c0-.45474 1.318-.63336 2.929-.39693 2.682.39364 2.9636.14719 3.34-2.9232l.41101-3.3531.16003 3.75c.15575 3.6495.06627 3.75-3.34 3.75-1.925 0-3.5-.37206-3.5-.82681zm6-15.79c0-3.3185-.20608-3.5772-2.5-3.1387-1.375.26285-2.5.09031-2.5-.38342 0-.47373 1.35-.86133 3-.86133 2.8333 0 3 .22222 3 4 0 2.2-.225 4-.5 4s-.5-1.6275-.5-3.6166zm-30.001 3.6179c3.3951-3.6345 5.5372-11.466 4.1125-15.035-.83824-2.1001-.99385-1.678-1.0478 2.8426-.0397 3.3276-.44269 5.0746-1.0797 4.6809-.55897-.34546-.75742-1.047-.44098-1.559.90334-1.4616-.24091-1.0898-1.9713.64053-1.4286 1.4286-1.5714 1.1104-1.5714-3.5 0-4.627-.19719-5.0613-2.25-4.9554-1.6932.08729-1.8169.22918-.5.57332 1.2984.33932 1.75 1.4885 1.75 4.4535 0 3.5722-.23871 3.9623-2.25 3.6767-1.9523-.27727-2.2097-.82807-1.9451-4.1625.19872-2.5048-.06242-3.6159-.75-3.191-.58018.35857-1.0904 1.6379-1.1338 2.8429s-.30592 1.6285-.58333.94098c-.27741-.6875-1.1044-1.25-1.8377-1.25s-1.5455.5625-1.8048 1.25c-.25932.6875-.26097-.775-.0037-3.25.34935-3.3606.19831-4.1202-.59654-3-.58539.825-1.0712 2.5348-1.0797 3.7997-.01832 2.7509-2.2591 7.3278-4.4967 9.1849-2.1196 1.7591-.05096 3.1872 3.3722 2.328 1.7772-.44605 2.204-.27499 1.6302.65344-.53927.87256-2.3457 1.0863-5.8992.6979-4.0974-.44782-4.5218-.37216-2.1219.37823 1.65.51591 3.9 1.0994 5 1.2966s3.125.84817 4.5 1.4465c1.375.59838 4.232 1.1165 6.3488 1.1513 3.033.04995 4.4425-.57221 6.6499-2.9352zm-12.249 1.3305c-1.8553-.50735-2.4422-2.3319-.75-2.3319 2.0469 0 2.4935.22318 2.2431 1.1208-.1424.51034.97199.63149 2.5.27178 1.5163-.35695 3.0494-.70381 3.4069-.77079.3575-.066981.58578.32822.50728.87822-.15487 1.0852-5.0846 1.6038-7.9073.8319zm7.2653-4.0819c.0084-.4125.43395-1.412.94563-2.221 1.1521-1.8218 2.5038-.68243 1.694 1.4279-.59808 1.5586-2.6679 2.1805-2.6396.79313zm-14.738-9.706c2.6657-5.59 8.5943-11.534 11.589-11.618 3.9338-.1112-13.734-4.8247-18.288-4.8789-3.353-.03991-4.528.58635-8.1059 4.3204-2.3014 2.4019-4.6679 5.7541-5.2589 7.4493l-1.0745 3.0822 5.6803 1.6016c3.1242.88089 6.8053 1.9932 8.1803 2.4718 4.3675 1.5201 5.5893 1.1125 7.2776-2.4279zm-18.639-4.044c.31658-.825.75246-1.5.96862-1.5s.39301.675.39301 1.5-.43588 1.5-.96862 1.5c-.53274 0-.70959-.675-.39301-1.5zm4.3616-2.5c1.2632-2.3603 3.4893-2.7174 2.607-.41821-.33384.86998-.60699 1.77-.60699 2 0 .23002-.69083.41821-1.5352.41821-1.2253 0-1.3191-.4037-.46482-2zm16.5-1c.99549-1.1 2.035-2 2.31-2s-.31449.9-1.31 2-2.035 2-2.31 2 .31449-.9 1.31-2zm-3.5-1.893c0-.96183 2.432-2.1269 4.3318-2.0752.64252.01749.2947.69249-.77292 1.5-2.2036 1.6667-3.5589 1.8858-3.5589.57519zm-8.4426-2.0142c-.63929-1.0344 1.1747-2.6191 3.9426-3.4443 2.5818-.76971 11.744 1.5829 12.266 3.1497.22033.661-.086895 1.2018-.68273 1.2018-.59583 0-1.0833-.45-1.0833-1 0-1.3125-5.6976-1.2982-6.5101.01631-.34546.55897-1.0951.72772-1.6658.375-.69042-.4267-.63924-.88755.15294-1.3771.8577-.53009.74775-.90578-.39324-1.3436-.87112-.33428-1.5838-.28015-1.5838.12029 0 1.2215-3.8708 3.2272-4.4426 2.302zm26.443 4.4072c0-.825-.43588-1.5-.96862-1.5-.53273 0-.70959.675-.39301 1.5.31658.825.75246 1.5.96862 1.5.21615 0 .39301-.675.39301-1.5zm60.079 61.917c.048-1.1649.28494-1.4019.60416-.60417.28887.72188.25335 1.5844-.0789 1.9167-.3323.33229-.56864-.25833-.52522-1.3125zm.07894-17.417c0-1.375.22698-1.9375.50439-1.25s.27741 1.8125 0 2.5-.50439.125-.50439-1.25zm-91.345-66.683c.72188-.28887 1.5844-.25334 1.9167.078947.33229.33229-.25833.56864-1.3125.52522-1.1649-.047984-1.4019-.28494-.60417-.60417zm7-1c.72188-.28887 1.5844-.25334 1.9167.078947.33229.33229-.25833.56864-1.3125.52522-1.1649-.047984-1.4019-.28494-.60417-.60417z" style="fill:#a2a7dd"/>
		<path d="m77 152.9c-28.72-3.4153-52.48-22.813-61.735-50.4-2.4442-7.2861-2.6864-9.3832-2.7139-23.5-.027778-14.271.18497-16.134 2.6837-23.5 3.8341-11.302 9.0961-19.764 17.765-28.569 20.036-20.349 48.805-27.303 76.554-18.502 24.019 7.6176 43.188 28.452 49.077 53.341 2.1898 9.2553 2.1365 25.846-.1114 34.73-9.4198 37.228-43.64 60.904-81.519 56.4zm7.25-1.5622c-.6875-.27741-1.8125-.27741-2.5 0s-.125.50439 1.25.50439 1.9375-.22698 1.25-.50439zm-6.0304-22.838c10.072-13.528 12.358-17.31 14.743-24.39 2.6958-8.0025 2.5804-9.7208-.88594-13.187-2.1608-2.1608-3.873-2.9231-6.5657-2.9231-2.0035 0-4.503-.46041-5.5544-1.0231-1.5287-.81813-1.7979-.72633-1.3433.45813.61564 1.6043-3.4786 3.1811-5.8205 2.2416-.7111-.28528-.05541-.55422 1.4571-.59764 2.5436-.07302 2.821-.46217 2.7296-3.8289-.0112-.4125-2.3737-.67662-5.25-.58694-5.0776.15832-5.1134.14064-1.2296-.6081l4-.77116-4.3157-.14191c-2.3737-.07805-5.2987.37847-6.5 1.0145-2.5629 1.3569-16.684 12.747-16.684 13.458 0 .26698.69332 1.8261 1.5407 3.4648 1.4712 2.8451 1.7756 2.9573 6.75 2.4889l5.2093-.4905-5.5 1.0867c-4.993.98655-5.2696 1.1731-3 2.0239 4.721 1.7697 13.583-1.2848 19.206-6.6199 1.4885-1.4123 2.9575-2.5677 3.2644-2.5677.30692 0-.7538 2.5875-2.3572 5.75-3.003 5.9231-9.5959 15.271-17.048 24.171-2.3386 2.7932-3.7377 5.0785-3.1092 5.0785 1.8569 0 6.4027-2.6345 8.4508-4.8976 2.9832-3.2964 3.7924-2.4678 1.5946 1.6328-2.0415 3.809-2.624 7.2648-1.2244 7.2648 1.0937 0 5.2229-2.8464 8.4725-5.8404 3.0036-2.7674 3.4817-2.0634 1.25 1.8404-1.5631 2.7344-2.0802 9.0213-.61278 7.45.48797-.5225 4.2376-5.45 8.3324-10.95zm-10.22-10.389c0-1.5126 3.7879-5.6506 4.5122-4.9292.3764.37488-.14737 1.8232-1.1639 3.2186-1.8757 2.5746-3.3483 3.3269-3.3483 1.7106zm8.7187-5.7254c-1.0858-1.0858 2.4446-5.3854 4.422-5.3854 1.801 0 1.8217.17212.35931 3-1.4584 2.8203-3.3852 3.7815-4.7813 2.3854zm-2.1176-3.2218c-.29539-.47794.10921-1.7228.8991-2.7663 1.3889-1.8349 1.4372-1.8253 1.468.29366.03395 2.3386-1.4754 3.9154-2.3671 2.4726zm12.109-6.1636c.28766-1.1.92053-2 1.4064-2 .48585 0 .88337.9.88337 2s-.63287 2-1.4064 2c-.91405 0-1.2233-.70014-.88337-2zm-4.1515.0951c-.36684-.59356-.2229-1.8703.31988-2.8371.93591-1.6671 1.023-1.6641 1.6869.0593.80595 2.0922-.93833 4.5066-2.0068 2.7778zm-30.994-1.3882c.37553-.98622.93469-1.5412 1.2426-1.2333s.000634 1.1148-.68278 1.7931c-.98762.98026-1.1025.8654-.5598-.5598zm26.451-.45692c.0084-.4125.43395-1.412.94563-2.221 1.1521-1.8218 2.5038-.68243 1.694 1.4279-.59808 1.5586-2.6679 2.1805-2.6396.79313zm-22.574-1.7274c2.3461-1.8403 4.8825-2.0006 4.3151-.27264-.22575.6875-1.7257 1.3727-3.3333 1.5226-2.7882.26007-2.8334.20246-.98175-1.25zm36.559-1.8346c0-2.5522-.71928-3.8437-3.1357-5.6303l-3.1357-2.3183.68105 3.6303c.54318 2.8954.36969 3.6303-.85707 3.6303-1.1539 0-1.499-.99912-1.3814-4 .17512-4.4691 1.1927-4.8974 5.8785-2.4743 2.6002 1.3446 2.9503 2.0567 2.9503 6 0 2.4609-.225 4.4743-.5 4.4743s-.5-1.4904-.5-3.3119zm-41.921.72861c.04798-1.1649.28494-1.4019.60417-.60417.28887.72188.25334 1.5844-.07895 1.9167-.33229.33229-.56864-.25833-.52522-1.3125zm26 0c.04798-1.1649.28494-1.4019.60417-.60417.28887.72188.25334 1.5844-.07895 1.9167-.33229.33229-.56864-.25833-.52522-1.3125zm-24.079-.30968c0-1.2501 2.8229-2.2025 3.4622-1.1681.28946.46835-.18294 1.1237-1.0498 1.4563-2.0963.80441-2.4125.76663-2.4125-.28823zm28-1.107-2.5-.80064 2.75-.09968c1.5125-.054824 2.75.35032 2.75.90032s-.1125.95514-.25.90032-1.375-.45997-2.75-.90032zm8-1.0833c0-2.437 2.3368-2.0926 2.8233.4162.19137.98676-.31876 1.6671-1.25 1.6671-.92764 0-1.5733-.855-1.5733-2.0833zm-28.135-.38574c3.7755-1.7178 6.072-2.0365 4.5852-.63628-.5225.49206-2.525 1.181-4.45 1.5309l-3.5.63628zm-2.8648-1.4239c0-1.1091 3.0764-2.3639 3.8642-1.5762.31785.31785-.08406.99655-.89313 1.5082-1.8699 1.1825-2.971 1.2077-2.971.067929zm21.079-.69032c.04798-1.1649.28494-1.4019.60417-.60417.28887.72188.25334 1.5844-.07895 1.9167-.33229.33229-.56864-.25833-.52522-1.3125zm1.9211.083333c0-.825.675-1.5 1.5-1.5s1.5.675 1.5 1.5-.675 1.5-1.5 1.5-1.5-.675-1.5-1.5zm-13-3c.68469-.825 1.9199-1.5 2.7449-1.5 1.22 0 1.2676.28005.25511 1.5-.68469.825-1.9199 1.5-2.7449 1.5-1.22 0-1.2676-.28005-.25511-1.5zm-4.517-.52754c-.66668-1.0787 1.8224-2.3707 3.4939-1.8135.57357.19119.15928.89942-.92065 1.5739-1.2466.7785-2.1861.866-2.5733.23965zm8.517-2.9725c0-.55 1.125-1 2.5-1s2.5.45 2.5 1-1.125 1-2.5 1-2.5-.45-2.5-1zm-8-.39301c0-.21616.69837-.661 1.5519-.98855.88992-.3415 1.2913-.17385.94098.39301-.58726.9502-2.4929 1.4054-2.4929.59554zm58 24.738c0-5.4447.069-5.5926 1.8554-3.9759 1.8116 1.6395 5.1446 1.331 5.1446-.47611 0-.49115.3375-.89362.75-.89437s.59585 2.4742.40745 5.5l-.34255 5.5014h10.185v-23h-4.6856c-3.4345 0-5.3035.58056-7 2.1743l-2.3144 2.1743-2.3144-2.1743c-1.6965-1.5938-3.5655-2.1743-7-2.1743h-4.6856v23h10zm-8.6105 3.2277c-.30123-.785-.34839-2.4725-.10479-3.75.34499-1.8093.473-1.6205.57908.85395.0904 2.1088.72445 3.3304 1.8862 3.634 1.6401.4286 1.6381.46461-.0314.57333-.97977.0638-2.0278-.52627-2.3291-1.3113zm22.36.70734c2.1439-.39344 2.25-.85488 2.25-9.7831v-9.3702l-6.5-.88776 7 .26104v10c0 9.9743-.006 10-2.5 10.096-2.1753.084-2.2077.0429-.25-.31643zm-22.634-18.03c-.10209-1.9802.33373-2.2308 3.634-2.09 3.6028.15375 3.6248.17569.56201.55873-1.9174.2398-3.3657 1.0728-3.634 2.09-.31691 1.2017-.47958 1.04-.56201-.55873zm15.577 15.019c-.25354-.97297-.47766-.41903-.49804 1.231-.0204 1.65.18706 2.4461.46099 1.769.27392-.67703.29059-2.027.037-3zm-70.443-3.9313c-.6875-.27741-1.8125-.27741-2.5 0s-.125.50439 1.25.50439 1.9375-.22698 1.25-.50439zm-10.25-5.0666c-.825-.31405-1.726-.91222-2.0023-1.3293-.27626-.41705-2.3013-1.0843-4.5-1.4827-4.811-.87183-4.3646-.0663 1.0428 1.8815 3.8535 1.3881 8.9381 2.2547 5.4595.93049zm-13.75-4.9455c-1.2375-.86324-2.25-2.0197-2.25-2.57s.7473-.38287 1.6607.37197c1.5169 1.2536 1.5415 1.1811.28436-.83767-.97746-1.5696-1.5992-1.8594-2.1453-1-.53967.84918-.77362.72294-.78436-.42326-.0084-.89835.85962-1.8622 1.929-2.1418 1.5092-.39466 2.0859.13613 2.5769 2.3719.34795 1.5842.96884 3.0881 1.3798 3.3421.94593.58462.84498-3.7534-.10399-4.4688-.38665-.29148-1.0067-2.429-1.3778-4.75-.61046-3.8176-.47752-4.22 1.394-4.22 1.1378 0 2.3907.52089 2.7842 1.1575.49015.79308.03647.97998-1.441.59362-2.4262-.63448-2.9781.71956-.65637 1.6105.825.31658 1.5 1.6882 1.5 3.048 0 1.3598.34578 2.6861.7684 2.9473s.60036-1.2872.39496-3.441c-.30957-3.2462-.064727-3.9159 1.4316-3.9159 1.4039 0 1.5384.26667.60504 1.2-.66.66-1.1478 2.1225-1.084 3.25.09545 1.6868.19702 1.74.57332.3.25153-.9625.87433-1.75 1.384-1.75s.92668-2.2234.92668-4.941.5107-5.2566 1.1349-5.6424c.8116-.50159.9692.54987.55326 3.691-.3199 2.4158-.21718 7.3174.22828 10.892l.80992 6.5.13682-9.6447c.22302-15.721 4.7465-26.919 15.616-38.66 6.8976-7.4502 11.803-9.6595 18.96-8.5391 2.7832.43572 5.8479.69652 6.8104.57955.9625-.11696 1.75.28313 1.75.88909 0 1.0317-2.3128.9014-12-.67592-1.375-.22388-.25.28033 2.5 1.1205s7.1096 2.1806 9.6879 2.9788c7.6363 2.3641 11.56 1.9322 14.897-1.6393 3.4507-3.6939 5.2444-9.6384 4.3489-14.412-.63539-3.3869-5.7446-9.5293-7.8734-9.4654-.58309.01749-.17593.70033.9048 1.5174 1.0807.81709 2.131 2.9403 2.3338 4.7182.47934 4.2006 1.1969 4.8785 1.2165 1.1492.01182-2.2507.23665-2.5742.98469-1.4167.53316.825.97627 2.2875.98469 3.25.0221 2.5271-3.6272 2.2251-4.3022-.35606-.48473-1.8536-1.1106-2.0502-5.2211-1.64-2.5687.25635-5.0359 1.0575-5.4826 1.7804-.55565.89906-.93517.3904-1.2013-1.61l-.38898-2.9243-.75701 3c-.41636 1.65-.95699 3.9911-1.2014 5.2025-.24442 1.2114-1.491 3.4192-2.7701 4.9063l-2.3257 2.7038-6.5835-1.7821c-6.2752-1.6986-10.139-1.7165-14.001-.064964-1.004.42938-1.75.31888-1.75-.25923 0-.55421 1.6875-1.4318 3.75-1.9502l3.75-.94256-5.8514-.78467c-8.9296-1.1975-12.945.41764-20.661 8.3097-13.239 13.541-18.705 30.646-14.413 45.1 1.4437 4.8615 5.2014 10.136 7.1302 10.009.4375-.028848-.21704-.75874-1.4545-1.622zm-4.25-6.7827c0-.14844-.43213-2.5485-.9603-5.3335-.58588-3.0894-.60942-6.7491-.06038-9.3865.86047-4.1334.89812-4.1694.85898-.82288-.09618 8.2221.22876 11 1.2867 11 .71667 0 .90722-1.0889.525-3-.44096-2.2048-.22419-3 .81774-3 1.0363 0 1.4075 1.3207 1.3797 4.9083-.03073 3.9669-.40333 5.0038-1.9427 5.4064-1.0476.27395-1.9047.37664-1.9047.2282zm10.667-7.2095c-1.0469-1.0469-.77895-5.3333.33333-5.3333.55 0 1 .6382 1 1.4182 0 .78002.27314 2.13.60699 3 .60519 1.5771-.6747 2.1807-1.9403.91512zm-4.6667-4.3924c0-1.7847.41658-2.8016 1-2.441.55.33992 1 1.7165 1 3.059s-.45 2.441-1 2.441-1-1.3766-1-3.059zm-3.5-.94098c-.33992-.55-.14148-1 .44098-1s1.059.45 1.059 1-.19844 1-.44098 1-.7191-.45-1.059-1zm8.25-1.6623c.6875-.27741 1.8125-.27741 2.5 0 .6875.27741.125.50439-1.25.50439s-1.9375-.22697-1.25-.50439zm-1.6711-3.9211c.04798-1.1649.28494-1.4019.60417-.60417.28887.72188.25334 1.5844-.07895 1.9167-.33229.33229-.56864-.25833-.52522-1.3125zm2.6313-.41667c.28766-1.1.92053-2 1.4064-2 .48585 0 .88337.9.88337 2s-.63287 2-1.4064 2c-.91405 0-1.2233-.70014-.88337-2zm-8.962-.58509c-.94682-.94682.44733-4.4149 1.7748-4.4149.80074 0 1.0899.7642.76266 2.0156-.57127 2.1845-1.6923 3.2445-2.5374 2.3993zm-2.6693-1.9982c.04798-1.1649.28494-1.4019.60417-.60417.28887.72188.25334 1.5844-.07895 1.9167-.33229.33229-.56864-.25833-.52522-1.3125zm10.421-8.4167c1.4842-2.8701 4.5-4.1664 4.5-1.9343 0 2.298-2.1696 4.9343-4.0609 4.9343-1.8897 0-1.912-.15185-.43914-3zm5.5318.25c.01749-.4125.64929-1.5644 1.404-2.5598 1.5236-2.0095 2.9211-.78375 1.9605 1.7196-.60502 1.5767-3.4256 2.2811-3.3645.84024zm5.6066-8.75c.31658-.825 1.1883-1.5 1.9372-1.5.79949 0 1.124.61926.78602 1.5-.31658.825-1.1883 1.5-1.9372 1.5-.79949 0-1.124-.61926-.78602-1.5zm-4.5438-1.25c.73671-.9625 1.4369-1.9076 1.5559-2.1001.11904-.19257.71823-.04001 1.3315.33903 1.4453.89322-.58792 3.5111-2.7269 3.5111-1.2722 0-1.2966-.26579-.16052-1.75zm-4.4843-.07155c-.73116-1.183 1.9231-3.5006 3.4328-2.9974.65642.21881.30193 1.1017-.8671 2.1597-1.1079 1.0026-2.2361 1.371-2.5657.83773zm9.0842-6.3174c1.3397-1.3397 2.7726-1.8958 3.8348-1.4882 2.4779.95087-.011572 3.6271-3.374 3.6271h-2.5998zm43.805 1.1389c.33992-.55 1.293-1 2.118-1s1.2219.45.88197 1-1.293 1-2.118 1-1.2219-.45-.88197-1zm-4-1c-.33992-.55.33508-1 1.5-1s1.8399.45 1.5 1-1.0149 1-1.5 1-1.1601-.45-1.5-1zm-43.238-1.6905c.92976-.92976 1.9713-1.4097 2.3144-1.0665.98418.98418-.52669 2.757-2.3496 2.757-1.5265 0-1.5237-.13154.03521-1.6905zm12.738-.30952c0-.55 1.0125-.99311 2.25-.98469 1.8194.01238 1.963.20081.75.98469-1.9388 1.2529-3 1.2529-3 0zm39-.79422c0-.52849.7269-1.5642 1.6153-2.3015 1.3975-1.1599 1.5661-1.0864 1.25.54469-.37664 1.9436-2.8653 3.4695-2.8653 1.7568zm-44-1.2058c3.5908-1.15 5.2107-1.15 4.5 0-.33992.55-2.054.95514-3.809.90032-3.0474-.095194-3.0785-.13571-.69098-.90032zm10.5-1c.33992-.55 2.054-.96837 3.809-.92972 2.6898.059247 2.8769.20527 1.191.92972-2.7911 1.1994-5.7412 1.1994-5 0zm-12.767-2.1241c.67833-.68342 1.4852-.99067 1.7931-.68278.30789.30789-.24711.86705-1.2333 1.2426-1.4252.54268-1.5401.42782-.5598-.5598zm3.7667-.87591c.33992-.55 1.829-.99311 3.309-.98469 2.1048.011977 2.3642.22649 1.191.98469-1.9759 1.2769-5.2892 1.2769-4.5 0zm40.877-.76531c-.63328-.41448-.9107-2.1512-.6365-3.9847.3509-2.3464 1.0105-3.25 2.3725-3.25 1.5343 0 1.8865.74688 1.8865 4 0 3.9376-1.0779 4.9001-3.6225 3.2347zm8.7804-1.2347c0-1.375.22698-1.9375.50439-1.25s.27741 1.8125 0 2.5-.50439.125-.50439-1.25zm-12.079-3.5833c.04798-1.1649.28494-1.4019.60417-.60417.28887.72188.25334 1.5844-.07895 1.9167-.33229.33229-.56864-.25833-.52522-1.3125zm24.171 58.921c-.6875-.27741-1.8125-.27741-2.5 0-.6875.27741-.125.50439 1.25.50439s1.9375-.22697 1.25-.50439zm18 0c-.6875-.27741-1.8125-.27741-2.5 0-.6875.27741-.125.50439 1.25.50439s1.9375-.22697 1.25-.50439zm-2.9343-3.4874c1.2013-.63234 2.5149-1.6448 2.919-2.25 1.1792-1.766.87704-5.4171-.5593-6.7588-1.0992-1.0268-1.0952-1.6973.0238-3.9402 1.061-2.1269 1.0978-3.2527.17285-5.2828-1.4852-3.2597-2.7794-3.6457-13.843-4.1291l-9.0293-.39446v23.905h9.0657c4.9862 0 10.049-.51737 11.25-1.1497zm-10.316-6.5172c0-1.8171.46455-2.3902 1.7385-2.1449 2.5284.48694 2.753 3.45.3099 4.0889-1.6579.43354-2.0484.062885-2.0484-1.944zm0-8.8331c0-1.6889.45833-2.5139 1.25-2.25.6875.22917 1.25 1.2417 1.25 2.25s-.5625 2.0208-1.25 2.25c-.79167.26389-1.25-.56111-1.25-2.25zm11.158-.5c0-1.375.22698-1.9375.50439-1.25s.27741 1.8125 0 2.5-.50439.125-.50439-1.25zm-18.408-4.7057c1.2375-.23835 3.2625-.23835 4.5 0s.225.43337-2.25.43337-3.4875-.19502-2.25-.43337zm11.519.01274c.97297-.25354 2.323-.23687 3 .03705.67703.27392-.11903.48137-1.769.46099s-2.2039-.2445-1.231-.49804zm-36.964 13.943c.7602-2.6125 2.4556-8.9125 3.7676-14l2.3854-9.25h4.7121c5.0765 0 5.2182-.09775 6.2208-4.2894l.66719-2.7894-17.399.57871-7.0515 27.34-11.885-15.931-5.6114.29577c-5.2932.279-5.6294.45172-5.9279 3.0458-.29912 2.5996-.094823 2.75 3.7355 2.75 3.9271 0 4.2448.26188 10.312 8.5 6.1369 8.3322 6.3437 8.5 10.476 8.5 4.168 0 4.2307-.05318 5.5974-4.75zm-8.3047 3.3635c0-.21258 1.35-.58464 3-.82681 1.65-.24217 3-.06824 3 .3865 0 .45474-1.35.82681-3 .82681s-3-.17392-3-.3865zm-21-17.673c0-.58246.45-.7809 1-.44098s1 .81648 1 1.059-.45.44098-1 .44098-1-.47656-1-1.059zm43.333-12.485c0-.80081.375-1.456.83334-1.456.45833 0 .83333.42344.83333.94098s-.375 1.1727-.83333 1.456c-.45834.28327-.83334-.14018-.83334-.94098zm54.329 19.294c-.27741-.6875-.50439-.125-.50439 1.25s.22698 1.9375.50439 1.25.27741-1.8125 0-2.5zm-37.933-10.354c-.3323-.33229-1.1948-.36782-1.9167-.07895-.79773.31923-.56078.55618.60417.60417 1.0542.04342 1.6448-.19293 1.3125-.52522zm6.5208-.05811c-.6875-.27741-1.8125-.27741-2.5 0-.6875.27741-.125.50439 1.25.50439s1.9375-.22697 1.25-.50439zm-3.9034-6.3377c1.3884-1.65 2.7004-3 2.9157-3s.19323 1.35-.0489 3c-.44025 2.9996-.43965 3 4.6732 3h5.1135v-23h-3.8403c-3.2945 0-4.2183.53128-6.5 3.7381l-2.6598 3.7381v-7.4762h-10v23h3.9111c3.118 0 4.423-.60832 6.4354-3zm-9.2104-.75c.11211-2.2639.21137-2.3631.56149-.56149.24546 1.2631 1.3508 2.3684 2.6138 2.6138 1.8016.35013 1.7024.44938-.56149.56149-2.3962.11866-2.7325-.21757-2.6138-2.6138zm16.361 2.0099c1.6482-.24222 3.3288-.9623 3.7347-1.6002.47905-.7529.74331-.54584.75325.59023.0121 1.3846-.76773 1.7187-3.7347 1.6002-3.401-.13589-3.4711-.19082-.75325-.59023zm-16.328-17.76c.26334-1.5133 1.1978-2.0376 3.8398-2.1547 2.2562-.09994 2.6072.01355.99181.32074-1.375.26148-3.1029 1.2311-3.8398 2.1547-1.2269 1.5377-1.3105 1.5107-.99181-.32074zm19.832-.43045c0-.51175-1.0125-1.1255-2.25-1.3638-1.9292-.37157-1.8578-.45279.5-.56955 1.8383-.09103 2.75.36111 2.75 1.3638 0 .825-.225 1.5-.5 1.5s-.5-.4187-.5-.93045zm4.7162 4.1804c-.22912-1.5125-.41659-.275-.41659 2.75s.18747 4.2625.41659 2.75c.22913-1.5125.22913-3.9875 0-5.5zm-53.807-11.784c3.2211-6.0718 8.6428-10.784 11.729-10.194 1.2993.24838 2.3608.1765 2.3588-.15973-.0056-.95154-13.916-4.4104-19.572-4.8667-4.3797-.35334-5.5131-.04109-8.2696 2.2784-3.2538 2.7379-8.7929 11.173-7.9142 12.051.63925.63925 15.833 5.1941 17.761 5.3243.82594.0558 2.5842-1.9391 3.9073-4.433zm-14.909-5.4655c1.2632-2.3603 3.4893-2.7174 2.607-.41821-.33384.86998-.60699 1.77-.60699 2 0 .23002-.69083.41821-1.5352.41821-1.2253 0-1.3191-.4037-.46482-2zm13-2.893c0-.93541 2.3759-2.107 4.2729-2.107.61014 0 .23583.66069-.83179 1.4682-2.2372 1.6921-3.4411 1.9156-3.4411.63879zm-8-3.607c.68469-.825 1.9199-1.5 2.7449-1.5 1.22 0 1.2676.28005.25511 1.5-.68469.825-1.9199 1.5-2.7449 1.5-1.22 0-1.2676-.28005-.25511-1.5zm8.5-.5c-.33992-.55-.14148-1 .44098-1s1.059.45 1.059 1-.19844 1-.44098 1-.7191-.45-1.059-1zm17.824 6.5985c.31645-.82464-.2323-1.6028-1.3333-1.8908-1.6133-.42188-1.7084-.22878-.69026 1.4015 1.4117 2.2605 1.3496 2.2455 2.0235.48929zm-2.5946-19.203c-.33229-.33229-1.1948-.36782-1.9167-.078947-.79773.31923-.56078.55618.60417.60417 1.0542.043421 1.6448-.19293 1.3125-.52522zm-12-1c-.33229-.33229-1.1948-.36782-1.9167-.078947-.79773.31923-.56078.55618.60417.60417 1.0542.043421 1.6448-.19293 1.3125-.52522z" style="fill:#7985bc"/>
		<path d="m78.186 152.81c-17.02-1.4107-31.636-8.3885-44.637-21.311-9.1382-9.0826-14.394-17.416-18.291-29-2.4619-7.3181-2.6913-9.3212-2.6913-23.5s.2294-16.182 2.6913-23.5c3.7499-11.147 8.9866-19.566 17.742-28.525 8.656-8.8566 18.447-15.023 29.722-18.721 11.314-3.71 29.589-4.3195 41.362-1.3795 26.912 6.7205 48.565 28.66 54.405 55.125 1.8414 8.3445 2.1577 23.835.6432 31.505-1.4501 7.3449-5.4064 17.681-9.2556 24.18-4.5576 7.696-17.989 20.959-25.915 25.59-13.065 7.6334-28.908 10.933-45.776 9.5354zm9.5815-1.5255c-1.5026-.22817-4.2026-.23276-6-.0102s-.56791.40925 2.7321.41486c3.3.006 4.7706-.17648 3.2679-.40466zm-18.039-1.8896c-.33229-.33229-1.1948-.36781-1.9167-.0789-.79773.31922-.56078.55618.60417.60416 1.0542.0434 1.6448-.19293 1.3125-.52522zm10.752-23.956c8.2936-11.248 11.88-17.704 13.681-24.625 1.9688-7.5693-1.3727-12.202-9.5313-13.214-5.6383-.69933-5.9316-1.8789-.36064-1.4504 4.5734.35178 4.8033.24309 5.5876-2.6419.44988-1.6548 2.1264-8.0713 3.7256-14.259l2.9076-11.25h5.2548c4.5135 0 5.2548-.27062 5.2548-1.9182 0-1.055.28018-2.6483.62262-3.5407.55014-1.4337-.40088-1.5887-8.1704-1.3318l-8.793.29072-7.06 27.373-11.65-15.873h-5.8608c-5.7475 0-5.8693.058-6.3011 3-.42968 2.9276-.33878 3 3.7653 3 4.0637 0 4.3954.25212 9.8268 7.4684 5.2689 7.0004 7.3627 11.195 4.3712 8.758-.6875-.56016-2.9985-1.4958-5.1355-2.0793-5.1858-1.4158-8.9637.21834-18.235 7.887-3.9668 3.2812-7.475 5.9658-7.796 5.9658-1.2667 0-.49758-16.932 1.0024-22.068 2.2839-7.8208 7.6779-17.023 13.949-23.797 8.1348-8.7865 8.8965-8.9446 23.23-4.8229 6.6771 1.92 13.175 3.2309 14.633 2.9521 5.5311-1.0573 10.465-10.847 9.109-18.074-.91817-4.8943-5.1193-8.7157-11.054-10.055-2.7244-.61498-8.2321-2.0046-12.239-3.0881-8.2151-2.2211-10.758-1.7688-15.556 2.7668-2.877 2.7199-7.1648 10.013-6.36 10.818 1.2098 1.2098 19.114 5.6312 19.394 4.7895.17745-.53234 1.7816-3.1866 3.5649-5.8984 3.7067-5.6369 9.2054-9.4597 11.01-7.6547.84247.84247.56038 1.1319-1.1033 1.1319-1.9 0-2.0799.29007-1.2 1.9343 1.3368 2.4978 1.2967 4.1191-.04492 1.8157-.5606-.9625-1.6816-1.75-2.491-1.75-1.5613 0-2.5519 1.9691-4.3198 8.5872-.60051 2.248-1.9976 4.9069-3.1046 5.9087-1.8367 1.6622-2.3841 1.6983-6.2586.4128-4.6844-1.5542-13.267-1.8402-15.996-.53295-1.0562.5059-1.75.44346-1.75-.15748 0-.54763 1.6875-1.3374 3.75-1.755 3.5371-.71619 3.6081-.80201 1.25-1.5116-13.525-4.0699-25.617 4.1583-35.344 24.048-4.0385 8.2587-4.1559 8.7839-4.1378 18.5.01891 10.152 1.1002 14.009 5.257 18.75 1.7526 1.9988 3.7403 2.3868 2.5616.5-.42949-.6875-.86257-1.7-.9624-2.25-.09983-.55-.49812-1.7875-.88511-2.75-1.2894-3.2069 1.1264-1.8023 2.5799 1.5.94915 2.1564 2.0193 3.1511 3.1805 2.9562.9625-.16161 1.75.17589 1.75.75s-1.0125 1.0794-2.25 1.1228c-1.8981.0666-1.7807.23585.75 1.0821 1.65.55172 5.9009 2.1247 9.4465 3.4955 4.6929 1.8144 7.4004 2.3134 9.9535 1.8344 4.5107-.84622 9.855-3.593 13.402-6.8881 1.5408-1.4316 3.0279-2.6028 3.3045-2.6028 1.5055 0-7.8115 14.952-15.111 24.25-4.6416 5.9125-7.9795 10.75-7.4174 10.75 1.7506 0 6.3391-2.6979 8.3299-4.8976 2.9832-3.2964 3.7924-2.4678 1.5946 1.6328-2.0415 3.809-2.624 7.2648-1.2244 7.2648 1.0937 0 5.2229-2.8464 8.4725-5.8404 3.0036-2.7674 3.4817-2.0634 1.25 1.8404-.78602 1.375-1.4351 3.85-1.4423 5.5l-.0132 3 2.0092-2.5c1.1051-1.375 5.3473-7.0272 9.4273-12.56zm-12.481-7.1015c0-1.7954 3.7533-5.9124 4.6109-5.0578.43068.42917-.43059 1.9939-1.9139 3.4773-1.4833 1.4833-2.697 2.1946-2.697 1.5805zm9.0318-6.5881c.04456-1.7512 2.4616-4.75 3.8284-4.75 1.4178 0 1.4573 1.5381.10457 4.0657-1.1497 2.1482-3.9828 2.6412-3.933.68426zm-2.4307-2.5864c-.29539-.47794.10921-1.7228.8991-2.7663 1.3889-1.8349 1.4372-1.8253 1.468.29366.03395 2.3386-1.4754 3.9154-2.3671 2.4726zm-23.789-4.8467c.72188-.28887 1.5844-.25335 1.9167.0789.33229.3323-.25833.56864-1.3125.52522-1.1649-.048-1.4019-.28494-.60417-.60416zm35.883-1.2598c.29587-1.1314.96846-2.0571 1.4946-2.0571 1.3276 0 .57707 3.2454-.86127 3.7242-.7451.24807-.97557-.35856-.63337-1.6671zm-39.445.22266c-.6875-.24553-1.232-1.6464-1.21-3.1131l.04004-2.6667 1.5382 2.8384c1.6569 3.0574 1.5841 3.6386-.3683 2.9414zm8 .0309c.9625-.25152 2.5375-.25152 3.5 0 .9625.25153.175.45733-1.75.45733s-2.7125-.2058-1.75-.45733zm27.309-.21562c-.36684-.59356-.2229-1.8703.31988-2.8371.93591-1.6671 1.023-1.6641 1.6869.0593.80595 2.0922-.93833 4.5066-2.0068 2.7778zm-4.5434-1.845c.0084-.4125.43395-1.412.94563-2.221 1.1521-1.8218 2.5038-.68243 1.694 1.4279-.59808 1.5586-2.6679 2.1805-2.6396.79313zm-36.515-1.25c-.33992-.55.11008-1 1-1s1.3399.45 1 1-.78992 1-1 1-.66008-.45-1-1zm13.941-.47736c2.3461-1.8403 4.8825-2.0006 4.3151-.27264-.22575.6875-1.7257 1.3727-3.3333 1.5226-2.7882.26007-2.8334.20246-.98175-1.25zm36.811-3.0226c.0111-2.2.21588-2.9823.45508-1.7383.23919 1.2439.23011 3.0439-.02018 4-.25029.95609-.446-.061659-.4349-2.2617zm-40.252 1.5134c0-1.1749 2.8484-2.0677 3.4567-1.0834.28643.46345-.37416 1.0767-1.468 1.3627s-1.9888.16034-1.9888-.27932zm-7.7276-4.0134c0-2.475.19502-3.4875.43337-2.25s.23835 3.2625 0 4.5-.43337.225-.43337-2.25zm43.728 1.9167c0-2.437 2.3368-2.0926 2.8233.4162.19137.98676-.31876 1.6671-1.25 1.6671-.92764 0-1.5733-.855-1.5733-2.0833zm-51.527.03966c-.32507-.52598.33552-.95633 1.468-.95633 2.4146 0 2.6582.55611.59104 1.3493-.80739.30982-1.7339.13297-2.059-.39301zm48.194.37701c-1.0374-1.0374-.78384-4.3333.33333-4.3333.55 0 1 .4132 1 .91821 0 .50502.27314 1.63.60699 2.5.60519 1.5771-.6747 2.1807-1.9403.91512zm-23.167-1.3333c.33992-.55 1.293-1 2.118-1s1.2219.45.88197 1-1.293 1-2.118 1-1.2219-.45-.88197-1zm-4.5-.89301c0-1.1091 3.0764-2.3639 3.8642-1.5762.31785.31785-.08406.99655-.89313 1.5082-1.8699 1.1825-2.971 1.2077-2.971.067929zm23-.69032c0-1.7659 2.1528-1.4584 2.7708.39583.21771.65312-.31667 1.1875-1.1875 1.1875-.87083 0-1.5833-.7125-1.5833-1.5833zm-50.376-.95533c-.34295-.8937-.59502-2.1506-.56015-2.7931.03486-.64252.49453-.09038 1.0215 1.227s.77902 2.5743.56015 2.7931c-.21887.21887-.67854-.33327-1.0215-1.227zm6.7488.45367c-.62019-.77826-1.438-2.4275-1.8174-3.665-.51587-1.6827-.2867-2.25.909-2.25 1.8952 0 2.8208 1.9931 2.3651 5.0923-.27147 1.846-.5265 1.99-1.4567.82273zm51.677-1.3556c-.65756-.79231-1.8377-1.1942-2.6224-.89301-.78479.30115-1.4269.049403-1.4269-.55944s.70458-1.107 1.5657-1.107c2.1249 0 5.4343 1.8484 5.4343 3.0352 0 1.4265-1.5839 1.1711-2.9507-.47574zm-48.891-1.5594c0-1.375.22697-1.9375.50439-1.25.27741.6875.27741 1.8125 0 2.5-.27741.6875-.50439.125-.50439-1.25zm27.842.5c.68469-.825 1.9199-1.5 2.7449-1.5 1.22 0 1.2676.28005.25511 1.5-.68469.825-1.9199 1.5-2.7449 1.5-1.22 0-1.2676-.28005-.25511-1.5zm-35-.91667c0-.77917-.5625-1.6436-1.25-1.9211-.74674-.30132-.54544-.53617.5-.58333 1.1096-.050059 1.75.65288 1.75 1.9211 0 1.1-.225 2-.5 2s-.5-.6375-.5-1.4167zm30.483.38912c-.66668-1.0787 1.8224-2.3707 3.4939-1.8135.57357.19119.15928.89942-.92065 1.5739-1.2466.7785-2.1861.866-2.5733.23965zm-34.231-5.4725c.0111-2.2.21588-2.9823.45508-1.7383.23919 1.2439.23011 3.0439-.02018 4-.25029.95609-.446-.061659-.4349-2.2617zm42.748 2.5c0-.55 1.1516-1 2.559-1 1.4514 0 2.2915.43284 1.941 1-.33992.55-1.4915 1-2.559 1s-1.941-.45-1.941-1zm-40-1.9182c0-.50502-.27314-1.63-.60699-2.5-.39831-1.038-.054521-1.5818 1-1.5818 1.0475 0 1.607.87047 1.607 2.5 0 1.375-.45 2.5-1 2.5s-1-.4132-1-.91821zm8.6395-.77564c-.96605-.96605-.76652-5.3061.24394-5.3061 1.109 0 2.1067 4.8881 1.1219 5.4967-.39953.24692-1.0142.16118-1.3659-.19053zm3.3758-.88948c.008422-1.0542.47209-2.5917 1.0304-3.4167.74131-1.0955.83408-.69092.34401 1.5-.82247 3.6769-1.3948 4.4751-1.3744 1.9167zm25.746.87607c1.2439-.23919 3.0439-.23011 4 .02018.95609.25029-.061659.446-2.2617.4349-2.2-.0111-2.9823-.21588-1.7383-.45508zm-33.762-4.3518c0-1.7847.41658-2.8016 1-2.441.55.33992 1 1.7165 1 3.059s-.45 2.441-1 2.441-1-1.3766-1-3.059zm4.75-2.6033c.6875-.27741 1.8125-.27741 2.5 0 .6875.27741.125.50439-1.25.50439s-1.9375-.22697-1.25-.50439zm1.25-4.3377c0-1.1.45-2 1-2s1 .9 1 2-.45 2-1 2-1-.9-1-2zm-9.2897-3c.28766-1.1 1.1034-2 1.8128-2 .79742 0 1.0901.76345.76674 2-.28766 1.1-1.1034 2-1.8128 2-.79742 0-1.0901-.76345-.76674-2zm7.2897-6.0657c0-2.0337 2.0781-4.9343 3.5352-4.9343 1.7223 0 1.868 1.3782.42963 4.0657-1.0949 2.0458-3.9648 2.6745-3.9648.86852zm6-1.8118c0-1.2788 2.9404-3.5154 3.6667-2.7891.72629.72629-1.5104 3.6667-2.7891 3.6667-.48266 0-.87756-.3949-.87756-.87756zm5.6384-8.6224c.31658-.825 1.1883-1.5 1.9372-1.5.79949 0 1.124.61926.78602 1.5-.31658.825-1.1883 1.5-1.9372 1.5-.79949 0-1.124-.61926-.78602-1.5zm-4.6231-.25c.03523-1.7254 1.8457-3.4539 2.9214-2.7891.87921.54338.87663 1.059-.01064 2.1281-1.2545 1.5116-2.936 1.8934-2.9108.66097zm-4.386-1.0407c-.7251-1.1732 2.1264-3.7869 3.0853-2.828.36647.36647-.04116 1.3738-.90584 2.2385-.93519.93519-1.8182 1.174-2.1795.5895zm9.2757-6.3377c2.3545-2.5273 6.2122-1.9227 4.0851.6403-.67929.81849-2.3225 1.4882-3.6516 1.4882h-2.4165zm43.595 1.1285c.33992-.55 1.293-1 2.118-1s1.2219.45.88197 1-1.293 1-2.118 1-1.2219-.45-.88197-1zm-4-1c-.33992-.55.33508-1 1.5-1s1.8399.45 1.5 1-1.0149 1-1.5 1-1.1601-.45-1.5-1zm-43.073-1.5215c2.0551-1.5548 3.2035-1.3076 2.1141.45494-.36253.58659-1.4201 1.0522-2.3501 1.0347-1.4846-.02792-1.4558-.20969.23602-1.4897zm12.573-.47853c0-.55 1.0125-.99311 2.25-.98469 1.8194.01238 1.963.20081.75.98469-1.9388 1.2529-3 1.2529-3 0zm20.112-.081c-6.1653-1.2109-6.6702-2.3448-.6119-1.3741 2.75.44062 6.0125.77088 7.25.73392 1.2375-.03696 2.25.33519 2.25.82701 0 1.058-2.8559.99799-8.8881-.18678zm18.888-.71322c0-.52849.7269-1.5642 1.6153-2.3015 1.3975-1.1599 1.5661-1.0864 1.25.54469-.37664 1.9436-2.8653 3.4695-2.8653 1.7568zm-43-1.2058c1.9388-1.2529 3-1.2529 3 0 0 .55-1.0125.99311-2.25.98469-1.8194-.012382-1.963-.20081-.75-.98469zm9.5-1c.33992-.55 1.829-.99311 3.309-.98469 2.1048.011977 2.3642.22649 1.191.98469-1.9759 1.2769-5.2892 1.2769-4.5 0zm-8.5-3c.825-.53316 2.4-.96937 3.5-.96937 1.6561 0 1.7421.16667.5.96937-.825.53316-2.4.96937-3.5.96937-1.6561 0-1.7421-.16667-.5-.96937zm40.377-.76626c-.63336-.414-.91073-2.15-.6365-3.9837.35702-2.3873 1.0028-3.25 2.4329-3.25 1.6321 0 1.8967.5938 1.6365 3.6727-.31587 3.7378-1.4162 4.8792-3.4329 3.561zm1.2848-4.4837c-.27741-.6875-.50439-.125-.50439 1.25s.22697 1.9375.50439 1.25c.27741-.6875.27741-1.8125 0-2.5zm4.0986-1.8319c-.50824-1.8362-1.3622-2.5582-2.9566-2.5-1.481.05409-2.3768-.5969-2.6394-1.9181-.3853-1.939-.336-1.9447 1.6151-.18887 1.1257 1.013 2.1684 1.3576 2.3662.78205.75986-2.2107 3.0004.73745 2.6716 3.5153l-.34229 2.8915zm3.3551 1.4137c-.0638-.64252-.40723-1.9925-.76318-3-.50214-1.4213-.36907-1.5755.59378-.68801.68253.62908 1.026 1.9791.76318 3s-.52998 1.3305-.59378.68801zm-15.037-3.9151c.04798-1.1649.28494-1.4019.60417-.60417.28887.72188.25334 1.5844-.07895 1.9167-.33229.33229-.56864-.25833-.52522-1.3125zm-20.847-1.4167c1.4822-2.3734 3.2443-2.6837 2.3749-.41821-.33384.86998-.60699 1.77-.60699 2 0 .23002-.67881.41821-1.5085.41821-1.2581 0-1.3012-.33189-.25945-2zm12.768-2.893c0-.93541 2.3759-2.107 4.2729-2.107.61014 0 .23583.66069-.83179 1.4682-2.2372 1.6921-3.4411 1.9156-3.4411.63879zm16-.10699c0-1.2529 1.0612-1.2529 3 0 1.213.78387 1.0694.9723-.75.98469-1.2375.008422-2.25-.43469-2.25-.98469zm-24-3.5c.68469-.825 1.9199-1.5 2.7449-1.5 1.22 0 1.2676.28005.25511 1.5-.68469.825-1.9199 1.5-2.7449 1.5-1.22 0-1.2676-.28005-.25511-1.5zm46 90.845c0-5.4151.0776-5.5848 1.8287-4 2.2732 2.0572 4.0576 2.1147 4.8096.15499 1.1833-3.0837 1.8507-1.3271 1.5191 3.9986l-.34255 5.5014h10.185v-23h-4.6856c-3.4345 0-5.3035.58056-7 2.1743l-2.3144 2.1743-2.25-2.0746c-1.437-1.325-3.9662-2.2036-7-2.4315l-4.75-.35687v23.514h10zm-8.5411 3.5885c-.36253-.58659-.44468-1.281-.18255-1.5431.26212-.26213.74306.21781 1.0688 1.0665.67618 1.7621.0999 2.0721-.8862.4766zm20.81.37354c.97297-.25354 2.323-.23687 3 .037.67703.27393-.11903.48137-1.769.46099-1.65-.0204-2.2039-.2445-1.231-.49804zm4.0859-9.807c-.003-4.95.16605-7.1011.37577-4.7802.20972 2.3209.21222 6.3709.006 9-.20713 2.6291-.37873.73017-.38177-4.2198zm-25.104-8.5c.24816-.92334 1.7191-1.5541 3.8261-1.6408 3.1357-.12901 3.1715-.10046.42624.34023-1.6482.26458-3.37 1.003-3.8261 1.6408-.56008.78318-.69848.67271-.42624-.34023zm15.438 14.25c-.25153-.9625-.45733-.175-.45733 1.75s.2058 2.7125.45733 1.75c.25152-.9625.25152-2.5375 0-3.5zm14.044-7.4736c-.21125-2.352-.38706-.67643-.39069 3.7236-.004 4.4.16921 6.3244.38408 4.2764.21488-2.048.21785-5.648.007-8zm-83.984 4.5342c-.9625-.25152-2.5375-.25152-3.5 0-.9625.25153-.175.45733 1.75.45733s2.7125-.2058 1.75-.45733zm38.943-11.042c-.25354-.97297-.47766-.41903-.49804 1.231-.02038 1.65.18706 2.4461.46099 1.769.27392-.67703.2906-2.027.03705-3zm60.969-7.519c-.27741-.6875-.50439-.125-.50439 1.25s.22698 1.9375.50439 1.25.27741-1.8125 0-2.5zm-39.399 1.5461c-1.2299-.23736-3.4799-.2435-5-.01365-1.5201.22985-.51375.42406 2.2362.43157 2.75.0075 3.9937-.18056 2.7638-.41792zm17.986-.0018c-1.2375-.23835-3.2625-.23835-4.5 0s-.225.43337 2.25.43337 3.4875-.19502 2.25-.43337zm-1.4386-4.3332c2.3617-2.2003 2.7783-4.9907 1.1884-7.9613-.65675-1.2271-.66473-2.751-.0233-4.4382 1.1336-2.9815-.31597-7.0808-2.8621-8.094-.888-.35335-5.777-.85819-10.865-1.1219l-9.25-.4794v24.134h9.8114c8.4917 0 10.106-.27427 12-2.039zm-11.811-5.628c0-1.8171.46455-2.3902 1.7385-2.1449 2.5284.48694 2.753 3.45.3099 4.0889-1.6579.43354-2.0484.062885-2.0484-1.944zm0-8.8331c0-1.6889.45833-2.5139 1.25-2.25.6875.22917 1.25 1.2417 1.25 2.25s-.5625 2.0208-1.25 2.25c-.79167.26389-1.25-.56111-1.25-2.25zm11.079-.08333c.048-1.1649.28494-1.4019.60416-.60417.28887.72188.25335 1.5844-.0789 1.9167-.3323.33229-.56864-.25833-.52522-1.3125zm-109.4 13.396c-.31923-.79773-.55618-.56078-.60417.60417-.04342 1.0542.19293 1.6448.52522 1.3125.33229-.33229.36782-1.1948.07895-1.9167zm-10.955-9.5625c-.21574-2.0625-.39226-.375-.39226 3.75s.17652 5.8125.39226 3.75c.21574-2.0625.21574-5.4375 0-7.5zm145-.9777c-.21648-2.0748-.39722-.6223-.40166 3.2277-.004 3.85.17268 5.5475.39359 3.7723.22091-1.7752.22454-4.9252.008-7zm-88.001 5.1235c-.33229-.33229-1.1948-.36782-1.9167-.07895-.79773.31923-.56078.55618.60417.60417 1.0542.04342 1.6448-.19293 1.3125-.52522zm-46.046-7.5833c-.31923-.79773-.55618-.56078-.60417.60417-.04342 1.0542.19293 1.6448.52522 1.3125.33229-.33229.36782-1.1948.07895-1.9167zm41.046-1.4167c-.33229-.33229-1.1948-.36782-1.9167-.07895-.79773.31923-.56078.55618.60417.60417 1.0542.04342 1.6448-.19293 1.3125-.52522zm91.954-4.5833c-.31922-.79773-.55618-.56078-.60416.60417-.0434 1.0542.19292 1.6448.52522 1.3125.33229-.33229.36781-1.1948.0789-1.9167zm-24.766-3.1769c-.22917-.20042-4.9167-.59043-10.417-.8667-5.5-.27627-8.875-.15715-7.5.26471 2.4735.7589 18.72 1.3048 17.917.60198zm-35.234-2.8231c-.31923-.79773-.55618-.56078-.60417.60417-.04342 1.0542.19293 1.6448.52522 1.3125.33229-.33229.36782-1.1948.07895-1.9167zm-30.414-.46844c-.67703-.27392-2.027-.2906-3-.03705-.97297.25354-.41903.47766 1.231.49804 1.65.02038 2.4461-.18706 1.769-.46099zm19.414-1.5316c-.31923-.79773-.55618-.56078-.60417.60417-.04342 1.0542.19293 1.6448.52522 1.3125.33229-.33229.36782-1.1948.07895-1.9167zm36.817-1.8125c2.5322-3.791 3.2697-3.791 2.7133 0-.44025 2.9996-.43965 3 4.6732 3h5.1135v-23h-3.8403c-3.2945 0-4.2183.53128-6.5 3.7381l-2.6597 3.7381v-7.4762h-10v23l4.25-.0029c3.6069-.0024 4.5526-.45598 6.25-2.9971zm-8.9107 1.1445c-.29082-.47055.58263-.64309 1.941-.38342 1.3584.25967 2.4697.64466 2.4697.85554 0 .77375-3.8986.35644-4.4107-.47212zm18.911-.14446c.33992-.55.81648-1 1.059-1s.44098.45.44098 1-.47656 1-1.059 1-.7809-.45-.44098-1zm-16.231-19.693c.97297-.25354 2.323-.23687 3 .03705.67703.27392-.11903.48137-1.769.46099s-2.2039-.2445-1.231-.49804zm21.468 5.443c-.202-2.8875-.36728-.525-.36728 5.25s.16528 8.1375.36728 5.25.202-7.6125 0-10.5zm-29.075 9c-.27741-.6875-.50439-.125-.50439 1.25s.22698 1.9375.50439 1.25.27741-1.8125 0-2.5zm-3.4123-3.4123c-.6875-.27741-1.8125-.27741-2.5 0-.6875.27741-.125.50439 1.25.50439s1.9375-.22697 1.25-.50439zm-23.521-9.9419c-.33229-.33229-1.1948-.36782-1.9167-.07895-.79773.31923-.56078.55618.60417.60417 1.0542.04342 1.6448-.19293 1.3125-.52522zm27.977-6.6458c-.23835-1.2375-.43337-.225-.43337 2.25s.19502 3.4875.43337 2.25c.23836-1.2375.23836-3.2625 0-4.5zm-40.977 2.6458c-.33229-.33229-1.1948-.36782-1.9167-.07895-.79773.31923-.56078.55618.60417.60417 1.0542.04342 1.6448-.19293 1.3125-.52522zm-4-1c-.33229-.33229-1.1948-.36782-1.9167-.07895-.79773.31923-.56078.55618.60417.60417 1.0542.04342 1.6448-.19293 1.3125-.52522zm13.54-20.052c-.67703-.27392-2.027-.2906-3-.03705-.97297.25354-.41903.47766 1.231.49804 1.65.02038 2.4461-.18706 1.769-.46099zm28.46-4.9482c-.3323-.33229-1.1948-.36782-1.9167-.078947-.79773.31923-.56078.55618.60417.60417 1.0542.043421 1.6448-.19293 1.3125-.52522zm-33-2c-.33229-.33229-1.1948-.36782-1.9167-.078947-.79773.31923-.56078.55618.60417.60417 1.0542.043421 1.6448-.19293 1.3125-.52522zm24.521-.058114c-.6875-.27741-1.8125-.27741-2.5 0s-.125.50439 1.25.50439 1.9375-.22697 1.25-.50439zm-9-1.0611c-1.7875-.22183-4.7125-.22183-6.5 0-1.7875.22183-.325.40332 3.25.40332s5.0375-.18149 3.25-.40332z" style="fill:#5c6399"/>
		<path d="m67 151.01c-20.506-5.4525-37.842-19.626-47.469-38.807-10.241-20.405-10.212-46.468.073192-66.698 12.974-25.519 37.534-40.5 66.396-40.5 34.782 0 63.774 22.477 72.125 55.916 2.9082 11.646 2.3273 30.062-1.2966 41.101-7.2883 22.202-25.582 40.499-47.811 47.819-10.648 3.5065-31.089 4.0755-42.017 1.1697zm19-.0326c-5.775-.38935-12.525-.9719-15-1.2946-3.3255-.43353-2.934-.23556 1.5.75853 3.3.73984 10.05 1.3224 15 1.2946l9-.0506-10.5-.70791zm14.25-.63514c-.6875-.27741-1.8125-.27741-2.5 0s-.125.50439 1.25.50439 1.9375-.22698 1.25-.50439zm4.4792-.94189c-.3323-.33229-1.1948-.36781-1.9167-.0789-.79773.31922-.56078.55618.60417.60416 1.0542.0434 1.6448-.19293 1.3125-.52522zm-39.729-1.3959c-.825-.53316-2.175-.94464-3-.9144-.98906.0362-.81874.34772.5.9144 2.7491 1.1813 4.328 1.1813 2.5 0zm-11-4.393c0-.21616-.69837-.661-1.5519-.98855-.88992-.34149-1.2913-.17385-.94098.39301.58726.95021 2.4929 1.4054 2.4929.59554zm13.39-7.107c.49007-2.1909.3973-2.5955-.34401-1.5-.55829.825-1.022 2.3625-1.0304 3.4167-.02044 2.5584.55192 1.7603 1.3744-1.9167zm12.07-9.5c10.97-14.625 14.922-22.425 14.989-29.589.06304-6.6612-1.353-8.2148-9.1055-9.99l-5.844-1.3382 4.7696.21725c5.461.24874 4.4339 2.1529 9.4667-17.55l2.7459-10.75h5.2589c3.5332 0 5.2634-.41019 5.2726-1.25.008-.6875.2898-2.2809.6273-3.5408.60969-2.276.55686-2.2889-8.2048-2l-8.8185.29079-7.1247 27.289-11.522-15.789h-5.9854c-5.2336 0-5.9854.24092-5.9854 1.9182 0 1.055-.2391 2.5413-.53134 3.3029-.40552 1.0568.28396 1.2895 2.9117.98269 1.8937-.22108 4.1229-.01986 4.9538.44714 1.7454.98094 11.666 14.007 11.666 15.318 0 .4827-1.4625.14092-3.25-.75952-6.041-3.0431-9.9626-2.0994-18.337 4.4126-12.725 9.8951-11.417 9.8089-11.389.74979.0314-10.111 1.2301-15.164 5.7358-24.179 3.8609-7.7253 12.663-18.326 17.138-20.64 1.4688-.75954 4.455-1.6349 6.636-1.9451 2.8718-.40857 3.276-.33392 1.4654.2707l-2.5.83485 3 .75675c1.65.41621 6.9276 1.8601 11.728 3.2087 7.6055 2.1366 9.0797 2.2828 11.463 1.1368 6.2489-3.0051 9.819-13.266 6.98-20.061-2.0934-5.0101-4.6038-6.3389-18.501-9.7926-11.653-2.8959-12.286-2.9523-15.352-1.367-1.7586.90943-4.0222 2.6102-5.0301 3.7795-2.2601 2.622-6.0723 9.6742-5.5253 10.221.22079.22079 4.6724 1.6837 9.8924 3.251l9.491 2.8495 2.8536-5.4503c3.3482-6.3949 9.7726-11.439 11.792-9.2579.97108 1.0491.84908 1.1794-.61866.66096-2.7221-.96158-7.196 3.9965-7.9927 8.8578-.35998 2.1965-1.7382 5.3385-3.0628 6.9822-2.2853 2.8359-2.5819 2.9257-5.8092 1.7587-5.41-1.9563-12.39-2.5884-15.729-1.4244-1.6931.59023-3.0784.69664-3.0784.23646 0-.46018 1.6875-1.1784 3.75-1.596 3.5371-.71619 3.6081-.80201 1.25-1.5116-9.9744-3.0015-19.7.91172-27.519 11.073-12.069 15.685-15.562 32.329-9.6645 46.058 1.8929 4.4068 2.269 4.6855 9.8257 7.2819 4.3216 1.4848 9.3352 3.3604 11.141 4.1678 6.1412 2.7455 11.711 1.4255 20.026-4.746l5.3099-3.9412-2.2007 4.3276c-2.9529 5.8068-8.5275 13.945-15.95 23.286-3.3716 4.2428-5.9716 7.8728-5.7778 8.0666.68532.68533 6.7985-2.7873 9.2864-5.2752 2.8401-2.8401 3.2536-1.8805 1.0284 2.3862-1.6109 3.0887-1.9859 6.3643-.72867 6.3643 1.0937 0 5.2229-2.8464 8.4725-5.8404 3.0036-2.7674 3.4817-2.0634 1.25 1.8404-1.5885 2.7788-2.075 8.9957-.58297 7.45.50437-.5225 4.7987-6.125 9.5431-12.45zm-11.428-8.6392c-.0448-1.615 3.6666-5.9899 4.4336-5.2262.35055.34904-.49649 1.924-1.8823 3.5s-2.5339 2.3527-2.5513 1.7262zm9.0002-6.6108c.04456-1.7512 2.4616-4.75 3.8284-4.75 1.5167 0 1.393 2.0826-.25229 4.25-1.5403 2.0291-3.6225 2.3202-3.5762.5zm-2.4307-2.5864c-.29539-.47794.10921-1.7228.8991-2.7663 1.3889-1.8349 1.4372-1.8253 1.468.29366.03395 2.3386-1.4754 3.9154-2.3671 2.4726zm12.399-6.1046c0-1.1325.45-2.059 1-2.059s1 .64844 1 1.441-.45 1.7191-1 2.059-1-.30852-1-1.441zm-30.731.24799c.97297-.25354 2.323-.23687 3 .037.67703.27393-.11903.48137-1.769.46099-1.65-.0204-2.2039-.2445-1.231-.49804zm26.435.0237c-.71633-1.159.95298-4.0067 1.8329-3.1267.35532.35532.21706 1.4126-.30724 2.3494-.5243.93688-1.2109 1.2866-1.5257.77726zm-4.6891-2.0807c.02794-1.3687 1.8663-3.7017 2.4539-3.1142.78775.78775-.46709 3.8642-1.5762 3.8642-.49116 0-.88612-.3375-.8777-.75zm-31.936-1.8333c.04798-1.1649.28494-1.4019.60417-.60417.28887.72188.25334 1.5844-.07895 1.9167-.33229.33229-.56864-.25834-.52522-1.3125zm8.9211.65072c0-1.1668 3.9221-2.4787 4.7964-1.6043.74946.74946-1.7113 2.4991-3.5464 2.5216-.6875.008-1.25-.40437-1.25-.9173zm-21-2.0674c-.90129-.58246-1.0246-.97549-.30902-.98469.65504-.008422 1.4691.43469 1.809.98469.7673 1.2415.42112 1.2415-1.5 0zm18 .0756c0-.4739.675-1.1206 1.5-1.4372.825-.31658 1.5-.18787 1.5.28602s-.675 1.1206-1.5 1.4372c-.825.31659-1.5.18788-1.5-.28602zm36.638-1.5756c-.31658-.825-.18787-1.5.28602-1.5s1.1206.675 1.4372 1.5c.31658.825.18787 1.5-.28602 1.5s-1.1206-.675-1.4372-1.5zm-44.48-1.5c0-1.375.22697-1.9375.50439-1.25.27741.6875.27741 1.8125 0 2.5-.27741.6875-.50439.125-.50439-1.25zm40.288.91287c-.36954-.59792-.23136-1.5277.30707-2.0661.63861-.63861 1.1668-.26065 1.5192 1.0871.5678 2.1713-.67702 2.8386-1.8263.97896zm-51.446-1.4129c-.70675-.85158-1.06-1.7733-.785-2.0483s1.0782.19675 1.785 1.0483 1.06 1.7733.785 2.0483-1.0782-.19675-1.785-1.0483zm28.5.5c.33992-.55 1.293-1 2.118-1s1.2219.45.88197 1-1.293 1-2.118 1-1.2219-.45-.88197-1zm-4.5-.89301c0-1.2501 2.8229-2.2025 3.4622-1.1681.28946.46835-.18294 1.1237-1.0498 1.4563-2.0963.80441-2.4125.76663-2.4125-.28823zm23-.60699c0-.825.40186-1.5.89301-1.5s1.152.675 1.4686 1.5c.35062.91371.0016 1.5-.89301 1.5-.80774 0-1.4686-.675-1.4686-1.5zm-43.617-1.3044c-1.7621-1.1577-2.3906-5.1956-.80876-5.1956.76303 0 1.6749 1.146 2.0265 2.5466.71826 2.8618.34429 3.6753-1.2177 2.6491zm51.991-.66205c-.40896-1.0657-1.2758-1.3823-2.6182-.95625-1.3328.42301-1.777.26509-1.3226-.4702.91794-1.4853 2.7891-1.3958 5.0266.24022 1.2851.93968 1.4921 1.564.68407 2.0634-.64941.40136-1.4272.01588-1.7699-.87716zm-20.933-1.0654c2.5265-1.911 4.1544-1.8907 2.5589.031803-.68469.825-1.9773 1.4857-2.8724 1.4682-1.3673-.02672-1.3172-.26656.31358-1.5zm-28.362-1.0515c.04798-1.1649.28494-1.4019.60417-.60417.28887.72188.25334 1.5844-.07895 1.9167-.33229.33229-.56864-.25833-.52522-1.3125zm23.921-.41667c.825-.53316 2.175-.96937 3-.96937 1.3333 0 1.3333.10771 0 .96937-.825.53316-2.175.96937-3 .96937-1.3333 0-1.3333-.10771 0-.96937zm-34.768-4c0-1.925.2058-2.7125.45732-1.75.25153.9625.25153 2.5375 0 3.5-.25153.9625-.45732.175-.45732-1.75zm43.268 2c.33992-.55 1.518-1 2.618-1s1.7219.45 1.382 1-1.518 1-2.618 1-1.7219-.45-1.382-1zm-40.752-3.5396c-.30638-1.6027-.072702-2.4039.63342-2.1717 1.388.45646 2.1151 4.7113.80503 4.7113-.52414 0-1.1714-1.1428-1.4385-2.5396zm8.919.87297c-1.0469-1.0469-.77895-5.3333.33333-5.3333.55 0 1 1.35 1 3 0 3.1069-.20356 3.4631-1.3333 2.3333zm-4.6667-3.8333c0-1.375.45-2.5 1-2.5s1 1.125 1 2.5-.45 2.5-1 2.5-1-1.125-1-2.5zm6-7.5c0-1.1.45-2 1-2s1 .9 1 2-.45 2-1 2-1-.9-1-2zm-9.2897-3c.28766-1.1 1.1034-2 1.8128-2 .79742 0 1.0901.76345.76674 2-.28766 1.1-1.1034 2-1.8128 2-.79742 0-1.0901-.76345-.76674-2zm7.2897-6.0657c0-2.0337 2.0781-4.9343 3.5352-4.9343 1.7344 0 1.7511.11683.48957 3.4349-.94787 2.4931-4.0248 3.6393-4.0248 1.4994zm6-1.8118c0-1.2788 2.9404-3.5154 3.6667-2.7891.72629.72629-1.5104 3.6667-2.7891 3.6667-.48266 0-.87756-.3949-.87756-.87756zm6-8.6224c.68469-.825 1.6257-1.5 2.0911-1.5s.58715.675.27057 1.5c-.31658.825-1.2576 1.5-2.0911 1.5-1.2337 0-1.284-.27889-.27057-1.5zm-5-.29422c0-.52849.7269-1.5642 1.6153-2.3015 1.3975-1.1599 1.5661-1.0864 1.25.54469-.37664 1.9436-2.8653 3.4695-2.8653 1.7568zm-3.7381-2.8963c.92976-.92976 1.9713-1.4097 2.3144-1.0665.98418.98418-.52669 2.757-2.3496 2.757-1.5265 0-1.5237-.13154.03521-1.6905zm8.7381-4.3095c2.4608-2.1342 3.2786-2.388 4.3247-1.342 1.1694 1.1694-1.496 3.342-4.1001 3.342h-2.5306zm43.5 1c.33992-.55 1.293-1 2.118-1s1.2219.45.88197 1-1.293 1-2.118 1-1.2219-.45-.88197-1zm-4.027-1.0437c-.32507-.52598.33552-.95633 1.468-.95633 2.4146 0 2.6582.55611.59104 1.3493-.80739.30982-1.7339.13297-2.059-.39301zm-43.046-1.4778c2.0551-1.5548 3.2035-1.3076 2.1141.45494-.36253.58659-1.4201 1.0522-2.3501 1.0347-1.4846-.02792-1.4558-.20969.23602-1.4897zm13.046-.5222c-.32507-.52598.33552-.95633 1.468-.95633 2.4146 0 2.6582.55611.59104 1.3493-.80739.30982-1.7339.13297-2.059-.39301zm23.13.21034c-.28327-.45833.81518-.83333 2.441-.83333 1.6258 0 2.956.375 2.956.83333 0 .45833-1.0984.83333-2.441.83333s-2.6727-.375-2.956-.83333zm15.397-1.0442c0-.48266.675-1.4378 1.5-2.1224 1.6282-1.3513 1.8317-1.0281.89301 1.4182-.64255 1.6745-2.393 2.1896-2.393.70423zm-43-1.1224c1.9388-1.2529 3-1.2529 3 0 0 .55-1.0125.99311-2.25.98469-1.8194-.012382-1.963-.20081-.75-.98469zm10-1c1.9701-1.2732 4.2869-1.2732 3.5 0-.33992.55-1.604.99311-2.809.98469-1.7812-.012449-1.9105-.1966-.69098-.98469zm-9-2.393c0-.21616.675-.65203 1.5-.96862.825-.31658 1.5-.13973 1.5.39301 0 .53274-.675.96862-1.5.96862s-1.5-.17686-1.5-.39301zm40.377-1.3732c-.63336-.414-.91073-2.15-.6365-3.9837.35702-2.3873 1.0028-3.25 2.4329-3.25 1.6321 0 1.8967.5938 1.6365 3.6727-.31587 3.7378-1.4162 4.8792-3.4329 3.561zm2.6072-4.4837c.008422-.4125-.43469-.75-.98469-.75s-.99311 1.0125-.98469 2.25c.01238 1.8194.20081 1.963.98469.75.53316-.825.97626-1.8375.98469-2.25zm1.6216-4.3336c-.37373-.97391-.15024-1.4311.58051-1.1875 1.4948.49828 2.3179 2.7711 1.0035 2.7711-.53699 0-1.2498-.7126-1.584-1.5836zm-31.374-1.4164c1.4822-2.3734 3.2443-2.6837 2.3749-.41821-.33384.86998-.60699 1.77-.60699 2 0 .23002-.67881.41821-1.5085.41821-1.2581 0-1.3012-.33189-.25945-2zm27.375.41821c-.93873-2.4463-.7352-2.7695.89301-1.4182 1.6624 1.3796 1.9902 3 .60699 3-.49116 0-1.1662-.7118-1.5-1.5818zm-14.607-3.3112c0-.93541 2.3759-2.107 4.2729-2.107.61014 0 .23583.66069-.83179 1.4682-2.2372 1.6921-3.4411 1.9156-3.4411.63879zm16.5-.10699c-.33992-.55-.16803-1 .38197-1 .55 0 1.2781.45 1.618 1s.16803 1-.38197 1-1.2781-.45-1.618-1zm-24.059-3.5318c2.5265-1.911 4.1544-1.8907 2.5589.031803-.68469.825-1.9773 1.4857-2.8724 1.4682-1.3673-.02672-1.3172-.26656.31358-1.5zm-1.0596 117.98c.3415-.88992.17385-1.2913-.39301-.94098-.5437.33602-.98855 1.0344-.98855 1.5519 0 1.4384.71677 1.1215 1.3816-.61096zm-15.382-6.2332c.000556-1.013-.47584-1.0372-2.2493-.11455-3.1689 1.6488-3.1822 1.7137-.31563 1.548 1.4103-.0815 2.5645-.72659 2.5649-1.4334zm-6.6926-5.1254c-.41851-.58355-4.3067 3.0546-4.3067 4.0298 0 .44511 1.0352-.18714 2.3006-1.405 1.2653-1.2178 2.1681-2.399 2.0061-2.6248zm2.6933-3.0895c.5887-1.1.84537-2 .57037-2s-.98167.9-1.5704 2-.84537 2-.57037 2 .98167-.9 1.5704-2zm30.128.25c1.2439-1.5861 1.2085-1.6214-.37756-.37756-.9625.75485-1.75 1.5424-1.75 1.75 0 .82304.82119.29331 2.1276-1.3724zm4.9023-7.3057c1.5196-2.8394.4831-2.376-1.5185.67881-.9453 1.4427-1.2245 2.3177-.62039 1.9443s1.5666-1.5538 2.1389-2.6231zm28.738 2.3412c-1.5026-.22817-4.2026-.23276-6-.0102s-.56791.40925 2.7321.41486c3.3.006 4.7706-.17648 3.2679-.40466zm8.9497-7.0217c-.22985-1.5201-.42406-.51375-.43157 2.2362-.008 2.75.18056 3.9937.41792 2.7638s.24351-3.4799.0136-5zm14.025-12.972c-.19293-3.7354-.35221-.94159-.35396 6.2084-.002 7.15.1561 10.206.35078 6.7916.19467-3.4146.19611-9.2646.003-13zm-20.742 12.169v-5.539l4.4937 4.1865 1.7532-2.1651c1.7198-2.1239 1.7532-2.0584 1.7532 3.4457v5.6108h10v-24h-3.9233c-2.7773 0-4.836.76799-7.048 2.6293l-3.1247 2.6293-2.202-2.0052c-1.2872-1.1721-4.1755-2.2134-6.952-2.5064l-4.75-.50123v23.754h10zm-5.1875-16.144c.72187-.28887 1.5844-.25334 1.9167.07895.33229.33229-.25834.56864-1.3125.52522-1.165-.04798-1.4019-.28494-.60417-.60417zm-7.0724 4.9696c-.19905-3.1826-.36376-.83651-.36601 5.2135-.002 6.05.1606 8.6539.36191 5.7865.2013-2.8674.20315-7.8174.004-11zm13.949 10.963c-.25153-.9625-.45733-.175-.45733 1.75s.2058 2.7125.45733 1.75c.25152-.9625.25152-2.5375 0-3.5zm-29.689.63197c0-.55-.45-.72189-1-.38197s-1 1.068-1 1.618.45.72189 1 .38197 1-1.068 1-1.618zm2.9455-7.1874c.67094-2.3963 1.0251-5.6704.78701-7.2758-.39186-2.6422-.44707-2.5754-.58271.7055-.08241 1.9933-.81129 5.499-1.6197 7.7904s-1.0952 3.9345-.63717 3.6515c.458-.28306 1.3817-2.4753 2.0526-4.8716zm-37.696 3.5997c-1.2375-.23836-3.2625-.23836-4.5 0-1.2375.23835-.225.43337 2.25.43337s3.4875-.19502 2.25-.43337zm96.669-6.6591c-.11289-1.5779-2.8272 4.5169-2.8345 6.3648-.003.825.65142-.0142 1.4549-1.8648.80347-1.8506 1.4243-3.8756 1.3796-4.5zm-86.919 4.3648c.5887-1.1.84537-2 .57037-2s-.98167.9-1.5704 2-.84537 2-.57037 2 .98167-.9 1.5704-2zm-22.75-.66228c-.6875-.27741-1.8125-.27741-2.5 0s-.125.50439 1.25.50439 1.9375-.22698 1.25-.50439zm-6.5208-1.9419c-.33229-.33229-1.1948-.36781-1.9167-.0789-.79773.31922-.56078.55618.60417.60416 1.0542.0434 1.6448-.19292 1.3125-.52522zm-22.734-6.1082c-1.0896-1.6993-1.1178-1.6971-.57077.04411.31653 1.0075.61103 2.3575.65445 3 .05698.84316.2158.83088.57078-.0441.2705-.66678-.024-2.0168-.65445-3zm141.95-6.3582c.57375-3.5362.97985-9.5795.90245-13.429-.12939-6.4353-.19873-6.181-.85957 3.1525-.39535 5.5839-1.025 11.434-1.3992 13-.3742 1.5661-.90548 3.7475-1.1806 4.8475-.41138 1.6446-.32312 1.721.49675.42946.54836-.8638 1.4664-4.4638 2.0402-8zm-143.94-10.929-.6768-11.5-.16225 8.625c-.13766 7.3174.60428 15.628 1.3087 14.66.11391-.1566-.097452-5.4597-.46969-11.785zm107.92 11.609c-.91868-.86194-8.5884-1.2454-10.44-.52198-1.2692.49591.31983.79749 4.4399.84262 3.5292.03866 6.2292-.10563 6-.32064zm13.583-.66644c-5.8214-1.2041-10.404-1.1732-8.5.057369.825.53316 3.975.92452 7 .86969l5.5-.09969-4-.82737zm-87.794-6.1926c-.23835-1.2375-.43337-.225-.43337 2.25s.19502 3.4875.43337 2.25.23835-3.2625 0-4.5zm-22.971-9.5c-.206-2.6125-.37454-.475-.37454 4.75s.16854 7.3625.37454 4.75c.206-2.6125.206-6.8875 0-9.5zm110.04 12.193c2.3888-1.6732 3.1052-7.1607 1.1854-9.0805-.70724-.70723-.71511-1.8842-.0248-3.7 2.5202-6.6285-2.3834-9.647-15.688-9.6573l-7.25-.005577v24h9.7775c7.2309 0 10.356-.40545 12-1.5567zm-11.777-6.1102c0-1.8171.46455-2.3902 1.7385-2.1449 2.5284.48694 2.753 3.45.3099 4.0889-1.6579.43354-2.0484.062885-2.0484-1.944zm0-8.7183c0-1.8935.39969-2.3986 1.5491-1.9575 1.7732.68043 1.5693 3.4712-.29909 4.0933-.78218.26043-1.25-.53888-1.25-2.1357zm-12.317 12.198c-.31922-.79773-.55618-.56078-.60416.60417-.0434 1.0542.19292 1.6448.52522 1.3125.33229-.33229.36781-1.1948.0789-1.9167zm-17.824-3.8125c0-.94548-.31771-.76064-.85943.5-.47269 1.1-.85943 2.675-.85943 3.5 0 .94548.31771.76064.85943-.5.47269-1.1.85943-2.675.85943-3.5zm46.834.26903c-.25354-.97297-.47766-.41903-.49804 1.231-.0204 1.65.18706 2.4461.46099 1.769.27392-.67703.29059-2.027.0371-3zm-89.892-5.769c0-1.5837-.16667-1.4796-.80064.5-.44035 1.375-.80064 3.4-.80064 4.5 0 1.5837.16667 1.4796.80064-.5.44035-1.375.80064-3.4.80064-4.5zm14.929 5.8958c-.33229-.33229-1.1948-.36782-1.9167-.07895-.79773.31923-.56078.55618.60417.60417 1.0542.04342 1.6448-.19293 1.3125-.52522zm7.6417-1.1868c.26888-.43506-1.0546-.61082-2.941-.39059s-3.4299.57618-3.4299.79101c0 .75258 5.8869.38258 6.3708-.40042zm21.312-3.3965c-.31923-.79773-.55618-.56078-.60417.60417-.04342 1.0542.19293 1.6448.52522 1.3125.33229-.33229.36782-1.1948.07895-1.9167zm18 0c-.31922-.79773-.55618-.56078-.60416.60417-.0434 1.0542.19292 1.6448.52522 1.3125.33229-.33229.36781-1.1948.0789-1.9167zm26.5-.02917c-.71756-.71756-1.1833-.7766-1.1833-.15 0 1.3348 1.1826 2.5174 1.85 1.85.28417-.28417-.0158-1.0492-.66667-1.7zm-53.837-7.7833c.56982-3.4655.56185-3.4606-.80838.5-.76113 2.2-1.4185 3.3625-1.4607 2.5833-.04227-.77917-.31244-1.1811-.60039-.89313-.28795.28795-.2209 1.3122.14899 2.2761.85752 2.2347 1.9001.52299 2.7205-4.4663zm11.639 1.0833c.020337-3.2096-.54826-2.3961-1.3396 1.9167-.45185 2.4624-.35075 3.0553.34105 2 .54081-.825.99018-2.5875.9986-3.9167zm42.314-2.1844c-.46573-.46573-.62222 1.054-.34775 3.3772.48674 4.12.50759 4.1408.84678.84678.19127-1.8574-.0333-3.7582-.49903-4.2239zm-70.299 4.6011c-.74579-.89862-2.6993-1.4358-4.8724-1.34l-3.6276.16004 3.5.41126c1.925.22619 3.9275.82918 4.45 1.34 1.518 1.484 1.9142 1.0725.55-.5713zm43.693-3.231c-.25354-.97297-.47766-.41903-.49804 1.231-.0204 1.65.18706 2.4461.46099 1.769.27392-.67703.29059-2.027.037-3zm-59.311.17903c.3415-.88992.17385-1.2913-.39301-.94098-.5437.33602-.98855 1.0344-.98855 1.5519 0 1.4384.71677 1.1215 1.3816-.61096zm105.07-4.9026c-.38252-2.5508-.90004-4.4333-1.15-4.1833s-.14157 2.5416.24094 5.0924c.38252 2.5508.90004 4.4333 1.15 4.1833s.14157-2.5416-.24094-5.0924zm-141.04-3.5455c.43891-2.2818.35466-2.9779-.24204-2-.5034.825-1.1906 3.3-1.5272 5.5-.72921 4.7666.73714 1.8658 1.7692-3.5zm42.501 3c-.036247-.98906-.34772-.81874-.9144.5-1.1813 2.7491-1.1813 4.328 0 2.5.53316-.825.94464-2.175.9144-3zm39.07-1.6952c.01323-1.8969.6608-2.2461 4.7653-2.5698l4.75-.37454-4.7814-.18025c-4.9972-.18838-5.0471-.1453-6.1655 5.3198-.45226 2.2101-.34664 2.6051.40116 1.5.55829-.825 1.022-2.4878 1.0304-3.6952zm-70.695 1.6938c.28786-1.1008.11534-1.7492-.38337-1.441-.49871.30822-.90674 1.2088-.90674 2.0014 0 2.0698.6795 1.7746 1.2901-.5604zm59.511-5.4986c0-1.5837-.16667-1.4796-.80064.5-.44035 1.375-.80064 3.4-.80064 4.5 0 1.5837.16667 1.4796.80064-.5.44035-1.375.80064-3.4.80064-4.5zm46.962 4.9297c-.31369-.31368-5.4512-.74959-11.417-.96868-7.1134-.26125-10.33-.07023-9.3463.55502 1.574 1.0004 21.752 1.4024 20.763.41366zm-75.379-4.4297c.96953-1.3035.88643-1.3202-.63427-.12756-.9625.75484-1.7145 2.1048-1.6711 3 .06604 1.3614.16974 1.3823.63427.12756.30543-.825 1.0574-2.175 1.6711-3zm-29.701-.1875c-.31923-.79773-.55618-.56078-.60417.60417-.04342 1.0542.19293 1.6448.52522 1.3125.33229-.33229.36782-1.1948.07895-1.9167zm40.567 1.4641c-1.7875-.22183-4.7125-.22183-6.5 0-1.7875.22183-.325.40332 3.25.40332s5.0375-.1815 3.25-.40332zm54.509-3.5941 2.241-3.1544v3.2359c0 3.2164.0301 3.2359 5 3.2359h5v-23h-3.8403c-3.2945 0-4.2183.53128-6.5 3.7381l-2.6597 3.7381v-7.4762h-10v23.514l4.259-.33874c3.4402-.27361 4.6899-.94517 6.5-3.4931zm14.982-13.893c-.19583-3.4591-.35767-.88919-.35965 5.7108-.002 6.6.15825 9.4301.35606 6.2892.19781-3.1409.19942-8.5409.004-12zm-119.83 9.7108c.030235-.55-.38125-.325-.9144.5s-.94464 2.175-.9144 3c.05804 1.5838 1.7247-1.6058 1.8288-3.5zm90.775-.25c-.25153-.9625-.45733-.175-.45733 1.75s.2058 2.7125.45733 1.75c.25152-.9625.25152-2.5375 0-3.5zm-20.705.44098c.008422-.44496-.43469-.5309-.98469-.19098s-.99311 1.379-.98469 2.309c.013196 1.4573.14929 1.4837.98469.19098.53316-.825.97626-1.8641.98469-2.309zm18.284-3.3469c-.67703-.27392-2.027-.2906-3-.03705-.97297.25354-.41903.47766 1.231.49804 1.65.02038 2.4461-.18706 1.769-.46099zm-66.269-7.5221c0-.44209-1.35.60884-3 2.3354s-3 3.3817-3 3.678c0 .29633 1.35-.7546 3-2.3354s3-3.2359 3-3.678zm29.5 5.178c.33992-.55 1.829-1.0613 3.309-1.1362 2.3341-.11812 2.3946-.19339.45643-.56753-1.229-.23724-3.2416.27404-4.4725 1.1362-1.2309.86214-1.7144 1.5675-1.0745 1.5675s1.4416-.45 1.7815-1zm11.229.39583c-.33229-.33229-1.1948-.36782-1.9167-.07895-.79773.31923-.56078.55618.60417.60417 1.0542.04342 1.6448-.19293 1.3125-.52522zm29.122-13.896c-.0109-7.5396-.54458-6.1446-1.1477 3-.26836 4.0686-.1229 6.1625.34734 5 .44498-1.1.80515-4.7.80039-8zm-84.723 5.75c1.2439-1.5861 1.2085-1.6214-.37756-.37756-.9625.75484-1.75 1.5423-1.75 1.75 0 .82303.82119.2933 2.1276-1.3724zm53.517-.88071c-2.6706-.82027-5.0824-1.2646-5.3597-.98736-.61545.61545 5.448 2.4298 8.2153 2.4582 1.1.0113-.18502-.6506-2.8556-1.4709zm46.162-1.8958c-.30789-.30789-.86705.24711-1.2426 1.2333-.54268 1.4252-.42782 1.5401.5598.5598.68342-.67833.99067-1.4852.68278-1.7931zm-75.28-1.2804c-.30789-.30789-1.1148-.000634-1.7931.68278-.98027.98762-.8654 1.1025.5598.5598.98622-.37553 1.5412-.93469 1.2333-1.2426zm18.474.17617c-2.475-.78813-6.525-1.6462-9-1.9069-3.576-.37664-3.1841-.17103 1.9087 1.0014 3.5248.81144 6.8998 1.6785 7.5 1.9268.60022.24832 1.7663.44252 2.5913.43156.825-.01096-.525-.66476-3-1.4529zm17.382.07876c.3415-.88992.17385-1.2913-.39301-.94098-.5437.33602-.98855 1.0344-.98855 1.5519 0 1.4384.71677 1.1215 1.3816-.61096zm-31.652-1.0522c-.33229-.33229-1.1948-.36782-1.9167-.07895-.79773.31923-.56078.55618.60417.60417 1.0542.04342 1.6448-.19293 1.3125-.52522zm66.021-.11208c-1.5125-.22912-3.9875-.22912-5.5 0-1.5125.22912-.275.41659 2.75.41659s4.2625-.18747 2.75-.41659zm14.514.01232c-1.2299-.23736-3.4799-.2435-5-.01365-1.5201.22985-.51375.42406 2.2362.43157 2.75.0075 3.9937-.18056 2.7638-.41792zm-104.14-2.0461c1.2439-1.5861 1.2085-1.6214-.37756-.37756-1.6657 1.3064-2.1955 2.1276-1.3724 2.1276.20766 0 .99516-.7875 1.75-1.75zm6-6c1.2439-1.5861 1.2085-1.6214-.37756-.37756-1.6657 1.3064-2.1955 2.1276-1.3724 2.1276.20766 0 .99516-.7875 1.75-1.75zm99.872 1.4243c0-.17913-1.2375-1.4166-2.75-2.75l-2.75-2.4243 2.4243 2.75c2.2659 2.5703 3.0757 3.2086 3.0757 2.4243zm-91.474-8.4812c-.30789-.30789-1.1148-.000634-1.7931.68278-.98027.98762-.8654 1.1025.5598.5598.98622-.37553 1.5412-.93469 1.2333-1.2426zm50.724-.85541c-.6875-.27741-1.8125-.27741-2.5 0-.6875.27741-.125.50439 1.25.50439s1.9375-.22697 1.25-.50439zm-5.5208-1.9419c-.33229-.33229-1.1948-.36782-1.9167-.07895-.79773.31923-.56078.55618.60417.60417 1.0542.04342 1.6448-.19293 1.3125-.52522zm-4.4792-1.0581c-.6875-.27741-1.8125-.27741-2.5 0-.6875.27741-.125.50439 1.25.50439s1.9375-.22697 1.25-.50439zm-6-1.0435c-1.2375-.23835-3.2625-.23835-4.5 0s-.225.43337 2.25.43337 3.4875-.19502 2.25-.43337zm29.52-3.8575c-.86478-.86478-11.015-3.4219-13.27-3.3433-1.1.038352 1.15.88133 5 1.8733 8.022 2.0669 9.0496 2.2495 8.2701 1.47zm-43.041-1.0409c-.33229-.33229-1.1948-.36782-1.9167-.078947-.79773.31923-.56078.55618.60417.60417 1.0542.043421 1.6448-.19293 1.3125-.52522zm9.0208-2.0852c-.9625-.25153-2.5375-.25153-3.5 0-.9625.25153-.175.45732 1.75.45732s2.7125-.2058 1.75-.45732zm14.5-1.0429c-2.3375-.21053-6.1625-.21053-8.5 0-2.3375.21053-.425.38279 4.25.38279s6.5875-.17226 4.25-.38279z" style="fill:#283363"/>
		<path d="m69.405 151.51c-17.827-3.8786-35.681-16.491-45.832-32.378-7.8528-12.289-10.585-21.294-11.276-37.164-.47067-10.805-.24489-13.687 1.643-20.97 7.0352-27.141 28.995-48.625 55.797-54.588 11.135-2.4772 29.102-1.593 39.528 1.9452 19.128 6.4918 34.638 20.145 43.753 38.516 7.0482 14.206 9.0902 34.564 5.0509 50.358-6.8149 26.646-28.499 47.941-55.236 54.244-7.7721 1.8322-25.089 1.8515-33.427.0372zm31.595-.97442c8.7187-2.2008 11.111-3.0619 17.58-6.3277 39.615-20.001 52.637-70.25 27.524-106.21-15.285-21.89-38.325-33.198-64.563-31.688-13.994.80528-24.988 4.5811-36.69 12.602-19.388 13.288-31.851 36.688-31.851 59.799 0 40.171 32.772 73.024 73 73.179 5.225.0202 11.975-.58795 15-1.3515zm-32.89-13.316-.10957-3.2757-2.9503 1.5257c-4.5374 2.3464-6.0497 1.9778-6.0497-1.4743 0-3.4859.08929-3.4489-3.6357-1.5062-6.7383 3.5143-7.723.82158-2.1159-5.7863 4.5597-5.3736 13.052-16.932 16.317-22.208 1.8467-2.9844 1.846-2.9911-.14093-1.2881-3.0359 2.602-8.9449 4.7881-12.942 4.7881-3.6006 0-21.949-5.8665-21.077-6.7388.58433-.58433 13.754 3.6723 15.044 4.8626 1.4838 1.3686 8.2466 1.0298 12.17-.60958 1.9558-.81721 5.3164-2.88 7.4679-4.584 2.1515-1.704 3.9118-2.6964 3.9118-2.2054 0 2.5886-14.155 22.921-21.279 30.567-1.5287 1.6405-2.5647 3.1974-2.3022 3.4599.78052.78052 9.6979-3.8912 10.269-5.3799.28952-.75448.93981-1.3718 1.4451-1.3718s.23214 1.3276-.60699 2.9503c-1.5019 2.9044-2.0664 7.0497-.95994 7.0497 1.3684 0 5.191-2.483 8.1843-5.3162 1.7875-1.6919 3.25-2.6279 3.25-2.08s-.45977 1.4559-1.0217 2.0179-1.4126 3.0144-1.8904 5.45c-.78779 4.0157-.87893 4.1231-.97829 1.1526zm2.6608 1.5257c6.0285-7.4223 17.882-24.103 19.757-27.804 3.2298-6.3736 4.8333-13.209 4.0625-17.318-.67951-3.6221-2.3327-4.699-10.09-6.5724l-4-.96603 8.6844.41038 3.3031-12.756c4.4172-17.059 3.6257-15.744 9.4812-15.744 3.3512 0 5.0359-.41744 5.045-1.25.008-.6875.285-2.2625.61664-3.5.59213-2.2095.44352-2.25-8.2637-2.2492l-8.8666.000811-6.8853 27.794-11.115-15.709-6.25-.04313c-5.5095-.03802-6.25.18414-6.25 1.8751 0 1.055-.29307 2.6819-.65127 3.6154-.52935 1.3795-.24434 1.568 1.5225 1.0073 4.497-1.4273 7.4694.3487 12.869 7.6891 2.8819 3.918 5.0885 7.275 4.9035 7.46-.18496.18496-2.0531-.38105-4.1515-1.2578-5.6512-2.3612-9.4221-1.1698-18.231 5.76-4.2686 3.3581-8.3255 6.5454-9.0154 7.0827-.99166.77247-1.1938-1.1976-.96534-9.4102.28032-10.078.42718-10.669 4.9396-19.876 4.8851-9.9669 11.51-18.423 17.18-21.927l3.3726-2.0844 9.3639 2.5937c5.1501 1.4266 11.01 3.0509 13.022 3.6096 2.7482.76308 4.3562.68033 6.4627-.33258 5.5581-2.6727 9.3122-11.199 7.9684-18.098-1.1414-5.8596-3.4987-7.7136-13.154-10.345-17.219-4.6928-18.06-4.7937-22.206-2.6645-3.6094 1.8535-10.65 11.499-9.9422 13.621.16833.50498 4.602 2.1192 9.8526 3.5871l9.5465 2.669 2.8016-5.351c1.5409-2.943 3.749-5.8475 4.9069-6.4542 2.0337-1.0657 2.0458-1.0361.35528.87101-.9625 1.0858-1.75 2.9692-1.75 4.1853 0 2.8077-3.4912 9.7222-5.2495 10.397-1.3475.51707-13.824-2.2892-14.751-3.3177-.275-.30532-2.6697-1.0384-5.3215-1.6291-11.091-2.4705-20.18 2.9166-29.516 17.494-6.1053 9.5328-7.6671 14.994-7.632 26.687.02492 8.3036.39938 10.7 2.2074 14.127 1.1976 2.2697 2.936 4.4178 3.8631 4.7735.92715.35578 1.4607.87188 1.1857 1.1469-1.2777 1.2777-4.043-1.2048-6.0318-5.4151-1.6164-3.4219-2.2868-7.0378-2.5664-13.841-.47181-11.483 1.9281-19.555 8.8567-29.791 11.403-16.846 20.621-20.109 39.031-13.816 4.7169 1.6124 9.1164 2.7515 9.7767 2.5314 1.321-.44032 5.5486-8.1476 4.8515-8.8447-.23934-.23934-.99414.91435-1.6773 2.5638-2.1855 5.2763-2.9419 5.3992-13.674 2.2233-6.6558-1.9696-9.957-3.437-10.173-4.5221-.55738-2.7939 5.1004-11.793 9.063-14.415 3.2964-2.1815 4.46-2.4136 9.2659-1.8488 3.0229.35528 7.1826 1.2584 9.2438 2.0069 2.0613.74851 6.3071 2.1086 9.4353 3.0224 7.5442 2.2039 10.812 5.9617 10.812 12.432 0 6.4677-1.4796 11.014-4.6674 14.341l-2.7068 2.8253h3.1871c2.6425 0 3.1848.38446 3.1734 2.25-.0343 5.6523-.91978 6.6365-6.2538 6.9513l-5.0596.29866-3.7482 14.25c-2.8439 10.812-3.4213 14.25-2.3932 14.25 4.4791 0 5.7331 9.545 2.418 18.405-2.9034 7.76-20.814 33.595-23.29 33.595-.49716 0-.44706-.5625.11134-1.25zm-13.542-52.054c6.2861-5.0447 11.465-6.6276 16.036-4.902l2.8826 1.0881-2.3859-3.1909c-1.3123-1.755-3.2579-4.4143-4.3236-5.9095-1.6437-2.306-2.6719-2.7233-6.7756-2.75l-4.8379-.031425.70325-4.25c.38679-2.3375.9029-4.5875 1.1469-5 .57092-.96511 11.482-.95217 12.911.01531.59714.40408 3.157 3.5992 5.6885 7.1002l4.6028 6.3655 1.5236-5.3655c2.5277-8.9014 5.3921-20.35 5.1576-20.613-.48385-.54412-16.005-4.2523-17.798-4.2523-2.69 0-12.61 10.318-16.87 17.549-5.9094 10.028-9.111 22.449-7.4708 28.984.60952 2.4285.84205 2.5484 2.3783 1.2258.93653-.80621 4.2805-3.5345 7.4311-6.0629zm10.803 31.665c-.0448-1.615 3.6666-5.9899 4.4336-5.2262.35055.34904-.49649 1.924-1.8823 3.5s-2.5339 2.3527-2.5513 1.7262zm42.045-1.2175c-1.1387-2.1276-1.4692-19.077-.4464-22.893.52785-1.9697 1.2546-2.25 5.8333-2.25 3.8044 0 5.8624.54821 7.5489 2.0109l2.3186 2.0109 1.8734-2.0109c1.4721-1.5801 3.1504-2.0109 7.8345-2.0109h5.961v26h-13v-3.9064c0-3.4774-.23085-3.846-2.1024-3.3566-1.2317.3221-2.4678-.0273-2.9847-.84362-.58237-.91971-.88753.22139-.89764 3.3566l-.01531 4.75h-3.9182c-2.155 0-4.5955.2599-5.4233.57756-.90272.3464-1.936-.22762-2.5818-1.4343zm10.923-5.7541v-5.6108l4 4.7216 4-4.7216v11.222h10.766l-.26556-23.993-4.5757-.0034c-3.5593-.0027-5.0844.53806-6.8657 2.4342l-2.29 2.4376-3.6343-2.294c-1.9989-1.2617-5.3218-2.3727-7.3843-2.469l-3.75-.17495v24.063h10zm5.079 2.0274c.048-1.165.28494-1.4019.60416-.60417.28887.72187.25335 1.5844-.0789 1.9167-.3323.33229-.56864-.25834-.52522-1.3125zm-49.047-1.6667c.075226-2.9567 4.9682-6.5918 4.9682-3.691 0 .58246-.51953.73793-1.1545.34549-.68036-.42049-.88438-.27644-.49676.35074.94143 1.5233-.31246 4.2448-1.9557 4.2448-.76616 0-1.3787-.5625-1.3612-1.25zm-1.986-4.8356c.61391-1.1471 1.3603-1.8415 1.6587-1.5431.82426.82426-.49605 3.6288-1.7084 3.6288-.73956 0-.72434-.63946.04964-2.0856zm11.954-3.8553c0-1.1325.45-2.059 1-2.059s1 .64844 1 1.441-.45 1.7191-1 2.059-1-.30852-1-1.441zm-31.25.2787c.6875-.27741 1.8125-.27741 2.5 0s.125.50439-1.25.50439-1.9375-.22698-1.25-.50439zm26.856-1.7542c.33422-.87096 1.047-1.5836 1.584-1.5836 1.3144 0 .49134 2.2728-1.0035 2.7711-.73075.24358-.95424-.21359-.58051-1.1875zm-4.591-.33356c.02794-1.3687 1.8663-3.7017 2.4539-3.1142.78775.78775-.46709 3.8642-1.5762 3.8642-.49116 0-.88612-.3375-.8777-.75zm-23.015-1.1826c0-1.1668 3.9221-2.4787 4.7964-1.6043.74946.74946-1.7113 2.4991-3.5464 2.5216-.6875.008-1.25-.40437-1.25-.9173zm-2.1875-2.7505c.72188-.28887 1.5844-.25334 1.9167.07895.33229.33229-.25833.56864-1.3125.52522-1.1649-.04798-1.4019-.28494-.60417-.60417zm36.266-.90022c.04798-1.1649.28494-1.4019.60417-.60417.28887.72188.25334 1.5844-.07895 1.9167-.33229.33229-.56864-.25833-.52522-1.3125zm-4.6328-.5038c-.36954-.59792-.17109-1.5879.44098-2.2.81716-.81716 1.1129-.52828 1.1129 1.0871 0 2.4145-.51946 2.7865-1.5539 1.1129zm-51.446-1.4129c-.71755-.86459-.81474-1.5-.22943-1.5.5585 0 1.2745.675 1.5911 1.5.31658.825.41983 1.5.22943 1.5s-.90637-.675-1.5911-1.5zm29 .5c1.9584-1.2656 3.2822-1.2656 2.5 0-.33992.55-1.379.99311-2.309.98469-1.4573-.013196-1.4837-.14929-.19098-.98469zm-5-.80968c0-.53699.7126-1.2498 1.5836-1.584.97391-.37373 1.4311-.15024 1.1875.58051-.49828 1.4948-2.7711 2.3179-2.7711 1.0035zm23-.1313c0-.51754.45-1.2191 1-1.559s1 .08352 1 .94098c0 .85746-.45 1.559-1 1.559s-1-.42344-1-.94098zm-43.588-1.8353c-1.3324-.88649-2.529-5.2237-1.4411-5.2237.43116 0 1.3262.65338 1.989 1.452 1.4451 1.7412 1.0005 4.8019-.54785 3.7717zm31.015-1.7451c2.0551-1.5548 3.2035-1.3076 2.1141.45494-.36253.58659-1.4201 1.0522-2.3501 1.0347-1.4846-.02792-1.4558-.20969.23602-1.4897zm20.573.46245c0-.58246.45-.7809 1-.44098s1 .81648 1 1.059-.45.44098-1 .44098-1-.47656-1-1.059zm-25-1.941c1.9584-1.2656 3.2822-1.2656 2.5 0-.33992.55-1.379.99311-2.309.98469-1.4573-.013196-1.4837-.14929-.19098-.98469zm49-12v-13h9.5497c14.244 0 16.287 1.4921 16.431 12 .034 2.475.11265 5.8194.17482 7.432.2037 5.2836-2.7816 6.568-15.266 6.568h-10.889zm22.777 10.443c2.3949-1.6774 3.1035-7.1623 1.1746-9.0912-.7305-.7305-.68189-1.8511.16051-3.7 2.8946-6.3531-2.5042-9.6363-15.863-9.6465l-7.25-.005577v24h9.7775c7.2309 0 10.356-.40545 12-1.5567zm-11.777-5.9814c0-1.8975.4544-2.5204 1.6671-2.2852 2.5083.48646 2.722 2.5447.39364 3.7908-1.8362.98271-2.0608.81865-2.0608-1.5056zm0-8.9619c0-1.7556.41952-2.2762 1.5-1.8616.825.31658 1.5 1.1543 1.5 1.8616s-.675 1.545-1.5 1.8616c-1.0805.41462-1.5-.10604-1.5-1.8616zm-51.5 14.5c.33992-.55 1.2665-1 2.059-1s1.441.45 1.441 1-.92656 1-2.059 1-1.7809-.45-1.441-1zm-40.5-3.441c0-3.064.56994-3.3116 1.2895-.56001.28751 1.0995.115 2.251-.38337 2.559s-.90612-.59154-.90612-1.999zm8.6667.77432c-1.0469-1.0469-.77895-5.3333.33333-5.3333.55 0 1 1.35 1 3 0 3.1069-.20356 3.4631-1.3333 2.3333zm-4.6667-3.8333c0-1.375.45-2.5 1-2.5s1 1.125 1 2.5-.45 2.5-1 2.5-1-1.125-1-2.5zm122.08-6.0833c.048-1.1649.28494-1.4019.60416-.60417.28887.72188.25335 1.5844-.0789 1.9167-.3323.33229-.56864-.25833-.52522-1.3125zm-116.08-1.4167c0-1.1.45-2 1-2s1 .9 1 2-.45 2-1 2-1-.9-1-2zm-9-2.441c0-.79254.45-1.7191 1-2.059s1 .30852 1 1.441-.45 2.059-1 2.059-1-.64844-1-1.441zm7-6.8679c0-2.116 2.6005-5.0561 3.8106-4.3082.81795.50552.81561 1.3434-.0088 3.1528-1.1816 2.5933-3.8018 3.3896-3.8018 1.1554zm7.0153-1.2268c.02734-1.7215 1.8555-3.9268 2.6208-3.1615.40967.40967-.01586 1.5056-.94563 2.4353-.92976.92976-1.6836 1.2565-1.6752.72619zm65.793-12.714c-.16984-6.7375-.14816-12.812.0482-13.5.23367-.8182 2.3926-1.25 6.25-1.25 5.7609 0 5.8931.06166 5.898 2.75l.005 2.75 2.2561-2.8192c1.9685-2.4598 2.8283-2.7785 6.745-2.5l4.4889.31918v25.99l-5.8418.26213c-5.1623.23164-5.9041.02394-6.3773-1.7855l-.53548-2.0477-1.4294 2.0408c-1.1072 1.5807-2.5305 2.0408-6.3139 2.0408h-4.8845zm7.9602 10.4c1.248-.35768 3.1575-2.0003 4.2434-3.6503l1.9744-3 .007 3.25c.006 3.1842.0977 3.25 4.5066 3.25h5.0714c.31428 0 .57143-5.175.57143-11.5s-.25715-11.5-.57143-11.5h-4.0354c-2.8802 0-3.8914.62899-6 3.7321l-2.5365 3.7321v-7.9643h-10v12.25c0 12.067.0337 12.249 2.25 12.15 1.2375-.05482 3.2711-.39232 4.519-.75zm-68.769-6.6503c.68469-.825 1.6257-1.5 2.0911-1.5s.58715.675.27057 1.5c-.31658.825-1.2576 1.5-2.0911 1.5-1.2337 0-1.284-.27889-.27057-1.5zm-5-.37756c0-.48266.675-1.4378 1.5-2.1224 1.6282-1.3513 1.8317-1.0281.89301 1.4182-.64255 1.6745-2.393 2.1896-2.393.70423zm-3.7381-2.8129c.92976-.92976 1.9713-1.4097 2.3144-1.0665.98418.98418-.52669 2.757-2.3496 2.757-1.5265 0-1.5237-.13154.03521-1.6905zm96.933-1.8095c.0204-1.65.2445-2.2039.49804-1.231.25354.97297.23687 2.323-.0371 3-.27388.67703-.48132-.11903-.46094-1.769zm-88.267-2.4375c1.2287-1.0656 2.8858-1.6874 3.6824-1.3817 1.1976.45958 1.1403.78952-.33099 1.9057-.97866.74246-2.6357 1.3642-3.6824 1.3817-1.7526.02929-1.7265-.12132.33099-1.9057zm43.572.93754c.33992-.55 1.379-.99311 2.309-.98469 1.4573.013196 1.4837.14929.19098.98469-1.9584 1.2656-3.2822 1.2656-2.5 0zm-47.5-2c1.9584-1.2656 3.2822-1.2656 2.5 0-.33992.55-1.379.99311-2.309.98469-1.4573-.013196-1.4837-.14929-.19098-.98469zm43.812.31689c.72188-.28887 1.5844-.25334 1.9167.07895.33229.33229-.25833.56864-1.3125.52522-1.1649-.04798-1.4019-.28494-.60417-.60417zm-7.3125-1.3169c-.33992-.55-.14148-1 .44098-1s1.059.45 1.059 1-.19844 1-.44098 1-.7191-.45-1.059-1zm3 0c.33992-.55 1.0415-1 1.559-1s.94098.45.94098 1-.70156 1-1.559 1-1.2809-.45-.94098-1zm-25.75-.66228c.6875-.27741 1.8125-.27741 2.5 0 .6875.27741.125.50439-1.25.50439s-1.9375-.22697-1.25-.50439zm38.479-.52522c.21771-.65312.93051-1.3657 1.584-1.5836.73075-.24358.95424.21359.58051 1.1875-.69752 1.8177-2.7645 2.1959-2.1645.39606zm-42.729-.8125c.33992-.55 1.0415-1 1.559-1s.94098.45.94098 1-.70156 1-1.559 1-1.2809-.45-.94098-1zm20.312.31689c.72188-.28887 1.5844-.25334 1.9167.07895.33229.33229-.25833.56864-1.3125.52522-1.1649-.04798-1.4019-.28494-.60417-.60417zm-10.812-1.3169c1.9584-1.2656 3.2822-1.2656 2.5 0-.33992.55-1.379.99311-2.309.98469-1.4573-.013196-1.4837-.14929-.19098-.98469zm-4.1875-1.6831c.72188-.28887 1.5844-.25334 1.9167.07895.33229.33229-.25833.56864-1.3125.52522-1.1649-.04798-1.4019-.28494-.60417-.60417zm-4-1c.72188-.28887 1.5844-.25334 1.9167.07895.33229.33229-.25833.56864-1.3125.52522-1.1649-.04798-1.4019-.28494-.60417-.60417zm39.64-.916c-.57605-.23785-.87054-1.947-.65444-3.7981.32314-2.768.74062-3.2747 2.351-2.8536 1.4984.39183 1.8868 1.2263 1.6544 3.5544-.29991 3.0053-1.3108 3.9396-3.351 3.0972zm2.5474-3.9599c0-.79254-.45-1.441-1-1.441s-1 .92656-1 2.059.45 1.7809 1 1.441 1-1.2665 1-2.059zm2.0201-4.9168c-.78875-.95038-.86462-1.5242-.20152-1.5242 1.2086 0 2.6176 1.8972 1.9241 2.5907-.2517.2517-1.0269-.22824-1.7226-1.0665zm-32.005-.15172c.03019-1.7202 1.7289-3.5953 2.3487-2.5925.33769.5464-.05606 1.5495-.875 2.2292-.81894.67966-1.4821.84315-1.4737.36331zm27.591-.956c-.37373-.97391-.15024-1.4311.58051-1.1875 1.4948.49828 2.3179 2.7711 1.0035 2.7711-.53699 0-1.2498-.7126-1.584-1.5836zm-14.606-3.3095c0-.49116.7118-1.1662 1.5818-1.5 2.4463-.93873 2.7695-.7352 1.4182.89301-1.3796 1.6624-3 1.9902-3 .60699zm16.5-.10699c-.33992-.55-.16803-1 .38197-1 .55 0 1.2781.45 1.618 1s.16803 1-.38197 1-1.2781-.45-1.618-1zm-4-1c-.33992-.55-.14148-1 .44098-1s1.059.45 1.059 1-.19844 1-.44098 1-.7191-.45-1.059-1zm-20.059-2.5318c2.5265-1.911 4.1544-1.8907 2.5589.031803-.68469.825-1.9773 1.4857-2.8724 1.4682-1.3673-.02672-1.3172-.26656.31358-1.5z" style="fill:#010208"/>
	</g>
</svg>
