<svg width="161.44" height="159.36" version="1.1" viewBox="0 0 161.44 159.36" xmlns="http://www.w3.org/2000/svg">
	<g>
		<path d="m80 159.27c-.396-.033-1.7188-.13864-2.9395-.23476-2.4755-.19492-3.5457-.43559-7.1227-1.6019-3.4655-1.1299-5.8328-2.1394-7.1489-3.0485-1.0795-.74566-1.1802-.78132-2.2079-.78132-1.1274 0-1.907-.27234-2.0816-.72717-.05466-.14245-.09939-.54111-.09939-.88592 0-.3448-.03122-.62691-.06937-.62691s-.41615.21527-.84.47838c-1.0466.6497-2.4256 1.1202-2.84.96891-.4192-.153-.72526-.74043-.7283-1.3978-.0013-.2808-.07504-.55547-.16387-.61037-.08883-.0549-.61083.0786-1.16.29665-3.5347 1.4036-6.4318-.1578-6.0109-3.2395.05399-.3953-.0898-.48294-1.1916-.72626-1.0679-.23581-2.1984-1.8208-1.9643-2.7537.18839-.7506-.08821-.85651-1.9674-.75334-2.7139.149-4.9748-.51279-6.87-2.0109-.9488-.74999-1.3142-1.3533-1.3142-2.1697 0-.52525-.19275-.76548-2.2852-2.8479-1.6157-1.608-2.8754-2.6874-4.2999-3.6844-1.7606-1.2322-2.2754-1.7065-4.0813-3.76-1.1366-1.2925-2.4653-2.8539-2.9526-3.4699-.89648-1.1333-3.0211-4.6328-3.0211-4.9762 0-.10259.144-.22418.32-.27021.1877-.0491.32-.21824.32-.40916 0-.64319-2.3387-3.7858-4.9596-6.6645-.72109-.792-1.6142-1.836-1.9846-2.32-1.943-2.5386-3.8631-6.4042-5.404-10.88-.73753-2.1422-1.7317-5.6097-1.7317-6.0399v-.39156l.52.34827c1.5427 1.0332 3.96 1.9164 3.96 1.4468 0-.08598-.40346-.57198-.89659-1.08-1.7029-1.7543-3.7253-6.8226-4.774-11.964-.70298-3.4464-1.5433-14.32-1.1067-14.32.084396 0 .36158.32927.61596.73172.25438.40245.66573.8368.9141.96524.60918.31502 1.8694.54134 1.9837.35628.049819-.08061-.060369-.64353-.24486-1.2509-.90087-2.9659-1.3773-8.3465-1.1189-12.635.18309-3.0383.53056-6.1125.88463-7.8267.3531-1.7094 1.2353-4.5261 1.4226-4.5422.088-.0076.52.64451.96 1.4491.44.80454.872 1.4429.96 1.4187.26926-.074298 1.0023-2.514 2.3154-7.7058.68993-2.728 1.5479-5.8167 1.9066-6.8638.96896-2.8286 3.9025-7.9362 4.5582-7.9362.12677 0 .50591.66412.89058 1.56.72487 1.6882 1.0568 2.28 1.2787 2.28.07809 0 .29106-.64748.47326-1.4389.62911-2.7323 1.9804-5.8449 3.543-8.1611.89778-1.3308 3.1024-3.7315 5.0691-5.52 1.9926-1.812 4.2944-3.76 4.4431-3.76.05467 0 .04928.792-.01197 1.76-.08052 1.2725-.06102 1.76.0704 1.76.21132 0 1.1438-1.2373 1.1438-1.5178 0-.46244 5.7057-5.3622 6.2442-5.3622.07976 0 .16546.774.19044 1.72.04397 1.6655.05686 1.72.40676 1.72.25347 0 .66038-.35678 1.363-1.1951 1.1374-1.357 4.436-4.4106 5.6356-5.2171.52457-.35264 1.8269-.87005 3.7825-1.5028 1.6404-.53077 3.0444-.965 3.12-.96496.075603 4.246e-5-.38454.48715-1.0225 1.0825-1.697 1.5835-1.5361 2.1568.39217 1.3971.59831-.23574 1.6998-.66891 2.4478-.9626 2.2449-.88141 3.369-1.0372 7.4733-1.0356 3.7503.0014302 5.3267.10168 5.3267.33875 0 .17821-.60695.43093-4.24 1.7654-1.672.61417-3.8677 1.331-4.8794 1.5929-1.0116.26193-1.908.54492-1.992.62887-.32553.32553.21407.46289 1.9919.50705 2.5221.06264 2.5022.19445-.27586 1.8293-3.6197 2.1301-7.7959 3.9325-11.822 5.1021-3.19.92674-3.1274.90185-2.9554 1.1767.09489.15156.78363.28522 2.1622.4196 1.1126.10846 2.0742.24957 2.1367.31358.19492.19946-1.052 1.1589-4.236 3.2593-7.5444 4.9769-12.165 7.6155-15.33 8.7533-.85098.30596-1.44.6065-1.44.73473 0 .15341.586.31408 2 .54835 1.4217.23554 1.9868.39088 1.9543.53724-.06027.27123-1.1335 1.8565-2.3366 3.4514-1.1919 1.5801-5.0041 5.4945-8.1033 8.3206-2.5149 2.2933-3.7739 3.7493-3.6103 4.1755.07144.18617.20169.228.45789.14707 1.0046-.31736 1.2268-.29356 1.3953.14947.08954.23549.16279 1.0802.16279 1.8772 0 3.8308-1.3482 9.2806-4.2257 17.081-.40386 1.0948-.7343 2.2012-.7343 2.4587 0 .53345.13542.53459 1.4875.01258.61781-.23852.7927-.25556.89665-.08736.23456.37953.33825 3.5916.18159 5.6256-.18278 2.3731-.43321 3.749-1.1845 6.5081-.7999 2.9374-1.2236 5.1603-1.2053 6.3226.0315 1.9931.39722 2.3699.94702.97552.60767-1.5411.6628-1.5317 1.3429.22877.7777 2.0131 1.8169 3.9549 2.9782 5.5649 1.375 1.9063 4.4533 5.7346 4.7403 5.8952.22649.12675.2456-.83362.19894-9.9975-.03645-7.1571 7.7e-5-10.232.12422-10.458.09672-.176.22582-.788.28689-1.36.14148-1.3252.37501-2.24.5718-2.24.08461 0 .1564.09.15954.2.03436 1.204.32735 3.3829.47954 3.5663.62332.75106.79085-.06394.80348-3.9087.0079-2.4052.12978-4.7942.44159-8.6561.08989-1.1133.16012-1.368.38921-1.4116.36715-.06993.54741.42644.75443 2.0775.09072.72352.22907 1.3796.30744 1.458.27845.27845.40121-.29289.45559-2.1203.07632-2.5648.13845-2.8684.62469-3.0533.39399-.14979.40309-.18794.35139-1.4728l-.05307-1.319 1.12.0573c.616.03151 1.1395.07501 1.1633.09665.02383.02165-.03699.41382-.13514.87148-.22005 1.0261-.09514 1.5818.39764 1.7692.36492.13874.38055.21912.49259 2.5325.06364 1.3141.1814 2.489.26169 2.6111.29247.44445.57009-.30042.66648-1.7882.08753-1.351.30037-2.0111.59064-1.8317.06653.04112.17232.74232.23508 1.5582.06277.81591.21511 1.9155.33854 2.4435.15063.64435.22938 2.0385.23951 4.24.01601 3.4808.15387 5.8176.3551 6.0188.06719.06719.24531-.00096.39582-.1515.19844-.19844.30171-.67028.3757-1.7167.09462-1.3381.19387-1.7531.37575-1.5712.04.04.13.826.2 1.7467l.12728 1.6739.51885.05005c.62799.06058.6861-.05806 1.0826-2.2101.15403-.836.31914-1.5872.3669-1.6694.11533-.19838.32628.35933.3404.89994.0062.23681.08952.47893.18519.53806.37792.23357.54466-.29022.55259-1.7358.0076-1.3933.02712-1.4755.36077-1.5239.32173-.04664.3527-.14146.3527-1.08v-1.0289h.46691c.91327 0 .99519.10505.87949 1.1277l-.10511.92909.53936.05158c.51593.04934.53627.07591.46825.61158-.03911.308-.07511 1.028-.08 1.6-.0069.80472.04346 1.04.22251 1.04.14828 0 .29215-.28629.40048-.79692l.16907-.79692.51308 1.5969c.43236 1.3457.52867 1.9366.61217 3.7562.0545 1.1876.13525 2.1956.17944 2.24.14055.14114 6.8855.16842 10.452.04227l3.438-.12158.1734-1.7952c.15512-1.6058.21669-1.8353.58378-2.1755.24865-.23044.45456-.64186.5225-1.044.06167-.36502.18952-.71151.28412-.76997.23776-.14694.76017.53807.76017.99678 0 .20719.23272.64176.51716.96571.49089.55909.52136.66938.6 2.1716.06085 1.1623.14658 1.6238.32284 1.7376.132.08525.78.13653 1.44.11396l1.2-.041037.12572-1.12c.06915-.616.10307-4.9.07538-9.52-.04632-7.7294-.07409-8.4623-.34788-9.1809-.27728-.72773-.27981-.8109-.03712-1.2217.14323-.24246.34179-.988.44126-1.6568.09946-.66875.23477-1.1826.30067-1.1418.06591.04073.16842.52567.2278 1.0776.15453 1.4364.37634 2.0436.74658 2.0436.26544 0 .34539-.11107.34551-.48 1.4e-5-.044-.04881-.42121-.10849-.83825l-.10852-.75825 1.4351.1967.19591-.99579c.13818-.70237.31852-1.1096.61201-1.382.38741-.35957.4161-.48335.4161-1.7957 0-1.2715.04331-1.475.44227-2.0781.24325-.36773.51656-.66859.60736-.66859s.34108.378.55617.84c.30959.66498.3914 1.1019.39264 2.0969.0014 1.106.04958 1.314.40156 1.7323.22.26146.4.57785.4.7031 0 .12525.06271.22772.13936.22772.27169 0 .37387-3.0418.31761-9.4553-.04462-5.0868-.01286-6.5484.14644-6.7405.11188-.13489.2762-.88402.36515-1.6647.088955-.78072.20685-1.5995.26198-1.8195.0901-.35954.11293-.33526.22563.24.06896.352.12953 1.0138.1346 1.4706.0093.8403.24873 1.234.50466.82994.07681-.12128.14076-.45582.14211-.74344.0013-.28762.1967-.89444.43411-1.3485.40468-.77393.43984-1.0113.56245-3.7971.15807-3.5914.34284-5.097.66503-5.4192.21629-.21629.25384-.19594.35074.19017.10259.40875.12464.4178.40329.16562.51027-.46179.6832-1.2707.48829-2.284-.24207-1.2586-.03253-2.0594.69069-2.6395.66252-.53149.7095-.91374.31918-2.5968l-.24865-1.0721.40865-.42654c.31735-.33124.40865-.59123.40865-1.1637 0-.40544.10355-1.2784.23011-1.9399.14468-.75616.27237-2.9525.34394-5.9157.11239-4.6535.10971-4.7143-.21267-4.8166-.48709-.15459-.83788-.9875-.66693-1.5835.1529-.53313.46554-.94912.46554-.61942 0 .10679-.08253.32633-.18341.48785-.25761.4125-.04692 1.0885.43834 1.4065.52537.34423 1.1574.14687 1.5001-.46848.22329-.40087.21975-.48394-.04005-.93956-.32286-.56621-.23356-.83419.12156-.36479.12829.16958.23555.57192.23835.8941.004.46271-.09966.67392-.49349 1.0053l-.49858.41952.10902 3.7147c.09803 3.3405.1929 4.7716.55078 8.309.07553.7466.22156 1.2269.47875 1.5748.36572.49466.36706.5125.11433 1.5186-.34178 1.3607-.32565 1.9311.06427 2.2723.176.154.46217.40417.63593.55593.46677.40767.55801 1.0154.34382 2.2901-.17434 1.0375-.16278 1.207.12867 1.8869.37139.86643.60674.93945.86056.26702.09965-.264.23918-.48.31006-.48.32845 0 .45954 1.1422.54923 4.7854.09069 3.6838.12038 3.9816.46588 4.6726.20296.40593.41829 1.1096.47852 1.5636.06023.45404.17517.86611.25543.91571.35846.22154.56854-.31917.6575-1.6924.12025-1.8561.36504-2.3631.50085-1.0373.05366.52378.20319 1.6723.33229 2.5523.16434 1.1202.26737 3.869.34356 9.1664.11482 7.9837.21739 8.8926.76037 6.7379.11978-.47532.26393-1.2835.32034-1.796.14353-1.304.77112-2.6682 1.2275-2.6682.2478 0 .77027 1.3925.87049 2.32.05705.528.23712 1.392.40017 1.92.16304.528.34579 1.212.40611 1.52.14155.72283.34223.96.8123.96.34922 0 .38041.06482.38041.79056 0 1.6038.71725 1.1083.8771-.60598.20149-2.1609.45912-2.3467.64488-.46521.1134 1.1486.29 1.6992.61219 1.9088.11296.07345.09523.38128-.05528.96-.1702.65441-.23606 2.7434-.28414 9.0119-.03442 4.488-.0136 8.826.04626 9.64l.10885 1.48h1.5051c.82779 0 1.5131-.018 1.523-.04.0099-.022.06464-.91578.12172-1.9862.097-1.819.13064-1.9711.51478-2.3271.22605-.2095.49378-.70966.59496-1.1115.24544-.97475.55569-1.2334.89619-.7473.13993.19978.25442.58596.25442.85819 0 .36456.14753.62557.56.99074.48128.42609.56.59553.56 1.2053 0 .39023.0466 1.2604.10348 1.9337l.10348 1.2241h13.533l.0841-.68c.0463-.374.12799-1.508.18158-2.52.0768-1.4502.17811-2.0186.47821-2.6831.20943-.46368.46523-1.2723.56845-1.7969.10321-.52464.24226-.92014.30899-.8789.0667.04124.17004.39986.22958.79695.21062 1.4045.56224.71186.56753-1.118.002-.84588.081-1.2375.32113-1.6.17484-.264.31837-.75.31895-1.08l.001-.6h1.3993l.0774.80558c.0431.44829.18558.89181.3213 1 .17535.13978.27107.64116.34061 1.7841.13144 2.1602.3863 2.3945.66378.61034.0582-.374.15934-.68.22484-.68s.23899.7304.38553 1.6231c.27988 1.705.43746 2.0569.92121 2.0569.40193 0 .60201-.43317.71278-1.5432.20841-2.0884.4521-2.125.64219-.09645.12133 1.2947.42548 1.8338.81494 1.4443.16759-.16759.25562-1.385.37973-5.2514.0889-2.7683.2684-5.7734.39898-6.6781s.23742-1.7189.23742-1.8094c0-.09053.0626-.12593.13903-.07867.0765.04726.18884.68151.2497 1.4094.1275 1.5249.35602 2.5235.57744 2.5235.19878 0 .18175.16139.2955-2.8l.0983-2.56 1.2-.09932 2e-5-1.4703 2e-5-1.4703 2.104-.02358-.10947 1.3141c-.0962 1.155-.0755 1.3331.17072 1.4709.15409.08624.41394.12181.57744.07905.27216-.07117.29736.03538.29824 1.2609.002 2.2117.18173 3.9787.40564 3.9787.28046 0 .36314-.28843.56329-1.965.0969-.81124.21108-1.583.25386-1.715.14319-.44188.35556.19405.62094 1.8594.13854.86935.35616 1.9357.4836 2.3697.16694.56848.23656 1.7313.24907 4.16.01 1.854.0636 3.803.12 4.331.0889.83147.15008.96674.45698 1.0104.40404.05745.45337-.08715.59864-1.7547.0977-1.1218.35359-2.0557.56322-2.0557.15767 0 .58343 1.7064.73095 2.9296.0709.58788.17842.90412.29248.86031.13297-.05107.16646 2.5207.12743 9.7869l-.0529 9.8562.35443-.31651c.19493-.17408 1.467-1.7925 2.8269-3.5965 2.5022-3.3194 3.8438-5.6425 4.5972-7.96.15019-.462.30419-.84.34223-.84.038 0 .2366.378.44127.84.20466.462.48996.93733.63399 1.0563.22784.18816.28645.16237.45082-.1984.34678-.76109-.23163-4.3304-1.5529-9.5828-.30506-1.2127-.63266-2.9767-.728-3.92-.18177-1.7984-.1366-5.8519.0675-6.0559.0654-.06539.57116-.01069 1.1239.12157 1.1356.27172 1.3885.23895 1.3885-.17994 0-.16092-.45972-1.5409-1.0216-3.0667-3.0938-8.4011-4.5717-15.008-3.9984-17.874.0971-.48558.1248-.5.96-.5.473 0 .86-.0612.86-.13599 0-.36264-1.1422-1.6099-3.5342-3.8592-3.2048-3.0136-5.9667-5.8149-7.1036-7.2049-1.2346-1.5094-2.9821-4.1786-2.9261-4.4693.034-.17657.32902-.28412 1.006-.36674 1.4608-.17829 2.4996-.45876 2.4335-.65703-.0326-.0977-.66591-.40091-1.4074-.67379-1.3155-.48411-4.3764-1.9077-4.704-2.1877-.0903-.07719-.88419-.55628-1.7642-1.0646-5.4274-3.1353-6.8379-3.9871-7.8464-4.7385-.61952-.4616-1.3575-.95876-1.6399-1.1048-.78588-.4064-3.0737-2.0495-3.0737-2.2075 0-.21082.24634-.27042 2.1394-.51764 1.6758-.21883 2.2469-.4135 1.8794-.64061-.093-.05746-.90925-.31276-1.8139-.56732-4.2914-1.2075-8.8753-3.0149-11.888-4.6876-2.3982-1.3313-3.2691-1.9347-3.0748-2.1306.0669-.067409.98121-.16621 2.0319-.21956 3.0535-.15504 2.8968-.36032-1.0334-1.3537-3.1156-.78751-8.1211-2.4736-8.1131-2.7328.007624-.24671.91637-.34783 5.0731-.56449 4.517-.23544 4.511-.23629 8.0569 1.1313 2.8392 1.095 3.7031 1.3017 3.7031.88567 0-.47766-.45232-1.1609-1.21-1.8279-.40743-.35864-.71585-.71863-.68537-.79999.0663-.17708 5.251 1.4954 6.6154 2.134.7886.36911 1.4793.97353 3.8687 3.3854 1.5998 1.6148 3.0174 2.936 3.1502 2.936.26289 0 .3954-.66109.46251-2.3074.0212-.52105.11438-.9723.20698-1.0028.51066-.16812 4.4176 3.1002 5.8788 4.9178.59792.74378 1.1559 1.3763 1.24 1.4057.0912.03182.15287-.66485.15287-1.7269v-1.7802l1.64 1.3223c.902.72726 2.6556 2.3324 3.8969 3.5669 1.7868 1.777 2.5238 2.6505 3.5379 4.1932 2.1252 3.2328 3.4249 6.0485 3.6568 7.9223.13214 1.0675.48973 1.706.77708 1.3876.10844-.12017.5055-1.0653.88237-2.1003.37687-1.035.74565-1.9191.81952-1.9648.15826-.09781 1.5314 1.813 2.3457 3.2643.81733 1.4567 2.2088 4.583 2.6738 6.0076.21873.67008.61591 2.1355.88261 3.2565.26671 1.121.81007 3.4062 1.2075 5.0782 1.2165 5.1182 1.7489 5.8965 2.5464 3.7226.35858-.97746.76897-1.4846 1.0989-1.358.15528.05959.44395.71281.73652 1.6667 1.1139 3.6315 1.489 6.9491 1.5072 13.329.0123 4.3328-.26569 6.9219-.9875 9.1966-.32744 1.0319-.29867 1.3634.11834 1.3634.34772 0 1.7114-1.1326 2.3251-1.9312.26581-.34586.53989-.62883.60906-.62883.28637 0 .0321 6.0562-.44336 10.56-.69859 6.6175-2.9724 13.754-5.2085 16.347-.43031.49905-.78238.98642-.78238 1.083 0 .3648 2.0292-.41146 3.2354-1.2377.3765-.25789.8435-.51865 1.0378-.57945.34875-.10915.35042-.10183.13141.57808-.122.37875-.69973 2.2366-1.2838 4.1286-.58411 1.892-1.3415 4.0966-1.6831 4.8991-.3416.80253-.66477 1.6331-.71815 1.8458-.18584.74047-3.2283 5.5999-4.0723 6.5043-1.182 1.2666-5.4304 7.004-5.7998 7.8326-.3577.80231-.28274.99816.38205.99816.45411 0 .48378.0339.39927.45644-.19768.98841-1.7357 3.867-2.8061 5.252-1.1606 1.5017-5.1226 5.2269-6.7808 6.3755-.81669.56572-.94632.73329-1.1727 1.516-.46304 1.601-2.1852 3.978-3.7138 5.126-.47218.3546-.53774.50527-.65521 1.5057-.12439 1.0593-.16624 1.144-.88897 1.7983-1.5507 1.404-4.8154 2.4777-7.6364 2.5115l-1.5452.0185-.093.56c-.0512.308-.0938.80634-.0948 1.1074-.002.73622-1.0479 1.7531-2.1629 2.1038-.79132.24885-.7985.25713-.76298.88.0573 1.0051-.0989 1.6241-.54307 2.152-1.1341 1.3478-3.672 1.8249-5.6748 1.0668-1.2359-.46785-1.418-.3879-1.418.62249 0 .84767-.28472 1.0891-1.2842 1.0891-.58877 0-1.0699-.1505-1.9835-.62049-1.2436-.63974-1.5242-.66385-1.2252-.10527.51022.95336-.026 1.4097-1.9087 1.6244-.72809.083-1.4491.24297-1.6022.3554-2.017 1.4811-4.0977 2.6022-6.3161 3.403-1.6608.59953-5.0899 1.3574-7.9472 1.7564-1.685.23532-6.031.41988-7.3328.3114zm5.84-1.5072c.352-.0866 1.54-.30327 2.64-.48136 2.4962-.40416 6.768-1.6247 8.207-2.3449 1.3098-.65556 3.1502-1.8208 3.4509-2.1851.18847-.22824.15122-.36793-.2754-1.0328-1.1126-1.7338-1.7968-3.9361-2.4384-7.8492-.3628-2.2125-.34625-3.5619.09511-7.7518.25032-2.3763.60858-3.9578 1.4517-6.4085.30242-.87902.53142-1.6167.50886-1.6392-.02255-.0225-.54474.17647-1.1604.44227-3.2875 1.4192-7.1753 2.4048-12.8 3.2449-2.2968.34302-3.2816.40611-6.32.40489-6.6001-.003-10.51-.74102-14.001-2.6442-.75672-.41249-1.4221-.7037-1.4787-.64714-.14664.14664.1354 1.033.97135 3.0528 1.2393 2.9942 1.3875 3.7958 1.494 8.08.09131 3.6745.08361 3.8037-.33833 5.68-.38861 1.7281-.77052 2.8062-2.2548 6.3651-.44768 1.0734-.44921 1.0884-.14207 1.3904.5004.49213 3.3838 1.8518 5.0305 2.3721 1.5525.49057 5.3713 1.3934 8.24 1.948 1.3721.26528 2.09.29879 5.04.23524 1.892-.0408 3.728-.145 4.08-.23166zm-10.36-7.2907c-.242-.13128-.44-.31773-.44-.41432 0-.32771.83177-3.8872 1.2277-5.2539.49535-1.7098 1.1246-3.3068 1.5326-3.8894.17301-.24707.28344-.48033.24541-.51836-.16283-.16283-2.0375-.30735-2.8458-.21939-.484.0527-.90429.077-.93398.0541-.08504-.0657.28685-1.7221.44257-1.9712.10435-.16692.80283-.26009 2.7373-.36512 1.4285-.0776 2.6283-.10988 2.6664-.0718.03804.038-.35851 1.0664-.88123 2.2851-1.9178 4.4715-2.751 7.2913-2.751 9.3097 0 .51706-.08962.89305-.25143 1.0549-.13828.13829-.26428.24855-.28.24502-.01571-.004-.22657-.11382-.46857-.24511zm6.44-.96709c0-.14224.4013-.69208.89179-1.2219.97741-1.0557 1.5616-1.9098 1.7133-2.5047.2222-.87171-.8495-2.1558-2.5056-3.0021l-.78056-.3989.07838-1.0669c.05272-.71762.23801-1.4172.566-2.1369.55456-1.2169.4287-1.1621 3.052-1.3288l1.4952-.095-.1117.6869c-.06143.3778-.17983.7589-.2631.8469-.08327.088-.79174.19911-1.5744.24692-1.6371.1-2.0813.35346-2.0813 1.1876 0 .4687.0548.519.76331.70058 1.1483.29429 2.3799 1.0658 2.8604 1.7919 1.1573 1.7488.30193 3.9859-2.2413 5.8615-.98987.73002-1.8624.93281-1.8624.43286zm7.456.14124c-.24871-.24871-.00096-.65328 1.1805-1.9278 1.8561-2.0022 2.0988-2.6672 1.3666-3.7447-.263-.38704-.73532-.74817-1.4-1.0704-.5517-.26747-1.1789-.62605-1.3937-.79684-.38094-.30282-.38598-.33582-.20286-1.3296.10328-.56051.32168-1.4138.48534-1.8962.29698-.87536.2991-.87729 1.0829-.98306 1.4463-.1952 3.4676-.15581 3.3857.066-.0406.11-.19494.56852-.34298 1.0189l-.26917.81895-.99413-.21333c-2.0056-.43038-2.3541-.31204-2.3541.79929 0 .48456.05403.53472.84429.78383 1.1124.35066 2.1032 1.0974 2.6153 1.9712.7944 1.3555.43491 3.2969-.85678 4.6269-.86011.88563-2.9134 2.1102-3.1468 1.8768zm-20.216-.47555c-.36282-.0699-.47288-.27843-.22709-.43033.37518-.23188.5574-2.0766.5389-5.4558l-.01926-3.519-.52627-.43123-.52627-.43124.56-.2332c1.0681-.4448 1.9249-.64538 2.0828-.48756.33947.33946.47724 2.0694.47724 5.9923 0 3.9869.0109 4.1308.32 4.2289.20447.0649.32.24208.32.49078 0 .3826-.02245.38885-1.32.36743-.726-.012-1.482-.053-1.68-.0911zm-18.064 1.3888c1.8271-.56432 2.7582-1.6625 3.0047-3.5439.1855-1.4157.05073-2.8346-.28134-2.9621-.12942-.0497-.73373.1708-1.3429.48992-1.2884.67491-1.6378.73533-1.1307.19553.59613-.63456 2.1993-1.3075 4.6544-1.9536l2.32-.6106 3.312-.006c1.9927-.003 3.3723-.0693 3.4635-.16555.08337-.088.19659-.448.25161-.8.13903-.88953-.26185-1.4687-1.495-2.16-.54944-.308-1.0829-.66093-1.1855-.78428-.77233-.92861-1.4229-1.4269-2.0786-1.592-1.0486-.26403-1.4871-.0574-1.6262.76633-.06039.35747-.17641.64995-.25782.64995-.08141 0-.30653-.32626-.50026-.72503-.42126-.86707-1.3638-1.3941-3.0285-1.6933-1.0167-.18275-1.1-.17314-1.84.21214-.42629.22196-.88307.59442-1.0151.82768-.22303.39412-.21008.48056.18315 1.2223.23273.43899.3609.83664.28483.88366-.07607.047-.71325.15105-1.416.2312-1.4015.15985-2.0607.42772-2.5344 1.0299-.26416.33581-.29906.57524-.23328 1.6002.08216 1.2803.10164 1.2439-.76586 1.4313-.22083.0477-.67083.33344-1 .63495-.52744.48311-.59848.63679-.59848 1.2946 0 .93969.31941 1.5651 1.0206 1.9985.54509.33689.54787.34464.46216 1.2899-.11617 1.2811.14354 1.8767.98501 2.2588.83099.37742 1.1061.37501 2.388-.0209zm64.194-.71436.59221-.55852-.10886-1.1047-.10885-1.1047.80803-.79539c.69594-.68504.80796-.8816.80744-1.4168-8e-4-.76859-.49434-1.611-1.079-1.8415-.24221-.0955-.67437-.27286-.96037-.39415l-.52-.22051v-1.2764c0-1.1102-.046-1.3192-.35312-1.6053-.41833-.38973-1.094-.58158-2.5796-.73249-1.2213-.12405-1.3757-.27993-.99888-1.0086.68054-1.316-.21232-2.2624-2.1345-2.2624-1.7219 0-3.4074.92506-3.7706 2.0695-.1191.37524-.40334.44767-.40334.10279 0-.12525-.1864-.44925-.41422-.72-.49784-.59165-1.1646-.65033-1.9498-.1716-.84207.51341-4.1718 3.511-4.2805 3.8535-.14088.44386.05258 1.1873.3879 1.4908.24747.22396.53372.2402 2.1606.12257 2.4423-.17658 4.7259.012 7.2537.59907 2.3703.55046 3.2101.83033 4.1571 1.3853.61752.36189.97857.85637.48524.66457-.11-.0428-.76693-.3162-1.4598-.60763-1.2168-.51177-1.2674-.51959-1.48-.22878-.26729.36555-.2983 2.5921-.0486 3.4912.42127 1.5171 2.4318 2.8283 4.3371 2.8286 1.001.00012 1.106-.0352 1.6608-.5584zm-54.824-3.6634c1.4154-1.4934 1.906-2.1102 1.7792-2.237-.30264-.30264-1.5753.51928-3.0812 1.9899-1.0296 1.0055-1.4038 1.4782-1.4038 1.7733 0 1.0887.48875.81305 2.7059-1.5262zm43.822 1.3141c.0407-.47574-.0586-.67687-.64-1.2965-.68066-.72533-3.3562-2.5157-3.7595-2.5157-.43163 0-.17287.44268 1.0105 1.7287 1.3705 1.4894 2.8946 2.7928 3.1628 2.7049.0979-.0321.19967-.31175.22618-.62146zm-61.243-5.3386c.11247-.13552.26196-.60991.3322-1.0542.17517-1.1081.6822-2.0912 1.2523-2.4279.26212-.15484 1.0737-.3586 1.8034-.45281.72975-.0942 1.4219-.21794 1.5382-.27497.11625-.057.33328-.46426.48229-.90494s.4679-1.0595.70864-1.3751c.24074-.31562.43771-.65002.43771-.74311 0-.48177-3.4801-.97744-7.956-1.1332-1.8708-.0651-3.0903-.17044-3.095-.2674-.01376-.28034.67296-.3677 3.019-.38405 2.5127-.0175 2.9548-.13721 3.5394-.95823.3843-.53971.43795-1.1377.10206-1.1377-.12681 0-.27506.072-.32944.16-.1631.26389-1.7137.18313-2.3086-.12025-.30174-.15386-.69233-.47577-.86796-.71536-.2772-.37813-.29776-.52988-.15583-1.1501.19929-.87091.07254-1.1619-.39672-.91078-.18141.0971-.60456.1775-.94035.1787-1.0364.004-1.3241.16316-1.8895 1.0471l-.54215.84751-1.1831-.0895c-2.5659-.19406-3.9442 1.0322-3.9523 3.5163-.0034 1.0456.01917 1.1082.64284 1.7848.35549.38566.90082.82196 1.2118.96955.54901.26053.56215.28778.45084.93522-.17878 1.0399-.12196 1.9404.1564 2.4787.26937.52092 1.6643 1.435 2.7234 1.7845 1.8166.59953 4.8565.83105 5.2165.39729zm-3.2053-4.123c0-.42648.43972-.76047 2.0405-1.5498 1.5282-.7536 2.5995-1.1273 2.5995-.90671 0 .25358-4.03 2.666-4.4536 2.666-.10249 0-.18635-.0942-.18635-.20942zm84.668 3.2628c.66436-.16991 1.4869-.45844 1.8278-.64117.34093-.18273.70257-.33224.80363-.33224.34716 0 1.322-1.2559 1.4326-1.8458.0603-.32166.0731-1.0408.0284-1.5981-.0792-.98624-.0696-1.0182.35831-1.1954 1.0169-.42121 1.9217-1.8266 1.9217-2.985 0-1.174-.95593-2.4779-2.1494-2.9316-.55994-.21289-1.4463-.24954-2.4404-.10089l-.82981.12407-.33176-.65031c-.41626-.81594-1.0223-1.1333-2.3806-1.2467l-1.068-.0891-.0149 1.0624c-.0124.88164-.0787 1.1303-.38958 1.4612-.4936.52541-1.4535.76982-2.5066.63823-.76244-.0953-.84888-.0754-.84888.19552 0 .32664.64708 1.0022 1.2654 1.3211.28515.14707.95295.16951 2.568.0863 2.1173-.10909 3.3666-.022 3.3666.23474 0 .23485-.46845.30447-3.2337.48058-3.0531.19444-7.1874.693-7.8566.94742-.54693.20795-.54163.4359.0242 1.0437.2497.26819.57997.83044.73393 1.2494.15397.419.4158.83453.58184.9234.16605.0889.84399.2303 1.5065.3143.66254.084 1.4024.25563 1.6442.3814.94768.49302 1.4795 1.4294 1.4795 2.6049 0 1.0455.0445 1.0698 1.7555.95768.84926-.0557 2.0877-.24021 2.752-.41013zm-2.6804-4.3549c-.69691-.45653-1.7171-1.0352-2.2671-1.2859-.9442-.43041-1.2842-.77266-.7676-.77266.12782 0 .99271.29368 1.922.65262 1.6871.65166 2.9128 1.5057 2.7711 1.9309-.12782.38346-.40609.29538-1.6584-.52496zm-20.947-2.6191c.616-.23185 1.2902-.57858 1.4982-.7705.54256-.50054 2.036-2.3616 3.2025-3.9908 1.5151-2.1161 1.6952-1.4476.26654.98941-1.1082 1.8903-.91056 2.3354.64241 1.4469 3.4505-1.9742 6.9721-6.2323 8.7088-10.53.74037-1.8322 1.0081-2.0526.8732-.71855-.12512 1.2373-.456 2.2934-1.1449 3.6544-.80968 1.5995-1.3252 2.2989-2.9393 3.9873-1.7854 1.8676-1.9016 2.2741-.41224 1.4416.41367-.2312 1.1158-.45033 1.6047-.50079.83579-.0863.89152-.0674 1.45.49108.31943.31943.72418.58079.89945.58079.17526 0 .83886-.2611 1.4747-.58022 3.0032-1.5073 3.6931-2.3586 3.3314-4.11l-.19304-.93462.76883-.87512c1.513-1.7221 1.9859-3.0277 1.3998-3.8645-.20885-.29818-.39939-.3556-1.1799-.3556h-.93083l.0777-1.4c.071-1.2783.0462-1.4398-.28525-1.8572-.60939-.76757-1.5853-1.3828-2.1936-1.3828-1.1655 0-3.322.7458-3.9382 1.3619-.13885.13885-.32914.53722-.42286.88526-.19191.7127-.41192.77781-1.3309.39385-.7252-.30301-1.2073-.1355-1.7832.61956-.62883.82444-1.0288 2.0155-1.2815 3.8161-.12338.87916-.25757 1.6317-.29822 1.6724-.0406.0406-.40723-.0393-.81465-.1776-1.3374-.45407-1.9174-.32311-3.005.67864-.24299.22378-.57924.83175-.76073 1.3755-.44404 1.3303-.92139 2.0656-1.7112 2.6361-1.9933 1.4398-3.7291 4.6552-3.3432 6.193.1173.46736.0439.47463 1.7706-.17527zm-36.965-.6431c-.0054-.89722-.50927-1.998-1.8672-4.0794-.60338-.92486-.95868-1.2949-1.5364-1.6-.71743-.37894-.78178-.47191-1.4206-2.0523-.76446-1.8912-.99339-2.2002-1.7949-2.4228-.91099-.25305-1.456-.19219-2.2039.24612-.80722.47306-.78548.50153-.9227-1.2079-.12727-1.5855-.41346-2.6182-1.0692-3.8584l-.54018-1.0216-.80862-.0473c-.6495-.038-.8669.0171-1.1048.28-.40537.44792-.51285.4149-.7231-.22217-.22274-.6749-1.2345-1.6132-2.2239-2.0624-1.7136-.77796-4.2407-.0657-4.832 1.3618-.1863.44979-.1276 1.9732.10828 2.81.09776.3468.06337.36-.93758.36-1.3143 0-1.4755.16484-1.3501 1.3804.10897 1.0558.60105 1.8804 1.7655 2.9586l.79809.73896-.34588.48574c-.42219.59292-.44971 1.4893-.06588 2.1461.42968.73524 1.9825 1.814 3.3956 2.3589.70073.27023 1.4045.49133 1.564.49133.15948 0 .52765-.252.81816-.56.67545-.71611 1.3659-.77639 2.774-.24219.4135.15688.79175.24529.84056.19648.1344-.1344-.33017-.78719-1.5047-2.1143-2.0661-2.3345-2.8061-3.518-3.3653-5.3819-.38623-1.2875-.38874-2.5381-.0051-2.5381.14562 0 .27562.21634.33651.56.26552 1.4985 1.6075 4.1234 3.1272 6.1164 2.19 2.8723 6.4951 6.2073 7.1688 5.5534.09213-.0894-.16954-.76393-.68-1.7528-.7902-1.5308-.97621-2.1309-.70976-2.2896.066-.0393.876.97508 1.8 2.2542 1.9307 2.6729 2.4686 3.1833 3.8681 3.6711 1.4833.51698 1.653.46378 1.6471-.51634zm-11.783-.34042c-.14096-.7196-5.4376-1.7261-6.0197-1.1439-.24972.24972-.24592.71579.0071.87216.23416.14472 3.5959.48827 5.0526.51634.86058.0166 1.004-.0199.96-.24458zm62.428-.22577c1.364-.19006 2.5726-.43281 2.6859-.53945.50561-.47616-.31263-1.0507-1.4964-1.0507-.78186 0-3.9688.9663-4.4743 1.3566-.31216.24104-.31219.24566-.004.48411.17139.13241.42339.20795.56.16786.13662-.0401 1.3644-.2284 2.7284-.41846zm-83.135-2.0067c.13838-.0531.51653-.4671.84032-.92 1.2264-1.7154 2.2392-2.5034 3.2173-2.5034.25069 0 .58156-.092.73528-.20437.25663-.18765.21038-.2956-.56559-1.32-1.0899-1.4388-3.3327-5.1715-3.3327-5.5466 0-.51171.26056-.31191.92714.71093 1.2195 1.8712 5.2198 6.04 5.7959 6.04.07386 0 .21635-.414.31665-.92s.21422-1.0333.25316-1.1718c.04357-.15494-.18339-.45604-.59015-.78292-1.1983-.96298-1.5014-2.2497-1.1075-4.7015.2147-1.3364.16063-1.5258-.64249-2.2514-.97777-.88337-1.825-.70505-2.457.51713-.14517.28073-.31796.51042-.38398.51042-.06602 0-.26217-.30253-.43589-.67228-1.0378-2.2089-4.1712-1.8548-5.3625.60601-.41904.86562-.36549 1.9032.15043 2.9145l.32145.6301-.64965.52207c-1.3575 1.0909-1.4605 2.7947-.24898 4.1196.18104.198.43302.36.55994.36.26314 0 .21526.31505-.21947 1.4442-.24572.63822-.252.77902-.05295 1.1856.27436.56042.8338.99171 1.6751 1.2914.71991.25646.90408.2773 1.2562.14219zm101.51-1.0024c.38093-.15461.93893-.47766 1.24-.71788.46836-.37371.54706-.53398.54504-1.11-.001-.37025-.10647-.85318-.23372-1.0732-.4624-.79942-.46116-.82709.0555-1.2314.69429-.54337.97649-1.1556 1.0892-2.3632.0913-.97756.0741-1.0467-.36644-1.4771-.25421-.24834-.62418-.5588-.82215-.6899-.35072-.23227-.35379-.2585-.12-1.0238.28042-.91794.31105-2.1251.0701-2.7642-.38904-1.0319-1.8986-2.1199-2.9502-2.1263-.71815-.004-1.4555.52889-2.0789 1.5034-.69949 1.0935-.82944 1.1718-.95981.57818-.0576-.26239-.31516-.65409-.57228-.87044-.38637-.32511-.5508-.36948-.94759-.25568-.57167.16396-1.377.71379-1.582 1.0801-.0814.1454-.10828 1.2351-.0604 2.4452.11749 2.9678.047 3.2787-.8414 3.7103-.38808.18854-.74681.45022-.7972.58151-.13498.35176.22031 1.8882.48801 2.1103.1853.15378.34928.1018.83121-.26346 1.0621-.80496 3.5527-3.4476 4.7222-5.0103.62503-.83523 1.1634-1.4376 1.1964-1.3386.13143.3943-2.0492 4.19-3.2535 5.6632-.47561.5818-.86474 1.1384-.86474 1.237 0 .19993.33006.28639 1.5514.40642.45727.0449 1.0693.20162 1.36.34818.77128.3888 1.5686 1.2011 1.5686 1.5982 0 .18961.079.57148.17565.84861.2053.58893.51147.62922 1.557.2049zm-108.58-2.221c.13503-.154.36729-.52029.51614-.81398.25786-.50877.25492-.5857-.06208-1.6294-.52462-1.7272-1.6476-2.9698-3.0311-3.3541-.70173-.19492-2.5277-.21476-2.6427-.0287-.12957.20965.91935 1.7036 2.546 3.6262 2.3291 2.7529 2.2477 2.6859 2.6738 2.2zm116.34-3.8804c1.7237-1.9484 2.8284-3.3912 2.8284-3.6938 0-.24761-.54671-.28845-1.7843-.13327-1.4953.1875-1.9065.36688-2.7261 1.1892-.93563.93877-1.7274 2.9861-1.4761 3.8169.1475.48764.73055 1.0802 1.01 1.0264.13067-.0252 1.0973-1.0176 2.1481-2.2054zm-56.852.56155c2.596-.12991 5.5004-.31138 6.4541-.40327 3.3232-.32016 7.5031-1.235 9.4391-2.066.91845-.39421 1.0539-.40256 1.6356-.10079.32342.16779.52938.18618.75184.0671.34431-.18427.75779-1.0593.76223-1.6131.002-.20083.3994-.97175.88397-1.7132.48458-.74142.82145-1.4076.74861-1.4805-.0729-.0729-2.5196-.0541-5.4371.0416-6.7075.22008-6.8616.19997-9.0524-1.1817l-1.626-1.0254-3.1135.152-.16324-.42936c-.089783-.23618-.16324-.88404-.16324-1.4397v-1.0103l-3.08-.11557c-5.2201-.19588-5.3331-.19366-5.6699.11142-.35182.31871-.94103 1.8481-.77571 2.0134.0617.0617 1.5102.13784 3.2189.16917l3.1067.057v.97581l-3.7593-.11124c-2.4459-.0724-3.9745-.0533-4.3753.0546-.33883.0912-1.3652.5801-2.2807 1.0864l-1.6647.9205-5.547.08c-3.0508.044-5.589.12212-5.6403.17359-.05131.0515.19934.50225.557 1.0017.46145.6444.70195 1.1859.82819 1.8648.10883.58521.30684 1.0769.50997 1.2663.39439.36783 4.1227 1.4719 6.4921 1.9226 1.5252.29011 4.6978.72295 6.32.86225 1.6521.14187 6.3545.0844 10.64-.13007zm-12.067-3.4237c-1.2648-.0597-2.0894-.16509-2.1247-.27163-.1012-.30569 13.678-.50978 18.966-.2809 1.334.0577 2.4254.15651 2.4254.21949 0 .26851-15.102.52955-19.267.33304zm.42707-1.5638c-.374-.0397-.68-.14179-.68-.22691 0-.40165 1.1712-.46678 8.3704-.46545 7.2691.001 9.2296.0694 9.2296.32022 0 .0644-.486.16004-1.08.21259-1.3593.12025-14.923.25688-15.84.15955zm-47.302.61076c-.35312-2.081-.43693-3.8018-.27276-5.6008.23788-2.6068.69353-4.1394 2.3087-7.7655.66518-1.4934.65125-1.5671-.60764-3.2183-.78651-1.0316-1.9336-3.3955-2.4844-5.12-.4447-1.3922-.83132-2.32-.96676-2.32-.26363 0-.81239.71043-2.0262 2.6232-1.3644 2.15-2.3023 4.2637-3.2334 7.2864-.98416 3.1952-1.1477 4.1425-1.2465 7.2183-.10259 3.1964-.09151 3.2399 1.2186 4.7921.40853.484.93744 1.1438 1.1754 1.4662.48774.66099.84812.77248 3.5573 1.1006.88.10657 1.7061.25053 1.8359.31992.12973.0694.37202.0533.53842-.0358.24451-.13086.28352-.27407.20337-.74644zm114-1.2334c.0673-.0416.88969-.18334 1.8275-.31499.93786-.13165 1.8402-.3116 2.0051-.39988.16495-.0883.42495-.42399.57776-.74602s.69573-1.0322 1.2065-1.5782l.92864-.99272v-2.408c0-3.3754-.38216-5.6995-1.4573-8.8626-1.0808-3.1798-4.7046-9.5255-5.1767-9.0652-.0583.05684-.53515 1.2448-1.0597 2.64-1.1889 3.1622-1.717 4.296-2.5629 5.5018-.8204 1.1696-.80282 1.3832.31389 3.8162 1.7772 3.872 2.2348 6.7092 1.7534 10.871-.21968 1.899-.17202 1.9953.87141 1.7608.35749-.0803.70504-.18007.77234-.22166zm-111.73-2.5736c.46111-.12352.83359-.8281.83359-1.5768 0-1.2053-1.5669-1.8883-2.1812-.95076-.36218.55275-.36976 1.6557-.0151 2.197.28572.43614.64401.52304 1.3627.33052zm108.9-.94528c.80747-.52908.90771-1.6856.2108-2.4322-.65119-.69764-1.7848-.31152-1.9691.67069-.1299.69242.0232 1.1638.53088 1.6343.47449.43974.71273.46443 1.2274.12722zm-101.35-1.0288c-.24842-.86617-2.7037-5.7065-3.3418-6.5881-.4402-.60815-.89168-1.0193-1.3774-1.2545-.7158-.34651-.72748-.34695-1.2422-.0464-.75364.44015-.65913.79124.44043 1.6362.93216.71631 1.4881 1.4566 3.5148 4.6797 1.2495 1.9872 2.3789 2.8728 2.0062 1.573zm92.836-1.1047c.48653-.52551 1.3045-1.5547 1.8177-2.2871s1.6019-1.9971 2.4192-2.8104 1.4861-1.5472 1.4861-1.6309c0-.26024-.68981-.65032-1.15-.65032-.56169 0-1.2998.64828-2.4196 2.1252-1.2795 1.6874-3.8372 6.0018-3.7275 6.2876.13525.35245.5315.0922 1.5742-1.034zm-96.606.17582c-.45322-1.0847-1.86-3.235-2.4167-3.6938-.57703-.47563-1.2197-.69482-1.6045-.54718-.50254.19284-.15877.78832 1.2699 2.1996.814.80414 1.7594 1.8076 2.101 2.23.69546.86002 1.0461.75835.65039-.1886zm101.73-2.0771c1.2651-1.3142 2.1972-2.4126 2.1972-2.5892 0-.50253-.58586-.55908-1.413-.13638-.81787.41795-2.052 1.9081-2.9038 3.5064-.50503.94753-.6305 1.6427-.28037 1.5534.11152-.0284 1.1915-1.0789 2.4-2.3342zm-68.599-.9975c.43838 0 .54503-.50303.62924-2.9677.08782-2.5707.31651-3.9123.66687-3.9123.10439 0 .41785.4041.69659.89799.27874.4939.63872.93249.79997.97466.42755.11181.66224 1.24.7421 3.5674.03775 1.1.1008 2.09.14013 2.2.12116.33889.71877.22838.86522-.16.07466-.198.16746-2.2211.20622-4.4958.07022-4.1212.06923-4.1367-.28145-4.3664-.28527-.18692-.54475-.1993-1.3702-.0654-.56004.0909-1.4503.16675-1.9783.16862-1.7191.006-1.6183-.13465-1.7272 2.4114-.12541 2.9323.04367 7.0032.26031 6.2676.08423-.286.24191-.52.3504-.52zm7.2389.8585.3625-.0971-.0425-4.4207-.042494-4.4207-.88-.0935c-.484-.0515-.96341-.0643-1.0654-.0285-.3741.1313-.57501.98301-.47219 2.0017.05553.5502.16698 2.3324.24767 3.9604.08068 1.628.15191 2.9734.15828 2.9899.0064.0164.24559.0589.53159.0944s.592.0751.68.088.32312-.0203.5225-.0737zm-10.439-.3385c.42806-1.015.52642-25.671.10535-26.41-.37998-.66634-.73753-.37621-.85184.69123-.18052 1.6857-.15449 25.347.02826 25.689.20628.38543.56195.40003.71822.0295zm13.68-.13042c.17216-.4528.2124-6.3772.05236-7.7096-.07959-.66266-.16132-.84-.3871-.84-.22676 0-.30893.18195-.39565.87603-.14119 1.13-.02677 7.6216.13896 7.884.19893.31489.42186.23558.59142-.21042zm7.2487-.0583c.27898-.27897-.0604-.45488-1.0904-.56519-.85651-.09167-1.0422-.16299-1.0422-.40016 0-.1634.15618-.33141.36-.38726.57152-.15663.02637-.4133-.884-.41622-.72162-.002-.76932.0242-.86.47755-.09382.46909-.20777.54897-.696.48789-.58309-.0729-.63478-.43912-.53134-3.7642.10395-3.3416.02851-4.2848-.31523-3.9411-.20034.20034-.39525 7.6702-.21852 8.3745.09042.36034.10894.36261 2.6127.3203 1.3869-.0234 2.5862-.10716 2.6651-.18606zm5.9473-4.4857c0-2.1882-.0552-4.0339-.12267-4.1014-.35526-.35561-.46756.43926-.54768 3.8764-.08774 3.7639.02929 4.8444.4763 4.3976.14167-.1416.19405-1.268.19405-4.1726zm2.9281.0429c.04814-3.9396-.0227-4.5378-.48292-4.0776-.14309.14309-.18992 1.1879-.17636 3.9344.01901 3.8504.09371 4.596.42707 4.2631.12608-.12588.19927-1.4245.23221-4.12zm1.5395 3.9116c.04055-.198.11905-1.2555.17444-2.35.06296-1.2442.18792-2.1586.33342-2.44.28033-.54211.33274-.5494.69892-.0972l.28572.35285.10831-.49313c.05957-.27121.28454-.73198.49993-1.0239.21539-.29194.39162-.66682.39162-.83306 0-.49112.37278-.23296.76.52632.26597.52153.36.98251.36 1.7649 0 1.1952.54181 4.439.78146 4.6787.08637.0864.26987.11373.40778.0608.21838-.0838.25076-.61043.25076-4.079v-3.9827l-.84-.10089c-.462-.0555-1.758-.10152-2.88-.10229l-2.04-.001v3.9869c0 2.1928.0437 4.1008.09712 4.24.14354.37408.52571.30715.61052-.10691zm-77.728-.38167c.14864-.59223-.07036-4.3579-.33273-5.7213-.67538-3.5096-2.0746-5.2336-5.2579-6.4782-1.6792-.65652-2.5556-.8119-2.7555-.48851-.05789.09367.15022.55507.46246 1.0253.31224.47027 1.3003 2.3196 2.1956 4.1097 1.6699 3.3386 2.6131 4.8877 4.0175 6.5981 1.2302 1.4982 1.4961 1.6502 1.6706.9549zm86.515-2.1638c.0577-1.334.10498-7.0802.10498-12.769 0-10.959-.003-11-.73058-10.861-.24469.04671-.33121.2428-.4136.9374-.13452 1.1341-.16773 23.959-.03582 24.618.08258.41288.1758.5.53502.5h.43502zm-15.77-3.2866c-.05718-2.4728-.35761-2.9938-.53038-.91979-.14265 1.7125-.02043 6.015.1797 6.3258.19907.30918.40826-2.9158.35068-5.406zm-37.977 4.9032c.19519-.18939.30599-17.174.13928-21.351l-.1277-3.2-1.3143-.09616-.09775.71316c-.05376.39224-.14771 5.9004-.20877 12.24-.12302 12.774-.17048 12.137.89054 11.942.31364-.0576.63705-.16947.71869-.24866zm68.271-2.0712c.12025-2.236.17406-22.954.0599-23.068-.13239-.13238-1.5194.12438-1.712.31691-.21931.21932-.38957 17.964-.21106 21.999l.11893 2.6878 1.6452-.0956zm32.79.45193c1.3105-1.3503 3.0965-4.3774 4.8453-8.2119.48159-1.056 1.1705-2.4398 1.5308-3.0751s.6552-1.2244.6552-1.3092c0-.38922-.70577-.30848-2.0674.23652-1.647.6592-3.0112 1.4966-3.8864 2.3856-1.0892 1.1064-1.8918 3.8557-2.223 7.615-.28042 3.1826-.0714 3.6131 1.1456 2.3591zm-68.666-2.3802c.14262-2.557.06486-3.0948-.43376-2.9997-.19704.0376-.29713.28679-.37338.92966-.16788 1.4154-.14983 4.1007.03075 4.5756.1468.38613.19458.41012.40255.20216.17379-.1738.2723-.8873.37384-2.7077zm3.2832 2.5283c.21757-.75683.3056-5.0043.11124-5.3675-.24423-.45635-.4294-.44506-.75101.0458-.23283.35534-.24125.63579-.07805 2.6.20635 2.4835.30062 3.0817.4857 3.0817.07075 0 .1752-.162.23212-.36zm41.173-3.4926c.28954-.56269.21306-23.559-.0793-23.851-.53671-.53657-.56543-.0031-.64602 12.001-.0437 6.5087-.0332 11.955.0234 12.102.13405.34932.45137.23571.70197-.25131zm-86.116-4.9074c.11597-5.0484-.01865-17.765-.19287-18.219-.09415-.24534-.34814-.28109-.64722-.0911-.15086.09584-.22125 2.7506-.30216 11.398l-.10548 11.273.41452.44c.22798.242.48164.44.56368.44.08673 0 .19955-2.1932.26954-5.24zm-20.562 2.4629c.74936-1.6527.74935-1.653-.12609-2.9889-1.3353-2.0376-3.5445-3.8932-5.2439-4.4047-.6193-.18638-.73817-.18544-.81179.0064-.12677.33035.08584.6141.99869 1.3329.44999.35433 1.1643 1.1363 1.5875 1.7378.9007 1.2803 2.4744 4.2448 2.4744 4.6613 0 .30261.28705.67227.52204.67227.07592 0 .34556-.45768.5992-1.0171zm11.418.0171c.13413-.50052.09453-19.627-.04166-20.12-.13519-.48888-.72104-.6241-.90314-.20846-.06951.15865-.18125 3.2045-.24831 6.7685-.06706 3.564-.20404 6.984-.3044 7.6-.24234 1.4875-.23476 4.0388.01446 4.8707.17898.59738.91817 1.4493 1.2575 1.4493.07099 0 .17248-.162.22554-.36zm67.762-.84886c1.3806-.23858-.12878-.39778-4.5487-.47974-5.3764-.0997-9.6897.0582-9.7891.35835-.03942.11901.16453.20848.54706.24 1.0354.0853 13.217-.0195 13.791-.11861zm-17.29-.0495c.36488-.23138-1.7608-.33936-6.6904-.33987-5.2535-.00048-8.8.13765-8.8.3429 0 .17561 15.213.17263 15.49-.003zm53.996-.37179c.19062-.25531.35761-.85504.44271-1.5899.19349-1.6709.18876-18.259-.005-18.77-.16704-.43934-.65411-.55038-.92292-.21042-.38373.48529-.3699 21.163.0141 21.035.091-.0303.30315-.23961.47149-.46509zm12.445-1.3558c.89839-2.2168 1.8013-3.6229 3.355-5.2246.77648-.80049 1.3765-1.5126 1.3333-1.5825-.12211-.19759-.76546-.15006-1.3661.10091-.78744.32901-2.3336 1.5121-3.2105 2.4565-.84264.9076-2.0057 2.6311-2.142 3.1742-.14486.57718.89497 2.7027 1.2623 2.5803.10061-.0335.44624-.7107.76807-1.5048zm-71.533.34651c1.2256-.21568 1.511-.21346 2.9292.0228 1.8298.30484 2.7417.15847 2.9089-.46692.66765-2.4967.90917-2.969 1.2051-2.3565.51837 1.073.95935 2.1205.96138 2.2835.0013.10805.06554.29608.14266.41784.15023.2372.53307.24001 5.5349.04065l2.56-.10204.0472-1.0751c.04618-1.052.03783-1.0775-.38735-1.1842-.239-.05998-1.6642-.06661-3.1672-.01474-2.7786.09592-3.6127.0406-3.6127-.23961 0-.08602.396-.69865.88-1.3614 1.3868-1.8989 1.1526-2.3654-.78713-1.5679l-.94713.38937-.94872-.71317c-1.0842-.81501-1.5051-.87937-2.0384-.31168-.22904.2438-.48391.36761-.64894.31523-.15871-.05037-.31084.01557-.36569.15851-.12853.33493-.73235.30696-1.624-.07523-1.1426-.48978-1.1864-.45388-.86391.70781.1092.39331.50685.97645 1.0646 1.5612.48965.51335.83688.98684.77161 1.0522-.06527.06535-1.5628.1325-3.3279.14922-1.7651.01672-3.2629.08872-3.3285.16-.0656.07128-.0824.54608-.03733 1.0551.07013.7921.14245.95839.50168 1.1536.53905.29292.92035.29315 2.5776.0014zm22.762-.18147c.154-.04438.28-.17328.28-.28644 0-.22148-1.605-.4127-3.4641-.4127h-1.0159v-35.68h-.70288c-.51622 0-.73531.07436-.82501.28-.24948.572-.39992 11.515-.3129 22.76.04938 6.38.13308 12.059.18601 12.62l.09624 1.0196 2.7393-.10965c1.5066-.060304 2.8653-.14596 3.0193-.19034zm-26.878-.12414c.18667-.18667.24312-2.0473.3313-10.92.14346-14.436.1302-24.73-.03218-24.986-.08386-.13226-.36673-.192-.75755-.16l-.62372.051072-.10193 1.36c-.05606.748-.15584 8.6518-.22172 17.564-.08584 11.611-.17028 16.235-.2979 16.314-.09796.06054-1.0782.13394-2.1783.1631-1.1001.02917-2.1622.08721-2.3602.12899-.38617.08148-.48937.47099-.16.6039.11.04439 1.5449.08639 3.1886.09333 2.3675.01 3.0353-.03413 3.2136-.21238zm-49.286-1.7477c.30312-.47652-.10163-2.8036-.72369-4.1609-.20833-.45454-.97206-1.6142-1.6972-2.5769-.72512-.96278-1.423-1.9528-1.5508-2.2-.12784-.24722-.33341-.4495-.45682-.4495-.49952 0-.53433 3.6436-.04598 4.8124.13023.31169.69672 1.1384 1.2589 1.8372.56215.69876 1.2966 1.691 1.6322 2.205.55225.84594.65056.92436 1.0372.82731.23492-.05896.48074-.19149.54628-.29452zm52.373-1.1343c.29758-.21746.31403-.5374.39296-7.64.09113-8.2007-.07097-25.014-.2454-25.453-.14083-.35457-.49118-.36224-.62494-.01368-.05621.14647-.14639 5.7805-.20041 12.52-.09387 11.712.01804 20.814.25592 20.814.0612 0 .25104-.10213.42186-.22696zm15.868-.37304c.15525-.55514.1278-29.337-.029982-31.442-.082112-1.0952-.17746-1.5583-.32084-1.5583-.11754 0-.24667.28819-.30468.68-.14509.97999-.33422 31.444-.19966 32.16.1408.74959.66295.84728.85516.16zm52.966-.42539c.28469-.47596.9976-1.43 1.5842-2.12.58665-.69003 1.2326-1.6167 1.4353-2.0593.66958-1.4614.86127-4.4075.31621-4.8598-.1416-.11752-.58686.33893-1.6593 1.701-2.071 2.6303-2.4084 3.3199-2.5979 5.3081-.0844.88562-.12525 1.7014-.0908 1.8128.0344.11143.106.4006.15902.6426.053.242.15022.44.21599.44.0658 0 .35249-.38943.63718-.86539zm-130.22-3.474c.18269-.1702.37707-.48838.43196-.70708.15406-.61381-.0845-1.8221-.42746-2.1651-.41388-.41388-1.1562-.38967-1.6727.05455-.37462.32224-.42149.47676-.41719 1.3755.00542 1.1335.28524 1.7258.85744 1.815.51937.08095.8479-.01881 1.2279-.37284zm70.312-1.1252c.057177-.80552.10396-7.2453.10396-14.311 0-12.313-.035406-13.363-.43703-12.961-.052659.052659-.12942 4.6859-.17058 10.296-.074041 10.093.053487 18.44.28172 18.44.06489 0 .16476-.65906.22194-1.4646zm-3.4185-13.046c.0014-7.9854-.05846-13.988-.14001-14.039-.07835-.04842-.19093.17035-.25018.48617-.14259.76006-.13648 27.269.0064 27.641.08716.22713.13967.2432.24608.07533.07441-.11738.13639-6.4912.13773-14.164zm-70.151 11.551c.32211-1.3857.43998-4.2808.25081-6.1605-.30003-2.9812-1.723-7.1876-3.1121-9.2-.47248-.68445-2.2058-2.48-2.3941-2.48-.34767 0 .42559 6.5553 1.2456 10.56.69975 3.4172 1.9194 6.8304 2.9001 8.1162.3733.48942.44965.52599.65969.31596.13064-.13064.33315-.64888.45002-1.1516zm142.99.38666c.18854-.23068.28-.62024.28-1.1926 0-.68475-.0819-.94736-.42141-1.3508-1.0971-1.3039-2.568.37975-2.0425 2.338.19838.7393 1.637.8746 2.1839.20539zm2.2372-1.5471c.70432-.79897 2.227-4.6462 2.9024-7.3332.52399-2.0846 1.5403-9.3034 1.5403-10.941 0-.27512-.0845-.48631-.19456-.48631-.10701 0-.70738.5229-1.3342 1.162-1.9009 1.9383-2.9999 4.5734-3.7565 9.0075-.39241 2.2996-.45938 5.131-.16755 7.0833.25468 1.7038.50604 2.0789 1.0101 1.5072zm-142.39-5.1317c-.02114-2.054-.10479-3.1938-.28645-3.9029-.39482-1.5411-2.2429-4.7654-2.7314-4.7654-.43894 0-.28386.72422 1.045 4.88.33766 1.056.80494 2.892 1.0384 4.08.52514 2.6724.54841 2.7524.7779 2.6736.13419-.04606.17806-.87686.15657-2.9653zm139.55-1.108c.23603-1.0341.8145-3.3923 1.2855-5.2403.94265-3.6986 1.0433-4.2629.77635-4.3528-.26172-.08815-1.9255 2.4399-2.2856 3.4728-.43535 1.2489-.87158 4.9196-.7728 6.503.1434 2.2985.40779 2.197.99657-.3827zm-136.98.31974c.03997-.066.19193-1.632.33769-3.48s.33651-3.972.4239-4.72c.53117-4.5467.62158-5.4348.62303-6.12.00088-.418-.06139-.76-.13837-.76-.25806 0-2.2504 2.0864-2.6423 2.7671-.98499 1.7107-1.4641 5.2227-.99424 7.2884.37963 1.6691 1.1566 4.0147 1.5318 4.6246.30032.48809.694.67153.85845.4zm134.8-3.2417c.85348-2.1628 1.1738-3.586 1.2611-5.6024.0948-2.1906-.11638-3.2059-1.0546-5.0697-.44944-.89286-.9158-1.5184-1.6449-2.2062l-1.0176-.96-.0481.65697c-.0265.36133.13296 2.5573.35424 4.88.22127 2.3227.47827 5.123.57111 6.223.33249 3.9396.66925 4.3829 1.5787 2.0783zm-116.14-7.6385c.82282-.4134 1.2833-1.1973 1.2826-2.1834-8e-4-1.0622-.43552-1.7794-1.3227-2.1821-.87983-.3994-1.4544-.39227-2.3243.02885-.79355.38415-1.3027 1.2424-1.3089 2.2064-.0047.74119.57139 1.8843 1.0923 2.1673.58859.31972 1.9086.30079 2.581-.03702zm-.53036-1.7209c-.42545-.11691-.81739-.25642-.87098-.31001-.05359-.05359.08723-.4735.31293-.93312l.41037-.83569-.15446 1.6277.69784.33818c.79899.3872.70251.41474-.3957.11295zm99.106 1.6374c.90542-.61016 1.3078-1.3492 1.2241-2.2481-.11965-1.2843-1.0204-2.185-2.3047-2.3047-.89891-.08375-1.638.31865-2.2481 1.2241-1.3565 2.0129 1.3159 4.6852 3.3287 3.3287zm-1.8496-1.2362c.21666-.484.39463-.97942.39549-1.1009.001-.16614.15037-.19634.60156-.12176.33.05455.708.10704.84.11664.132.0096-.0833.10368-.47855.20906-.50674.13512-.81329.33703-1.04.685-.1768.27137-.40942.62809-.51694.7927s-.0182-.09671.19844-.58071zm-119.53.29553c.77103-.3513.77394-2.3192.004408-2.9811-.97325-.83716-2.2105.44272-1.9208 1.987.19322 1.03.96217 1.4288 1.9163.9941zm143.23-2.2795c.43816-.43816.544-.66909.544-1.1869 0-.86666-.11788-1.1191-.65144-1.395-.69109-.35738-1.1999-.29159-1.5927.20592-.69793.88411-.10669 2.92.848 2.92.16946 0 .55291-.2448.85211-.544zm-146.53-1.416c.62413-1.5126 1.4251-4.0433 1.7588-5.5566.19661-.8918.26557-2.0113.2663-4.3234.000992-3.1008-.0028128-3.1348-.61617-5.52-.66769-2.5965-1.1655-4.08-1.3692-4.08-.22198 0-.3285.93457-.3285 2.8822 0 1.0352-.14597 4.1042-.32438 6.82-.33835 5.1504-.45271 9.9608-.25147 10.578.064581.198.17785.36.25171.36s.34967-.522.61292-1.16zm149.41-1.511c.1485-.79159-.0584-7.5538-.33594-10.979-.12256-1.5126-.26564-3.7941-.31795-5.0701-.0523-1.276-.13557-2.7149-.185-3.1975l-.0899-.87746-.30423.37571c-.41356.51073-1.0594 2.691-1.4408 4.8641-.65668 3.7413-.56324 7.5885.26102 10.747.60304 2.3107 1.7074 4.7282 2.1601 4.7282.078 0 .19176-.26596.25274-.59104zm-142.44-.82794c.39177-.4329 2.1149-5.2286 2.652-7.381.68813-2.7574.97378-4.9396.97724-7.4655.003534-2.5796-.078556-3.0945-.49342-3.0945-.42988 0-2.1202 1.9335-2.768 3.1662-.82008 1.5606-1.2196 3.1634-1.3833 5.5503-.15051 2.1939.02619 7.0437.31145 8.5478.08964.47267.16298.88558.16298.91756 0 .15858.30065.02474.54098-.24082zm135.04-1.8677c.47807-1.2458.67173-8.8414.28538-11.193-.3214-1.9565-.96555-3.2037-2.8753-5.5671-1.2905-1.5971-1.5734-1.378-1.6109 1.2471-.0196 1.371.36695 6.0312.61163 7.374.17265.94752 2.4567 7.1571 2.9019 7.889.33357.5485.54357.62498.68735.25029zm-138.55-.50302c.28285-.41625.35299-.6472.23846-.7852-.11324-.13645-.03989-.49664.24285-1.1924.91373-2.2487.96562-6.9988.10331-9.457-.68432-1.9508-.91899-2.4557-1.1414-2.4557-.26349 0-.26201.16868.015386 1.76.14149.81165.17089 2.7168.10679 6.92-.048649 3.19-.060928 5.8-.027285 5.8s.24149-.26536.46188-.5897zm142.07-2.8903c-.0742-.858-.13027-4.062-.12458-7.12.006-3.058-.042-5.56-.10599-5.56-.14532 0-1.049 2.3421-1.3557 3.5136-.26775 1.0228-.29004 2.8825-.065 5.4247.19126 2.1609.37269 2.9659.96948 4.3017.65886 1.4747.84457 1.3222.68177-.56zm-66.746-.48475c.20671-.20671-4.0401-.34704-7.1914-.23764-1.4315.0497-2.5596.13356-2.5069.18637.3066.30746 9.3941.35549 9.6984.05127zm-6.7487-6.2847c0-3.6153-.09056-4.4993-.38288-3.7375-.12647.32958-.1268 7.3234-.00032 7.6529.28095.73223.3832-.31246.3832-3.9154zm1.6252.08143c-.01366-2.0801-.07089-3.8565-.12717-3.9475-.26828-.43408-.40172.639-.49108 3.9491-.07682 2.8454-.05325 3.6461.11323 3.8467.45072.54308.5299-.06028.50502-3.8482zm1.4948-.18612c0-2.7588-.05355-3.9566-.17875-3.9985-.09831-.03293-.22431.16794-.28.44638-.13683.68413-.1296 7.5846.0081 7.7222.36156.36156.45067-.46295.45067-4.1701zm1.5739.56514c-.027263-3.5284-.14268-4.8014-.38183-4.211-.15733.38839-.19714 7.6616-.04278 7.816.35608.35608.44912-.43376.42461-3.605zm-70.486-4.163c.1087-.1087.192-.62933.192-1.2 0-1.1539-.32514-1.648-1.0844-1.648-.99288 0-1.5199.9613-1.0905 1.989.37432.89588 1.4709 1.3709 1.9829.85896zm137.32-1.4127c.41203-.22051.79114-.98495.79114-1.5953 0-1.4223-1.2647-2.1098-2.1861-1.1884-.36522.36521-.40346.50956-.33947 1.2812.1096 1.3217.85912 1.9709 1.7344 1.5024zm-67.142-.93419c.71597-.15502.67106-.44452-.08777-.56586-1.076-.17206-4.619.07114-4.619.31705 0 .11302.162.2367.36.27483.55569.10703 3.8226.08748 4.3468-.02601zm-72.28-2.0125c.8121-.69512 2.6832-2.9099 3.5219-4.1686 2.3662-3.5514 3.037-5.7051 2.8996-9.3087-.06857-1.7984-.10129-1.9487-.66575-3.0585-.59688-1.1735-.98444-1.5378-1.2239-1.1504-.07107.11499-.21412.78978-.3179 1.4995-.26947 1.8429-.78856 3.381-2.49 7.378-1.9788 4.6486-3.066 8.2515-2.7434 9.0922.14586.38012.2913.33966 1.0194-.28358zm141.12-2.0775c-.12564-1.3454-1.4112-5.1727-2.9864-8.8911-1.422-3.3565-1.781-4.4779-2.218-6.9279-.1695-.95033-.35221-1.7719-.406-1.8257-.20963-.20963-.74433.51968-1.1233 1.5321-1.5558 4.1566-.4062 9.4289 2.9527 13.541 1.1111 1.3603 3.3977 3.6 3.6756 3.6.15109 0 .17747-.25748.10543-1.0289zm-135.12-.5695c.31922-.26313 1.1213-1.3611 1.7824-2.44 1.7932-2.9263 2.2177-4.4624 1.8703-6.7676-.20176-1.3388-.36819-1.8247-.53346-1.5573-.05363.08678-.27276 1.0539-.48694 2.1492-.44872 2.2947-.82554 3.2678-2.3629 6.1019-1.2186 2.2464-1.445 2.7508-1.3001 2.8957.18936.18936.45853.0896 1.0306-.38197zm128.93-1.4816c-.00096-.11-.57224-1.3372-1.2694-2.7272-1.5-2.9909-1.8396-3.9577-2.1687-6.1733-.27635-1.861-.36903-2.1152-.61254-1.6801-.24458.43704-.34089 4.4838-.12562 5.278.19136.7059 2.028 3.8717 2.6194 4.5151.3663.39848 1.2225.98587 1.4386.98695.066.00032.11915-.0894.11812-.1994zm-124.02-2.6917c2.3126-2.1399 4.1561-4.294 4.8342-5.6488.78253-1.5634 1.2072-2.9451.97624-3.1761-.233-.233-2.8045 1.1732-3.6803 2.0125-.86249.82658-2.0024 3.1158-2.8987 5.8214-.35661 1.0765-.64839 1.9945-.64839 2.04 0 .21037.27973.0033 1.4169-1.049zm119.56-1.1965c-.5252-1.6984-1.6014-4.4081-2.0851-5.25-.66007-1.1488-1.8035-2.2057-3.2104-2.9675-.66-.35735-1.254-.65075-1.32-.65198-.21657-.0041-.12572.89103.1809 1.7822.61281 1.7812 1.1791 2.7293 2.4077 4.0317 1.6333 1.7312 4.1685 4.1601 4.2534 4.0751.0373-.03729-.0646-.49607-.22651-1.0195zm-61.73-.75173c.10332-1.4979-.0358-4.6-.2063-4.6-.14234 0-.3164 1.8056-.31789 3.2977-.0013 1.3376.15433 2.6223.31775 2.6223.06346 0 .15636-.594.20644-1.32zm1.4513.56c.16312-1.2663.1463-5.021-.02325-5.1906-.10307-.10307-.19588-.09487-.26921.02377-.15585.25216-.31444 4.9852-.18441 5.5033.16312.6499.36847.50499.47687-.33649zm1.8229-2.1221c.03862-2.7292-.08045-3.5871-.42388-3.0539-.18195.2825-.41002 4.9782-.26907 5.5398.07044.28066.19467.40021.37906.36479.24474-.04701.27855-.35405.31388-2.8506zm-58.827-4.9456c.82084-.82084.59054-2.329-.44829-2.9357-.3183-.1859-.64348-.26024-.85068-.19447-.52429.1664-.95206 1.0151-.95274 1.8902-.00048.64071.0791.852.4671 1.24.28195.28195.63633.46769.89231.46769s.61036-.18575.89231-.46769zm115.74-1.4444c.36158-.69922.31714-1.952-.0875-2.4664-.71627-.91058-2.2284-.2858-2.2284.92073 0 1.1889.62266 2.0177 1.5159 2.0177.45375 0 .60075-.08674.8-.47205zm-116.41-3.8543c3.5626-2.1522 5.4925-3.8615 6.414-5.6809.5178-1.0224.56304-1.2308.61848-2.8508.06225-1.8187-.12322-2.8811-.53028-3.0373-.15508-.05951-1.138.99256-3.0116 3.2234-3.9304 4.6798-6.0352 7.8268-6.0352 9.0234 0 .45233.03387.4816.45898.39658.25244-.05049 1.191-.53402 2.0857-1.0745zm6.1461-.45129c.75781-.71007 1.5845-2.0986 2.0562-3.4534.69089-1.9846.55032-3.1342-.20274-1.6581-.39228.76894-1.8606 2.8357-3.3103 4.6596-.95414 1.2004-1.12 1.5301-.88714 1.763.13981.13981 1.7667-.77017 2.344-1.3111zm111.63-.036086c0-1.124-1.6357-3.6573-4.9934-7.7338-3.3734-4.0954-3.5823-4.3325-3.8174-4.3325-.81677 0-.80668 4.1091.0146 5.9659.16733.37828.72093 1.1019 1.2302 1.6079 1.0572 1.0505 3.6284 2.9921 4.8801 3.6852 1.4044.77753 2.4364 1.3011 2.5646 1.3011.0667 0 .12127-.22216.12127-.49369zm-108.54-.16493c.52841-.58705 1.5407-1.2061 4.9707-3.0397 4.6664-2.4946 6.4755-3.758 6.2442-4.3609-.12664-.33003-1.2887-.49716-3.4701-.49911-1.6776-.0015-1.9177.03653-2.72.43081-1.3507.66378-2.6572 1.9364-3.8076 3.709-1.0981 1.6921-1.9521 3.3624-1.9523 3.8186-.00016.38154.3651.35241.73508-.05862zm102.3.04151c-.001-.22584-.67122-1.1764-2.0214-2.8681-.77992-.97724-1.6216-2.0777-1.8705-2.4454-1.1615-1.7165-.64424 1.1406.53785 2.9707.87721 1.3581 2.5887 2.7396 3.1345 2.5301.12105-.04645.21982-.13075.21949-.18734zm-4.7994-1.3914c0-.34582-1.6272-3.1312-2.5834-4.4221-1.8377-2.481-3.267-3.1281-6.2804-2.843-1.8879.17861-2.8162.41137-2.8162.70614 0 .60505 3.1719 2.8326 5.3546 3.7604 1.8809.79954 3.2676 1.4883 4.8054 2.3869 1.2172.71123 1.52.79324 1.52.41163zm-95.063-7.0145c1.4839-.82865 2.9369-2.1345 3.3696-3.0284.41149-.85003.4763-3.0544.10461-3.558-.14889-.20173-.2804-.2545-.37522-.15058-.08029.088-.8671 1.06-1.7485 2.16-.88136 1.1-1.9013 2.3596-2.2665 2.7991-.7287.87698-1.235 2.004-1.0808 2.4059.12715.33136.4744.22215 1.9968-.62798zm94.202-.16858c.1638-.42685-.89174-2.0696-2.8325-4.4084-1.0589-1.276-2.0628-2.4599-2.2311-2.6308-.3023-.30721-.30872-.304-.55059.27486-.3205.76707-.31177 2.0863.0184 2.7821.40495.85336 2.0042 2.3507 3.5448 3.3191 1.4461.90893 1.9003 1.0558 2.0509.66315zm-87.305-.72506c.16096-.08614.37222-.38489.46948-.66388.46355-1.3297-.029294-2.3795-1.1171-2.3795-.53798 0-.67874.07647-.95716.52-.84647 1.3485.33346 3.2038 1.6048 2.5234zm79.697-.80901c.26003-.13916.30948-.34188.30948-1.2686 0-.78934-.0715-1.1744-.25143-1.3544-.49931-.49931-1.521-.20095-1.9139.55893-.62363 1.206.70278 2.6811 1.8559 2.064zm-73.051-2.0148c.528-.31881 1.572-.84929 2.32-1.1788 1.596-.70315 3.9773-2.0819 4.6797-2.7095.89783-.80221.30483-1.1295-2.0397-1.1259-1.3033.00204-2.0515.29348-3.105 1.2094-1.1534 1.0028-3.215 3.7596-3.215 4.2989 0 .21328.47315.04138 1.36-.4941zm66.189-.47612c-.0681-.40752-1.2689-2.2046-2.0953-3.1358-.97697-1.1008-2.6225-1.8876-3.9476-1.8876-1.2576 0-2.6264.2824-2.6264.54187 0 .32776.97929 1.1425 2.16 1.797 1.7991.99734 6.2254 3.1014 6.4 3.0422.088-.02984.13719-.19079.10932-.35766zm-69.584-1.4037c.67082-.28702 1.1156-.7848 2.5192-2.8197.63738-.924 1.3406-1.8759 1.5627-2.1153.35013-.37743.3689-.44866.14125-.53602-.79514-.30512-3.508 1.2879-5.2421 3.0781-1.5514 1.6017-1.8524 2.0524-1.5855 2.374.25712.3098 1.8968.32171 2.6045.018905zm73.715-.42117c.9907-.28249 1.0522-.37829.63078-.98199-.20601-.2951-.88221-1.0661-1.5027-1.7133-.96644-1.0081-1.3981-1.3124-3.0119-2.1231-1.5312-.76924-1.9014-.90064-1.9776-.702-.10929.28481.0484.54255 1.7264 2.8216 1.2675 1.7215 2.0488 2.4688 2.8265 2.7035.5886.17766.67025.17737 1.3085-.00463zm-59.693-5.6499c.74082-.36867 1.3768-.75992 1.4133-.86945.13676-.41027-3.4872-.092514-4.8003.4209-.78232.30589-.44224.76788.76 1.0324.78355.17242 1.3685.042409 2.627-.58388zm46.531.14249c1.6084-.52877 1.3011-.85729-1.3406-1.4331-1.4691-.32023-2.0442-.38472-2.36-.26464-.22966.087318-.41757.21814-.41757.29072 0 .22052.36818.51596.643.51596.14244 0 .72204.28478 1.288.63283.56595.34806 1.101.61055 1.189.5833.088-.02724.53715-.17352.99812-.32507zm-91.635 116.5c-.79041-.39765-.82707-1.5432-.07349-2.2968.43761-.4376.8796-.40462 1.4113.10532.24438.2344.28047.42128.19344 1.0017-.17133 1.1425-.74274 1.5865-1.5312 1.1898zm133.02-1.5487c-.18401-.0744-.42729-.35916-.54063-.63278-.17551-.42374-.16545-.60384.0679-1.2149.41192-1.0786 1.2953-1.1438 1.9504-.1439.22183.33855.23372.49988.0757 1.0272-.30693 1.0245-.73997 1.2933-1.5534.96433zm-145.15-25.392c-.28954-.1165-.67663-.92321-.67663-1.4101 0-.2272.10143-.65583.22539-.95253.61882-1.4811 2.3763-.33416 2.0058 1.3089-.21208.94035-.81708 1.3504-1.5545 1.0537zm156.68-2.8055c-.35968-.42746-.41875-.62441-.35552-1.1854.0417-.37002.23678-.89879.43349-1.175.35023-.49185.36647-.49681.7813-.23844 1.0712.66716 1.2637 1.505.57787 2.5144-.49802.73291-.87299.75496-1.4371.08451zm-141.96-7.2745c-.27835-.11199-.67676-.91643-.67604-1.365.000976-.60007.5818-1.4079 1.0123-1.4079.78716 0 1.3645 1.2886.98334 2.195-.2535.6029-.73421.81343-1.3196.57791zm127.77-1.8231c-.60598-.35319-.67426-1.9677-.11187-2.6453.26066-.31407.84759-.27968 1.1623.06811.31121.34388.35935 1.6288.0809 2.1579-.31103.59091-.63249.71005-1.1313.41932zm-143.78-14.637c-.49542-.62982-.57197-1.2646-.23553-1.9532.23308-.47701.39522-.60929.79436-.64809 1.0516-.10224 1.5493 1.4043.8185 2.4778-.4377.64294-.93374.68741-1.3773.12348zm16.143-1.982c-.25106-.46911-.20057-1.8094.08344-2.2149.24527-.35017.78879-.4633 1.1202-.23315.67986.47212.88494 1.4766.46662 2.2855-.20764.40153-.33826.47205-.87437.47205-.45937 0-.67517-.08392-.79589-.30948zm143.24-.011632c-.48245-.19439-.69046-.6488-.69046-1.5084 0-.84615.40069-1.3705 1.0473-1.3705.4276 0 1.1927.6375 1.1927.99378 0 .47699-.33581 1.3224-.66406 1.6718-.38831.41333-.38869.41342-.88548.21326zm-16.539-1.6886c-.11398-.13734-.23903-.6331-.27789-1.1017-.059-.71151-.0149-.90779.26764-1.1903.36724-.36724.8275-.43026 1.2991-.17788.43231.23137.57362 1.3839.26132 2.1314-.21537.51546-.31363.58821-.79434.58821-.3019 0-.64176-.11228-.75581-.2497zm-122.91-18.581c-.32696-.085271-.75783-.84066-.75783-1.3286 0-.46614.70139-1.1207 1.2009-1.1207.85522 0 1.1241 1.7782.35084 2.3198-.18861.13211-.38091.23185-.42733.22164-.04642-.01021-.21138-.05168-.36657-.09215zm-14.274-1.3213c-.2482-.47996-.32464-1.5319-.14528-1.9993.16215-.42255.65194-.60511 1.0612-.39554 1.0095.51694 1.2197 1.6319.45231 2.3992-.60348.60348-1.0546.60204-1.3682-.0044zm133.95-.12795c-.63215-.70147-.38962-1.9299.45722-2.3157.59826-.27259 1.1055.28874 1.1055 1.2234 0 1.1492-.92734 1.7974-1.5627 1.0924zm13.561-1.6711c-.34602-.41123-.4126-.61901-.34056-1.0629.23285-1.4348 1.7183-1.7678 2.1654-.48541.26185.75114.2207 1.0228-.23739 1.5672-.53959.64126-1.037.63535-1.5874-.01887zm-120.77-13.061c-.33382-.36886-.34205-1.2859-.01573-1.7518.30209-.4313.88611-.46082 1.2461-.063.29714.32834.35213 1.3253.09917 1.7979-.2132.39838-.97557.40806-1.3296.01688zm94.852-.83261c-.26599-.43038-.36548-1.1568-.21683-1.5832.18534-.53167.64608-.70573 1.2-.45335.64099.29205.68886 1.247.0963 1.9218-.26976.3072-.91799.37612-1.0795.11479zm-110.73-3.9172c-.48697-.74321-.19972-1.6994.64658-2.1523.80031-.42831 1.3819.37965 1.0574 1.469-.30964 1.0395-1.229 1.4082-1.7039.68335zm125.96-1.6502c-.33619-.37148-.34499-1.4417-.0157-1.9118.13699-.19558.41528-.3556.61842-.3556.52551 0 1.2125.58993 1.2125 1.0412 0 .4864-.28591 1.2379-.53001 1.3931-.34347.2184-1.0155.13113-1.2852-.16689zm-92.976-6.783c-.75942-1.0842.3891-2.6988 1.2461-1.7518.58308.6443.15597 2.1074-.6152 2.1074-.21322 0-.49185-.15704-.63093-.3556zm60.738-.49148c-.38057-.45856-.38959-1.136-.0214-1.6042.69922-.88892 1.6471-.10335 1.3461 1.1156-.13111.53092-.21998.62229-.64567.66383-.28086.02741-.57355-.04813-.67905-.17525zm-77.629-6.2329c-.17438-.286-.31732-.60834-.31765-.71631-.00096-.33418.74693-.70851 1.3081-.65467.489.046921.52941.092693.50733.57463-.030755.67135-.45315 1.3164-.86205 1.3164-.18781 0-.44885-.21352-.63571-.52zm94.408-.63017c-.29915-.3211-.41118-.79382-.33412-1.4098.0417-.33342.47899-.64.91284-.64.44586 0 .69505.43023.69505 1.2 0 1.1468-.61487 1.5571-1.2738.84983zm-46.406-2.0486c-.132-.084644-.348-.12087-.48-.080497-.1414.043244-.31121-.079608-.41332-.29902-.14574-.31317-.1148-.42455.19451-.70006.30961-.27578.39713-.29234.55291-.10463.10179.12265.33142.22301.51028.22301.30662 0 .30985.016964.05655.29686-.15107.16693-.22446.41204-.16768.56.11603.30236.07921.31753-.25326.10434z" style="fill:#000000"/>
	</g>
</svg>
