<?xml version="1.0" encoding="UTF-8" standalone="no"?>
<svg
   xmlns:dc="http://purl.org/dc/elements/1.1/"
   xmlns:cc="http://creativecommons.org/ns#"
   xmlns:rdf="http://www.w3.org/1999/02/22-rdf-syntax-ns#"
   xmlns:svg="http://www.w3.org/2000/svg"
   xmlns="http://www.w3.org/2000/svg"
   xmlns:sodipodi="http://sodipodi.sourceforge.net/DTD/sodipodi-0.dtd"
   xmlns:inkscape="http://www.inkscape.org/namespaces/inkscape"
   version="1.1"
   id="svg2"
   xml:space="preserve"
   width="793.70135"
   height="1122.52"
   viewBox="0 0 793.70135 1122.52"
   sodipodi:docname="logo_ru_ai.ai"><metadata
     id="metadata8"><rdf:RDF><cc:Work
         rdf:about=""><dc:format>image/svg+xml</dc:format><dc:type
           rdf:resource="http://purl.org/dc/dcmitype/StillImage" /></cc:Work></rdf:RDF></metadata><defs
     id="defs6"><clipPath
       clipPathUnits="userSpaceOnUse"
       id="clipPath18"><path
         d="M 0,841.89 H 595.276 V 0 H 0 Z"
         id="path16" /></clipPath></defs><sodipodi:namedview
     pagecolor="#ffffff"
     bordercolor="#666666"
     borderopacity="1"
     objecttolerance="10"
     gridtolerance="10"
     guidetolerance="10"
     inkscape:pageopacity="0"
     inkscape:pageshadow="2"
     inkscape:window-width="640"
     inkscape:window-height="480"
     id="namedview4" /><g
     id="g10"
     inkscape:groupmode="layer"
     inkscape:label="logo_ru_ai"
     transform="matrix(1.3333333,0,0,-1.3333333,0,1122.52)"><g
       id="g12"><g
         id="g14"
         clip-path="url(#clipPath18)"><g
           id="g20"
           transform="translate(408.1981,411.0579)"><path
             d="m 0,0 -4.531,9.075 c -0.204,0.337 -0.711,0.572 -1.156,0.286 -3.693,-2.564 -8.637,-4.074 -14.12,-4.074 -11.798,0 -20.071,9.564 -20.071,21.368 0,11.805 8.273,21.375 20.071,21.375 5.489,0 10.433,-1.517 14.12,-4.081 0.413,-0.235 0.927,-0.127 1.149,0.279 l 4.544,9.089 c 0.241,0.463 0.127,0.92 -0.272,1.167 -5.522,3.89 -12.259,6.176 -19.541,6.176 -18.779,0 -33.998,-15.226 -33.998,-34.005 0,-18.773 15.219,-34.004 33.998,-34.004 7.282,0 14.006,2.291 19.541,6.175 C 0.133,-0.901 0.247,-0.47 0,0 m -130.047,0 -4.532,9.075 c -0.196,0.337 -0.71,0.572 -1.155,0.286 -3.693,-2.564 -8.631,-4.074 -14.114,-4.074 -11.804,0 -20.077,9.564 -20.077,21.368 0,11.805 8.273,21.375 20.077,21.375 5.493,0 10.427,-1.517 14.121,-4.081 0.406,-0.235 0.92,-0.127 1.142,0.279 l 4.544,9.089 c 0.248,0.463 0.134,0.92 -0.266,1.167 -5.528,3.89 -12.268,6.176 -19.541,6.176 -18.779,0 -34.004,-15.226 -34.004,-34.005 0,-18.773 15.225,-34.004 34.004,-34.004 7.273,0 14.007,2.291 19.534,6.175 0.407,0.273 0.521,0.704 0.267,1.174 m 65.599,59.041 h -11.589 c -0.552,-0.006 -1.038,-0.279 -1.326,-0.705 l -28.369,-40.921 h -0.974 l 0.974,22.193 v 18.621 c 0,0.45 -0.368,0.812 -0.806,0.812 h -11.341 c -0.444,0 -0.806,-0.368 -0.806,-0.812 V -4.918 c 0,-0.445 0.355,-0.806 0.806,-0.806 h 9.342 c 0.546,0 1.034,0.273 1.326,0.698 l 30.622,44.164 h 0.974 L -76.589,16.945 V -4.912 -4.918 c 0,-0.445 0.355,-0.806 0.806,-0.806 h 11.335 c 0.438,0 0.805,0.355 0.812,0.793 v 63.16 c 0,0.444 -0.368,0.806 -0.812,0.812 m -130.479,0 h -11.588 c -0.553,-0.006 -1.038,-0.279 -1.327,-0.705 L -236.21,17.415 h -0.974 l 0.974,22.193 v 18.621 c 0,0.45 -0.368,0.812 -0.806,0.812 h -11.342 c -0.444,0 -0.805,-0.368 -0.805,-0.812 V -4.918 c 0,-0.445 0.355,-0.806 0.805,-0.806 h 9.343 c 0.545,0 1.034,0.273 1.326,0.698 l 30.621,44.164 h 0.975 l -0.975,-22.193 V -4.912 -4.918 c 0,-0.445 0.356,-0.806 0.807,-0.806 h 11.334 c 0.438,0 0.806,0.355 0.813,0.793 v 63.16 c 0,0.444 -0.368,0.806 -0.813,0.812 m -70.432,-0.812 -0.007,-63.16 c -0.006,-0.438 -0.362,-0.793 -0.806,-0.793 H -277.5 c -0.451,0 -0.813,0.361 -0.813,0.806 v 21.863 l 0.971,21.718 h -0.971 l -18.385,-26.256 h -2.088 l -18.386,26.256 h -0.971 l 0.971,-21.718 V -4.918 c 0,-0.445 -0.362,-0.806 -0.806,-0.806 h -11.335 c -0.444,0 -0.796,0.355 -0.806,0.793 v 63.16 c 0,0.444 0.362,0.812 0.806,0.812 h 11.297 c 0.546,0 1.034,-0.273 1.326,-0.685 l 18.951,-27.113 18.947,27.113 c 0.289,0.412 0.777,0.685 1.324,0.685 h 11.296 c 0.451,0 0.813,-0.368 0.813,-0.812"
             style="fill:#5f5c5d;fill-opacity:1;fill-rule:nonzero;stroke:none"
             id="path22" /></g><g
           id="g24"
           transform="translate(450.4587,528.3848)"><path
             d="m 0,0 c -11.335,0 -21.613,-4.481 -29.182,-11.76 -0.317,-0.292 -0.329,-0.818 -0.012,-1.142 l 8.009,-8.016 c 0.318,-0.324 0.835,-0.324 1.149,-0.013 5.223,4.944 12.274,7.978 20.036,7.978 16.088,0 29.143,-13.048 29.143,-29.143 0,-16.095 -13.055,-29.143 -29.143,-29.143 -7.756,0 -14.803,3.027 -20.023,7.965 -0.349,0.33 -0.844,0.317 -1.155,0 l -8.016,-8.015 c -0.317,-0.318 -0.311,-0.826 0.01,-1.137 7.568,-7.285 17.849,-11.766 29.184,-11.766 23.247,0 42.096,18.849 42.096,42.096 C 42.096,-18.849 23.247,0 0,0 m 0,25.906 v 0 -12.147 C 0,13.315 0.339,12.94 0.85,12.94 30.856,12.49 55.045,-11.976 55.045,-42.096 55.045,-72.216 30.856,-96.688 0.844,-97.138 0.355,-97.138 0,-97.507 0,-97.951 v -11.335 c 0,-0.431 0.339,-0.781 0.774,-0.806 37.203,0.419 67.222,30.698 67.222,67.996 0,37.558 -30.441,68.002 -67.996,68.002 m 0,12.141 c 0,0.444 -0.359,0.8 -0.794,0.806 -44.082,-0.426 -79.737,-36.08 -80.155,-80.156 0,-0.438 0.362,-0.787 0.8,-0.793 h 11.353 c 0.438,0.006 0.8,0.362 0.8,0.831 0.45,37.171 30.717,67.171 67.996,67.171 z m 16.189,-80.143 c 0,-8.942 -7.254,-16.19 -16.189,-16.19 -8.943,0 -16.193,7.248 -16.193,16.19 0,8.942 7.25,16.19 16.193,16.19 8.935,0 16.189,-7.248 16.189,-16.19"
             style="fill:#199cd9;fill-opacity:1;fill-rule:nonzero;stroke:none"
             id="path26" /></g><g
           id="g28"
           transform="translate(94.9507,383.9536)"><path
             d="m 0,0 c 0.25,0 0.396,-0.22 0.293,-0.44 l -7.104,-15.332 c -1.766,-3.7 -3.213,-5.33 -5.889,-5.33 h -0.149 c -0.53,0 -1.376,0.119 -1.831,0.295 -0.133,0.044 -0.207,0.177 -0.207,0.325 v 2.136 c 0,0.205 0.133,0.279 0.339,0.205 0.474,-0.178 0.801,-0.253 1.175,-0.253 h 0.118 c 1.383,0 2.176,0.577 3.256,2.858 l 0.077,0.163 -6.916,14.933 C -16.94,-0.221 -16.795,0 -16.545,0 h 2.515 c 0.206,0 0.369,-0.103 0.457,-0.281 l 3.755,-8.095 1.506,-4.252 h 0.079 l 1.506,4.252 3.754,8.095 C -2.884,-0.104 -2.722,0 -2.516,0 Z"
             style="fill:#5f5c5d;fill-opacity:1;fill-rule:nonzero;stroke:none"
             id="path30" /></g><g
           id="g32"
           transform="translate(107.9516,378.0172)"><path
             d="m 0,0 c 0.176,0 0.294,-0.118 0.294,-0.294 v -14.253 c 0,-0.176 -0.118,-0.294 -0.294,-0.294 h -2.354 c -0.177,0 -0.294,0.118 -0.294,0.294 v 6.089 H -9.41 v -6.089 c 0,-0.176 -0.117,-0.294 -0.294,-0.294 h -2.354 c -0.176,0 -0.294,0.118 -0.294,0.294 v 14.253 c 0,0.176 0.118,0.294 0.294,0.294 h 2.354 c 0.177,0 0.294,-0.118 0.294,-0.294 v -5.835 h 6.762 v 5.835 c 0,0.176 0.117,0.294 0.294,0.294 z"
             style="fill:#5f5c5d;fill-opacity:1;fill-rule:nonzero;stroke:none"
             id="path34" /></g><g
           id="g36"
           transform="translate(123.9941,378.0167)"><path
             d="M 0,0 C 0.176,0 0.294,-0.117 0.294,-0.294 V -14.546 C 0.294,-14.723 0.176,-14.84 0,-14.84 h -2.354 c -0.177,0 -0.294,0.117 -0.294,0.294 v 6.099 l 0.087,4.377 h -0.25 l -2.433,-4.231 -3.649,-6.23 c -0.104,-0.192 -0.178,-0.309 -0.385,-0.309 h -2.883 c -0.177,0 -0.295,0.117 -0.295,0.294 v 14.252 c 0,0.177 0.118,0.294 0.295,0.294 h 2.354 c 0.176,0 0.294,-0.117 0.294,-0.294 V -5.97 l -0.088,-4.8 h 0.251 l 2.719,4.654 3.363,5.807 C -3.165,-0.117 -3.09,0 -2.884,0 Z"
             style="fill:#5f5c5d;fill-opacity:1;fill-rule:nonzero;stroke:none"
             id="path38" /></g><g
           id="g40"
           transform="translate(130.5092,365.3459)"><path
             d="m 0,0 h 3.279 c 1.98,0 2.729,0.929 2.729,2.081 v 0.283 c 0,1.227 -0.749,2.11 -2.729,2.11 H 0 Z m 0,6.207 h 2.769 c 1.98,0 2.774,1.02 2.774,2.097 v 0.283 c 0,1.152 -0.749,1.915 -2.728,1.915 l -2.815,0 z m 3.136,6.464 c 3.589,0 5.349,-1.423 5.349,-3.851 V 8.581 C 8.485,7.288 7.8,6.111 6.475,5.469 8.165,4.941 9.008,3.712 9.008,2.159 V 1.921 c 0,-2.428 -1.76,-4.09 -5.349,-4.09 h -6.307 c -0.177,0 -0.294,0.117 -0.294,0.294 v 14.252 c 0,0.176 0.117,0.294 0.294,0.294 z"
             style="fill:#5f5c5d;fill-opacity:1;fill-rule:nonzero;stroke:none"
             id="path42" /></g><g
           id="g44"
           transform="translate(148.4662,376.1898)"><path
             d="m 0,0 c -2.05,0 -3.425,-1.583 -3.482,-4.266 h 6.93 C 3.483,-1.369 2.403,0 0.18,0 Z m 0.283,2.213 c 3.533,0 5.928,-2.228 5.928,-6.577 v -1.267 c 0,-0.25 -0.191,-0.44 -0.44,-0.44 h -9.246 l 0.004,-1.021 c -0.004,-2.576 1.799,-3.949 4.193,-3.949 h 0.133 c 1.414,0 2.93,0.491 4.456,1.146 0.147,0.059 0.294,-0.029 0.294,-0.206 v -1.784 c 0,-0.236 -0.088,-0.369 -0.265,-0.443 -1.027,-0.522 -3.218,-1.071 -4.863,-1.071 H 0.226 c -3.767,0 -6.716,2.27 -6.716,6.61 v 1.938 c 0,4.466 2.857,7.064 6.446,7.064 z"
             style="fill:#5f5c5d;fill-opacity:1;fill-rule:nonzero;stroke:none"
             id="path46" /></g><g
           id="g48"
           transform="translate(164.2577,376.0002)"><path
             d="m 0,0 c -1.137,0 -2.369,-0.514 -3.563,-1.713 v -7.352 c 1.212,-1.217 2.468,-1.742 3.563,-1.742 h 0.103 c 2.157,0 3.37,1.436 3.37,4.174 v 2.459 C 3.473,-1.437 2.26,0 0.103,0 Z m 0.949,2.403 c 3.592,0 5.524,-2.636 5.524,-6.519 v -2.386 c 0,-4.349 -2.384,-6.708 -5.801,-6.708 H 0.451 c -1.344,0 -2.856,0.524 -4.013,1.731 v -6.007 c 0,-0.177 -0.118,-0.294 -0.295,-0.294 h -2.354 c -0.176,0 -0.294,0.117 -0.294,0.294 V 1.723 c 0,0.176 0.118,0.294 0.294,0.294 h 2.092 c 0.148,0 0.251,-0.089 0.28,-0.236 L -3.73,0.318 c 1.168,1.325 2.831,2.085 4.458,2.085 z"
             style="fill:#5f5c5d;fill-opacity:1;fill-rule:nonzero;stroke:none"
             id="path50" /></g><g
           id="g52"
           transform="translate(180.6158,378.4025)"><path
             d="m 0,0 c 1.44,0 3.086,-0.549 4.037,-1.071 0.177,-0.074 0.266,-0.207 0.266,-0.443 v -1.784 c 0,-0.177 -0.148,-0.265 -0.295,-0.206 -1.348,0.669 -2.42,1.101 -3.63,1.101 H 0.169 c -2.329,0 -4.197,-1.538 -4.197,-4.537 v -1.732 c 0,-2.999 1.868,-4.538 4.197,-4.538 h 0.209 c 1.21,0 2.282,0.433 3.63,1.102 0.147,0.059 0.295,-0.03 0.295,-0.206 v -1.784 c 0,-0.236 -0.089,-0.369 -0.266,-0.443 C 3.086,-15.063 1.44,-15.612 0,-15.612 h -0.327 c -3.589,0 -6.702,2.3 -6.702,6.897 v 1.818 C -7.029,-2.3 -3.916,0 -0.327,0 Z"
             style="fill:#5f5c5d;fill-opacity:1;fill-rule:nonzero;stroke:none"
             id="path54" /></g><g
           id="g56"
           transform="translate(200.3951,378.0167)"><path
             d="M 0,0 C 0.176,0 0.294,-0.117 0.294,-0.294 V -14.546 C 0.294,-14.723 0.176,-14.84 0,-14.84 h -2.354 c -0.177,0 -0.294,0.117 -0.294,0.294 v 6.099 l 0.087,4.377 h -0.25 l -2.433,-4.231 -3.649,-6.23 c -0.104,-0.192 -0.178,-0.309 -0.385,-0.309 h -2.883 c -0.177,0 -0.295,0.117 -0.295,0.294 v 14.252 c 0,0.177 0.118,0.294 0.295,0.294 h 2.354 c 0.176,0 0.294,-0.117 0.294,-0.294 V -5.97 l -0.088,-4.8 h 0.251 l 2.719,4.654 3.363,5.807 C -3.165,-0.117 -3.09,0 -2.884,0 Z"
             style="fill:#5f5c5d;fill-opacity:1;fill-rule:nonzero;stroke:none"
             id="path58" /></g><g
           id="g60"
           transform="translate(215.2732,378.0172)"><path
             d="M 0,0 C 0.176,0 0.294,-0.118 0.294,-0.294 V -2.036 C 0.294,-2.212 0.176,-2.33 0,-2.33 h -4.558 v -12.217 c 0,-0.176 -0.118,-0.294 -0.294,-0.294 h -2.354 c -0.177,0 -0.294,0.118 -0.294,0.294 V -2.33 h -4.558 c -0.177,0 -0.294,0.118 -0.294,0.294 v 1.742 c 0,0.176 0.117,0.294 0.294,0.294 z"
             style="fill:#5f5c5d;fill-opacity:1;fill-rule:nonzero;stroke:none"
             id="path62" /></g><g
           id="g64"
           transform="translate(223.7688,376.1898)"><path
             d="m 0,0 c -2.05,0 -3.425,-1.583 -3.482,-4.266 h 6.93 C 3.483,-1.369 2.403,0 0.18,0 Z m 0.283,2.213 c 3.533,0 5.928,-2.228 5.928,-6.577 v -1.267 c 0,-0.25 -0.191,-0.44 -0.44,-0.44 h -9.246 l 0.004,-1.021 c -0.004,-2.576 1.799,-3.949 4.193,-3.949 h 0.133 c 1.414,0 2.93,0.491 4.456,1.146 0.147,0.059 0.294,-0.029 0.294,-0.206 v -1.784 c 0,-0.236 -0.088,-0.369 -0.265,-0.443 -1.027,-0.522 -3.218,-1.071 -4.863,-1.071 H 0.226 c -3.767,0 -6.716,2.27 -6.716,6.61 v 1.938 c 0,4.466 2.857,7.064 6.446,7.064 z"
             style="fill:#5f5c5d;fill-opacity:1;fill-rule:nonzero;stroke:none"
             id="path66" /></g><g
           id="g68"
           transform="translate(243.8566,378.0172)"><path
             d="M 0,0 C 0.176,0 0.294,-0.118 0.294,-0.294 V -2.036 C 0.294,-2.212 0.176,-2.33 0,-2.33 h -4.558 v -12.217 c 0,-0.176 -0.118,-0.294 -0.294,-0.294 h -2.354 c -0.177,0 -0.294,0.118 -0.294,0.294 V -2.33 h -4.558 c -0.177,0 -0.294,0.118 -0.294,0.294 v 1.742 c 0,0.176 0.117,0.294 0.294,0.294 z"
             style="fill:#5f5c5d;fill-opacity:1;fill-rule:nonzero;stroke:none"
             id="path70" /></g><g
           id="g72"
           transform="translate(264.8188,378.0172)"><path
             d="m 0,0 c 0.176,0 0.294,-0.118 0.294,-0.294 v -14.253 c 0,-0.176 -0.118,-0.294 -0.294,-0.294 h -2.354 c -0.177,0 -0.294,0.118 -0.294,0.294 v 6.089 H -9.41 v -6.089 c 0,-0.176 -0.117,-0.294 -0.294,-0.294 h -2.354 c -0.176,0 -0.294,0.118 -0.294,0.294 v 14.253 c 0,0.176 0.118,0.294 0.294,0.294 h 2.354 c 0.177,0 0.294,-0.118 0.294,-0.294 v -5.835 h 6.762 v 5.835 c 0,0.176 0.117,0.294 0.294,0.294 z"
             style="fill:#5f5c5d;fill-opacity:1;fill-rule:nonzero;stroke:none"
             id="path74" /></g><g
           id="g76"
           transform="translate(274.3895,370.2867)"><path
             d="m 0,0 c -2.607,-0.075 -3.777,-1.003 -3.777,-2.696 v -0.119 c 0,-1.438 1.05,-2.381 2.684,-2.381 h 0.133 c 1.12,0 2.214,0.513 3.36,1.736 v 3.528 z m -0.049,8.116 c 3.298,0 5.36,-1.482 5.391,-5.608 V -6.816 C 5.342,-6.992 5.224,-7.11 5.047,-7.11 H 2.956 c -0.148,0 -0.251,0.088 -0.28,0.236 L 2.533,-5.283 C 1.387,-6.526 -0.375,-7.496 -2.095,-7.496 h -0.164 c -2.866,0 -4.474,1.85 -4.474,4.23 v 0.235 c 0,3.061 2.067,4.558 6.552,4.808 l 2.578,0.13 -0.005,0.508 c 0.007,2.35 -0.801,3.342 -3.068,3.342 h -0.09 c -1.413,0 -2.99,-0.49 -4.516,-1.058 -0.147,-0.044 -0.294,0.03 -0.294,0.206 v 1.741 c 0,0.236 0.088,0.383 0.265,0.443 1.275,0.507 3.279,1.027 5.112,1.027 z"
             style="fill:#5f5c5d;fill-opacity:1;fill-rule:nonzero;stroke:none"
             id="path78" /></g><g
           id="g80"
           transform="translate(295.3941,378.0167)"><path
             d="M 0,0 C 0.22,0 0.352,-0.176 0.278,-0.396 L -5.229,-15.86 c -0.907,-2.568 -2.088,-4.323 -4.746,-4.323 h -0.207 c -0.852,0 -2.017,0.279 -2.422,0.459 -0.163,0.06 -0.236,0.207 -0.236,0.37 v 1.724 c 0,0.177 0.147,0.295 0.324,0.236 0.785,-0.282 1.393,-0.43 2.014,-0.43 h 0.089 c 1.044,0 1.642,0.523 2.183,1.963 l 0.376,1.021 h -0.381 c -0.163,0 -0.296,0.103 -0.356,0.266 l -5.028,14.178 C -13.692,-0.176 -13.56,0 -13.325,0 h 2.353 c 0.163,0 0.296,-0.103 0.355,-0.266 l 2.453,-6.819 1.458,-5.265 h 0.072 l 1.458,5.265 2.453,6.819 C -2.664,-0.103 -2.531,0 -2.368,0 Z"
             style="fill:#5f5c5d;fill-opacity:1;fill-rule:nonzero;stroke:none"
             id="path82" /></g><g
           id="g84"
           transform="translate(310.5135,363.6037)"><path
             d="m 0,0 c 0.118,-0.206 0.015,-0.427 -0.221,-0.427 h -2.631 c -0.162,0 -0.309,0.073 -0.383,0.206 l -4.186,6.25 h -2.152 v -6.162 c 0,-0.176 -0.117,-0.294 -0.294,-0.294 h -2.354 c -0.176,0 -0.294,0.118 -0.294,0.294 v 14.252 c 0,0.177 0.118,0.294 0.294,0.294 h 2.354 c 0.177,0 0.294,-0.117 0.294,-0.294 v -5.76 h 2.156 l 3.675,5.834 c 0.074,0.132 0.236,0.22 0.398,0.22 h 2.485 c 0.236,0 0.339,-0.221 0.221,-0.412 L -4.822,7.289 Z"
             style="fill:#5f5c5d;fill-opacity:1;fill-rule:nonzero;stroke:none"
             id="path86" /></g><g
           id="g88"
           transform="translate(325.2653,378.0167)"><path
             d="M 0,0 C 0.176,0 0.294,-0.117 0.294,-0.294 V -14.546 C 0.294,-14.723 0.176,-14.84 0,-14.84 h -2.354 c -0.177,0 -0.294,0.117 -0.294,0.294 v 6.099 l 0.087,4.377 h -0.25 l -2.433,-4.231 -3.649,-6.23 c -0.104,-0.192 -0.178,-0.309 -0.385,-0.309 h -2.883 c -0.177,0 -0.294,0.117 -0.294,0.294 v 14.252 c 0,0.177 0.117,0.294 0.294,0.294 h 2.354 c 0.176,0 0.294,-0.117 0.294,-0.294 V -5.97 l -0.088,-4.8 h 0.251 l 2.719,4.654 3.363,5.807 C -3.165,-0.117 -3.09,0 -2.884,0 Z"
             style="fill:#5f5c5d;fill-opacity:1;fill-rule:nonzero;stroke:none"
             id="path90" /></g><g
           id="g92"
           transform="translate(347.3778,378.0167)"><path
             d="M 0,0 C 0.176,0 0.294,-0.117 0.294,-0.294 V -14.546 C 0.294,-14.723 0.176,-14.84 0,-14.84 h -2.354 c -0.176,0 -0.294,0.117 -0.294,0.294 v 6.099 l 0.087,4.377 h -0.25 l -2.433,-4.231 -3.649,-6.23 c -0.103,-0.192 -0.178,-0.309 -0.385,-0.309 h -2.883 c -0.177,0 -0.294,0.117 -0.294,0.294 v 14.252 c 0,0.177 0.117,0.294 0.294,0.294 h 2.354 c 0.176,0 0.294,-0.117 0.294,-0.294 V -5.97 l -0.087,-4.8 h 0.25 l 2.72,4.654 3.362,5.807 C -3.164,-0.117 -3.09,0 -2.884,0 Z"
             style="fill:#5f5c5d;fill-opacity:1;fill-rule:nonzero;stroke:none"
             id="path94" /></g><g
           id="g96"
           transform="translate(368.3402,378.0172)"><path
             d="M 0,0 C 0.176,0 0.294,-0.118 0.294,-0.294 V -2.036 C 0.294,-2.212 0.176,-2.33 0,-2.33 h -4.558 v -12.217 c 0,-0.176 -0.118,-0.294 -0.294,-0.294 h -2.354 c -0.177,0 -0.295,0.118 -0.295,0.294 V -2.33 h -4.557 c -0.177,0 -0.295,0.118 -0.295,0.294 v 1.742 c 0,0.176 0.118,0.294 0.295,0.294 z"
             style="fill:#5f5c5d;fill-opacity:1;fill-rule:nonzero;stroke:none"
             id="path98" /></g><g
           id="g100"
           transform="translate(376.836,376.1898)"><path
             d="M 0,0 C -2.05,0 -3.425,-1.583 -3.483,-4.266 H 3.448 C 3.483,-1.369 2.403,0 0.18,0 Z m 0.282,2.213 c 3.533,0 5.928,-2.228 5.928,-6.577 v -1.267 c 0,-0.25 -0.19,-0.44 -0.439,-0.44 h -9.246 l 0.004,-1.021 c -0.004,-2.576 1.799,-3.949 4.193,-3.949 h 0.133 c 1.414,0 2.93,0.491 4.456,1.146 0.147,0.059 0.294,-0.029 0.294,-0.206 v -1.784 c 0,-0.236 -0.088,-0.369 -0.265,-0.443 -1.027,-0.522 -3.219,-1.071 -4.863,-1.071 H 0.226 c -3.767,0 -6.716,2.27 -6.716,6.61 v 1.938 c 0,4.466 2.857,7.064 6.446,7.064 z"
             style="fill:#5f5c5d;fill-opacity:1;fill-rule:nonzero;stroke:none"
             id="path102" /></g><g
           id="g104"
           transform="translate(397.4216,378.0172)"><path
             d="m 0,0 c 0.236,0 0.339,-0.222 0.221,-0.413 l -4.312,-6.843 4.521,-7.157 c 0.118,-0.192 0.015,-0.428 -0.221,-0.428 h -2.515 c -0.161,0 -0.294,0.073 -0.383,0.206 l -2.633,4.122 -0.725,1.628 h -0.129 l -0.725,-1.628 -2.633,-4.122 c -0.088,-0.133 -0.221,-0.206 -0.383,-0.206 h -2.515 c -0.236,0 -0.339,0.236 -0.22,0.428 l 4.52,7.157 -4.326,6.843 C -12.562,-0.222 -12.474,0 -12.238,0 h 2.456 c 0.162,0 0.325,-0.089 0.398,-0.221 l 2.483,-3.866 0.728,-1.627 h 0.121 l 0.73,1.627 2.468,3.866 C -2.766,-0.089 -2.618,0 -2.457,0 Z"
             style="fill:#5f5c5d;fill-opacity:1;fill-rule:nonzero;stroke:none"
             id="path106" /></g><g
           id="g108"
           transform="translate(412.4842,378.0172)"><path
             d="m 0,0 c 0.176,0 0.294,-0.118 0.294,-0.294 v -14.253 c 0,-0.176 -0.118,-0.294 -0.294,-0.294 h -2.354 c -0.176,0 -0.294,0.118 -0.294,0.294 v 6.089 h -6.761 v -6.089 c 0,-0.176 -0.118,-0.294 -0.295,-0.294 h -2.354 c -0.176,0 -0.294,0.118 -0.294,0.294 v 14.253 c 0,0.176 0.118,0.294 0.294,0.294 h 2.354 c 0.177,0 0.295,-0.118 0.295,-0.294 v -5.835 h 6.761 v 5.835 C -2.648,-0.118 -2.53,0 -2.354,0 Z"
             style="fill:#5f5c5d;fill-opacity:1;fill-rule:nonzero;stroke:none"
             id="path110" /></g><g
           id="g112"
           transform="translate(422.5015,376.0002)"><path
             d="m 0,0 c -2.14,0 -3.654,-1.437 -3.654,-4.174 v -2.459 c 0,-2.738 1.514,-4.174 3.654,-4.174 h 0.209 c 2.14,0 3.653,1.436 3.653,4.174 v 2.459 C 3.862,-1.437 2.349,0 0.209,0 Z m 0.268,2.403 c 3.619,0 6.595,-2.359 6.595,-6.708 v -2.197 c 0,-4.349 -2.976,-6.708 -6.595,-6.708 h -0.327 c -3.619,0 -6.595,2.359 -6.595,6.708 v 2.197 c 0,4.349 2.976,6.708 6.595,6.708 z"
             style="fill:#5f5c5d;fill-opacity:1;fill-rule:nonzero;stroke:none"
             id="path114" /></g><g
           id="g116"
           transform="translate(445.0575,378.0172)"><path
             d="m 0,0 c 0.177,0 0.294,-0.118 0.294,-0.294 v -14.253 c 0,-0.176 -0.117,-0.294 -0.294,-0.294 h -2.354 c -0.176,0 -0.294,0.118 -0.294,0.294 V -2.33 H -7.75 l -0.66,-8.661 c -0.193,-2.365 -1.149,-4.236 -3.618,-4.236 h -0.178 c -0.662,0 -1.369,0.221 -1.681,0.384 -0.178,0.088 -0.237,0.206 -0.237,0.369 v 1.608 c 0,0.147 0.104,0.309 0.325,0.236 0.342,-0.135 0.61,-0.194 0.923,-0.194 h 0.134 c 0.956,0 1.358,0.855 1.462,2.153 l 0.817,10.377 C -10.448,-0.118 -10.345,0 -10.169,0 Z"
             style="fill:#5f5c5d;fill-opacity:1;fill-rule:nonzero;stroke:none"
             id="path118" /></g><g
           id="g120"
           transform="translate(455.0624,376.0002)"><path
             d="m 0,0 c -2.14,0 -3.654,-1.437 -3.654,-4.174 v -2.459 c 0,-2.738 1.514,-4.174 3.654,-4.174 h 0.209 c 2.14,0 3.653,1.436 3.653,4.174 v 2.459 C 3.862,-1.437 2.349,0 0.209,0 Z m 0.268,2.403 c 3.619,0 6.595,-2.359 6.595,-6.708 v -2.197 c 0,-4.349 -2.976,-6.708 -6.595,-6.708 h -0.327 c -3.619,0 -6.595,2.359 -6.595,6.708 v 2.197 c 0,4.349 2.976,6.708 6.595,6.708 z"
             style="fill:#5f5c5d;fill-opacity:1;fill-rule:nonzero;stroke:none"
             id="path122" /></g><g
           id="g124"
           transform="translate(474.471,378.0172)"><path
             d="M 0,0 C 0.177,0 0.294,-0.118 0.294,-0.294 V -2.036 C 0.294,-2.212 0.177,-2.33 0,-2.33 h -6.542 v -12.217 c 0,-0.176 -0.117,-0.294 -0.294,-0.294 H -9.19 c -0.176,0 -0.294,0.118 -0.294,0.294 V -0.294 C -9.484,-0.118 -9.366,0 -9.19,0 Z"
             style="fill:#5f5c5d;fill-opacity:1;fill-rule:nonzero;stroke:none"
             id="path126" /></g><g
           id="g128"
           transform="translate(489.4636,378.0167)"><path
             d="M 0,0 C 0.176,0 0.294,-0.117 0.294,-0.294 V -14.546 C 0.294,-14.723 0.176,-14.84 0,-14.84 h -2.354 c -0.177,0 -0.294,0.117 -0.294,0.294 v 6.099 l 0.087,4.377 h -0.25 l -2.433,-4.231 -3.649,-6.23 c -0.104,-0.192 -0.178,-0.309 -0.385,-0.309 h -2.883 c -0.177,0 -0.295,0.117 -0.295,0.294 v 14.252 c 0,0.177 0.118,0.294 0.295,0.294 h 2.354 c 0.176,0 0.294,-0.117 0.294,-0.294 V -5.97 l -0.088,-4.8 h 0.251 l 2.719,4.654 3.363,5.807 C -3.165,-0.117 -3.09,0 -2.884,0 Z"
             style="fill:#5f5c5d;fill-opacity:1;fill-rule:nonzero;stroke:none"
             id="path130" /></g><g
           id="g132"
           transform="translate(503.192,383.3038)"><path
             d="m 0,0 c 0.206,0.104 0.383,0.015 0.383,-0.206 v -1.449 c 0,-0.207 -0.088,-0.31 -0.206,-0.399 -0.564,-0.445 -2.047,-1.144 -3.842,-1.144 -1.794,0 -3.277,0.699 -3.841,1.144 -0.118,0.089 -0.207,0.192 -0.207,0.399 v 1.449 c 0,0.221 0.178,0.31 0.384,0.206 0.99,-0.505 2.045,-1.058 3.665,-1.058 1.619,0 2.674,0.553 3.664,1.058 z m 2.3,-5.287 c 0.176,0 0.294,-0.118 0.294,-0.294 v -14.252 c 0,-0.177 -0.118,-0.294 -0.294,-0.294 h -2.354 c -0.177,0 -0.295,0.117 -0.295,0.294 v 6.099 l 0.088,4.377 h -0.251 l -2.433,-4.231 -3.649,-6.23 c -0.103,-0.192 -0.178,-0.309 -0.385,-0.309 h -2.883 c -0.176,0 -0.294,0.117 -0.294,0.294 v 14.252 c 0,0.176 0.118,0.294 0.294,0.294 h 2.354 c 0.177,0 0.294,-0.118 0.294,-0.294 v -5.676 l -0.087,-4.8 h 0.25 l 2.72,4.654 3.362,5.807 c 0.104,0.191 0.178,0.309 0.385,0.309 z"
             style="fill:#5f5c5d;fill-opacity:1;fill-rule:nonzero;stroke:none"
             id="path134" /></g></g></g></g></svg>
