<?xml version="1.0" encoding="UTF-8" standalone="no"?>
<!-- Created with Inkscape (http://www.inkscape.org/) -->

<svg
   xmlns:dc="http://purl.org/dc/elements/1.1/"
   xmlns:cc="http://creativecommons.org/ns#"
   xmlns:rdf="http://www.w3.org/1999/02/22-rdf-syntax-ns#"
   xmlns:svg="http://www.w3.org/2000/svg"
   xmlns="http://www.w3.org/2000/svg"
   xmlns:sodipodi="http://sodipodi.sourceforge.net/DTD/sodipodi-0.dtd"
   xmlns:inkscape="http://www.inkscape.org/namespaces/inkscape"
   version="1.1"
   id="svg1392"
   width="1024"
   height="683"
   viewBox="0 0 1024 683"
   sodipodi:docname="rgo.svg"
   inkscape:version="0.92.3 (2405546, 2018-03-11)">
  <metadata
     id="metadata1398">
    <rdf:RDF>
      <cc:Work
         rdf:about="">
        <dc:format>image/svg+xml</dc:format>
        <dc:type
           rdf:resource="http://purl.org/dc/dcmitype/StillImage" />
        <dc:title></dc:title>
      </cc:Work>
    </rdf:RDF>
  </metadata>
  <defs
     id="defs1396" />
  <sodipodi:namedview
     pagecolor="#ffffff"
     bordercolor="#666666"
     borderopacity="1"
     objecttolerance="10"
     gridtolerance="10"
     guidetolerance="10"
     inkscape:pageopacity="0"
     inkscape:pageshadow="2"
     inkscape:window-width="1920"
     inkscape:window-height="1017"
     id="namedview1394"
     showgrid="false"
     inkscape:zoom="1.1942822"
     inkscape:cx="526.86123"
     inkscape:cy="341.5"
     inkscape:window-x="-9"
     inkscape:window-y="-9"
     inkscape:window-maximized="1"
     inkscape:current-layer="svg1392" />
  <path
     style="fill:#283957"
     d="m 500.23259,660.29199 c -2.20432,-0.42353 -2.24859,-0.66318 -1.59124,-8.61382 0.3719,-4.49799 0.71723,-8.84959 0.76741,-9.67021 0.0707,-1.15528 -1.80592,-1.66567 -8.31414,-2.26129 -4.62295,-0.42309 -8.56422,-0.6104 -8.75838,-0.41625 -0.19415,0.19415 -0.68673,4.36173 -1.09462,9.26129 L 480.5,657.5 h -4.49646 -4.49647 l 0.28838,-4 c 1.33111,-18.46331 3.48176,-39.14852 4.14007,-39.81975 0.44219,-0.45086 2.48076,-0.50518 4.53016,-0.12071 l 3.72618,0.69903 -0.68979,8.71526 -0.68979,8.71526 8.29462,0.63963 c 9.57818,0.73862 9.84868,0.55187 9.89144,-6.82872 0.0498,-8.59984 0.59107,-9.5 5.71213,-9.5 h 4.47721 l -0.58199,4.75 c -0.32009,2.6125 -1.04626,10.375 -1.61371,17.25 -1.92308,23.29908 -1.86979,23.01664 -4.31394,22.86382 -1.19792,-0.0749 -3.19837,-0.33223 -4.44545,-0.57183 z M 527.5,659.52553 c -5.84927,-1.56699 -11.85055,-7.52713 -13.47774,-13.38534 -2.99579,-10.78547 0.31073,-23.18282 7.47579,-28.02945 8.58454,-5.8068 20.86461,-4.80516 27.93795,2.27879 4.74665,4.75376 6.57333,9.84299 6.54204,18.22649 -0.0408,10.92648 -6.3397,19.22351 -16.19935,21.33802 -5.87723,1.26044 -5.98871,1.25655 -12.27869,-0.42851 z m 14.1893,-9.0576 c 5.37238,-3.52013 6.81558,-14.72334 2.87764,-22.33848 -4.72389,-9.135 -18.3198,-7.46837 -21.66091,2.65527 -1.42906,4.33009 -0.57168,12.27985 1.74788,16.20654 3.42263,5.79405 11.10558,7.36202 17.03539,3.47667 z m -82.79185,7.83004 c -2.23588,-0.34567 -2.7707,-1.15374 -3.79605,-5.73545 l -1.19349,-5.33309 -7.4948,-1.11472 c -10.452,-1.55454 -10.19046,-1.62649 -12.67485,3.48712 l -2.23574,4.60183 -4.42223,-0.60613 c -2.43223,-0.33338 -4.57675,-0.76066 -4.76561,-0.94952 -0.18886,-0.18886 4.81227,-9.52442 11.11363,-20.7457 L 444.88533,611.5 l 4.30733,0.33018 c 2.36904,0.1816 4.62244,0.6317 5.00756,1.00023 0.52153,0.49904 11.79978,44.36858 11.79978,45.89813 0,0.33136 -3.57675,0.11453 -7.10255,-0.43057 z M 451.75052,637.75 c -0.2549,-0.6875 -1.0606,-4.2875 -1.79044,-8 -0.72985,-3.7125 -1.59786,-6.75 -1.92891,-6.75 -0.49746,0 -5.80895,10.02341 -7.14855,13.49018 -0.40322,1.04348 3.66827,2.19247 8.47437,2.39151 1.89988,0.0787 2.70173,-0.30045 2.39353,-1.13169 z m 127.32439,-5.15661 c -0.72874,-11.92216 -1.0634,-21.93823 -0.74369,-22.25794 1.15622,-1.15622 23.69475,-2.16706 27.13553,-1.21702 7.05254,1.9473 9.90676,10.73954 5.49685,16.93269 l -2.03641,2.85987 2.84172,1.46951 c 8.17756,4.22878 6.21727,18.28654 -2.97249,21.3165 -1.99676,0.65835 -9.20283,1.50661 -16.01349,1.88502 l -12.38303,0.68801 z m 26.9308,10.90144 c 2.39797,-2.17013 2.5256,-4.29126 0.43759,-7.27232 C 605.05847,634.24539 604.01609,634 597.00231,634 c -4.33635,0 -8.08577,0.3375 -8.33204,0.75 -0.24626,0.4125 -0.21027,3.16766 0.08,6.12259 l 0.52775,5.37258 7.3667,-0.47276 c 5.19504,-0.3334 7.95461,-1.00482 9.36099,-2.27758 z M 602.75,624.38227 c 2.62299,-1.66516 2.91304,-4.57638 0.67857,-6.81084 -1.09359,-1.09359 -3.45019,-1.56677 -7.75,-1.55612 -8.31694,0.0206 -9.10717,0.64094 -8.234,6.46365 l 0.70482,4.70007 6.17531,-0.68419 c 3.39641,-0.3763 7.1878,-1.32696 8.4253,-2.11257 z M 408,649.28003 c -9.29992,-1.66509 -21.1937,-4.14039 -21.53514,-4.48184 -0.3506,-0.3506 7.46963,-42.85499 8.01318,-43.55312 0.39404,-0.50609 24.61162,4.73255 26.46605,5.72501 3.14278,1.68196 6.05591,6.11448 6.05591,9.21444 0,3.70805 -2.42779,8.43887 -5.05123,9.8429 -2.00459,1.07282 -1.99808,1.12527 0.51035,4.10637 4.91143,5.8369 2.7596,14.63326 -4.49776,18.38619 -2.82691,1.46185 -5.08102,1.63384 -9.96136,0.76005 z m 5.77749,-8.83673 c 3.01036,-2.10854 2.99546,-6.90083 -0.0275,-8.84208 -2.30827,-1.48231 -14.46323,-4.22132 -15.24845,-3.4361 -0.24055,0.24055 -0.73179,2.94255 -1.09166,6.00445 l -0.6543,5.56711 5.8722,1.0033 c 8.38844,1.43322 8.69143,1.42516 11.1497,-0.29668 z M 416.8,620.8 c 1.57085,-1.57085 1.53597,-5.27628 -0.0622,-6.6026 -0.69418,-0.57612 -4.17696,-1.72088 -7.73952,-2.54391 -7.10754,-1.642 -7.83752,-1.3192 -8.13302,3.59651 -0.0909,1.5125 -0.21031,3.30808 -0.26531,3.99018 -0.19238,2.38588 14.00677,3.75305 16.2,1.55982 z m 235.36679,18.45 c -0.49696,-0.9625 -2.80035,-7.77001 -5.11862,-15.12779 l -4.21505,-13.3778 -4.26625,4.84826 -4.26625,4.84826 -1.20246,-3.64349 c -1.14448,-3.46781 -1.02855,-3.87133 2.40433,-8.36864 1.98373,-2.59883 3.87048,-6.04367 4.19279,-7.65519 C 640.22472,598.12639 643.0478,596 646.0329,596 646.88695,596 660,635.06171 660,637.60577 c 0,0.65922 -1.41715,1.6926 -3.14922,2.2964 -3.93873,1.37305 -3.61504,1.41812 -4.68399,-0.65217 z M 356,637.35578 c -12.08656,-4.15978 -16.97791,-16.32159 -11.9592,-29.73527 2.62535,-7.01689 5.16135,-10.17283 10.26794,-12.77802 8.94879,-4.56533 22.87434,-1.05626 28.2911,7.12901 7.29622,11.02534 1.93721,29.6991 -10.09126,35.16352 -4.87057,2.21265 -10.50218,2.28796 -16.50858,0.22076 z m 13.11695,-8.08394 c 6.9527,-4.10705 10.00085,-19.32419 4.94818,-24.70251 -3.4464,-3.66853 -9.06054,-5.01592 -13.37991,-3.21117 -8.98887,3.75579 -12.58791,19.63749 -5.86806,25.89433 4.48707,4.1779 9.45745,4.8798 14.29979,2.01935 z m 307.07541,1.10838 C 670.25318,627.3531 667.35445,618.50256 670.5,613 c 1.90574,-3.33375 1.85296,-3.7532 -0.569,-4.5219 -2.58664,-0.82097 -5.92352,-6.16024 -5.92352,-9.4781 0,-3.81701 3.64042,-8.95494 7.4823,-10.56018 5.07678,-2.12121 11.7235,-1.84649 14.85129,0.61383 3.8443,3.02392 5.31847,8.77027 3.26743,12.73653 l -1.61078,3.1149 3.29508,1.56362 c 6.66445,3.16249 8.79316,12.13679 4.41987,18.63342 -4.0434,6.00656 -13.22185,8.48833 -19.52031,5.2781 z m 11.23471,-6.95015 c 3.20435,-3.20435 2.77516,-9.25968 -0.82677,-11.66476 -2.07824,-1.38767 -6.29205,-0.7634 -8.06411,1.1947 -4.95886,5.47948 3.69294,15.668 8.89088,10.47006 z m -5.01338,-21.72413 c 0.66753,-1.05826 0.67764,-2.54986 0.0299,-4.40317 -2.0316,-5.81239 -11.58234,-2.97626 -10.0838,2.99442 1.11361,4.43697 7.5729,5.34203 10.05395,1.40875 z M 324.75,626.42803 c -1.5125,-0.82055 -2.75,-1.65773 -2.75,-1.8604 0,-0.20267 1.75918,-4.19434 3.90929,-8.87036 l 3.9093,-8.50187 -8.01151,-3.66216 c -4.40632,-2.01418 -8.13988,-3.52065 -8.2968,-3.3477 -0.15691,0.17295 -1.71177,3.68946 -3.45522,7.81446 -1.74346,4.125 -3.54938,7.88279 -4.01315,8.35065 C 305.11005,617.29073 298,615.05686 298,613.82402 c 0,-0.42582 3.89409,-9.56042 8.65354,-20.29912 5.279,-11.91095 9.19797,-19.5249 10.04966,-19.5249 0.76787,0 2.69879,0.67364 4.29095,1.49697 l 2.89482,1.49698 -3.44448,7.55842 C 318.55002,588.70951 317,592.32223 317,592.58065 317,593.0088 331.73505,600 332.63745,600 c 0.36389,0 4.46488,-8.77443 6.42476,-13.7463 0.87425,-2.21783 0.93331,-2.22454 4.66163,-0.52965 2.07689,0.94415 3.95188,1.8307 4.16664,1.97011 0.21477,0.13941 -3.61023,9.26478 -8.5,20.27859 -5.92845,13.35338 -9.39023,20.01213 -10.39048,19.98615 -0.825,-0.0214 -2.7375,-0.71033 -4.25,-1.53087 z M 719.58451,612.9196 C 718.72193,610.76382 717.60967,609 717.11281,609 c -0.49687,0 -4.07584,1.35 -7.95329,3 -3.87744,1.65 -7.288,3 -7.57903,3 -0.29102,0 -1.23339,-1.36189 -2.09415,-3.02643 -1.47529,-2.85289 -1.35199,-4.00361 2.15047,-20.069 3.64483,-16.71847 3.77395,-17.06733 6.78934,-18.34354 1.69062,-0.71552 3.34541,-1.02196 3.67733,-0.68099 0.33191,0.34098 2.80691,6.13376 5.5,12.87284 4.76338,11.91972 4.9694,12.23746 7.57699,11.68581 2.02127,-0.4276 2.94349,-0.0756 3.75,1.43139 1.62835,3.0426 1.2883,4.92571 -1.02189,5.65894 -1.60585,0.50967 -1.92979,1.1638 -1.39525,2.81738 1.58406,4.90021 1.08668,6.7524 -2.18692,8.14385 -3.16848,1.34677 -3.17612,1.34263 -4.7419,-2.57065 z m -8.60954,-9.90683 3.8953,-1.98723 -2.5351,-6.26277 c -1.39431,-3.44452 -2.66147,-6.39662 -2.81592,-6.56022 C 709.17109,587.83377 706,601.72836 706,603.62267 c 0,1.7929 0.34893,1.75013 4.97497,-0.6099 z m -432.45581,-0.6108 c -14.48624,-5.30241 -17.749,-21.32746 -7.18168,-35.27297 4.70515,-6.20933 9.34481,-8.60951 16.66252,-8.61983 7.79511,-0.011 11.91795,2.05003 16.73535,8.36606 2.66433,3.49317 3.26465,5.18538 3.26465,9.20251 0,5.37961 -0.48332,5.69554 -5.85078,3.82443 C 299.57092,579.00337 299,578.2663 299,575.83643 c 0,-4.02415 -1.49523,-6.52404 -4.97998,-8.32608 -6.29775,-3.25669 -12.22723,-0.56632 -16.96678,7.69828 -4.26893,7.44396 -4.26053,13.59772 0.0235,17.20248 3.7792,3.17999 8.63892,3.387 12.27978,0.5231 l 2.62624,-2.0658 2.49206,2.8158 c 3.34495,3.77946 2.85639,5.39664 -2.4367,8.06579 -5.10479,2.5742 -7.89922,2.70896 -13.51895,0.65197 z M 735.25,601.07037 c -4.00669,-2.51617 -4.0465,-3.36702 -0.28294,-6.04691 2.79085,-1.98727 3.11457,-2.01608 5.45103,-0.48517 3.0358,1.98913 6.04924,1.2043 8.2454,-2.14746 1.49106,-2.27565 1.47555,-2.75608 -0.2096,-6.49309 -2.28988,-5.07805 -6.28034,-7.38957 -9.90545,-5.73786 -1.40164,0.63863 -2.55068,1.42642 -2.55341,1.75064 -0.0116,1.37968 -4.66956,5.96757 -6.6358,6.53602 -1.70248,0.49219 -2.34671,0.0492 -3.14667,-2.16382 -0.55325,-1.5305 -2.38688,-6.48381 -4.07473,-11.00736 l -3.06883,-8.22465 9.57085,-5.71143 9.57084,-5.71142 1.87242,2.43607 c 1.02983,1.33984 1.88242,2.96554 1.89465,3.61268 0.0122,0.64713 -2.34026,2.55169 -5.22776,4.23234 -8.32925,4.848 -7.90583,4.34559 -6.66415,7.90747 1.00541,2.88412 2.91415,4.41749 2.91415,2.34105 0,-0.46339 1.50773,-1.6545 3.35052,-2.6469 5.29919,-2.85381 12.20484,-1.66345 16.30495,2.81055 6.77844,7.39656 6.41159,17.13102 -0.8661,22.9818 -4.92504,3.9594 -11.86756,4.7013 -16.53937,1.76745 z M 476.5,596.96772 C 398.89044,590.11881 332.41634,568.27396 277,531.40765 210.1734,486.95055 169.75913,426.20826 163.05147,360.14405 151.21462,243.56214 247.55837,136.29703 398.5,98.005443 453.48746,84.055966 516.873,80.449097 574.0046,88.01859 722.61488,107.7083 837.14506,194.26966 859.0409,303.44767 877.18037,393.89548 828.56811,484.70791 731.5,541.70647 682.94945,570.21544 627.88785,587.81476 563,595.56406 c -15.7703,1.88339 -70.92242,2.77836 -86.5,1.40366 z m -30.21676,-28.60224 c 4.07803,-2.05945 11.73404,-6.76868 14.56463,-8.95874 0.19133,-0.14803 -2.35589,-4.07353 -5.6605,-8.72333 -6.63227,-9.33205 -16.45354,-25.2975 -20.56681,-33.43341 -1.45984,-2.8875 -3.20917,-5.24879 -3.88741,-5.24731 -2.2552,0.005 -24.09754,5.80965 -33.51646,8.9072 C 385.98707,524.60291 371,530.94614 371,532.00603 c 0,1.66917 17.69655,14.90016 29.41014,21.98877 l 3.91014,2.36626 -0.59727,-3.68053 C 403.39451,550.65624 403.45957,549 403.86759,549 c 0.40801,0 3.64222,2.05229 7.18713,4.56065 3.5449,2.50836 9.89468,6.36368 14.11061,8.56738 4.21593,2.20371 8.71593,5.05394 10,6.33387 3.07932,3.06937 4.88008,3.05376 11.11791,-0.0964 z M 391.92803,563.25 c -0.0396,-0.4125 -3.97709,-3.32721 -8.75,-6.47713 -4.77292,-3.14991 -12.16357,-8.66241 -16.42367,-12.25 C 362.49425,540.93529 358.589,538 358.07603,538 c -1.22321,0 -12.95604,6.99683 -13.67001,8.15205 -0.7986,1.29217 8.62571,5.22296 28.59398,11.92629 18.46745,6.1995 19.04172,6.35641 18.92803,5.17166 z m 123.51947,-9.22458 c 2.24342,-1.08602 6.752,-4.23474 10.01907,-6.99716 8.14266,-6.88487 8.98441,-7.02966 13.07621,-2.24931 3.84751,4.49494 8.85398,7.22105 13.26138,7.22105 2.69005,0 3.72161,-1.06485 9.92963,-10.25 C 569.25918,530.61572 579,514.05523 579,512.3955 c 0,-1.0225 -19.07623,-4.28595 -38.5,-6.58636 -13.00869,-1.54066 -59.17075,-1.51293 -72,0.0433 -11.92151,1.44607 -24.5,3.32674 -24.5,3.66311 0,0.60705 9.52574,17.37197 13.25897,23.33525 4.25939,6.80374 13.66394,20.14925 14.19914,20.14925 0.1637,0 1.91314,-0.675 3.88765,-1.5 5.39026,-2.2522 12.2163,-1.75506 20.15424,1.46782 8.41892,3.41817 14.41455,3.73605 19.9475,1.0576 z m 115.35968,-6.15724 c 3.08747,-0.74465 7.68608,-3.374 13.44282,-7.68624 4.8125,-3.60493 8.75,-6.88326 8.75,-7.28518 0,-1.34166 -38.81002,-13.49621 -55.1571,-17.27415 -1.4614,-0.33775 -3.33083,-0.87261 -4.15427,-1.1886 -1.08793,-0.41748 -3.0075,2.10976 -7.02261,9.24574 -3.039,5.40114 -7.55325,12.96158 -10.03168,16.80097 -2.47842,3.8394 -4.37619,7.11076 -4.21726,7.2697 0.15894,0.15893 3.39261,-0.4356 7.18595,-1.32118 7.55472,-1.7637 14.95434,-1.48429 24.89697,0.94011 7.3295,1.78722 19.9713,2.02693 26.30718,0.49883 z m 42.53404,-7.55681 c -6.19953,-2.80269 -7.52525,-2.80884 -10.11997,-0.0469 l -2.12737,2.26448 8.54428,-0.0145 8.54428,-0.0145 -4.84122,-2.18863 z m -332.16832,-4.97544 8.93471,-5.66407 -4.90977,-5.08593 c -16.0169,-16.59157 -32.03003,-39.53018 -43.21718,-61.90809 -3.89827,-7.79781 -7.43589,-14.52756 -7.86138,-14.955 -0.93328,-0.93757 -28.43126,8.36695 -47.09889,15.9369 -7.41379,3.00638 -13.65013,5.63667 -13.85854,5.84508 -0.82053,0.82052 8.3382,10.56343 18.26406,19.429 12.76413,11.40067 30.08759,24.48728 43.32613,32.72973 11.68543,7.27547 34.16233,19.29983 36.11705,19.32137 0.753,0.008 5.38972,-2.53375 10.30381,-5.64899 z m 384.53829,-10.96329 c 11.15644,-6.72517 24.94509,-16.42507 35.58174,-25.03069 C 770.5907,491.81955 789,474.26922 789,472.92768 789,472.13478 731.90203,453 729.53604,453 c -0.84148,0 -3.7917,4.57044 -7.00414,10.85072 -10.12804,19.80018 -21.38838,36.30321 -36.85438,54.01338 -4.49764,5.15026 -8.17752,9.78817 -8.17752,10.30647 0,0.5183 4.95,3.14416 11,5.83523 l 11,4.89286 9.21119,-4.91544 c 5.06615,-2.70349 12.71615,-7.02825 17,-9.61058 z m -12.62845,-26.21803 c -1.48671,-2.77796 0.8378,-5.35052 9.67465,-10.70701 11.06315,-6.70599 14.87363,-9.96686 18.77686,-16.06859 3.81109,-5.95769 6.46575,-7.02715 6.46575,-2.6048 0,3.36353 -7.85736,17.44838 -12.29385,22.03755 -7.5771,7.83787 -20.17089,11.92542 -22.62341,7.34285 z M 375.5,517.48765 c 7.89027,-3.56511 25.83011,-9.74387 39.15244,-13.48471 5.87159,-1.64871 10.83239,-3.15443 11.024,-3.34605 0.19162,-0.19161 -1.9,-5.58835 -4.64804,-11.99274 C 415.07047,474.77898 408.33757,455.17355 403.62931,438 l -3.42697,-12.5 -5.35117,0.30964 c -2.94314,0.17031 -11.19087,1.30791 -18.32827,2.528 l -12.97711,2.21835 -0.70771,4.14561 c -0.83715,4.9039 -2.68335,8.73062 -8.0234,16.63058 -4.19033,6.1991 -4.99592,10.61122 -2.9151,15.96565 0.84048,2.16274 0.74829,3.60918 -0.40615,6.37213 -2.09389,5.01138 -1.92223,10.84351 0.38385,13.04108 1.0325,0.98393 2.78621,3.58896 3.89712,5.78896 1.11091,2.2 4.76613,6.99399 8.12272,10.65332 6.46654,7.04977 7.35861,9.31335 4.08041,10.35381 -4.24564,1.34752 -7.92842,-0.72883 -18.15117,-10.23363 -9.63097,-8.95459 -14.77518,-15.96678 -14.81349,-20.19264 -0.007,-0.78053 -1.36287,-3.81122 -3.01287,-6.73485 -1.92986,-3.41952 -3,-6.72475 -3,-9.26576 0,-4.97289 -1.45833,-8.8786 -4.51057,-12.08025 C 321.6608,452.0329 319,446.03558 319,442.62705 v -2.43719 l -5.75,1.50111 c -3.1625,0.82561 -6.06412,1.695 -6.44805,1.93198 -0.79138,0.48848 3.44353,9.61866 10.60416,22.86189 9.22647,17.06388 22.17617,34.73627 36.41394,49.69389 l 7.32004,7.69015 4.17996,-1.83511 c 2.29897,-1.00931 6.87995,-3.05506 10.17995,-4.54612 z m 295.62887,-1.25008 c 8.26821,-8.77603 17.14069,-19.73395 24.07809,-29.73757 6.62944,-9.55953 12.24271,-19.38366 11.49983,-20.12654 -1.3409,-1.3409 -4.93239,2.20499 -8.25977,8.15489 -4.84576,8.66503 -7.95899,10.30692 -12.528,6.60716 -2.18301,-1.76769 -2.24704,-2.17007 -1.23331,-7.75 1.40403,-7.72832 0.45322,-9.96838 -5.27301,-12.42293 l -4.61415,-1.97786 0.69402,-6.91073 C 676.39594,443.07861 675.72025,441 671.89277,441 c -3.05412,0 -10.25789,3.16373 -11.39569,5.00473 -1.52093,2.46092 -10.9093,6.15771 -15.87112,6.24946 -11.12878,0.20579 -12.76734,-2.11137 -9.06934,-12.82543 1.44024,-4.17277 2.46669,-7.71872 2.281,-7.8799 -0.95498,-0.8289 -13.35952,-2.41842 -13.94043,-1.78633 -0.37276,0.40561 -2.57021,7.48747 -4.88322,15.73747 -4.35546,15.53498 -10.47147,32.57398 -17.1662,47.82443 -2.13059,4.85344 -3.65059,9.18559 -3.37778,9.62701 0.27281,0.44141 2.64116,1.32399 5.26301,1.96128 12.82711,3.11788 29.20213,7.98033 42.767,12.69937 8.25,2.87006 15.73299,5.25646 16.62887,5.3031 0.89588,0.0466 4.49588,-2.95828 8,-6.67762 z M 587.92986,495.25 c 8.6848,-17.71728 24.96392,-65.68955 22.96851,-67.68497 -1.63765,-1.63764 -42.91645,-5.97329 -73.27485,-7.69629 l -21.87647,-1.24161 -2.11261,2.93644 c -1.16194,1.61504 -3.06314,3.83643 -4.22489,4.93643 -7.17772,6.79616 -10.1859,9.3519 -12.34319,10.48673 -2.23921,1.17792 -2.67861,0.99948 -5.5,-2.23357 -1.6865,-1.93258 -5.02662,-6.33546 -7.42249,-9.78418 l -4.35614,-6.27041 -16.19861,0.66394 c -8.90924,0.36516 -23.37398,1.32765 -32.14387,2.13886 -8.76989,0.81122 -16.50775,1.48027 -17.19525,1.48678 -1.94559,0.0184 -1.52049,3.19999 2.18267,16.33566 C 423.52742,464.4899 436.72371,498 439.53937,498 c 0.64292,0 6.97208,-0.87838 14.06479,-1.95195 22.12575,-3.34901 47.71661,-4.49347 70.19483,-3.13922 19.85432,1.19618 35.38744,2.92815 49.20101,5.48602 12.2484,2.26803 12.27977,2.26143 14.92986,-3.14485 z m 217.45816,-41.24625 c 13.34553,-17.87134 23.37229,-36.69589 29.97673,-56.27927 3.69898,-10.96816 8.09874,-30.97887 8.89914,-40.47448 l 0.44252,-5.25 h -41.76343 -41.76344 l -0.63828,8.75 c -0.35105,4.8125 -0.72895,9.82961 -0.83977,11.14914 -0.29121,3.46745 -2.94251,4.82582 -6.67173,3.4182 -3.57486,-1.34936 -3.59823,-1.32096 -4.51698,5.48876 l -0.71589,5.3061 2.5561,-2.5561 c 2.74332,-2.74332 5.00032,-3.13267 9.10754,-1.57111 4.20841,1.60004 4.04829,3.53077 -0.9591,11.5648 -5.36697,8.61095 -6.94286,9.07619 -9.99311,2.95021 -1.85517,-3.72585 -2.01548,-3.82866 -2.33902,-1.5 -0.19104,1.375 -1.87899,8.50052 -3.751,15.83448 -3.33358,13.05994 -3.37098,13.43439 -1.81653,18.18686 1.25739,3.84423 1.37442,5.84973 0.5633,9.6528 -0.56311,2.64024 -0.94311,4.86536 -0.84445,4.94471 0.0987,0.0793 8.05438,2.67127 17.67938,5.75982 9.625,3.08854 22.225,7.38047 28,9.53761 5.775,2.15714 10.98826,3.95844 11.58501,4.0029 0.59676,0.0445 4.10811,-3.96749 7.80301,-8.91543 z M 236.5,455.01857 c 13.78817,-5.7137 34.27182,-13.22932 44.75,-16.41914 4.8125,-1.46505 8.75,-2.78984 8.75,-2.94399 0,-0.15414 -1.36245,-4.30218 -3.02766,-9.21785 -6.17423,-18.22622 -11.19083,-43.7328 -12.526,-63.68759 L 273.72706,352 H 226.8548 179.98253 l 0.60592,5.75 c 2.17347,20.62538 8.76033,43.09635 18.39376,62.75 8.94143,18.24184 23.77678,40.25027 26.38542,39.14309 0.6228,-0.26433 5.63237,-2.34537 11.13237,-4.62452 z m 77.74531,-25.76033 c 5.9181,-1.50798 10.62757,-3.19548 10.46549,-3.75 -0.16209,-0.55453 -2.59117,-2.08552 -5.39796,-3.40219 -4.51019,-2.11575 -5.17213,-2.82461 -5.69582,-6.09959 -0.3259,-2.0381 -1.49806,-4.8568 -2.60479,-6.26378 -1.43191,-1.82038 -2.02182,-4.09883 -2.0455,-7.90041 -0.0355,-5.70176 -1.34555,-8.0787 -6.2088,-11.26523 -1.63326,-1.07015 -2.94015,-3.03141 -3.30072,-4.95344 -0.3283,-1.75001 -2.59048,-5.41575 -5.02706,-8.14607 -4.92562,-5.51944 -5.56558,-8.82429 -2.93015,-15.13177 0.825,-1.97451 1.5,-5.05898 1.5,-6.85438 0,-2.8843 -0.36008,-3.31723 -3.09263,-3.71828 -2.0658,-0.3032 -3.27177,0.0129 -3.63219,0.95217 -0.70149,1.82805 0.42771,16.10648 2.27667,28.78805 C 291.21873,399.8048 300.06178,432 302.41901,432 c 0.58637,0 5.9082,-1.23379 11.8263,-2.74176 z M 640.9082,413.51962 c 0.80939,-3.61674 2.04845,-6.12696 3.64368,-7.38177 1.32948,-1.04577 9.11618,-4.17692 17.30377,-6.95812 9.17887,-3.11791 17.23101,-6.57202 21.00131,-9.00888 4.12656,-2.66712 8.08232,-4.29875 12.16595,-5.01807 3.32814,-0.58624 7.22019,-1.98544 8.64899,-3.10933 5.24885,-4.12876 11.63053,-1.1318 12.84053,6.03015 0.37779,2.23611 1.3285,4.31186 2.11268,4.61278 0.78418,0.30092 4.18466,-1.30541 7.55662,-3.56963 3.37196,-2.26421 6.74665,-4.11675 7.4993,-4.11675 1.83875,0 2.91571,-3.18386 3.7482,-11.08095 l 0.69375,-6.58095 -5.51129,-4.25193 c -3.58822,-2.7683 -5.90248,-5.43724 -6.63238,-7.64887 l -1.1211,-3.39695 -44.52564,-0.27017 c -24.48911,-0.1486 -44.85744,-0.0452 -45.26296,0.22982 -0.40552,0.275 -1.49233,8.91201 -2.41513,19.19336 -0.9228,10.28135 -2.62986,24.23135 -3.79347,31 -1.16362,6.76865 -2.17087,12.98164 -2.23834,13.80664 -0.083,1.01468 1.17152,1.69675 3.87733,2.10809 9.16691,1.39359 9.0588,1.44125 10.4082,-4.58847 z M 694.25,367.02888 c -1.23966,-0.53136 -2.25,-1.84429 -2.25,-2.92385 0,-4.32514 14.04529,-12.17759 18.98002,-10.61137 3.11321,0.98809 2.71791,6.69639 -0.73002,10.54183 -2.28821,2.55202 -3.67358,3.14184 -8.25,3.51244 -3.025,0.24496 -6.5125,0.0114 -7.75,-0.51905 z m -309.87377,48.00804 c 7.08193,-1.07583 12.99661,-2.08675 13.14373,-2.24649 0.14712,-0.15974 -0.55048,-5.01543 -1.55023,-10.79043 -2.05988,-11.89885 -3.53081,-24.78404 -4.53774,-39.75 l -0.68963,-10.25 -11.62118,0.0318 c -10.11809,0.0277 -11.38483,0.21094 -9.79383,1.4168 1.00504,0.76175 4.05423,1.69128 6.77598,2.06561 6.89742,0.94864 8.21516,2.53465 7.3475,8.84332 -2.06134,14.98768 -5.424,25.96605 -10.88812,35.5473 -3.03774,5.32665 -5.77943,11.53541 -6.16301,13.95661 l -0.69096,4.36144 2.89563,-0.61496 c 1.5926,-0.33822 8.68994,-1.49518 15.77186,-2.571 z M 616.27152,405.25 c 3.70405,-20.81883 6.58255,-52.10359 4.89038,-53.15066 -0.53273,-0.32964 -19.85239,-0.47732 -42.93257,-0.32819 l -41.96397,0.27115 -0.47874,9.72885 c -0.39537,8.03454 -1.07155,11.20915 -3.88268,18.22885 -2.81119,7.01984 -3.96781,8.7817 -6.64204,10.11768 -7.3278,3.6608 -7.67748,5.01438 -3.0274,11.71884 1.77897,2.56492 3.32111,4.81812 3.42698,5.00713 0.10586,0.189 7.08784,0.74812 15.5155,1.24248 16.40096,0.96208 53.08218,4.45464 61.32302,5.83881 2.75,0.4619 6.58328,0.89275 8.51841,0.95744 L 614.53682,415 Z M 546.2,399.8 c -0.66,-0.66 -1.2,-2.33246 -1.2,-3.71657 0,-1.38411 -0.72868,-4.42459 -1.61929,-6.75662 -1.99723,-5.22968 -1.40509,-7.80856 2.94967,-12.84627 3.17549,-3.6735 3.5681,-3.84783 6.08404,-2.70149 C 555.29084,375.08964 558,380.2896 558,384.5 c 0,3.71782 -2.28237,8.61308 -5.9785,12.82273 -3.53972,4.03152 -4.05008,4.24869 -5.8215,2.47727 z m -113.7,9.78435 c 10.45,-0.82847 23.79119,-1.78901 29.64708,-2.13454 l 10.64708,-0.62824 -0.46499,-6.16079 c -0.77861,-10.3161 -2.08789,-15.1124 -5.8487,-21.42569 -3.01084,-5.05433 -3.63166,-7.08352 -3.79051,-12.38968 -0.10448,-3.48997 0.18709,-8.25791 0.64794,-10.59541 L 464.1758,352 H 433.5879 403 l 0.0205,4.25 c 0.0493,10.21979 4.69965,49.08293 6.52966,54.56895 0.242,0.72549 1.22959,1.08335 2.19489,0.79533 0.96521,-0.28799 10.30493,-1.20146 20.75493,-2.02993 z M 274.27578,326.22206 c 0.75544,-12.92981 0.71213,-13.38864 -1.65196,-17.5 -1.33526,-2.32213 -2.75509,-5.79706 -3.15518,-7.72206 -0.4001,-1.925 -2.01922,-5.92585 -3.59804,-8.89077 -3.73488,-7.01382 -3.6703,-10.12883 0.30382,-14.6551 2.50257,-2.85027 3.25227,-4.70951 3.54227,-8.78479 0.36388,-5.11347 -1.18954,-9.92535 -3.21669,-9.96402 -0.55,-0.0105 -3.26404,4.49927 -6.03121,10.02171 -6.22197,12.41719 -7.21931,13.72491 -9.2084,12.07411 -2.30178,-1.91031 -1.09255,-8.95003 3.5776,-20.82765 2.2764,-5.78958 4.52941,-12.61676 5.00669,-15.17151 l 0.86778,-4.645 -8.60623,-3.22388 c -4.73343,-1.77313 -13.05176,-5.18345 -18.48519,-7.57849 -5.43342,-2.39503 -10.38342,-4.34384 -11,-4.33068 -1.52299,0.0325 -9.99572,12.17964 -17.53461,25.13891 -14.32514,24.62477 -23.00705,52.70593 -24.76381,80.09715 l -0.62596,9.75998 46.90167,-0.25998 L 273.5,339.5 Z m 23.20177,12.81426 c 0.32757,-0.53002 0.68866,-4.04183 0.80243,-7.80403 0.14994,-4.95845 -0.24884,-7.53582 -1.44948,-9.36822 -3.61314,-5.51436 2.90569,-6.45528 9.5599,-1.37987 1.81411,1.38369 3.83643,2.5158 4.49405,2.5158 0.65761,0 2.90796,-1.8 5.00077,-4 3.26083,-3.42785 4.40591,-4 8.0054,-4 4.24313,0 6.17576,1.32116 10.10938,6.91089 1.41183,2.00622 1.82548,2.06198 7.03724,0.94851 6.64508,-1.4197 10.71887,-0.59257 11.91007,2.41819 0.48361,1.22232 1.25581,4.92241 1.71599,8.22241 l 0.8367,6 h 17.5 17.5 l 0.21956,-5.5 c 0.50003,-12.52543 2.47287,-33.39475 4.42449,-46.80371 1.14502,-7.86704 1.91853,-14.42629 1.7189,-14.57609 -0.19962,-0.14981 -9.36295,-1.71139 -20.36295,-3.47017 -11,-1.75879 -28.27912,-4.98705 -38.39805,-7.17391 C 327.98302,259.78925 319.58935,258 319.44935,258 c -0.14,0 -1.21133,3.15 -2.38073,7 -2.45192,8.0724 -3.70426,8.62351 -8.13327,3.57915 l -3.00355,-3.42086 -4.9421,2.17086 c -5.62246,2.4697 -5.94635,3.19857 -10.05679,22.63119 -1.80162,8.5174 -1.99975,11.02423 -1.0667,13.49617 0.9804,2.59738 0.85358,3.43122 -0.87811,5.77346 -1.71467,2.31921 -2.12147,4.87986 -2.66161,16.75383 L 285.6889,340 h 5.59653 c 3.0781,0 5.86455,-0.43365 6.19212,-0.96368 z M 313.20292,288.25 c -5.39581,-5.00491 -6.91249,-8.42854 -3.99948,-9.02811 0.9369,-0.19283 2.9619,0.51385 4.5,1.5704 1.53811,1.05655 4.03406,2.67089 5.54656,3.58741 2.92828,1.77444 3.66569,5.30461 1.55,7.4203 -1.75568,1.75568 -2.00015,1.64145 -7.59708,-3.55 z M 465,339.43426 c 0,-1.71473 -2.42554,-4.60295 -4.97101,-5.91927 -1.60144,-0.82814 -6.8756,-2.40869 -11.72035,-3.51234 -4.84475,-1.10365 -9.84774,-2.24599 -11.11775,-2.53853 -1.27,-0.29254 -4.3075,-2.37396 -6.75,-4.62537 -5.24291,-4.83275 -5.55456,-7.12711 -1.9367,-14.25823 1.92857,-3.80139 2.49581,-6.45331 2.49581,-11.66821 0,-3.7118 0.28141,-7.48208 0.62536,-8.37839 0.34394,-0.89631 3.26894,-3.42488 6.5,-5.61905 3.23105,-2.19417 5.87464,-4.38423 5.87464,-4.86681 0,-0.48258 -3.4875,-1.16243 -7.75,-1.51078 -4.2625,-0.34835 -11.575,-1.06048 -16.25,-1.58251 -4.675,-0.52202 -8.99659,-0.9504 -9.60353,-0.95195 -2.0225,-0.005 -6.09831,29.8098 -7.07402,51.74718 l -0.6338,14.25 h 31.15568 C 450.97995,340 465,339.74542 465,339.43426 Z M 621.42603,329 c -0.0407,-5.775 -0.41857,-14.4375 -0.83977,-19.25 -0.70629,-8.07004 -0.93367,-8.74885 -2.92603,-8.73526 -3.95824,0.027 -7.1351,2.46114 -9.68925,7.42396 -1.39096,2.70269 -3.03588,5.08293 -3.65536,5.28943 -1.6449,0.5483 -3.10307,-5.041 -3.85763,-14.78665 -0.55519,-7.17073 -1.25413,-9.68126 -4.31032,-15.48238 -4.61052,-8.7515 -6.65802,-9.95871 -15.3176,-9.03135 l -6.58495,0.70519 -0.52657,4.67169 c -0.33652,2.9856 -1.15828,5.03688 -2.27689,5.68353 -0.96267,0.55651 -3.20447,2.25082 -4.98176,3.76514 -4.0037,3.41128 -8.54032,5.34456 -14.69709,6.26316 -6.72315,1.00309 -9.03567,0.12204 -11.58495,-4.4138 C 536.6553,284.83512 528.45117,278 524.45086,278 c -5.03949,0 -5.03976,1.62612 -8.4e-4,5.17788 4.28844,3.02277 4.54998,3.47455 4.54998,7.85963 0,3.24192 0.55597,5.15566 1.83374,6.31203 2.25233,2.03833 9.38582,4.19802 18.66626,5.6513 4.09159,0.64072 7.73908,1.82663 8.77882,2.85426 1.70381,1.68396 1.65187,1.94549 -1.2318,6.2015 -1.88186,2.77745 -3.02639,5.75564 -3.05268,7.9434 -0.0831,6.91245 -1.75939,11.1849 -6.13966,15.64807 l -4.29455,4.37582 38.96994,-0.26194 L 621.5,339.5 Z M 663,338.8939 c 0,-0.60835 -1.28489,-2.74585 -2.85531,-4.75 -6.02534,-7.68947 -6.29163,-10.43895 -1.55609,-16.06683 4.38613,-5.21261 6.15765,-4.11522 7.94712,4.92293 1.01441,5.12351 1.51646,5.82515 7.3343,10.25 3.43494,2.6125 6.86554,4.75 7.62354,4.75 0.75801,0 4.21956,-1.94285 7.69232,-4.31745 5.02198,-3.43391 6.89099,-5.48035 9.13302,-10 1.55039,-3.1254 3.43075,-5.68255 4.17857,-5.68255 1.88122,0 4.4997,2.79546 4.51618,4.82143 0.008,0.92321 0.25672,2.58291 0.55378,3.68822 0.36278,1.34981 -0.47571,3.14747 -2.55372,5.47499 -1.77209,1.98488 -2.96992,4.33046 -2.80378,5.49035 0.2776,1.93798 1.0811,2.03675 18.69565,2.29817 l 18.40558,0.27316 -0.63896,-12.77316 C 737.90836,312.00354 735.98083,298.5634 732.32272,283 l -2.70302,-11.5 -0.84795,6 c -0.46637,3.3 -1.05837,6.60599 -1.31555,7.34664 -0.29795,0.85807 -3.18662,-1.43484 -7.9619,-6.31984 -4.12187,-4.21657 -7.4943,-7.9952 -7.4943,-8.39697 0,-0.40176 2.52839,-3.34089 5.61864,-6.5314 5.42856,-5.60468 5.60168,-5.95141 5.11727,-10.24908 -0.27575,-2.44648 -0.79371,-4.74048 -1.15101,-5.09779 -0.35731,-0.3573 -5.83402,0.67407 -12.17048,2.29193 -9.00822,2.30004 -11.41889,3.27035 -11.05341,4.44904 0.25708,0.82911 1.0653,2.99811 1.79604,4.82 1.23201,3.07164 1.1635,3.43707 -0.94208,5.02531 -2.1106,1.59204 -2.22449,2.21001 -1.61528,8.76488 0.97138,10.4516 0.29364,11.24916 -9.86335,11.60706 L 679.5,285.5 679.1972,292 c -0.16655,3.575 -0.6718,6.87026 -1.1228,7.3228 -0.451,0.45253 -2.69905,0.31682 -4.99568,-0.3016 -3.66126,-0.98588 -4.58462,-0.87165 -7.49523,0.9272 -4.72202,2.91837 -7.40933,2.68762 -8.13367,-0.6984 -1.42388,-6.65614 -3.19089,-9.425 -8.94982,-14.02419 -5.77453,-4.61165 -8.33935,-8.32316 -10.17616,-14.72581 -1.16861,-4.07347 -4.99564,-4.54271 -8.30648,-1.01848 -2.38699,2.54084 -2.40138,2.6736 -1.17007,10.79548 2.14644,14.15826 3.97919,31.76451 4.65678,44.73538 0.35879,6.86819 0.82803,13.05012 1.04276,13.73762 0.52189,1.671 28.45317,1.81226 28.45317,0.1439 z m 20.25,-18.55618 C 680.38891,319.18325 682.72164,312 685.95763,312 c 2.01825,0 4.7274,6.08258 3.55445,7.98045 -0.64989,1.05154 -4.05941,1.24607 -6.26208,0.35727 z m 9.15488,-7.91112 c -1.61322,-3.86099 -1.17979,-6.91526 1.10582,-7.79233 3.22004,-1.23565 6.02422,7.43081 3.2893,10.16573 -1.91553,1.91553 -2.80342,1.43605 -4.39512,-2.3734 z M 703.2,306.8 c -2.00631,-2.00631 -1.39063,-4.71405 1.22091,-5.3695 3.53062,-0.88613 6.00772,-0.15889 6.40018,1.87902 0.73697,3.82676 -4.76493,6.34664 -7.62109,3.49048 z m 0.05,-8.83116 C 702.0125,297.47142 701,296.3653 701,295.51078 701,293.34859 706.00265,286 707.4746,286 c 0.9826,0 3.5254,6.00614 3.5254,8.32706 0,0.76973 -4.20288,4.69261 -4.93856,4.60955 -0.30879,-0.0349 -1.57394,-0.47036 -2.81144,-0.96777 z M 844.2621,330 c -0.4423,-17.66198 -6.48059,-42.03818 -15.48203,-62.5 -5.89946,-13.41047 -17.31305,-32.19555 -26.0808,-42.92513 l -2.39029,-2.92513 -12.90449,4.62146 c -15.06566,5.39544 -33.25216,11.45062 -45.72948,15.2256 -7.32443,2.21598 -8.70905,2.95336 -8.14316,4.33659 C 742.8537,268.61901 751,309.27255 751,333.00701 c 0,3.11281 0.30444,5.9641 0.67654,6.33619 0.37209,0.3721 21.40959,0.5596 46.75,0.41667 L 844.5,339.5 Z M 456,265.21561 C 456,263.49336 462.06394,261 466.2525,261 c 2.44416,0 8.67473,0.89233 13.84571,1.98296 19.54162,4.12159 32.37721,3.73426 34.94001,-1.05437 1.40025,-2.6164 1.17667,-8.57084 -0.38028,-10.1278 -0.73814,-0.73813 -1.87897,-2.34528 -2.53519,-3.57143 -1.53113,-2.86094 -2.50077,-2.80555 -6.67927,0.38154 -1.88468,1.43752 -4.10245,2.35021 -4.93476,2.03082 -1.67895,-0.64427 -3.73761,-4.94232 -5.45638,-11.39172 -0.65644,-2.4632 -1.72733,-4.25 -2.54717,-4.25 -2.25421,0 -2.89166,6.13923 -1.08613,10.46047 1.72768,4.13492 2.11723,11.09006 0.6712,11.98376 -1.84352,1.13936 -4.05502,-0.74243 -6.20935,-5.28359 -1.21606,-2.56335 -3.06738,-5.89814 -4.11405,-7.41064 -2.24689,-3.2469 -5.23387,-3.79683 -4.27883,-0.78777 0.34253,1.07922 0.13203,2.87922 -0.46779,4 -0.8869,1.65718 -2.08127,2.03777 -6.39489,2.03777 -4.6875,0 -5.43676,0.29071 -6.44338,2.5 -0.75424,1.65539 -1.94956,2.5 -3.53807,2.5 -4.132,0 -4.73308,-1.91847 -4.42763,-14.1317 l 0.28375,-11.34544 2.90065,-1.3882 c 1.59536,-0.76351 5.42082,-1.68535 8.50103,-2.04854 6.88685,-0.81203 8.09832,-1.51675 8.09832,-4.71088 0,-4.44408 1.69182,-6.20648 6.6753,-6.9538 3.57516,-0.53613 5.50884,-1.57292 8.2474,-4.42208 3.1612,-3.28885 4.32598,-3.80429 10.01378,-4.43131 3.54007,-0.39026 7.69495,-1.36034 9.23308,-2.15573 3.41018,-1.76347 5.81852,-6.16627 6.11156,-11.17284 0.19819,-3.38596 -0.037,-3.769 -2.48747,-4.05169 -1.57656,-0.18188 -3.87258,0.54509 -5.5,1.74141 -2.81326,2.06803 -10.41566,3.95003 -13.40432,3.31828 -0.88587,-0.18725 -2.11372,-1.44454 -2.72856,-2.79397 C 491.25282,188.46077 490.31218,188 487.15209,188 h -3.8908 l -0.11445,5.08006 c -0.22301,9.89869 -4.97318,14.19534 -15.13712,13.69189 -7.44071,-0.36856 -7.52819,-1.98515 -0.62297,-11.51232 3.05224,-4.21118 5.45136,-7.7504 5.33138,-7.86492 -0.11997,-0.11453 -7.16514,-1.17586 -15.65592,-2.35852 -8.49079,-1.18265 -15.78352,-2.36395 -16.20607,-2.6251 -2.83775,-1.75383 -18.07634,37.34803 -25.46631,65.34595 -1.92454,7.29137 -3.26669,13.63318 -2.98256,14.09291 0.28413,0.45973 8.07123,1.3907 17.30466,2.06882 9.23344,0.67812 17.46307,1.3716 18.28807,1.54108 3.17339,0.65191 8,0.50455 8,-0.24424 z M 402.01823,251.75 c 3.63202,-14.98465 10.6992,-37.06471 16.44961,-51.3937 2.94803,-7.34597 5.22873,-13.3563 5.06823,-13.3563 -0.1605,0 -1.93205,0.68533 -3.93678,1.52296 -2.81867,1.17772 -4.12252,1.26739 -5.75154,0.39556 -1.87933,-1.00579 -2.04933,-1.75886 -1.57583,-6.98069 l 0.53076,-5.85328 -5.53721,-1.60971 c -4.65482,-1.35319 -6.6709,-1.42827 -12.65134,-0.47114 -12.473,1.99623 -14.61413,3.12515 -14.61413,7.70532 0,1.25145 0.94899,1.45425 4.98863,1.06609 9.93346,-0.95448 12.01363,4.41222 4.33131,11.17447 -7.27656,6.40508 -7.96695,7.7328 -5.42688,10.43659 3.91118,4.16326 3.36493,4.80547 -10.72894,12.61383 -4.37997,2.42661 -5.12589,3.5858 -6.5957,10.25 -0.80498,3.64979 -3.44814,3.57407 -8.72712,-0.25 -8.21932,-5.95405 -13.49705,-3.58269 -23.29128,10.46514 -3.7095,5.32052 -6.58828,9.82318 -6.39728,10.00591 1.23752,1.18399 63.17501,13.01094 70.48535,13.45917 0.62595,0.0384 2.14701,-4.09272 3.38014,-9.18022 z M 708.75,238.4658 c 3.9875,-1.01823 7.25,-2.22358 7.25,-2.67855 0,-2.73039 -16.62222,-32.33371 -21.49824,-38.28725 -1.58447,-1.93462 -1.61803,-1.90193 -1.02644,1 0.33636,1.65 2.99734,6.6 5.91328,11 6.3055,9.51468 10.8312,18.33534 10.05329,19.59403 C 709.13393,229.59231 707.7694,230 706.4096,230 c -1.44746,0 -2.73409,0.72545 -3.10371,1.75 -0.34724,0.9625 -1.45811,2.94447 -2.46862,4.40437 -2.12002,3.06287 -2.40003,5.26149 -0.58727,4.61119 0.6875,-0.24663 4.5125,-1.28152 8.5,-2.29976 z M 760,222.98539 c 14.575,-4.82797 27.82102,-9.29538 29.4356,-9.92757 l 2.93559,-1.14945 -9.91683,-9.95418 C 777.0001,196.47938 772.19158,192 771.76876,192 771.34594,192 771,193.35 771,195 c 0,3.41076 -1.84123,3.95233 -4.24976,1.25 -0.85786,-0.9625 -3.0151,-4.675 -4.79386,-8.25 -5.51776,-11.08969 -9.25141,-14.12022 -13.96553,-11.33552 -3.50583,2.07094 -4.11562,1.65588 -7.91812,-5.38959 -2.2186,-4.11073 -3.66613,-5.33161 -10.40688,-8.77739 -4.30641,-2.20138 -8.71795,-5.22169 -9.80342,-6.7118 -2.93347,-4.02701 -20.28892,-13.14646 -23.49022,-12.34298 C 692.71903,144.35961 680,150.15373 680,150.90104 c 0,0.68861 13.0409,5.38648 19.51538,7.03025 5.71653,1.45134 13.48462,6.60123 13.48462,8.9397 0,2.34034 -1.86281,3.12901 -7.39066,3.12901 -6.50702,0 -8.04807,1.64784 -7.31663,7.82365 0.70077,5.91691 3.95755,10.95609 7.6709,11.8691 7.05258,1.73403 12.26235,9.27912 12.55219,18.17879 0.14697,4.51283 1.14652,7.5544 5.04283,15.34504 4.53396,9.06559 5.02977,9.67739 7.40045,9.13175 1.39751,-0.32165 14.46592,-4.53497 29.04092,-9.36294 z M 264.38308,221.07737 C 267.19439,214.98789 269.95333,213 275.59346,213 c 1.26226,0 3.55761,-1.11694 5.10078,-2.48208 l 2.80576,-2.48208 -5.30536,-5.05582 c -6.39875,-6.09777 -6.30947,-6.9842 1.53771,-15.26873 5.30476,-5.60041 5.46226,-5.92785 4.84175,-10.0657 -0.62956,-4.19825 -0.5349,-4.37805 5.14226,-9.76679 3.181,-3.01939 8.48364,-7.44202 11.78364,-9.82806 8.115,-5.8675 8.96464,-6.85952 3,-3.50271 -16.06561,9.0415 -41.3613,27.54486 -53.85818,39.39634 -8.09002,7.67221 -19.07737,18.9962 -19.45259,20.0486 -0.17092,0.47939 0.72908,1.43712 2,2.12828 4.16045,2.26255 25.27265,10.75882 26.88517,10.8195 0.97375,0.0366 2.61754,-2.20027 4.30868,-5.86338 z m 91.71904,-25.35425 c 2.47066,-1.65556 5.11729,-5.54414 9.69877,-14.25 7.14902,-13.58475 7.14306,-13.57692 11.49319,-15.08322 l 3.20592,-1.1101 -3.70862,-1.57158 -3.70862,-1.57159 -8.40996,8.18169 c -8.36189,8.13491 -16.93885,19.9092 -18.21936,25.01119 -0.62964,2.50864 -0.46053,2.67049 2.79027,2.67049 1.93923,0 4.95427,-1.00094 6.85841,-2.27688 z m 140.09331,-22.38319 c 2.48639,-5.06983 6.19303,-6.83993 14.32307,-6.83993 6.99603,0 7.54411,-0.16886 10.80473,-3.32893 5.74746,-5.57021 15.27893,-5.3331 17.91188,0.44559 1.0779,2.36574 0.95817,2.83357 -1.09287,4.27008 -1.26686,0.88729 -3.72963,2.83757 -5.47281,4.33395 l -3.16943,2.72068 4.591,0.0293 c 2.52504,0.0161 8.37504,-0.46758 13,-1.07488 9.69295,-1.27279 12.92338,-3.46381 15.17133,-10.28987 1.33437,-4.05192 1.27382,-7.60594 -0.1296,-7.60594 -0.39634,0 -2.41574,1.78887 -4.48757,3.97527 -2.07182,2.18639 -5.08955,4.91703 -6.70605,6.06809 -2.55926,1.82235 -2.93911,1.87886 -2.93911,0.43722 0,-0.91059 1.53154,-4.42873 3.40342,-7.8181 1.87189,-3.38936 3.72277,-8.18748 4.11307,-10.66248 0.85727,-5.43615 2.15004,-7.24061 4.62469,-6.45519 1.02235,0.32448 1.85882,0.30807 1.85882,-0.0365 0,-0.34453 -2.8052,-4.31148 -6.23377,-8.81544 -7.61694,-10.00603 -20.54868,-23.05929 -27.18767,-27.44317 C 523.76565,102.07167 523.41105,102 512.5,102 c -10.85892,0 -11.28864,0.0855 -16.07856,3.19918 C 490.85528,108.81745 474,125.11987 474,126.88519 c 0,0.72835 1.46385,0.40866 3.96016,-0.86487 C 484.69118,122.58642 491,124.023 491,128.98964 c 0,4.25957 1.02367,5.00984 6.85699,5.02567 6.94403,0.0189 9.1339,1.08582 7.14561,3.48156 -1.87115,2.2546 -7.35123,4.9432 -15.32856,7.52041 -7.98777,2.58058 -9.67404,4.60159 -9.67404,11.59444 0,3.59288 -0.58136,5.88583 -1.90854,7.5275 -1.80134,2.22817 -2.69742,2.38887 -15.9521,2.86078 -13.94914,0.49664 -17.99264,1.54672 -15.51117,4.02819 1.52097,1.52097 26.54986,4.44462 41.06724,4.7971 6.87316,0.16688 7.25387,0.0556 8.5,-2.48536 z M 577.90541,167.25 c -0.73671,-0.9625 -1.46681,-1.9375 -1.62244,-2.16667 -0.15563,-0.22916 -0.28297,0.55834 -0.28297,1.75 0,1.33194 0.62507,2.16667 1.62244,2.16667 1.3888,0 1.42955,-0.25202 0.28297,-1.75 z m -153.4872,-0.85699 C 425.2882,166.05917 426,164.99463 426,164.02737 c 0,-0.96726 1.60053,-4.95792 3.55673,-8.86814 l 3.55673,-7.10949 -2.55673,-4.36273 c -5.89193,-10.05381 -1.47318,-13.48319 19.67033,-15.26611 l 7.72707,-0.65158 4.74609,-5.63466 c 2.61035,-3.09906 7.6445,-8.67216 11.187,-12.38466 3.5425,-3.7125 6.02958,-6.74201 5.52684,-6.73223 -25.61076,0.49778 -66.95937,17.37986 -95.2643,38.89513 -10.6896,8.12542 -10.55942,8.01077 -9.874,8.69619 0.34637,0.34637 5.71351,2.54759 11.927,4.89161 l 11.29724,4.26186 3.7843,-1.9191 c 4.40729,-2.23504 5.87596,-1.71956 5.49177,1.92753 -0.25846,2.45359 0.20225,2.76296 7.22393,4.85087 8.79535,2.61532 8.39549,2.54734 10.41821,1.77115 z M 607.5,162.52304 c 14.09318,-3.6856 41.5,-12.61674 41.5,-13.52373 0,-1.96905 -17.95604,-14.63051 -31.79981,-22.42322 -19.2619,-10.84257 -46.4561,-20.76169 -62.03294,-22.62658 -5.13302,-0.61453 -9.50278,-0.94731 -9.71059,-0.73951 -0.2078,0.20781 2.84628,3.73234 6.78686,7.83229 9.14283,9.51261 22.43043,27.50473 30.75648,41.64594 6.35641,10.79592 9.1735,13.56166 13,12.76304 0.825,-0.17218 6,-1.48988 11.5,-2.92823 z m -39.95503,-12.37125 c -1.57938,-1.54626 -1.60519,-1.46885 -0.40388,1.21163 0.70581,1.57488 1.46504,2.31819 1.68717,1.65179 0.22214,-0.6664 -0.35535,-1.95494 -1.28329,-2.86342 z M 672.9485,140.30437 C 677.92683,138.27177 682,136.31135 682,135.94788 682,134.134 629.66522,116 624.43036,116 c -0.37289,0 5.35205,3.99517 12.72208,8.87815 7.37002,4.88298 16.08823,11.17898 19.3738,13.99111 3.28557,2.81213 6.28809,5.11697 6.67226,5.12185 0.38418,0.005 4.77168,-1.65415 9.75,-3.68674 z m -299.48482,-5.24561 c 0.92009,-1.48873 18.56612,-13.54377 23.53632,-16.07905 7.53004,-3.84103 3.12115,-3.27593 -13.58655,1.74144 -15.37249,4.6164 -15.92442,4.87453 -16.23611,7.59349 -0.54323,4.73873 4.30871,9.944 6.28634,6.74412 z M 234.88127,577.20663 c -10.80693,-5.6456 -14.64338,-16.51601 -9.65719,-27.3632 7.85468,-17.08743 23.18407,-21.20408 36.2476,-9.73415 4.75653,4.17629 6.53464,8.3053 6.50636,15.1086 -0.0267,6.41055 -2.45918,12.09346 -7.62856,17.822 -6.95581,7.70819 -15.89086,9.17002 -25.46821,4.16675 z m 13.91839,-6.61162 C 254.71894,567.51521 259,560.45471 259,553.77217 c 0,-12.35594 -14.53022,-15.95027 -22.32783,-5.52322 -5.57239,7.45146 -5.92912,15.27487 -0.90972,19.95113 4.3723,4.07339 8.39203,4.81182 13.03721,2.39493 z m 526.75289,-3.23463 c -4.2051,-6.95179 -7.73719,-13.07128 -7.84909,-13.59887 -0.1119,-0.52758 3.8064,-3.46199 8.70735,-6.5209 l 8.9108,-5.56166 1.8392,2.27131 c 1.01155,1.24922 1.83919,2.63843 1.83919,3.08713 0,0.44871 -2.475,2.23188 -5.5,3.96261 -3.025,1.73073 -5.5,3.26863 -5.5,3.41756 0,0.14893 2.90341,5.15144 6.45202,11.11668 l 6.45202,10.8459 -2.97619,1.80993 c -1.6369,0.99546 -3.37072,1.80993 -3.85293,1.80993 -0.48221,0 -4.31728,-5.68783 -8.52237,-12.63962 z m 21.50502,-1.27952 -2.07861,-2.91915 2.64538,-2.08085 c 3.33934,-2.62673 4.11675,-2.60628 6.4321,0.16914 2.51106,3.01003 2.40866,4.21523 -0.52126,6.13499 -3.3677,2.20661 -4.07983,2.06323 -6.47761,-1.30413 z M 196.00902,523.78248 c -1.1006,-1.80536 -2.1996,-3.73248 -2.44223,-4.28248 -0.42248,-0.95768 -2.08661,0.70075 -5.01719,5 -1.08104,1.58591 -1.73259,1.77816 -3.14693,0.92856 -2.73832,-1.64494 -2.72748,-2.97504 0.0487,-5.97056 1.40176,-1.51252 2.54866,-3.11699 2.54866,-3.56548 0,-0.44849 -1.84162,-1.31133 -4.09248,-1.91742 -3.78059,-1.01801 -4.04114,-1.30659 -3.41872,-3.7865 0.37057,-1.47647 0.8187,-2.82944 0.99585,-3.00658 0.17714,-0.17714 2.25009,0.60943 4.60654,1.74795 2.35646,1.13852 4.42495,2.07003 4.59664,2.07003 0.17169,0 0.31217,-2.25 0.31217,-5 0,-4.73124 0.14122,-5 2.62723,-5 2.55007,0 2.61312,0.14685 2.14679,5 -0.26424,2.75 -0.37807,5 -0.25295,5 0.12511,0 2.13197,-0.67194 4.45968,-1.49321 4.70322,-1.65939 5.53604,-1.46259 6.30835,1.49071 0.6037,2.30858 -1.74797,4.0025 -5.55669,4.0025 -3.73958,0 -3.89185,0.98322 -0.74376,4.8024 3.08377,3.74114 3.07862,4.55605 -0.0393,6.2247 -1.63853,0.87692 -2.24956,0.52884 -3.94034,-2.24462 z M 824.6769,525.75 c -1.58117,-1.15896 -1.52225,-1.51925 0.80887,-4.94695 1.38282,-2.03332 2.51423,-3.91824 2.51423,-4.18872 0,-0.27048 -2.0496,-0.79914 -4.55467,-1.1748 -4.18773,-0.62799 -4.53013,-0.89476 -4.25,-3.31127 0.3256,-2.80883 1.68981,-3.12113 7.15038,-1.63689 l 2.84571,0.77349 -0.34571,-4.88243 c -0.33149,-4.68162 -0.2326,-4.89544 2.40429,-5.19885 2.68106,-0.30849 2.75,-0.1889 2.75,4.77032 v 5.08675 l 3.96016,-2.02033 c 5.02841,-2.5653 5.48313,-2.53758 6.82896,0.4162 1.04554,2.29471 0.85117,2.53544 -3.33948,4.13586 -2.4473,0.93464 -4.44964,1.86954 -4.44964,2.07757 0,0.20804 1.4625,1.69654 3.25,3.3078 l 3.25,2.92956 -2.22422,2.25278 -2.22421,2.25279 -3.31269,-3.83222 -3.31268,-3.83221 -1.86497,4.13578 c -1.96815,4.36456 -3.10572,4.92244 -5.88433,2.88577 z m 44.18043,-68.13916 c -10.56989,-3.77617 -16.02805,-9.82297 -16.65191,-18.44773 -0.34684,-4.79495 0.0316,-6.69728 2.17272,-10.92263 5.62287,-11.09621 16.51076,-14.46506 28.22579,-8.73343 10.09493,4.93898 14.62323,13.20912 12.37167,22.59467 -3.08455,12.85784 -14.52467,19.65102 -26.11827,15.50912 z m 13.92588,-9.17154 c 2.71676,-1.9029 5.21811,-6.52822 5.21305,-9.63964 -0.0109,-6.6881 -11.14334,-14.67361 -18.76697,-13.46187 -8.00839,1.27289 -12.19419,11.62324 -7.24504,17.91505 4.51964,5.74579 15.93601,8.59259 20.79896,5.18646 z M 128.72427,436.25 c -2.07468,-5.3625 -3.76137,-11.25557 -3.74821,-13.09571 0.0658,-9.19636 10.60345,-15.0087 19.17468,-10.57634 2.23988,1.15829 3.96069,3.54593 6.47026,8.97756 l 3.41883,7.39961 5.23008,-2.11555 c 8.71002,-3.52315 9.45065,-3.50282 11.02958,0.3028 1.15148,2.77537 1.1634,3.49418 0.0687,4.14504 C 168.07384,432.65158 134.68122,446 133.56296,446 c -0.5866,0 -2.76401,-4.3875 -4.83869,-9.75 z m 14.05495,-2.76055 c 4.66526,-1.88606 4.80959,-2.82486 1.36587,-8.88388 -2.34933,-4.13349 -4.46952,-5.22808 -7.84232,-4.04876 -2.04937,0.71657 -2.89159,1.75328 -3.1332,3.85674 -0.41542,3.61671 2.65529,11.87365 4.1882,11.26181 0.62823,-0.25075 3.06788,-1.23441 5.42145,-2.18591 z m 749.96319,-24.25228 c -1.51667,-0.94028 -3.0217,-2.54179 -3.34452,-3.5589 -0.56262,-1.77265 -0.67627,-1.76593 -2.74242,0.16209 -2.98713,2.78745 -6.91216,3.56006 -11.08673,2.18233 -5.05917,-1.66968 -7.57342,-5.30352 -7.5469,-10.90755 0.0326,-6.8832 4.34755,-24.56884 6.06006,-24.83815 0.77996,-0.12265 9.7431,1.71557 19.9181,4.08494 16.03938,3.73497 18.53981,4.57539 18.79932,6.31862 0.16462,1.10587 -0.84659,6.69265 -2.24714,12.41506 -2.09309,8.55203 -3.08388,10.89399 -5.56509,13.15439 -3.527,3.21311 -8.06423,3.57891 -12.24468,0.98717 z m 7.53324,-7.48717 c 1.87706,-1.41524 5.11802,-12.75696 3.97226,-13.9009 -0.41135,-0.4107 -2.60041,-1.04268 -4.86459,-1.4044 l -4.11667,-0.65768 -1.25376,6.64467 c -1.13652,6.02331 -1.08774,6.82813 0.52166,8.60649 2.06228,2.2788 3.43675,2.44921 5.7411,0.71182 z m -15.90867,-3.60301 c 2.24081,-2.47607 4.41208,-12.76793 2.99302,-14.18699 -0.57785,-0.57785 -3.01896,-1.14274 -5.42468,-1.25532 l -4.37405,-0.20468 -1.18464,5 c -0.65155,2.75 -1.22784,5.98036 -1.28063,7.17857 -0.21004,4.76671 5.99515,7.08817 9.27098,3.46842 z M 116.63029,405.75 c -1.6241,-6.06029 -1.00604,-7.07711 8.34864,-13.73501 4.93841,-3.51475 8.80164,-6.56775 8.58496,-6.78444 -0.21669,-0.21668 -5.25476,-1.16969 -11.19571,-2.11779 l -10.80173,-1.72381 -0.79896,-3.84541 c -0.43942,-2.11498 -0.61984,-4.02452 -0.40093,-4.24343 0.39854,-0.39855 26.6047,4.84197 34.13344,6.82576 9.37904,2.47133 12.5,5.44777 12.5,11.92118 0,2.59654 -0.3525,2.95295 -2.92054,2.95295 -2.41022,0 -3.03195,-0.50722 -3.5581,-2.90274 -0.42857,-1.95127 -1.60259,-3.30248 -3.5817,-4.12225 -2.86113,-1.18512 -3.28201,-0.9462 -14.92641,8.47316 -6.59024,5.33096 -12.24079,10.11098 -12.55677,10.62225 -0.98403,1.5922 -2.19759,1.02522 -2.82619,-1.32042 z m 792.84344,-43.38601 c 0.5285,-4.23 0.37014,-5.84773 -0.63478,-6.48469 -0.73642,-0.46677 -5.16395,-0.91438 -9.83895,-0.99469 -4.675,-0.0803 -11.875,-0.4247 -16,-0.76531 L 875.5,353.5 v -4 c 0,-4.61887 -2.39363,-4.2491 20.11929,-3.108 l 14.11929,0.71567 0.61706,-2.30384 c 0.33938,-1.26711 0.6232,-3.99133 0.63071,-6.05383 0.0132,-3.62858 0.12893,-3.75 3.57389,-3.75 h 3.56024 l -0.60145,12.25 c -0.3308,6.7375 -0.83548,14.1625 -1.12151,16.5 -0.50235,4.10521 -0.64114,4.25 -4.07402,4.25 h -3.55395 z M 119.98256,360.4679 c -13.47857,-4.15565 -17.62497,-22.85945 -7.04181,-31.76459 3.91343,-3.29293 5.63544,-3.41435 6.42896,-0.45331 1.09827,4.09818 0.675,6.60103 -1.21795,7.20183 -2.14901,0.68207 -4.15176,4.57948 -4.15176,8.07945 0,3.93612 4.83225,8.50266 9.6862,9.15358 C 134.59785,354.1481 143,349.81014 143,342.71329 143,339.15904 139.10563,334 136.42265,334 c -2.07393,0 -2.42224,-1.41762 -1.32483,-5.39209 0.87425,-3.16627 1.34091,-3.61278 3.2125,-3.07374 C 145.20079,327.51871 150,334.1474 150,341.68 c 0,6.82184 -1.75813,11.02244 -6.27221,14.98585 -5.63085,4.94395 -15.11573,6.46266 -23.74523,3.80205 z m 762.23562,-34.11103 c -4.24239,-2.11678 -6.88366,-5.90197 -8.19195,-11.73983 -1.22719,-5.47598 -0.66685,-8.57797 2.57793,-14.27099 2.99877,-5.2614 9.17768,-8.3983 17.92575,-9.10051 12.24797,-0.98315 20.73807,5.77809 22.14215,17.63331 0.7304,6.16707 -2.14075,12.78537 -6.72005,15.49043 -1.69976,1.00407 -3.20666,1.66924 -3.34865,1.47815 -0.142,-0.19109 -0.86732,-1.87482 -1.61182,-3.74162 -1.25557,-3.1483 -1.19353,-3.52383 0.85632,-5.1837 4.83785,-3.91745 4.8486,-10.33207 0.0248,-14.82608 C 904.07875,300.42471 902.3375,300 897.27932,300 886.51059,300 881,303.73984 881,311.04819 c 0,3.88893 2.64131,7.15765 6.8053,8.42181 1.94453,0.59035 2.25752,1.27346 2,4.36494 -0.36194,4.34502 -2.50541,5.05751 -7.58712,2.52193 z M 125,313.33535 c -6.29074,-2.19361 -9.72241,-4.8709 -12.02264,-9.37973 -5.1145,-10.02526 0.30432,-24.15405 10.15996,-26.49062 2.49046,-0.59044 2.65966,-0.39104 3.03842,3.58065 0.36876,3.86682 0.17385,4.28512 -2.4177,5.18854 -3.08506,1.07546 -5.75804,5.29115 -5.75804,9.08129 0,3.24144 3.58838,7.61459 7.63578,9.3057 1.81499,0.75835 5.98934,1.37882 9.27634,1.37882 7.997,0 11.54243,-2.77137 11.54243,-9.02245 0,-3.56994 -0.51949,-4.66839 -3.30921,-6.99735 l -3.3092,-2.76265 1.70911,-3.35877 c 0.94,-1.84733 1.86463,-3.53403 2.05471,-3.74823 0.19008,-0.2142 1.9806,0.85762 3.97893,2.38182 4.8804,3.72247 6.79914,8.55595 6.09701,15.35894 -1.40629,13.62565 -14.19779,20.53264 -28.6759,15.48404 z M 870.63903,287.1615 c -0.95028,-1.70074 -9.8043,-29.32701 -9.49289,-29.61966 C 861.76712,256.95827 898.58481,245 899.76056,245 c 1.43996,0 10.64461,28.00187 9.55401,29.06467 -0.44801,0.43659 -1.95557,1.07521 -3.35012,1.41915 -2.45197,0.60473 -2.64798,0.27745 -5.94681,-9.92924 C 898.14144,259.74956 896.40965,255 896.16921,255 894.68551,255 888,257.43116 888,257.9707 c 0,0.35977 1.35,4.64795 3,9.5293 1.65,4.88135 3,9.19674 3,9.58976 0,0.39303 -1.34721,1.18423 -2.99381,1.75824 -3.59629,1.25367 -3.75967,1.01825 -7.03395,-10.13598 -1.25738,-4.28339 -2.60918,-7.98764 -3.00401,-8.23166 -0.39483,-0.24401 -2.99444,0.33558 -5.77691,1.28799 l -5.05903,1.73165 3.42298,10.5 c 1.88264,5.775 3.42787,10.73884 3.43385,11.03076 0.0176,0.85622 -5.94444,2.85673 -6.35009,2.13074 z m -732.0485,-19.77435 c -9.85021,-4.05502 -18.11676,-7.58004 -18.3701,-7.83339 -0.57766,-0.57766 0.46208,-4.59286 1.67031,-6.4503 0.75371,-1.15868 2.07518,-0.92676 7.75884,1.36168 3.76773,1.51703 7.41292,2.98111 8.10042,3.25353 0.78989,0.31299 1.25,-0.38611 1.25,-1.89927 0,-1.5475 -1.75395,-4.12216 -4.95814,-7.27817 -5.52797,-5.44484 -6.75327,-8.85561 -5.043,-14.03777 1.31711,-3.99089 1.097,-3.87254 4.40175,-2.36679 2.06543,0.94107 2.39582,1.63118 1.91997,4.01043 -0.48448,2.42238 0.15202,3.65073 4.05233,7.82049 2.5449,2.7207 4.62709,5.39304 4.62709,5.93854 0,0.56651 1.49774,0.36602 3.49275,-0.46755 C 151.05988,247.94814 169,246.1893 169,247.33002 c 0,0.34623 -0.69944,2.37759 -1.55432,4.51414 l -1.55432,3.88462 -8.69568,0.53092 c -14.65389,0.89469 -16.11803,3.06547 -4.94568,7.33261 3.9875,1.52297 7.61828,3.07852 8.0684,3.45677 0.95178,0.7998 -1.8262,8.00939 -3.01737,7.83088 -0.44057,-0.066 -8.86029,-3.43779 -18.7105,-7.49281 z m 711.5383,-15.00374 c -1.01207,-2.22126 -0.92301,-2.82157 0.58949,-3.9733 0.97992,-0.74618 2.56918,-1.62404 3.53168,-1.95079 0.9625,-0.32675 1.75,-1.0106 1.75,-1.51967 0,-0.50907 -5.175,-9.52053 -11.5,-20.02548 -6.325,-10.50495 -11.49691,-19.39562 -11.49313,-19.75704 C 833.0151,204.37013 866.5845,184 867.87321,184 c 1.34885,0 4.34798,4.99105 3.80418,6.33079 -0.26102,0.64306 -6.80764,4.95026 -14.54804,9.57155 l -14.07346,8.40233 2.72206,4.84665 c 1.49713,2.66566 3.17205,4.8469 3.72205,4.84721 0.55,3.2e-4 7.3,-3.78547 15,-8.41286 l 14,-8.41342 2.24503,2.66387 c 1.23477,1.46514 2.24355,3.11388 2.24172,3.66388 -0.002,0.55 -6.50999,4.825 -14.46261,9.5 -7.95261,4.675 -14.46534,8.95 -14.47272,9.5 -0.007,0.55 1.32226,3.12689 2.95475,5.72643 l 2.96816,4.72643 14.26284,-8.58394 c 7.84456,-4.72117 14.5619,-8.76336 14.92742,-8.98266 0.36552,-0.2193 1.66802,1.22486 2.89443,3.20923 1.45921,2.36105 1.85913,3.832 1.15719,4.25623 -0.58996,0.35655 -7.17921,4.24828 -14.64278,8.64828 -11.63285,6.85792 -13.5013,8.30115 -13.08799,10.10949 0.39344,1.72143 -0.64616,2.77917 -5.65142,5.75 -3.37346,2.00228 -6.66893,3.64051 -7.32327,3.64051 -0.65435,0 -1.72621,-1.17747 -2.38192,-2.61659 z M 158.2261,235.53155 c -6.00998,-1.87681 -12.83952,-7.30796 -15.21203,-12.09727 -6.32477,-12.76759 3.71892,-29.46063 17.70381,-29.42451 7.44739,0.0192 18.53589,6.80242 22.01425,13.46683 4.87146,9.33351 -1.16638,23.46577 -11.95001,27.97035 -4.42655,1.84908 -6.85337,1.86543 -12.55602,0.0846 z m 14.77683,-10.03421 c 3.09698,-2.80272 4.35215,-7.89142 2.97542,-12.06293 -1.36454,-4.13461 -7.35142,-8.91923 -13.0959,-10.46606 C 155.41024,200.95629 149,206.22269 149,214.37361 c 0,9.60158 16.98639,17.47362 24.00293,11.12373 z m 6.70592,-35.63927 C 171.06898,182.63 164,176.37977 164,175.96866 c 0,-1.00247 17.93993,-22.37293 19.15785,-22.82128 0.9821,-0.36154 4.84215,2.66103 4.84215,3.79158 0,0.34594 -2.925,4.14714 -6.5,8.4471 -3.575,4.29997 -6.5,8.1478 -6.5,8.55073 0,0.40294 1.41566,1.99397 3.14591,3.53564 l 3.14592,2.80302 3.60029,-4.38773 c 1.98016,-2.41324 5.18155,-6.10662 7.11421,-8.2075 l 3.51393,-3.81978 2.25989,2.40554 2.25988,2.40553 -6.49071,7.80715 c -3.5699,4.29393 -6.27266,8.15997 -6.00614,8.5912 0.26651,0.43124 2.22361,2.1614 4.34909,3.84482 l 3.86452,3.06075 6.8716,-8.43639 c 3.77939,-4.64001 7.38426,-8.45948 8.01083,-8.48771 0.62656,-0.0282 2.16344,0.77804 3.41527,1.79171 l 2.27606,1.84304 -3.97166,4.40696 c -2.18441,2.42383 -6.81932,7.89446 -10.29979,12.15696 -3.48048,4.2625 -6.39863,7.75 -6.48477,7.75 -0.0862,0 -7.22561,-5.91387 -15.86548,-13.14193 z M 824.5,193.60197 c -1.65,-0.72586 -5.89448,-4.64574 -9.43218,-8.71085 -3.5377,-4.06512 -7.27192,-8.34324 -8.29827,-9.50695 -1.86072,-2.10975 -1.82101,-2.15493 13.81958,-15.7241 8.62712,-7.48455 16.06776,-13.37212 16.53476,-13.0835 0.46699,0.28862 5.14671,5.51074 10.39937,11.60472 9.11381,10.57356 9.47297,11.16539 7.85853,12.94933 -0.93047,1.02816 -2.18452,1.88158 -2.78678,1.8965 -0.60225,0.0149 -4.47001,-3.59145 -8.59501,-8.01413 l -7.5,-8.04124 -3.40857,3.03426 -3.40858,3.03427 3.17454,3.72986 c 1.746,2.05142 4.40486,5.497 5.90858,7.65683 4.9505,7.11055 3.02269,15.42037 -4.4171,19.03995 -3.79797,1.84778 -5.89034,1.87647 -9.84887,0.13505 z m 7.46143,-9.5634 c 2.53574,-2.53574 1.46016,-5.81426 -3.94946,-12.03857 l -3.911,-4.5 -4.06496,4.02919 -4.06497,4.02918 4.82489,5.22082 c 5.25125,5.68216 7.9538,6.47108 11.1655,3.25938 z M 219.99245,146.07943 c -6.87085,-8.20631 -12.62062,-15.54137 -12.77728,-16.30013 -0.24411,-1.18231 17.23051,-16.63048 19.94481,-17.63192 1.04056,-0.38391 4.84002,2.69295 4.84002,3.91952 0,0.41631 -3.34865,3.57322 -7.44144,7.01535 l -7.44144,6.25843 3.46898,4.07966 c 1.90794,2.24381 6.92901,8.29409 11.15793,13.44506 l 7.68896,9.36541 -2.77226,2.38459 c -1.52474,1.31153 -3.08806,2.3846 -3.47405,2.3846 -0.38598,0 -6.32339,-6.71426 -13.19423,-14.92057 z M 789.5,159.13434 c -8.45738,-3.85178 -14.39632,-13.83964 -12.91726,-21.7237 1.52652,-8.13702 11.66517,-18.60093 19.26716,-19.88528 12.01316,-2.02961 25.69706,11.12307 23.50682,22.59425 -0.9394,4.92006 -3.89633,10.35333 -7.71009,14.1671 -6.66209,6.66208 -14.4295,8.36227 -22.14663,4.84763 z m 11.29966,-7.54506 c 3.07432,-1.60611 7.41919,-6.04448 9.07815,-9.27354 0.61721,-1.20134 1.12219,-3.97923 1.12219,-6.17308 0,-4.67999 -4.10083,-9.56662 -8.91573,-10.62415 C 795.02888,123.96888 785,133.81755 785,142.29578 c 0,3.10676 0.69447,4.59869 3.4,7.30422 3.77978,3.77978 7.75242,4.41711 12.39966,1.98928 z m -544.88328,-15.2781 c -1.2773,-2.09615 -6.28101,-9.79998 -11.11937,-17.11962 C 239.95865,111.87192 236,105.73001 236,105.54287 236,105.03572 260.8198,89 261.60477,89 c 0.94641,0 3.32512,3.270168 3.36343,4.623925 0.0175,0.618158 -3.6807,3.516167 -8.2182,6.440015 -4.5375,2.92386 -8.62564,5.62873 -9.08474,6.01082 -0.76914,0.64012 3.20133,7.88666 4.33474,7.91139 0.275,0.006 4.325,-2.44407 9,-5.4446 l 8.5,-5.45551 1.72776,2.20698 c 0.95027,1.21384 1.72178,2.65698 1.71445,3.20698 -0.007,0.55 -2.88373,2.76896 -6.39201,4.93102 -3.50829,2.16206 -7.37036,4.67902 -8.58237,5.59325 l -2.20367,1.66223 2.75081,4.15675 c 1.51294,2.28621 3.1946,4.15675 3.73701,4.15675 0.54241,0 4.89036,-2.475 9.66211,-5.5 4.77174,-3.025 9.14592,-5.5 9.72039,-5.5 0.97009,0 3.79254,4.93995 3.15296,5.51844 -1.06067,0.95934 -24.06386,15.6504 -25.16992,16.07484 -0.84834,0.32553 -2.27223,-0.93714 -3.70114,-3.2821 z M 737.50035,121.5053 c -7.14981,-4.12676 -13.12767,-7.88725 -13.28413,-8.35663 -0.15646,-0.46939 4.28619,-8.79871 9.87255,-18.509596 l 10.15703,-17.656159 5.1271,2.852113 C 764.25646,88.114486 771,92.203472 771,92.948748 c 0,0.456326 -0.82929,1.853818 -1.84287,3.105537 l -1.84288,2.275852 -9.0258,-5.165068 C 753.32426,90.324281 748.8369,88 748.31654,88 747.53676,88 744,94.115542 744,95.463881 c 0,0.217815 3.2625,2.219789 7.25,4.448831 10.91329,6.100608 10.26287,5.434898 8.78826,8.994928 -0.7045,1.7008 -1.48078,3.09236 -1.72508,3.09236 -0.2443,0 -4.25351,-2.25 -8.90936,-5 -4.65585,-2.75 -8.78965,-5 -9.18622,-5 -1.15208,0 -5.58731,8.96363 -4.81658,9.73436 0.38399,0.38398 4.58029,2.97669 9.32512,5.76157 4.74484,2.78488 8.78732,5.54444 8.98329,6.13236 0.19597,0.58792 -0.44598,2.03898 -1.42656,3.22458 L 750.5,129.0085 Z M 290.38391,112.08688 C 280.96269,107.80853 274.5062,92.730585 278.06362,83.3151 280.51462,76.827975 290.75268,70.006483 298,70.031731 c 14.43199,0.05028 25.49991,19.041242 18.96483,32.540919 -3.1536,6.51446 -11.59577,11.46282 -19.45823,11.40539 -1.65363,-0.0121 -4.85884,-0.8631 -7.12269,-1.89116 z m 14.64882,-7.60381 c 3.23567,-1.67323 5.97263,-6.12192 5.9575,-9.68341 -0.0162,-3.805491 -4.55546,-12.353888 -7.77887,-14.649156 -3.80649,-2.710459 -8.5174,-2.742514 -12.8138,-0.08719 -4.38564,2.710469 -5.76337,7.403313 -3.94617,13.441413 3.1389,10.429783 10.84158,14.980733 18.58134,10.978343 z m 397.68477,-0.59942 c -7.37586,-1.6885 -13.48013,-6.445428 -15.65388,-12.19875 -3.59679,-9.519702 2.03082,-24.141625 11.06546,-28.75075 8.45402,-4.312923 21.30702,-0.76558 26.68807,7.36573 3.79156,5.729431 3.75507,13.994277 -0.0965,21.850267 -4.66063,9.506303 -12.79158,13.842243 -22.00319,11.733503 z m 10.05781,-10.094049 c 3.44968,-3.173926 6.17659,-9.506685 6.20273,-14.404742 0.0278,-5.216345 -2.79658,-8.950603 -7.93401,-10.489814 -7.55982,-2.264975 -14.65205,4.27318 -16.47367,15.186677 -0.6892,4.129037 2.27088,9.485091 6.45966,11.6883 3.30624,1.739017 8.68921,0.831374 11.74529,-1.980421 z M 325.02503,79.065512 c -4.01802,-10.51511 -7.12989,-19.289167 -6.91526,-19.497904 0.21463,-0.208737 5.97328,-2.512471 12.797,-5.119409 11.92088,-4.554255 12.46051,-4.666396 13.77891,-2.863386 2.30967,3.158662 1.0992,4.643303 -6.18568,7.586788 -3.85,1.555607 -7.7591,3.165881 -8.68689,3.578387 -1.77933,0.791111 -1.401,2.020168 7.85833,25.529252 2.89847,7.359111 2.6661,8.303252 -2.28742,9.293957 l -3.05349,0.610697 z m 347.26905,11.60841 C 670.53082,90.028265 668.69743,89.05 668.21988,88.5 667.74234,87.95 666.83129,83.731695 666.19533,79.125989 665.13874,71.473938 663.85493,68 662.08367,68 c -0.36929,0 -1.9171,3.825 -3.43958,8.5 -1.52247,4.675 -3.16905,8.5 -3.65906,8.5 -0.7593,0 -5.76875,-1.932089 -6.83565,-2.636433 C 647.22032,81.750218 660.4948,43 661.63398,43 663.46713,43 668,45.18698 668,46.071421 c 0,0.412714 -0.89419,3.602983 -1.9871,7.089485 -1.0929,3.486502 -1.9929,6.901594 -2,7.589094 -0.0287,2.782462 4.0594,0.998356 7.59268,-3.313536 4.8696,-5.942709 8.43753,-7.773925 13.48511,-6.921142 C 687.34636,50.896415 689,51.738519 689,52.50611 689,55.615614 687.68167,57 684.72053,57 c -2.3974,0 -4.2333,1.196108 -8.42381,5.488181 -5.07339,5.196349 -5.28098,5.608454 -3.90396,7.75 C 673.4915,71.946959 677,88.138547 677,91.500445 c 0,0.702005 -1.0216,0.522577 -4.70592,-0.826523 z M 363,86.408473 c 0,-0.325339 -2.475,-9.099089 -5.5,-19.497221 C 354.475,56.51312 352,47.660465 352,47.238686 352,46.091916 371.14618,41 375.45816,41 c 8.07275,0 13.73676,10.572281 9.94494,18.56295 -1.83937,3.876184 -8.31558,7.734147 -15.18336,9.044921 -2.41414,0.460759 -3.1552,1.057253 -2.80662,2.259097 2.69059,9.276528 3.71671,13.317331 3.42939,13.504702 -0.18838,0.122852 -1.60118,0.764484 -3.13956,1.425849 C 364.6436,87.112762 363,87.326281 363,86.408473 Z m 9.71471,-26.365744 c 5.03778,-2.286995 6.56044,-5.976228 3.74882,-9.083024 -1.98071,-2.188664 -5.13671,-2.455885 -10.71353,-0.907124 -4.1624,1.155956 -4.20032,1.242123 -2.66193,6.048196 0.59844,1.869573 1.25932,3.961723 1.46862,4.649223 0.53483,1.75682 3.24834,1.521569 8.15802,-0.707271 z m 19.67425,15.338891 c 0.33313,-1.584891 1.9811,-11.43162 3.66216,-21.88162 1.68106,-10.45 3.36976,-19.307696 3.75268,-19.683769 0.38291,-0.376074 2.45773,-0.826074 4.61072,-1 L 408.32903,32.5 l 12.24202,18 c 6.73311,9.9 11.94658,18.302483 11.58548,18.672184 -0.36109,0.369701 -2.30887,0.975686 -4.32839,1.346632 -3.47312,0.637944 -3.8186,0.452715 -6.38289,-3.422184 C 419.95419,64.843485 418.46681,63 418.13996,63 c -0.32685,0 -4.0594,0.744619 -8.29455,1.654709 l -7.70029,1.65471 -0.66624,4.844173 c -0.75823,5.512938 -0.6699,5.416415 -5.84486,6.387244 -3.83272,0.719022 -3.84791,0.708913 -3.24506,-2.159216 z M 413.8515,56.448361 C 414.37937,55.970759 406.82777,44 405.99861,44 c -0.73173,0 -2.90314,13.762141 -2.27113,14.394144 0.36414,0.364144 9.51478,-1.394559 10.12402,-1.945783 z m 209.50669,20.628196 c -5.15874,-1.280247 -9.78966,-4.720265 -12.25184,-9.101129 -1.96515,-3.496513 -2.26014,-5.214353 -1.94033,-11.299408 0.69405,-13.205892 7.22834,-21.430974 17.83518,-22.450157 7.29245,-0.700712 15.09281,3.271154 17.92856,9.129046 C 647.85231,49.392077 647.65008,50 642.71924,50 c -3.84361,0 -4.39708,-0.308146 -5.41974,-3.017491 -1.3329,-3.531265 -6.4102,-6.066328 -10.56072,-5.272906 -8.96186,1.713169 -12.90286,21.67674 -5.26689,26.680021 4.01155,2.628469 8.30738,2.058175 11.67825,-1.550349 2.94763,-3.155448 2.95832,-3.15798 6.40121,-1.516179 4.02622,1.919971 4.15768,2.505796 1.36035,6.062025 -3.8008,4.831944 -11.26494,7.252069 -17.55351,5.691436 z m -40.23411,-8.623516 c -7.35676,-2.404352 -13.53748,-4.533108 -13.73494,-4.730569 -0.45809,-0.458084 11.56027,-37.977409 12.47562,-38.946826 0.37617,-0.398395 7.08549,1.323235 14.90959,3.825845 14.7942,4.732056 16.02451,5.648157 12.97565,9.661798 -1.14394,1.505933 -2.12451,1.35971 -11.55724,-1.723428 l -10.30723,-3.368978 -0.98645,2.594548 c -2.3252,6.115755 -2.0889,6.401559 7.85092,9.495604 7.97132,2.481293 9.24788,3.180649 9.23469,5.059142 -0.0349,4.972419 -1.11851,5.133317 -11.43174,1.697463 -5.3236,-1.773558 -9.81066,-3.065574 -9.97126,-2.871146 -0.16059,0.194428 -1.0045,2.489979 -1.87536,5.101223 -1.87435,5.620197 -2.44514,5.107727 10.29367,9.24202 4.675,1.51724 8.86241,3.087648 9.30536,3.489796 1.36512,1.239386 -0.38136,6.027991 -2.16377,5.932762 -0.90287,-0.04824 -7.66075,-2.054902 -15.01751,-4.459254 z M 451.82686,64.805783 c -0.28379,-2.001971 -1.0548,-2.384081 -5.85156,-2.900023 -7.1356,-0.76751 -9.54736,-2.131206 -11.83013,-6.689196 -2.82487,-5.640374 -3.28873,-8.760814 -2.03967,-13.721263 1.36479,-5.420054 5.27928,-9.070971 11.51366,-10.738416 C 447.17898,29.804778 448,29.155533 448,27.292595 448,25.284567 448.4965,25 452,25 c 3.33333,0 4,0.333333 4,2 0,1.718774 0.66791,2.000526 4.75,2.003738 5.67917,0.0045 10.42562,2.595915 13.2554,7.237122 2.68427,4.402556 2.69924,13.091224 0.0301,17.468803 C 472.00164,57.045311 465.53055,61 462.10626,61 c -1.40944,0 -2.06384,0.78591 -2.28984,2.75 -0.27334,2.375585 -0.81652,2.791633 -3.98956,3.055783 -3.18298,0.264978 -3.71676,-0.0019 -4,-2 z M 449.85325,48.25 c -0.4128,-3.7125 -0.77366,-7.7625 -0.8019,-9 -0.066,-2.890627 -2.86869,-2.968124 -6.41649,-0.17742 C 440.45063,40.790697 440,41.955624 440,45.884019 440,51.797546 442.57885,55 447.34086,55 h 3.26295 z m 15.6922,3.295455 C 470.84865,46.242259 467.43622,36 460.36615,36 h -3.4887 l 0.59877,4.75 c 0.32932,2.6125 0.83446,6.6625 1.12254,9 0.41854,3.396053 0.92246,4.25 2.50797,4.25 1.0913,0 3.08872,-1.104545 4.43872,-2.454545 z M 554.5,65.10565 l -3,-0.645072 0.35703,-8.179235 0.35704,-8.179235 -3.69892,1.02132 c -6.95717,1.920968 -16.03005,-0.969924 -18.68679,-5.954176 -1.39802,-2.622805 -1.3995,-19.990149 -0.002,-21.393084 0.39662,-0.398107 2.36521,-0.457033 4.37464,-0.130947 l 3.65352,0.592885 -0.56896,8.782036 -0.56897,8.782036 3.09196,1.598911 c 3.50338,1.811669 6.93049,2.028756 10.51469,0.666045 2.27455,-0.86478 2.50632,-1.598574 3.17552,-10.053783 l 0.7219,-9.120916 3.63958,0.303783 L 561.5,23.5 561.21383,36 c -0.39112,17.084003 -1.51297,29.297224 -2.71383,29.544667 -0.55,0.113331 -2.35,-0.08423 -4,-0.439017 z M 485.23011,42.75 485.5,21.5 h 3.5 3.5 L 493,35 c 0.57386,15.494317 -0.61536,15.730246 10.08121,-2 3.48402,-5.775 6.80354,-10.830609 7.37669,-11.234687 1.37137,-0.966828 7.54154,-0.979352 7.54406,-0.01531 10e-4,0.4125 0.0441,9.525 0.0956,20.25 0.0515,10.725 0.0506,20.0625 -0.002,20.75 -0.0569,0.743695 -1.51325,1.25 -3.5956,1.25 h -3.5 v -13 c 0,-7.15 -0.37975,-13 -0.8439,-13 -0.46414,0 -3.90919,5.0625 -7.65565,11.25 C 493.70773,63.771666 493.49603,64 488.82512,64 h -3.8649 z"
     id="path1947"
     inkscape:connector-curvature="0" />
</svg>
