<svg width="768px" height="198px" enable-background="new 0 0 768 198" version="1.1" viewBox="0 0 768 198" xml:space="preserve" xmlns="http://www.w3.org/2000/svg">
<path d="m35.92 177.64c0 7.632-6.188 13.819-13.82 13.819s-13.82-6.188-13.82-13.819v-157.3c0-7.632 6.188-13.82 13.82-13.82h30.905c5.304 0 9.91 2.989 12.227 7.374l45.018 71.249 45.584-72.145c2.617-4.156 7.088-6.434 11.661-6.438v-.04h30.905c7.633 0 13.82 6.188 13.82 13.82v157.3c0 7.632-6.188 13.819-13.82 13.819h-10.299l-.025.086-6.673-.001-.018-.085h-6.883l-5.123-.001h-1.761c-.118-.001-.236-.004-.354-.007-.117-.005-.234-.011-.352-.018-7.234-.439-12.966-6.449-12.966-13.794-.017-1.611-.188-4.835-.185-6.552v-62.017c0-7.633 6.188-13.82 13.82-13.82h16.968l.032-.085v-61.005h-9.518l-53.039 83.941c-1.073 1.769-2.563 3.321-4.432 4.498-6.44 4.056-14.948 2.122-19.003-4.318l-53.151-84.121h-9.518z" style="display:none;fill:#58595b"/>
<path d="m326.88 171.09v-62.017c0-7.633 6.188-13.82 13.819-13.82h16.968l.032-.085v-60.796c-.066 0-.132.001-.199 0l-6.869-.103-73.687 148.67c-2.06 5.049-7.014 8.609-12.799 8.609h-29.742c-7.633 0-13.82-6.195-13.82-13.837v-157.35c0-7.642 6.188-13.836 13.82-13.836s13.82 6.195 13.82 13.836v143.52h7.39l74.16-149.62c2.162-4.386 6.34-7.112 10.861-7.613l-.021-.076v-.04h30.905c7.632 0 13.82 6.188 13.82 13.82v157.3c0 7.632-6.188 13.819-13.82 13.819h-10.302l-.025.086-6.672-.001-.018-.085-13.767-.001c-7.563-.077-13.595-6.251-13.671-13.818-.016-1.61-.187-4.833-.183-6.55z" style="display:none;fill:#58595b"/>
<path d="m440.99 191.2c-7.633 0-13.82-6.209-13.82-13.867 0-7.659 6.188-13.867 13.82-13.867h49.393v-66.016h-49.393c-7.633 0-13.82-6.188-13.82-13.82s6.188-13.82 13.82-13.82h80.828v-35.901h-80.828c-7.633 0-13.82-6.208-13.82-13.867s6.188-13.867 13.82-13.867h94.648c7.632 0 13.82 6.208 13.82 13.867v157.29c0 7.658-6.188 13.867-13.82 13.867zm-32.795-93.75c7.631 0 13.82-6.188 13.82-13.82s-6.189-13.82-13.82-13.82c-7.632 0-13.82 6.188-13.82 13.82s6.188 13.82 13.82 13.82zm0 93.75c7.631 0 13.82-6.189 13.82-13.82 0-7.632-6.189-13.82-13.82-13.82-7.632 0-13.82 6.188-13.82 13.82 0 7.631 6.188 13.82 13.82 13.82zm0-157.38c7.631 0 13.82-6.188 13.82-13.82s-6.189-13.82-13.82-13.82c-7.632 0-13.82 6.189-13.82 13.82s6.188 13.82 13.82 13.82z" style="display:none;fill:#ffcb05"/>
<path d="m704.15 171.09v-62.017c0-7.633 6.188-13.82 13.82-13.82h16.968l.032-.085v-61.006h-9.518l-53.038 83.941c-1.074 1.769-2.563 3.321-4.433 4.498-6.439 4.056-14.948 2.122-19.002-4.318l-53.152-84.121h-9.518v143.48c0 7.632-6.188 13.819-13.819 13.819-7.633 0-13.82-6.188-13.82-13.819v-157.3c0-7.632 6.188-13.82 13.82-13.82h30.904c5.305 0 9.91 2.989 12.227 7.374l45.019 71.249 45.584-72.145c2.616-4.156 7.088-6.434 11.661-6.438v-.04h30.904c7.633 0 13.82 6.188 13.82 13.82v157.3c0 7.632-6.188 13.819-13.82 13.819h-10.302l-.024.086-6.673-.001-.019-.085-13.767-.001c-7.563-.077-13.595-6.251-13.671-13.818-.015-1.611-.186-4.834-.183-6.551z" style="display:none;fill:#58595b"/>
<g transform="matrix(4.316 0 0 3.6236 6.429 -.098842)" style="fill:none"><g id="Index_Desktops_rus" transform="translate(-165,-35)" style="stroke-width:.25286"><g id="RQClogo_white_rus" transform="translate(165,35)" style="stroke-width:.25286"><g id="Group" transform="translate(52,10)" style="fill:#040403;stroke-width:.25286"><path id="Shape" d="m14.7 9.3c0 5.7-2.8 8.8-8 8.8h-4.2v10.6h-2.5v-27.9h6.7c5.2 0 8 3.1 8 8.5zm-2.5 0c0-4.1-1.8-6.2-5.5-6.2h-4.2v12.6h4.2c3.8 0 5.5-1.9 5.5-6.4z" style="stroke-width:.25286"/><polygon points="22.8 10.8 29.9 .8 33 .8 24.1 13 34.1 28.7 31.2 28.7 22.5 15.1 20.5 17.8 20.5 28.7 18 28.7 18 .8 20.5 .8 20.5 14.1" style="stroke-width:.25286"/><polygon points="51.5 .8 51.5 26.4 54 26.4 54 33.3 51.6 33.3 51.6 28.7 51.5 28.7 36.8 28.7 36.8 .8 39.3 .8 39.3 26.4 49 26.4 49 .8" style="stroke-width:.25286"/></g><g transform="translate(130,10)" style="fill:#040403;stroke-width:.25286"><path d="m3.8 2.7c0 1.3-.7 2.1-2 2.1h-.8v2.2h-.9v-6.4h1.7c1.3.1 2 .8 2 2.1zm-1 0c0-.8-.3-1.2-1-1.2h-.8v2.5h.8c.7 0 1-.4 1-1.3z" style="stroke-width:.25286"/><path d="m4.5 5.4v-1.4c0-1.2.6-1.8 1.7-1.8s1.7.6 1.7 1.8v1.4c0 1.2-.6 1.8-1.7 1.8-1 0-1.7-.7-1.7-1.8zm2.5 0v-1.4c0-.7-.3-1-.8-1s-.8.3-.8 1v1.4c0 .7.3 1 .8 1 .5-.1.8-.4.8-1z" style="stroke-width:.25286"/><path d="m9 5.4v-1.5c0-1.1.6-1.8 1.6-1.8 1.1 0 1.7.6 1.7 1.8h-.9c0-.6-.3-.9-.8-.9s-.7.3-.7.9v1.5c0 .6.3.9.7.9.5 0 .8-.3.8-.9h.9c0 1.1-.7 1.8-1.7 1.8s-1.6-.7-1.6-1.8z" style="stroke-width:.25286"/><path d="m13.2 5.4v-1.5c0-1.1.6-1.8 1.6-1.8 1.1 0 1.7.6 1.7 1.8h-.9c0-.6-.3-.9-.8-.9s-.7.3-.7.9v1.5c0 .6.3.9.7.9.5 0 .8-.3.8-.9h.9c0 1.1-.7 1.8-1.7 1.8s-1.6-.7-1.6-1.8z" style="stroke-width:.25286"/><path d="m17.5 2.3h.9v2 1.3c.1-.2.3-1 .5-1.4l.9-2h.9v4.8h-.9v-1.8-1.6c0 .2-.3 1.1-.5 1.5l-.9 1.9h-.9z" style="stroke-width:.25286"/><path d="m22 2.3h.9v2 1.3c.1-.2.3-1 .5-1.4l.9-2h.9v4.8h-.9v-1.8-1.6c0 .2-.3 1.1-.5 1.5l-.9 1.9h-.9zm.6-1.9h.6c0 .3.2.5.5.5s.5-.2.5-.5h.6c0 .7-.5 1.1-1.1 1.1-.7 0-1.1-.4-1.1-1.1z" style="stroke-width:.25286"/><path d="m26.4 5.4v-1.5c0-1.1.6-1.8 1.6-1.8 1.1 0 1.7.6 1.7 1.8h-.9c0-.6-.3-.9-.8-.9s-.7.3-.7.9v1.5c0 .6.3.9.7.9.5 0 .8-.3.8-.9h.9c0 1.1-.7 1.8-1.7 1.8-.9 0-1.6-.7-1.6-1.8z" style="stroke-width:.25286"/><polygon points="32.3 3.3 33.1 2.1 34.2 2.1 32.7 4.2 34.4 7 33.4 7 32 5 31.7 5.3 31.7 7 30.8 7 30.8 2.2 31.7 2.2 31.7 4.2" style="stroke-width:.25286"/><path d="m35 2.3h.9v2 1.3c.1-.2.3-1 .5-1.4l.9-2h.9v4.8h-.9v-1.8-1.6c0 .2-.3 1.1-.5 1.5l-.9 1.9h-.9z" style="stroke-width:.25286"/><path d="m39.5 2.3h.9v2 1.3c.1-.2.3-1 .5-1.4l.9-2h.9v4.8h-.9v-1.8-1.6c0 .2-.3 1.1-.5 1.5l-.9 1.9h-.9zm.5-1.9h.6c0 .3.2.5.5.5s.5-.2.5-.5h.6c0 .7-.5 1.1-1.1 1.1s-1-.4-1.1-1.1z" style="stroke-width:.25286"/><polygon points="1.5 13.5 2.8 11.5 3.9 11.5 2.1 14.3 4.2 17.9 3 17.9 1.5 15 1.1 15.6 1.1 17.8 .2 17.8 .2 11.4 1.1 11.4 1.1 14.2" style="stroke-width:.25286"/><path d="m7.9 16.4c0 .9-.6 1.4-1.7 1.4h-1.5v-4.8h1.4c1 0 1.5.5 1.5 1.3 0 .3-.2.7-.5.9.6.2.8.7.8 1.2zm-2.4-1.5h.5c.4 0 .7-.2.7-.6s-.2-.6-.7-.6h-.5zm1.5 1.4c0-.4-.2-.7-.8-.7h-.7v1.4h.7c.6 0 .8-.2.8-.7z" style="stroke-width:.25286"/><path d="m11.9 14.6v3.2h-.7l-.1-.5c-.2.3-.5.6-1.1.6-.9 0-1.5-.6-1.5-1.5 0-1 .7-1.5 1.7-1.5h.7v-.3c0-.6-.2-.9-.7-.9-.4 0-.7.2-.7.6h-.9c0-.9.7-1.5 1.6-1.5 1.2 0 1.7.7 1.7 1.8zm-.8 1h-.7c-.5 0-.9.3-.9.7s.3.7.8.7.8-.3.8-.8z" style="stroke-width:.25286"/><polygon points="15.4 14.8 15.4 12.9 16.3 12.9 16.3 17.7 15.4 17.7 15.4 15.6 14.1 15.6 14.1 17.7 13.2 17.7 13.2 12.9 14.1 12.9 14.1 14.8" style="stroke-width:.25286"/><polygon points="17.2 13 20.3 13 20.3 13.8 19.2 13.8 19.2 17.8 18.3 17.8 18.3 13.8 17.2 13.8" style="stroke-width:.25286"/><path d="m20.9 16v-1.4c0-1.2.6-1.8 1.7-1.8s1.7.6 1.7 1.8v1.4c0 1.2-.6 1.8-1.7 1.8-1.1.1-1.7-.6-1.7-1.8zm2.5 0v-1.4c0-.7-.3-1-.8-1s-.8.3-.8 1v1.4c0 .7.3 1 .8 1s.8-.3.8-1z" style="stroke-width:.25286"/><path d="m28.6 16.4c0 .9-.6 1.4-1.7 1.4h-1.5v-4.8h1.4c1 0 1.5.5 1.5 1.3 0 .3-.2.7-.5.9.6.2.8.7.8 1.2zm-2.3-1.5h.5c.4 0 .7-.2.7-.6s-.2-.6-.7-.6h-.5zm1.5 1.4c0-.4-.2-.7-.8-.7h-.7v1.4h.7c.5 0 .8-.2.8-.7z" style="stroke-width:.25286"/><path d="m32.8 16.2c0 .9-.7 1.6-1.6 1.6h-1.6v-4.8h.9v1.7h.8c.9-.1 1.5.5 1.5 1.5zm-.9 0c0-.5-.3-.7-.8-.7h-.7v1.5h.7c.5 0 .8-.3.8-.8zm2.4-3.2v4.8h-.9v-4.8z" style="stroke-width:.25286"/><path d="m35.6 12.9h.9v2 1.3c.1-.2.3-1 .5-1.4l.9-2h.9v4.8h-.8v-1.8-1.6c0 .2-.3 1.1-.5 1.5l-.9 1.9h-.9v-4.7zm.5-1.8h.6c0 .3.2.5.5.5s.5-.2.5-.5h.6c0 .7-.5 1.1-1.1 1.1s-1.1-.4-1.1-1.1z" style="stroke-width:.25286"/><polygon points="4.3 29.4 3.4 29.4 3.4 28.4 .1 28.4 .1 22 1 22 1 27.5 2.8 27.5 2.8 22 3.7 22 3.7 27.5 4.3 27.5" style="stroke-width:.25286"/><path d="m8.5 26.9c-.1 1-.7 1.6-1.7 1.6s-1.6-.7-1.6-1.8v-1.4c0-1.1.6-1.8 1.7-1.8 1 0 1.7.6 1.7 1.8v1.1h-2.6v.4c0 .7.3 1 .8 1s.7-.2.8-.8h.9zm-2.5-1.6v.4h1.6v-.4c0-.7-.3-1-.8-1s-.8.3-.8 1z" style="stroke-width:.25286"/><polygon points="11.8 25.5 11.8 23.6 12.7 23.6 12.7 28.4 11.8 28.4 11.8 26.3 10.5 26.3 10.5 28.4 9.6 28.4 9.6 23.6 10.5 23.6 10.5 25.5" style="stroke-width:.25286"/><polygon points="13.6 23.6 16.7 23.6 16.7 24.4 15.6 24.4 15.6 28.4 14.7 28.4 14.7 24.4 13.6 24.4" style="stroke-width:.25286"/><path d="m20.8 25.4v1.3c0 1.2-.6 1.8-1.5 1.8-.3 0-.7-.1-.9-.4v1.9h-.9v-6.5h.6l.1.4c.2-.3.7-.5 1.1-.5.9.1 1.5.8 1.5 2zm-.9 0c0-.7-.3-1-.8-1s-.8.3-.8 1v1.3c0 .6.3 1 .8 1s.8-.3.8-1z" style="stroke-width:.25286"/></g><rect id="Rectangle-path" x="117.2" y="6" width="2.5" height="37.7" style="fill:#7fd2ff;stroke-width:.25286"/><g style="fill:#7fd2ff;stroke-width:.25286"><path d="m.3 33.9v-5.6l27.6 15.9v10.8l-23.3-13.5c-2.7-1.6-4.3-4.5-4.3-7.6z" style="stroke-width:.25286"/><polygon points="18.7 0 10.8 4.6 10.8 15.2 27.9 5.4" style="stroke-width:.25286"/><polygon points="20.1 38.2 26.6 42 26.6 34.4" style="stroke-width:.25286"/><polygon points=".3 10.7 .3 26.9 9.5 32.2 9.5 5.4" style="stroke-width:.25286"/><path d="m27.9 17.5v26.7l4.9-2.8c2.7-1.6 4.4-4.4 4.4-7.6v-11z" style="stroke-width:.25286"/><polygon points="37.1 10.7 29.2 6.1 20.1 11.4 37.1 21.3" style="stroke-width:.25286"/></g></g></g></g></svg>
