<svg width="353" height="105" viewBox="0 0 353 105" fill="none" xmlns="http://www.w3.org/2000/svg">
<path d="M109.404 31.5043C111.649 31.5043 114.556 31.8498 116.387 32.3689L115.315 37.277C114.139 36.8617 112.1 36.6201 110.58 36.6201C105.74 36.6201 103.943 37.311 103.943 43.9823C103.943 50.6196 105.74 51.5181 110.58 51.5181C112.1 51.5181 114.139 51.2406 115.315 50.8612L116.387 55.8731C114.52 56.3564 111.649 56.6679 109.404 56.6679C101.661 56.6679 97.9966 53.7287 97.9966 43.9124C97.9966 34.0622 101.661 31.5043 109.404 31.5043Z" fill="#2780e3"/>
<path d="M130.748 36.9315C129.816 39.4535 128.709 42.7042 127.603 46.0568H134.516C133.41 42.7722 132.372 39.4875 131.649 36.9315H130.748ZM136.106 50.8611H126.184C125.564 52.8659 125.045 54.697 124.63 56.1845H118.684C120.69 49.4434 124.458 38.8664 127.224 32.0932H135.828C138.11 39.6272 141.706 49.8927 144.298 56.1845H138.144C137.557 54.7668 136.832 52.8999 136.106 50.8611Z" fill="#2780e3"/>
<path d="M167.349 32.0923H174.468V56.1836H169.078V39.9038C167.245 43.9473 164.719 50.1013 163.132 54.1788H158.707C157.187 50.1693 154.803 43.7736 153.074 39.9038V56.1836H147.681V32.0923H155.147C157.151 36.1019 159.536 41.6669 161.335 46.1956C163.062 41.6329 165.446 36.066 167.349 32.0923Z" fill="#2780e3"/>
<path d="M190.153 36.9315C189.22 39.4535 188.114 42.7042 187.008 46.0568H193.921C192.815 42.7722 191.774 39.4875 191.051 36.9315H190.153ZM195.51 50.8611H185.588C184.967 52.8659 184.45 54.697 184.033 56.1845H178.088C180.095 49.4434 183.861 38.8664 186.627 32.0932H195.233C197.515 39.6272 201.111 49.8927 203.703 56.1845H197.549C196.962 54.7668 196.237 52.8999 195.51 50.8611Z" fill="#2780e3"/>
<path d="M218.594 44.0863C220.048 44.0863 221.014 43.0839 221.014 40.56C221.014 37.9341 220.185 36.8619 218.664 36.8619H212.651V44.0863H218.594ZM207.083 56.1848V32.0916H220.529C225.475 32.0916 227.132 35.6179 227.132 40.56C227.132 44.915 225.058 48.6848 220.567 48.6848H212.651V56.1848H207.083Z" fill="#2780e3"/>
<path d="M241.843 31.5043C244.09 31.5043 246.993 31.8498 248.824 32.3689L247.756 37.277C246.58 36.8617 244.541 36.6201 243.017 36.6201C238.181 36.6201 236.38 37.311 236.38 43.9823C236.38 50.6196 238.181 51.5181 243.017 51.5181C244.541 51.5181 246.58 51.2406 247.756 50.8612L248.824 55.8731C246.959 56.3564 244.09 56.6679 241.843 56.6679C234.1 56.6679 230.438 53.7287 230.438 43.9124C230.438 34.0622 234.1 31.5043 241.843 31.5043Z" fill="#2780e3"/>
<path d="M267.593 56.1842C264.516 47.3363 262.233 45.3655 258.431 44.9502V56.1842H252.868V32.0929H258.431V43.6364C260.368 41.4938 263.859 37.0708 266.934 32.0929H273.571C269.563 38.3148 266.764 41.9091 265.692 42.9115C268.251 43.878 270.702 45.711 274.194 56.1842H267.593Z" fill="#2780e3"/>
<path d="M299.753 56.1842H294.256V40.3177C291.42 45.677 288.309 51.1382 285.2 56.1842H277.908V32.0929H283.367V48.6143C286.686 43.1871 289.968 37.5881 292.944 32.0929H299.753V56.1842Z" fill="#2780e3"/>
<path d="M314.545 26.077C314.545 27.5645 315.238 27.8741 316.621 27.8741C317.965 27.8741 318.692 27.5645 318.692 26.077H321.941C321.941 29.4655 319.972 31.021 316.48 31.021C313.091 31.021 311.053 29.4655 311.053 26.077H314.545ZM327.508 56.1845H322.011V40.3181C319.176 45.6755 316.068 51.1367 312.955 56.1845H305.663V32.0932H311.124V48.6128C314.441 43.1875 317.728 37.5884 320.699 32.0932H327.508V56.1845Z" fill="#2780e3"/>
<path d="M112.999 72.2253H116.871C113.726 80.2444 108.852 89.9927 104.876 96.3185H100.555C101.799 94.6592 103.355 92.3089 104.461 90.3381C102.973 85.8434 98.8637 76.9956 95.9585 72.2253H100.072C102.248 76.097 104.946 81.73 106.671 86.5362C109.058 81.7659 111.617 76.3047 112.999 72.2253" fill="#2780e3"/>
<path d="M124.68 96.3179H121.188V72.2247H124.68V81.8691H136.223V72.2247H139.716V96.3179H136.223V85.0839H124.68V96.3179Z" fill="#2780e3"/>
<path d="M165.756 96.3179H162.298V77.3763C158.808 83.7361 154.902 90.4074 150.998 96.3179H146.33V72.2247H149.788V92.0308C154.001 85.4634 157.979 78.7581 161.505 72.2247H165.756V96.3179Z" fill="#2780e3"/>
<path d="M184.416 93.3443C186.524 93.3443 187.285 91.7888 187.285 89.3008C187.285 86.707 186.351 84.9797 184.276 84.9797H175.878V93.3443H184.416ZM175.878 82.1104H184.14C186.145 82.1104 186.764 80.5568 186.764 78.586C186.764 76.4075 186.179 75.1975 184.14 75.1975H175.878V82.1104ZM191.053 89.6104C191.053 94.2089 188.805 96.3175 184.933 96.3175H172.385V72.2243H184.657C189.464 72.2243 190.464 74.6784 190.464 77.963C190.464 80.9702 189.877 83.0788 185.592 83.4601C190.153 83.6659 191.053 86.1539 191.053 89.6104Z" fill="#2780e3"/>
<path d="M213.748 72.2253V75.2324H200.266V82.0774H209.842V85.0487H200.266V93.3094H213.748V96.3185H196.775V72.2253H213.748Z" fill="#2780e3"/>
<path d="M229.714 84.9103C232.1 84.9103 233.276 83.1471 233.276 80.2438C233.276 76.995 232.1 75.1979 229.852 75.1979H222.248V84.9103H229.714ZM218.724 96.3179V72.2247H230.371C235.591 72.2247 237.148 75.8548 237.148 80.2796C237.148 84.2194 235.315 87.9174 230.511 87.9174H222.248V96.3179H218.724Z" fill="#2780e3"/>
<path d="M252.342 71.6372C254.518 71.6372 257.32 72.0185 259.151 72.5376L258.284 75.6826C256.903 75.1635 254.518 74.852 252.755 74.852C247.088 74.852 244.98 75.9582 244.98 84.0812C244.98 92.1701 247.088 93.552 252.755 93.552C254.518 93.552 256.903 93.2405 258.284 92.7572L259.151 95.9022C257.284 96.4553 254.518 96.8008 252.342 96.8008C244.772 96.8008 241.178 93.8634 241.178 84.0472C241.178 74.1951 244.772 71.6372 252.342 71.6372Z" fill="#2780e3"/>
<path d="M283.397 96.3179H279.939V77.3763C276.446 83.7361 272.542 90.4074 268.639 96.3179H263.97V72.2247H267.427V92.0308C271.642 85.4634 275.618 78.7581 279.146 72.2247H283.397V96.3179Z" fill="#2780e3"/>
<path d="M296.213 96.3179V75.2318H287.954V72.2247H308V75.2318H299.775V96.3179H296.213Z" fill="#2780e3"/>
<path d="M329.532 72.2253V75.2324H316.052V82.0774H325.628V85.0487H316.052V93.3094H329.532V96.3185H312.562V72.2253H329.532Z" fill="#2780e3"/>
<path d="M341.213 96.3179V75.2318H332.95V72.2247H353V75.2318H344.771V96.3179H341.213Z" fill="#2780e3"/>
<path fill-rule="evenodd" clip-rule="evenodd" d="M36.1181 64.6116C36.1181 64.3927 35.9406 64.2133 35.7217 64.2114C20.3895 63.9962 8.02666 51.5032 8.02666 36.12C8.02666 20.7349 20.3895 8.24188 35.7217 8.02856C35.9406 8.02479 36.1181 7.84735 36.1181 7.62648V0.402108C36.1181 0.296394 36.0766 0.192567 35.9992 0.117057C35.9218 0.0415478 35.8198 1.70539e-05 35.7122 1.70539e-05C15.9514 0.220882 0 16.3063 0 36.12C0 55.9318 15.9514 72.0191 35.7122 72.2381C35.8198 72.24 35.9218 72.1985 35.9992 72.1229C36.0766 72.0455 36.1181 71.9436 36.1181 71.836V64.6116Z" fill="#2780e3"/>
<path fill-rule="evenodd" clip-rule="evenodd" d="M36.1216 96.717C36.1216 96.4981 36.299 96.3187 36.518 96.3168C51.8502 96.1016 64.213 83.6086 64.213 68.2254C64.213 52.8403 51.8502 40.3473 36.518 40.134C36.299 40.1302 36.1216 39.9527 36.1216 39.7319V32.5094C36.1216 32.4018 36.1631 32.298 36.2405 32.2225C36.3179 32.1469 36.4198 32.1054 36.5274 32.1073C56.2883 32.3263 72.2397 48.4117 72.2397 68.2254C72.2397 88.0372 56.2883 104.125 36.5274 104.344C36.4198 104.345 36.3179 104.304 36.2405 104.228C36.1631 104.151 36.1216 104.049 36.1216 103.941V96.717Z" fill="#2780e3"/>
<path fill-rule="evenodd" clip-rule="evenodd" d="M36.1175 56.1848C42.7642 56.1848 48.1594 61.5743 48.1594 68.2248C48.1594 74.7451 42.9794 80.0515 36.512 80.2573C36.295 80.2648 36.1232 80.4423 36.1232 80.6594V87.8837C36.1232 87.9932 36.1647 88.0952 36.2421 88.1707C36.3195 88.2462 36.4252 88.2877 36.5328 88.2858C47.4251 88.0668 56.186 79.1718 56.186 68.2248C56.186 57.1419 47.2004 48.1601 36.1175 48.1601C29.4708 48.1582 24.0794 42.7706 24.0794 36.1201C24.0794 29.5998 29.2612 24.2915 35.7286 24.0857C35.9457 24.0782 36.1175 23.9007 36.1175 23.6855V16.4593C36.1175 16.3498 36.0741 16.2478 35.9986 16.1723C35.9212 16.0968 35.8155 16.0553 35.7079 16.0572C24.8156 16.2762 16.0527 25.1731 16.0527 36.1201C16.0527 47.203 25.0365 56.1848 36.1175 56.1848Z" fill="#2780e3"/>
</svg>
