<svg width="118.88" height="48.127" version="1.1" viewBox="0 0 118.88 48.127" xmlns="http://www.w3.org/2000/svg">
	<title>University</title>
	<desc>Created with Sketch.</desc>
	<g id="END-FUND" transform="translate(-40.253 -77.636)" style="fill:none">
		<g id="Desktop-HD" transform="translate(-1047,-7927)">
			<g id="University" transform="translate(1048,7928)">
				<g transform="translate(39.252 76.636)">
					<path id="Shape" d="m38.272 19.128c0 .94606-.56989 1.799-1.4439 2.161-.87404.36204-1.8801.16192-2.5491-.50704-.66896-.66896-.86908-1.675-.50704-2.5491.36204-.87404 1.2149-1.4439 2.161-1.4439.62049-.000432 1.2157.24586 1.6544.68462.43875.43875.68505 1.0339.68461 1.6544" style="fill:#1946ba"/>
					<path d="m44.991 9.0544c.000854.9473-.56924 1.8018-1.4443 2.1647s-1.8825.16274-2.5524-.5071c-.66984-.66984-.87-1.6773-.5071-2.5524.36291-.87502 1.2174-1.4451 2.1647-1.4443 1.2916.0005829 2.3385 1.0475 2.339 2.339" style="fill:#1946ba"/>
					<path d="m51.706 12.413c.000855.9473-.56924 1.8018-1.4443 2.1647-.87502.36291-1.8825.16274-2.5524-.5071-.66984-.66984-.87001-1.6773-.5071-2.5524.36291-.87502 1.2174-1.4451 2.1647-1.4443 1.291.0021 2.337 1.0481 2.339 2.339" style="fill:#1946ba"/>
					<path d="m58.422 15.77c.000854.9473-.56924 1.8018-1.4443 2.1647-.87502.36291-1.8825.16274-2.5524-.5071-.66984-.66984-.87-1.6773-.5071-2.5524.36291-.87502 1.2174-1.4451 2.1647-1.4443.62038-8.4e-5 1.2154.24632 1.654.685s.68508 1.0337.685 1.654" style="fill:#1946ba"/>
					<path d="m51.706 19.128c.000855.9473-.56924 1.8018-1.4443 2.1647-.87502.36291-1.8825.16274-2.5524-.5071-.66984-.66984-.87001-1.6773-.5071-2.5524.36291-.87502 1.2174-1.4451 2.1647-1.4443 1.2916.000583 2.3385 1.0475 2.339 2.339" style="fill:#1946ba"/>
					<path d="m65.138 19.128c0 1.2918-1.0472 2.339-2.339 2.339s-2.339-1.0472-2.339-2.339 1.0472-2.339 2.339-2.339c1.2916.000583 2.3385 1.0475 2.339 2.339" style="fill:#1946ba"/>
					<path d="m65.138 25.844c0 .94606-.56989 1.799-1.4439 2.161-.87404.36204-1.8801.16192-2.5491-.50704-.66896-.66896-.86908-1.675-.50704-2.5491.36204-.87404 1.2149-1.4439 2.161-1.4439 1.2916.000583 2.3385 1.0475 2.339 2.339" style="fill:#1946ba"/>
					<path d="m71.854 22.486c0 1.2918-1.0472 2.339-2.339 2.339s-2.339-1.0472-2.339-2.339 1.0472-2.339 2.339-2.339c.62049-.000432 1.2157.24586 1.6544.68461.43875.43875.68505 1.0339.68461 1.6544" style="fill:#1946ba"/>
					<path d="m71.854 15.77c0 1.2918-1.0472 2.339-2.339 2.339s-2.339-1.0472-2.339-2.339 1.0472-2.339 2.339-2.339c1.2916.000583 2.3385 1.0475 2.339 2.339" style="fill:#1946ba"/>
					<path d="m65.138 12.413c0 1.2918-1.0472 2.339-2.339 2.339s-2.339-1.0472-2.339-2.339c0-1.2918 1.0472-2.339 2.339-2.339 1.291.0021 2.337 1.0481 2.339 2.339" style="fill:#1946ba"/>
					<path d="m58.422 22.486c0 1.2918-1.0472 2.339-2.339 2.339s-2.339-1.0472-2.339-2.339 1.0472-2.339 2.339-2.339c.62038-8.4e-5 1.2154.24632 1.654.685s.68508 1.0337.685 1.654" style="fill:#1946ba"/>
					<path d="m71.854 9.0544c0 1.2918-1.0472 2.339-2.339 2.339s-2.339-1.0472-2.339-2.339c0-1.2918 1.0472-2.339 2.339-2.339 1.2916.0005829 2.3385 1.0475 2.339 2.339" style="fill:#1946ba"/>
					<path d="m78.569 5.6972c0 1.2918-1.0472 2.339-2.339 2.339s-2.339-1.0472-2.339-2.339 1.0472-2.339 2.339-2.339c1.2916.000583 2.3385 1.0475 2.339 2.339" style="fill:#1946ba"/>
					<path d="m78.569 19.128c0 1.2918-1.0472 2.339-2.339 2.339s-2.339-1.0472-2.339-2.339 1.0472-2.339 2.339-2.339c1.2916.000583 2.3385 1.0475 2.339 2.339" style="fill:#1946ba"/>
					<path d="m58.422 9.0544c0 1.2918-1.0472 2.339-2.339 2.339s-2.339-1.0472-2.339-2.339c0-1.2918 1.0472-2.339 2.339-2.339 1.2916.0005829 2.3385 1.0475 2.339 2.339" style="fill:#1946ba"/>
					<path d="m51.703 25.844c0 .94606-.56989 1.799-1.4439 2.161-.87404.36204-1.8801.16192-2.5491-.50704-.66896-.66896-.86908-1.675-.50704-2.5491.36204-.87404 1.2149-1.4439 2.161-1.4439.62049-.000432 1.2157.24586 1.6544.68461.43875.43875.68505 1.0339.68461 1.6544" style="fill:#1946ba"/>
					<path d="m44.991 15.77c.000854.9473-.56924 1.8018-1.4443 2.1647-.87502.36291-1.8825.16274-2.5524-.5071-.66984-.66984-.87-1.6773-.5071-2.5524.36291-.87502 1.2174-1.4451 2.1647-1.4443 1.2916.000583 2.3385 1.0475 2.339 2.339" style="fill:#1946ba"/>
					<path id="RED" d="m38.275 12.413c.000855.9473-.56924 1.8018-1.4443 2.1647s-1.8825.16274-2.5524-.5071c-.66984-.66984-.87-1.6773-.5071-2.5524.36291-.87502 1.2174-1.4451 2.1647-1.4443 1.2916.000583 2.3385 1.0475 2.339 2.339" style="fill:#eb1946"/>
					<path d="m31.556 22.486c0 1.2918-1.0472 2.339-2.339 2.339s-2.339-1.0472-2.339-2.339 1.0472-2.339 2.339-2.339c.62038-8.4e-5 1.2154.24632 1.654.685s.68508 1.0337.685 1.654" style="fill:#1946ba"/>
					<path d="m31.556 15.77c0 1.2918-1.0472 2.339-2.339 2.339s-2.339-1.0472-2.339-2.339 1.0472-2.339 2.339-2.339c1.2916.000583 2.3385 1.0475 2.339 2.339" style="fill:#1946ba"/>
					<path d="m44.988 22.439c0 1.2918-1.0472 2.339-2.339 2.339-1.2918 0-2.339-1.0472-2.339-2.339 0-1.2918 1.0472-2.339 2.339-2.339 1.2916.000584 2.3385 1.0475 2.339 2.339" style="fill:#1946ba"/>
					<path d="m44.988 2.339c0 1.2918-1.0472 2.339-2.339 2.339-1.2918 1.17e-5-2.339-1.0472-2.3391-2.339-2.3e-5-1.2918 1.0472-2.3391 2.339-2.3391.62049-.00043205 1.2157.24586 1.6544.68461.43875.43875.68505 1.0339.68461 1.6544" style="fill:#1946ba"/>
					<path d="m58.374 29.202c0 .94606-.56989 1.799-1.4439 2.161-.87404.36204-1.8801.16192-2.5491-.50704-.66896-.66896-.86908-1.675-.50704-2.5491.36204-.87404 1.2149-1.4439 2.161-1.4439.62038-8.4e-5 1.2154.24632 1.6541.685.43868.43868.68508 1.0337.685 1.6541" style="fill:#1946ba"/>
					<path d="m38.275 5.6972c0 1.2918-1.0472 2.339-2.339 2.339s-2.339-1.0472-2.339-2.339 1.0472-2.339 2.339-2.339c1.291.00208 2.337 1.0481 2.339 2.339" style="fill:#1946ba"/>
					<path d="m51.703 5.6972c0 1.2918-1.0472 2.339-2.339 2.339s-2.339-1.0472-2.339-2.339 1.0472-2.339 2.339-2.339c1.291.00208 2.337 1.0481 2.339 2.339" style="fill:#1946ba"/>
					<path d="m58.374 29.202c0 .94606-.56989 1.799-1.4439 2.161-.87404.36204-1.8801.16192-2.5491-.50704-.66896-.66896-.86908-1.675-.50704-2.5491.36204-.87404 1.2149-1.4439 2.161-1.4439.62038-8.4e-5 1.2154.24632 1.6541.685.43868.43868.68508 1.0337.685 1.6541" style="fill:#1946ba"/>
					<path d="m92.004 12.413c.000855.9473-.56924 1.8018-1.4443 2.1647-.87502.36291-1.8825.16274-2.5524-.5071-.66984-.66984-.87-1.6773-.5071-2.5524.36291-.87502 1.2174-1.4451 2.1647-1.4443 1.2916.000583 2.3385 1.0475 2.339 2.339" style="fill:#1946ba"/>
					<path d="m78.569 25.844c0 .94606-.56989 1.799-1.4439 2.161-.87404.36204-1.8801.16192-2.5491-.50704-.66896-.66896-.86908-1.675-.50704-2.5491.36204-.87404 1.2149-1.4439 2.161-1.4439.62049-.000432 1.2157.24586 1.6544.68461.43875.43875.68505 1.0339.68461 1.6544" style="fill:#1946ba"/>
					<path d="m85.285 9.0544c0 .94606-.56989 1.799-1.4439 2.161-.87404.36204-1.8801.16192-2.5491-.50704-.66896-.66896-.86908-1.675-.50704-2.5491.36204-.87404 1.2149-1.4439 2.161-1.4439 1.2916.0005829 2.3385 1.0475 2.339 2.339" style="fill:#1946ba"/>
					<path d="m78.569 12.413c0 1.2918-1.0472 2.339-2.339 2.339s-2.339-1.0472-2.339-2.339c0-1.2918 1.0472-2.339 2.339-2.339.62049-.000432 1.2157.24586 1.6544.68462.43875.43875.68505 1.0339.68461 1.6544" style="fill:#1946ba"/>
					<path d="m85.285 22.486c0 .94606-.56989 1.799-1.4439 2.161-.87404.36204-1.8801.16192-2.5491-.50704-.66896-.66896-.86908-1.675-.50704-2.5491.36204-.87404 1.2149-1.4439 2.161-1.4439 1.2916.000583 2.3385 1.0475 2.339 2.339" style="fill:#1946ba"/>
					<path d="m85.285 15.77c0 .94606-.56989 1.799-1.4439 2.161-.87404.36204-1.8801.16192-2.5491-.50704-.66896-.66896-.86908-1.675-.50704-2.5491.36204-.87404 1.2149-1.4439 2.161-1.4439.62038-7.3e-5 1.2154.24634 1.654.68501.43867.43867.68508 1.0337.68501 1.654" style="fill:#1946ba"/>
					<path d="m65.138 5.6972c0 1.2918-1.0472 2.339-2.339 2.339s-2.339-1.0472-2.339-2.339 1.0472-2.339 2.339-2.339c1.291.00208 2.337 1.0481 2.339 2.339" style="fill:#1946ba"/>
					<path d="m85.285 2.339c0 1.2918-1.0472 2.339-2.339 2.339-1.2918 1.17e-5-2.339-1.0472-2.3391-2.339-2.3e-5-1.2918 1.0472-2.3391 2.339-2.3391 1.2916.00058297 2.3385 1.0475 2.339 2.339" style="fill:#1946ba"/>
					<path d="m92 5.6972c0 1.2918-1.0472 2.339-2.339 2.339s-2.339-1.0472-2.339-2.339 1.0472-2.339 2.339-2.339c1.291.00208 2.337 1.0481 2.339 2.339" style="fill:#1946ba"/>
					<path d="m6.3032 41.143c.11746-.21782.14185-.47388.067615-.70996-.067187-.14684-.1929-.25875-.34653-.30849-.41837-.15002-.74588.04649-.96774.58318l-1.5551 3.7759-2.1489-3.854c-.093189-.20694-.25317-.37659-.45429-.48176-.18916-.07914-.40459-.06426-.58106.04015-.18665.0968-.30689.28644-.31483.49655-.01308.22528.046144.44885.16904.63812l2.6349 4.583c-.084551.24492-.21032.47359-.37188.67615-.10896.13741-.27469.21755-.45006.21764-.075153-4.7e-5-.15014-.0071-.22397-.02113-.083751-.01913-.16574-.04529-.2451-.07818-.064644-.02878-.13185-.05142-.20073-.06761-.39724-.13312-.6677-.02113-.79659.32117-.073216.1787-.07016.37957.008457.55596s.22596.31295.4078.37797c.34748.16917.73164.24906 1.1178.23243.48769.01037.95355-.20195 1.2657-.57684.43068-.55555.77738-1.1714 1.029-1.8277z" style="fill:#1946ba"/>
					<path d="m8.4419 48.004c.19905.01103.39316-.06446.53247-.20707.13389-.14418.20463-.33588.19651-.53247v-2.6623h3.5244v2.6623c-.008.19506.05929.38573.18805.53247.1435.14284.34086.21809.54303.20707.19905.01103.39316-.06446.53247-.20707.13156-.14547.20128-.33646.19439-.53247v-6.4509c.0057-.1971-.06376-.38899-.19439-.53669-.30203-.28456-.77347-.28456-1.0755 0-.12786.14894-.19499.34053-.18805.53669v2.4806h-3.5244v-2.4806c.0064547-.19683-.062298-.38874-.19228-.53669-.13954-.14552-.33533-.22337-.53669-.21341-.20246-.012876-.40007.065396-.53881.21341-.12913.14846-.19776.34001-.19228.53669v6.4509c-.0066.19559.062239.38622.19228.53247.14181.14277.33788.21812.53881.20707" style="fill:#1946ba"/>
					<path d="m16.917 48.004c.27772-.02478.52714-.18008.67192-.41837l3.6153-4.9359v4.6147c-.0062.19286.061.3809.18805.52613.14324.14917.34514.22731.55148.21341.20087.01333.39711-.06423.53458-.2113.12544-.14675.19106-.33532.18383-.52824v-6.4509c0-.49655-.23665-.7501-.69305-.7501-.28682.0099-.54953.16305-.69939.4078l-3.5899 4.9655v-4.6232c.0062-.19642-.06167-.388-.19017-.53669-.30611-.28454-.77995-.28454-1.0861 0-.12483.15041-.19023.34134-.18383.53669v6.4509c-.01182.19805.05413.39289.18383.54303.13474.13658.32195.20823.51345.19651" style="fill:#1946ba"/>
					<path d="m28.646 46.566c-.37877.21019-.81025.30632-1.2424.2768-.4256.0046-.85108-.01652-1.2741-.06339v-2.2778h1.2636c1.1178 0 1.6608.38033 1.6608 1.16.03296.35226-.12198.69584-.4078.90435m-1.403-3.1821h-1.1135v-2.0961c.34652-.03381.68249-.0486 1.0015-.0486 1.0396 0 1.5467.32751 1.5467 1.01 0 .76489-.46908 1.1347-1.4347 1.1347m1.9672.36977c.27709-.14867.50916-.36906.67192-.63812.18826-.3002.28855-.64719.28948-1.0015 0-1.3988-.98253-2.1045-2.9138-2.1045-.61614-.0056-1.2317.03964-1.8404.13523-.19863.01462-.38311.10825-.51217.25995-.12906.1517-.19193.3488-.17454.5472v6.21c-.01922.19363.04254.38659.17062.53308.12808.14649.31106.23346.50553.24026.6423.09252 1.2908.1349 1.9397.12678 2.1214 0 3.1969-.82828 3.1969-2.4574.0089-.42616-.12579-.84293-.38245-1.1833-.24661-.30888-.57658-.54059-.95083-.6677" style="fill:#1946ba"/>
					<path d="m37.474 47.828c.12789-.12262.19712-.29415.19017-.47119.0082-.18097-.06097-.35688-.19017-.48387-.13773-.12326-.31823-.18772-.50288-.1796h-3.2413v-2.1108h2.4912c.18878.0094.37354-.05673.51345-.18383.12925-.12521.1985-.29989.19017-.47964.0096-.17934-.05992-.35387-.19017-.47753-.14427-.11805-.32726-.1783-.51345-.16904h-2.4912v-1.8996h3.1272c.18353.0099.36354-.05311.50077-.17538.13073-.12098.20179-.29323.19439-.47119.01033-.18216-.0609-.35948-.19439-.48387-.13689-.12325-.31675-.18776-.50077-.1796h-3.8435c-.20478-.01184-.40456.06607-.54726.21341-.13072.14919-.1995.34269-.19228.54092v6.4382c-.0092.19778.06253.39077.19862.53458.14453.14722.3455.22499.55148.21341h3.947c.18411.0095.36463-.05342.50288-.17538" style="fill:#1946ba"/>
					<path d="m40.566 41.356c.31323-.04026.62869-.06072.94449-.06128 1.0459 0 1.5551.42893 1.5551 1.3079 0 .94027-.53458 1.3988-1.6375 1.3988-.28789.0029-.57572-.01049-.86209-.04015zm4.0273 1.2128c.05925-.74261-.24755-1.4674-.82194-1.9418-.65445-.44484-1.4369-.66236-2.2271-.6191-.59082-.0056-1.1808.04466-1.7622.15002-.41628.04937-.71565.42405-.67192.84096v6.2692c-.0081.19342.05844.38256.18594.52824.14122.14541.33853.22248.54092.2113.19991.0086.39437-.06642.53669-.20707.13058-.14592.1995-.33678.19228-.53247v-2.0411c.31328.0387.62887.05565.94449.05071.79734.03453 1.5823-.20647 2.2228-.68249.59154-.50103.91058-1.2528.85998-2.0263z" style="fill:#1946ba"/>
					<path d="m51.007 46.327c-.47778.29986-1.0272.46621-1.5911.48176-.6183.01214-1.2077-.26149-1.5974-.74165-.44966-.58283-.67398-1.3083-.63178-2.0432-.03533-.71742.17155-1.4259.5874-2.0115.63389-.8156 1.6777-.97619 3.0807-.43527.47119.17538.78391.10142.92336-.20707.08162-.15542.09714-.33718.04306-.50419-.05408-.16701-.1732-.30517-.33043-.38325-.63981-.3887-1.3824-.57435-2.1299-.53247-1.0273-.05397-2.0249.35453-2.7194 1.1135-.68614.83331-1.0365 1.8927-.98253 2.9708-.05633 1.0716.27021 2.1284.92125 2.9814.69379.76655 1.7005 1.173 2.7321 1.103.83656.03361 1.6615-.20433 2.3517-.67826.17632-.12502.30397-.30717.36132-.51556.04975-.17263.01615-.35858-.09086-.50288-.20496-.29159-.51556-.32962-.92759-.09508" style="fill:#1946ba"/>
					<path d="m59.355 40.063c-.28638.01138-.54843.16418-.69939.4078l-3.5878 4.9655v-4.6232c.0069-.19617-.06019-.38776-.18805-.53669-.13929-.14719-.3365-.22531-.5388-.21341-.2061-.01493-.4077.06524-.54726.21764-.12453.14893-.18995.33844-.18383.53247v6.4509c-.01119.19796.05469.39257.18383.54303.13305.1365.31897.20825.50922.19651.27837-.02449.52892-.17873.67615-.41625l3.6132-4.9338v4.6105c-.0058.19318.06217.38132.19017.52613.30612.28211.77667.28485 1.0861.0063.12637-.14788.19205-.33812.18383-.53247v-6.4509c0-.49443-.23454-.7501-.69728-.7501" style="fill:#1946ba"/>
					<path d="m68.116 40.715c.0089-.17984-.06048-.35473-.19017-.47964-.14525-.11777-.32878-.17794-.51556-.16904h-5.3923c-.18343-.0079-.3633.05229-.505.16904-.13052.12435-.20002.29964-.19017.47964-.0054.17925.06344.35277.19017.47964.13829.12396.31944.18914.505.18172h1.9651v5.8909c-.0067.19459.06134.38436.19017.53035.30669.27888.77514.27888 1.0818 0 .12689-.14675.19268-.33656.18383-.53035v-5.8909h1.9714c.18902.0093.37412-.05598.51556-.18172.12589-.12743.19454-.30057.19017-.47964" style="fill:#1946ba"/>
					<path d="m74.084 46.694h-3.2434v-2.1151h2.4933c.18874.0099.37385-.05454.51556-.1796.12774-.12621.19672-.30019.19017-.47964.0094-.17993-.06002-.35504-.19017-.47964-.14506-.11813-.32872-.17835-.51556-.16904h-2.4933v-1.8974h3.1314c.1846.0077.36496-.05667.50288-.1796.12849-.12309.19777-.29553.19017-.4733.0072-.18018-.06185-.35506-.19017-.48176-.13844-.12163-.31883-.18454-.50288-.17538h-3.8477c-.20396-.01061-.4026.06715-.54514.21341-.13129.14731-.20089.33947-.19439.53669v6.4382c-.0063.19896.06581.39244.20073.5388.14593.14641.34715.22398.5536.21341h3.9449c.18398.0087.36419-.05417.50288-.17538.12937-.12264.19946-.29519.19228-.4733.0088-.18212-.06124-.3592-.19228-.48598-.13869-.1212-.3189-.18405-.50288-.17538" style="fill:#1946ba"/>
					<path d="m82.107 40.715c.0089-.17984-.06048-.35473-.19017-.47964-.14491-.1184-.32868-.17865-.51556-.16904h-5.3923c-.18283-.0083-.36216.05202-.50288.16904-.13029.12465-.20039.29951-.19228.47964-.0054.17925.06344.35277.19017.47964.13868.1233.31955.18839.505.18172h1.9651v5.8909c-.0067.19459.06134.38436.19017.53035.30669.27888.77514.27888 1.0818 0 .12817-.14625.19547-.33603.18805-.53035v-5.8909h1.9672c.18902.0093.37412-.05598.51556-.18172.12589-.12743.19454-.30057.19017-.47964" style="fill:#1946ba"/>
					<path d="m93.002 47.264v-6.4509c0-.49866-.23454-.7501-.69728-.7501-.28535.01107-.54626.16413-.69516.4078l-3.592 4.9655v-4.6232c.0067-.19576-.05957-.38703-.18594-.53669-.13958-.14807-.33784-.22629-.54092-.21341-.2047-.01536-.40528.06316-.54514.21341-.12481.15042-.19021.34134-.18383.53669v6.4509c-.01181.19805.05415.39288.18383.54303.13499.13486.32077.20625.51134.19651.27859-.0255.529-.18044.67615-.41837l3.6132-4.9359v4.6147c-.0059.19245.0604.38014.18594.52613.14409.14921.34664.22729.5536.21341.20012.0125.39537-.06498.53247-.2113.1263-.14625.19205-.33518.18383-.52824" style="fill:#1946ba"/>
					<path d="m100.36 40.063h-5.3923c-.18364-.0089-.36368.05316-.50288.17326-.13185.12182-.20237.29619-.19228.47542-.0059.17893.06212.3524.18805.47964.1392.12384.32094.18897.50711.18172h1.9651v5.8909c-.0071.19528.06099.38584.19017.53247.30694.27615.77279.27615 1.0797 0 .13005-.14611.19824-.33703.19017-.53247v-5.8909h1.9672c.18916.01025.37464-.05512.51556-.18172.12656-.12699.19532-.30043.19017-.47964.009-.1786-.0606-.35218-.19017-.47542-.1434-.12151-.32788-.1835-.51556-.17326" style="fill:#1946ba"/>
					<path d="m108.9 40.063c-.30143.01177-.57297.18552-.70995.45429l-2.2376 3.6089-2.282-3.5984c-.14212-.28028-.42745-.45912-.74165-.46485-.18317-.0064-.36099.06232-.49232.19017-.13795.15745-.20651.36392-.19017.57261v6.4382c0 .49232.23032.73954.68249.73954.45429 0 .6846-.24722.6846-.73954v-4.414l1.5953 2.506c.13327.25134.39174.41127.67614.41837.28468-.009.54093-.17496.66559-.43104l1.5763-2.544v4.4647c-.008.19586.0607.38713.19228.53247.14076.14304.33633.2185.53669.20707.20164.01162.39858-.06377.54092-.20707.12787-.14713.19443-.33772.18594-.53247v-6.4509c.01-.1947-.0519-.38625-.17326-.53881-.1289-.14404-.31622-.22177-.50923-.2113" style="fill:#1946ba"/>
					<path d="m116.77 46.039c-.41605.48928-1.0259.77124-1.6682.77124-.64225 0-1.2521-.28196-1.6682-.77124-.78884-1.2189-.78884-2.7873 0-4.0062.41605-.48928 1.0259-.77124 1.6682-.77124.64226 0 1.2521.28196 1.6682.77124.78316 1.2206.78316 2.7856 0 4.0062m1.1241-4.9338c-1.5462-1.5382-4.0446-1.5382-5.5909 0-1.3129 1.7356-1.3129 4.1321 0 5.8677 1.5497 1.5298 4.0412 1.5298 5.5909 0 1.3213-1.7328 1.3213-4.1349 0-5.8677" style="fill:#1946ba"/>
				</g>
			</g>
		</g>
	</g>
</svg>
