<svg width="1200" height="536" version="1.1" viewBox="0 0 1200 536" xmlns="http://www.w3.org/2000/svg">
	<path d="m282.68 412.03c-7.7005-2.4531-13.322-10.388-16.69-23.556-2.5934-10.14-7.4953-42.243-15.495-101.48-7.1369-52.846-10.099-72.8-14.103-95-4.8534-26.909-10.828-47-13.977-47-3.7088 0-11.326 20.457-18.803 50.5-5.9308 23.829-9.8213 41.665-20.067 92-11.546 56.72-11.214 55.298-14.452 62.043-3.9508 8.2321-9.1332 13.838-15.814 17.107-5.041 2.4663-7.0224 2.8171-17.974 3.1817-13.894.46255-12.954 1.1636-11.253-8.398 1.759-9.8861.97429-9.1966 10.909-9.5855 16.918-.66237 17.085-1.013 29.449-61.848 20.055-98.678 26.842-125.62 36.473-144.77 6.9311-13.785 13.395-19.229 22.824-19.222 18.202.0142 26.289 24.909 39.791 122.5 15.937 115.18 18.788 133.47 22 141.16.76777 1.8375 1.8202 3.341 2.3386 3.341.51847 0 3.3019-5.8791 6.1853-13.065 6.175-15.388 10.852-22.937 16.007-25.834l3.7393-2.1016h338.61c186.24 0 338.61.3375 338.61.75-1e-4.4125-.6751 4.2771-1.5 8.588-.82491 4.3109-1.4998 8.0234-1.4998 8.25s-150.5.41203-334.44.41203h-334.44l-1.5084 2.1536c-.82964 1.1845-3.3382 6.697-5.5747 12.25-8.2081 20.38-13.815 27.495-22.206 28.177-2.3786.19329-5.5915-.0521-7.1397-.54533zm724.32-35.37c0-1.8613 5.8376-31.836 6.2878-32.286.2018-.20179 14.831 3.9938 32.51 9.3235s32.021 9.8125 31.872 9.9617c-.4011.40111-67.815 14.336-69.354 14.336-.7231 0-1.3148-.60085-1.3148-1.3352zm-439.52-43.915c2.1362-9.1901 3.2816-16.35 2.7022-16.891-.37788-.35247-5.637-.8538-11.687-1.1141-12.882-.55416-19.832-2.7784-27.418-8.7747-19.294-15.251-14.476-51.124 9.5311-70.962 10.059-8.3121 23.074-12.849 39.845-13.89l9.9578-.61805 1.28-6.5c.70397-3.575 1.519-7.5125 1.8112-8.75l.53127-2.25h46.718l-1.3739 6.75c-.75568 3.7125-1.6093 7.7625-1.897 9-.50635 2.1784-.28651 2.25 6.9081 2.25 16.53 0 29.327 4.4671 36.658 12.796 5.4455 6.1864 7.4172 12.651 7.3822 24.204-.0623 20.622-9.8495 38.237-26.934 48.477-9.2862 5.5656-17.202 7.6768-31.475 8.3954l-12.475.62802-.76057 4.5c-.41832 2.475-1.2489 6.8625-1.8457 9.75l-1.0851 5.25h-46.896zm11.515-46.081c0-.18187 1.575-8.1331 3.5-17.669s3.5-17.937 3.5-18.669c0-1.7342-4.1574-1.7096-8.3677.0496-13.628 5.6941-18.878 29.081-7.8697 35.054 2.355 1.2778 9.2374 2.1978 9.2374 1.2347zm55.82-3.4115c5.0533-4.09 8.4704-11.127 9.0072-18.549.53112-7.3426-1.492-11.847-6.3577-14.156-2.8505-1.3526-8.4698-2.1634-8.4698-1.222 0 .18187-1.575 8.1331-3.5 17.669s-3.5 17.996-3.5 18.799c0 2.5916 8.5795.89074 12.82-2.5416zm-291.71-9.0078c6.5283-32.312 12.107-59.762 12.396-61l.52671-2.25h68.689l.61483 10.25c.33816 5.6375.91258 20.488 1.2765 33s.93615 22.737 1.2716 22.722c.33549-.0153 6.9218-14.753 14.636-32.75l14.026-32.722 34.795-.26304c32.841-.24827 34.765-.16403 34.258 1.5-.29553.96967-5.7211 27.413-12.057 58.763-6.3358 31.35-11.76 58.012-12.053 59.25-.53256 2.2452-.57894 2.25-21.582 2.25-19.578 0-21.012-.12225-20.527-1.75 1.4286-4.7971 18.705-91.475 18.41-92.362-.18864-.56591-10.007 20.265-21.82 46.292l-21.477 47.32h-39l-1.6716-40.5c-.91937-22.275-1.7069-43.538-1.75-47.25-.0431-3.7125-.4473-6.75-.89817-6.75s-4.9791 20.588-10.063 45.75-9.47 46.538-9.7476 47.5c-.45877 1.5908-2.3069 1.75-20.315 1.75h-19.81zm372.37 56.5c1.5692-6.7745 16.517-81.425 16.517-82.488 0-.97435-4.5626-1.2623-20-1.2623-18.399 0-19.996-.14008-19.952-1.75.0262-.9625 1.509-8.95 3.2951-17.75l3.2475-16 64.205-.25735c60.696-.24328 64.202-.16131 64.157 1.5-.0262.96654-1.5087 8.9574-3.2946 17.757l-3.247 16-20.705.27029c-11.388.14866-20.705.55926-20.705.91244 0 .35319-3.825 19.501-8.5 42.55s-8.5 42.101-8.5 42.338c0 .23643-10.584.42988-23.519.42988h-23.519zm97.56 2c.0236-.1375 5.5719-27.475 12.33-60.75l12.287-60.5 23.17-.26843c18.59-.21537 23.17-.00908 23.17 1.0436 0 .72161-2.9275 15.91-6.5055 33.752-3.578 17.842-6.3905 32.727-6.25 33.079s10.155-14.806 22.255-33.682l22-34.32 27.25-.0517c21.162-.0402 27.249.22752 27.247 1.1983-.002.6875-5.4016 27.776-12 60.196-6.5984 32.42-11.997 59.308-11.997 59.75 0 .44223-10.575.80405-23.5.80405s-23.499-.1125-23.499-.25 3.1001-15.438 6.8875-34c3.7874-18.562 6.7573-33.75 6.5998-33.75-.15747 0-10.33 15.3-22.606 34l-22.32 34h-27.282c-15.005 0-27.262-.1125-27.239-.25z" style="fill:#0068b3"/>
</svg>
