<svg width="587.17" height="279.21" version="1.1" viewBox="0 0 587.17 279.21" xml:space="preserve" xmlns="http://www.w3.org/2000/svg"><defs><clipPath id="clipPath18"><path d="M 0,841.89 H 595.276 V 0 H 0 Z"/></clipPath></defs><g transform="matrix(1.3333 0 0 -1.3333 -104.11 756.32)"><g><g clip-path="url(#clipPath18)"><g transform="translate(408.2 411.06)"><path d="m0 0-4.531 9.075c-.204.337-.711.572-1.156.286-3.693-2.564-8.637-4.074-14.12-4.074-11.798 0-20.071 9.564-20.071 21.368 0 11.805 8.273 21.375 20.071 21.375 5.489 0 10.433-1.517 14.12-4.081.413-.235.927-.127 1.149.279l4.544 9.089c.241.463.127.92-.272 1.167-5.522 3.89-12.259 6.176-19.541 6.176-18.779 0-33.998-15.226-33.998-34.005 0-18.773 15.219-34.004 33.998-34.004 7.282 0 14.006 2.291 19.541 6.175.399.273.513.704.266 1.174m-130.05 0-4.532 9.075c-.196.337-.71.572-1.155.286-3.693-2.564-8.631-4.074-14.114-4.074-11.804 0-20.077 9.564-20.077 21.368 0 11.805 8.273 21.375 20.077 21.375 5.493 0 10.427-1.517 14.121-4.081.406-.235.92-.127 1.142.279l4.544 9.089c.248.463.134.92-.266 1.167-5.528 3.89-12.268 6.176-19.541 6.176-18.779 0-34.004-15.226-34.004-34.005 0-18.773 15.225-34.004 34.004-34.004 7.273 0 14.007 2.291 19.534 6.175.407.273.521.704.267 1.174m65.599 59.041h-11.589c-.552-.006-1.038-.279-1.326-.705l-28.369-40.921h-.974l.974 22.193v18.621c0 .45-.368.812-.806.812h-11.341c-.444 0-.806-.368-.806-.812v-63.147c0-.445.355-.806.806-.806h9.342c.546 0 1.034.273 1.326.698l30.622 44.164h.974l-.974-22.193v-21.863c0-.445.355-.806.806-.806h11.335c.438 0 .805.355.812.793v63.16c0 .444-.368.806-.812.812m-130.48 0h-11.588c-.553-.006-1.038-.279-1.327-.705l-28.368-40.921h-.974l.974 22.193v18.621c0 .45-.368.812-.806.812h-11.342c-.444 0-.805-.368-.805-.812v-63.147c0-.445.355-.806.805-.806h9.343c.545 0 1.034.273 1.326.698l30.621 44.164h.975l-.975-22.193v-21.863c0-.445.356-.806.807-.806h11.334c.438 0 .806.355.813.793v63.16c0 .444-.368.806-.813.812m-70.432-.812-.007-63.16c-.006-.438-.362-.793-.806-.793h-11.328c-.451 0-.813.361-.813.806v21.863l.971 21.718h-.971l-18.385-26.256h-2.088l-18.386 26.256h-.971l.971-21.718v-21.863c0-.445-.362-.806-.806-.806h-11.335c-.444 0-.796.355-.806.793v63.16c0 .444.362.812.806.812h11.297c.546 0 1.034-.273 1.326-.685l18.951-27.113 18.947 27.113c.289.412.777.685 1.324.685h11.296c.451 0 .813-.368.813-.812" style="fill:#5f5c5d"/></g><g transform="translate(450.46 528.38)"><path d="m0 0c-11.335 0-21.613-4.481-29.182-11.76-.317-.292-.329-.818-.012-1.142l8.009-8.016c.318-.324.835-.324 1.149-.013 5.223 4.944 12.274 7.978 20.036 7.978 16.088 0 29.143-13.048 29.143-29.143s-13.055-29.143-29.143-29.143c-7.756 0-14.803 3.027-20.023 7.965-.349.33-.844.317-1.155 0l-8.016-8.015c-.317-.318-.311-.826.01-1.137 7.568-7.285 17.849-11.766 29.184-11.766 23.247 0 42.096 18.849 42.096 42.096s-18.849 42.096-42.096 42.096m0 25.906v-12.147c0-.444.339-.819.85-.819 30.006-.45 54.195-24.916 54.195-55.036s-24.189-54.592-54.201-55.042c-.489 0-.844-.369-.844-.813v-11.335c0-.431.339-.781.774-.806 37.203.419 67.222 30.698 67.222 67.996 0 37.558-30.441 68.002-67.996 68.002m0 12.141c0 .444-.359.8-.794.806-44.082-.426-79.737-36.08-80.155-80.156 0-.438.362-.787.8-.793h11.353c.438.006.8.362.8.831.45 37.171 30.717 67.171 67.996 67.171zm16.189-80.143c0-8.942-7.254-16.19-16.189-16.19-8.943 0-16.193 7.248-16.193 16.19s7.25 16.19 16.193 16.19c8.935 0 16.189-7.248 16.189-16.19" style="fill:#199cd9"/></g><g transform="translate(94.951 383.95)"><path d="m0 0c.25 0 .396-.22.293-.44l-7.104-15.332c-1.766-3.7-3.213-5.33-5.889-5.33h-.149c-.53 0-1.376.119-1.831.295-.133.044-.207.177-.207.325v2.136c0 .205.133.279.339.205.474-.178.801-.253 1.175-.253h.118c1.383 0 2.176.577 3.256 2.858l.077.163-6.916 14.933c-.102.219.043.44.293.44h2.515c.206 0 .369-.103.457-.281l3.755-8.095 1.506-4.252h.079l1.506 4.252 3.754 8.095c.089.177.251.281.457.281z" style="fill:#5f5c5d"/></g><g transform="translate(107.95 378.02)"><path d="m0 0c.176 0 .294-.118.294-.294v-14.253c0-.176-.118-.294-.294-.294h-2.354c-.177 0-.294.118-.294.294v6.089h-6.762v-6.089c0-.176-.117-.294-.294-.294h-2.354c-.176 0-.294.118-.294.294v14.253c0 .176.118.294.294.294h2.354c.177 0 .294-.118.294-.294v-5.835h6.762v5.835c0 .176.117.294.294.294z" style="fill:#5f5c5d"/></g><g transform="translate(123.99 378.02)"><path d="m0 0c.176 0 .294-.117.294-.294v-14.252c0-.177-.118-.294-.294-.294h-2.354c-.177 0-.294.117-.294.294v6.099l.087 4.377h-.25l-2.433-4.231-3.649-6.23c-.104-.192-.178-.309-.385-.309h-2.883c-.177 0-.295.117-.295.294v14.252c0 .177.118.294.295.294h2.354c.176 0 .294-.117.294-.294v-5.676l-.088-4.8h.251l2.719 4.654 3.363 5.807c.103.192.178.309.384.309z" style="fill:#5f5c5d"/></g><g transform="translate(130.51 365.35)"><path d="m0 0h3.279c1.98 0 2.729.929 2.729 2.081v.283c0 1.227-.749 2.11-2.729 2.11h-3.279zm0 6.207h2.769c1.98 0 2.774 1.02 2.774 2.097v.283c0 1.152-.749 1.915-2.728 1.915h-2.815zm3.136 6.464c3.589 0 5.349-1.423 5.349-3.851v-.239c0-1.293-.685-2.47-2.01-3.112 1.69-.528 2.533-1.757 2.533-3.31v-.238c0-2.428-1.76-4.09-5.349-4.09h-6.307c-.177 0-.294.117-.294.294v14.252c0 .176.117.294.294.294z" style="fill:#5f5c5d"/></g><g transform="translate(148.47 376.19)"><path d="m0 0c-2.05 0-3.425-1.583-3.482-4.266h6.93c.035 2.897-1.045 4.266-3.268 4.266zm.283 2.213c3.533 0 5.928-2.228 5.928-6.577v-1.267c0-.25-.191-.44-.44-.44h-9.246l.004-1.021c-.004-2.576 1.799-3.949 4.193-3.949h.133c1.414 0 2.93.491 4.456 1.146.147.059.294-.029.294-.206v-1.784c0-.236-.088-.369-.265-.443-1.027-.522-3.218-1.071-4.863-1.071h-.251c-3.767 0-6.716 2.27-6.716 6.61v1.938c0 4.466 2.857 7.064 6.446 7.064z" style="fill:#5f5c5d"/></g><g transform="translate(164.26 376)"><path d="m0 0c-1.137 0-2.369-.514-3.563-1.713v-7.352c1.212-1.217 2.468-1.742 3.563-1.742h.103c2.157 0 3.37 1.436 3.37 4.174v2.459c0 2.737-1.213 4.174-3.37 4.174zm.949 2.403c3.592 0 5.524-2.636 5.524-6.519v-2.386c0-4.349-2.384-6.708-5.801-6.708h-.221c-1.344 0-2.856.524-4.013 1.731v-6.007c0-.177-.118-.294-.295-.294h-2.354c-.176 0-.294.117-.294.294v19.209c0 .176.118.294.294.294h2.092c.148 0 .251-.089.28-.236l.109-1.463c1.168 1.325 2.831 2.085 4.458 2.085z" style="fill:#5f5c5d"/></g><g transform="translate(180.62 378.4)"><path d="m0 0c1.44 0 3.086-.549 4.037-1.071.177-.074.266-.207.266-.443v-1.784c0-.177-.148-.265-.295-.206-1.348.669-2.42 1.101-3.63 1.101h-.209c-2.329 0-4.197-1.538-4.197-4.537v-1.732c0-2.999 1.868-4.538 4.197-4.538h.209c1.21 0 2.282.433 3.63 1.102.147.059.295-.03.295-.206v-1.784c0-.236-.089-.369-.266-.443-.951-.522-2.597-1.071-4.037-1.071h-.327c-3.589 0-6.702 2.3-6.702 6.897v1.818c0 4.597 3.113 6.897 6.702 6.897z" style="fill:#5f5c5d"/></g><g transform="translate(200.4 378.02)"><path d="m0 0c.176 0 .294-.117.294-.294v-14.252c0-.177-.118-.294-.294-.294h-2.354c-.177 0-.294.117-.294.294v6.099l.087 4.377h-.25l-2.433-4.231-3.649-6.23c-.104-.192-.178-.309-.385-.309h-2.883c-.177 0-.295.117-.295.294v14.252c0 .177.118.294.295.294h2.354c.176 0 .294-.117.294-.294v-5.676l-.088-4.8h.251l2.719 4.654 3.363 5.807c.103.192.178.309.384.309z" style="fill:#5f5c5d"/></g><g transform="translate(215.27 378.02)"><path d="m0 0c.176 0 .294-.118.294-.294v-1.742c0-.176-.118-.294-.294-.294h-4.558v-12.217c0-.176-.118-.294-.294-.294h-2.354c-.177 0-.294.118-.294.294v12.217h-4.558c-.177 0-.294.118-.294.294v1.742c0 .176.117.294.294.294z" style="fill:#5f5c5d"/></g><g transform="translate(223.77 376.19)"><path d="m0 0c-2.05 0-3.425-1.583-3.482-4.266h6.93c.035 2.897-1.045 4.266-3.268 4.266zm.283 2.213c3.533 0 5.928-2.228 5.928-6.577v-1.267c0-.25-.191-.44-.44-.44h-9.246l.004-1.021c-.004-2.576 1.799-3.949 4.193-3.949h.133c1.414 0 2.93.491 4.456 1.146.147.059.294-.029.294-.206v-1.784c0-.236-.088-.369-.265-.443-1.027-.522-3.218-1.071-4.863-1.071h-.251c-3.767 0-6.716 2.27-6.716 6.61v1.938c0 4.466 2.857 7.064 6.446 7.064z" style="fill:#5f5c5d"/></g><g transform="translate(243.86 378.02)"><path d="m0 0c.176 0 .294-.118.294-.294v-1.742c0-.176-.118-.294-.294-.294h-4.558v-12.217c0-.176-.118-.294-.294-.294h-2.354c-.177 0-.294.118-.294.294v12.217h-4.558c-.177 0-.294.118-.294.294v1.742c0 .176.117.294.294.294z" style="fill:#5f5c5d"/></g><g transform="translate(264.82 378.02)"><path d="m0 0c.176 0 .294-.118.294-.294v-14.253c0-.176-.118-.294-.294-.294h-2.354c-.177 0-.294.118-.294.294v6.089h-6.762v-6.089c0-.176-.117-.294-.294-.294h-2.354c-.176 0-.294.118-.294.294v14.253c0 .176.118.294.294.294h2.354c.177 0 .294-.118.294-.294v-5.835h6.762v5.835c0 .176.117.294.294.294z" style="fill:#5f5c5d"/></g><g transform="translate(274.39 370.29)"><path d="m0 0c-2.607-.075-3.777-1.003-3.777-2.696v-.119c0-1.438 1.05-2.381 2.684-2.381h.133c1.12 0 2.214.513 3.36 1.736v3.528zm-.049 8.116c3.298 0 5.36-1.482 5.391-5.608v-9.324c0-.176-.118-.294-.295-.294h-2.091c-.148 0-.251.088-.28.236l-.143 1.591c-1.146-1.243-2.908-2.213-4.628-2.213h-.164c-2.866 0-4.474 1.85-4.474 4.23v.235c0 3.061 2.067 4.558 6.552 4.808l2.578.13-.005.508c.007 2.35-.801 3.342-3.068 3.342h-.09c-1.413 0-2.99-.49-4.516-1.058-.147-.044-.294.03-.294.206v1.741c0 .236.088.383.265.443 1.275.507 3.279 1.027 5.112 1.027z" style="fill:#5f5c5d"/></g><g transform="translate(295.39 378.02)"><path d="m0 0c.22 0 .352-.176.278-.396l-5.507-15.464c-.907-2.568-2.088-4.323-4.746-4.323h-.207c-.852 0-2.017.279-2.422.459-.163.06-.236.207-.236.37v1.724c0 .177.147.295.324.236.785-.282 1.393-.43 2.014-.43h.089c1.044 0 1.642.523 2.183 1.963l.376 1.021h-.381c-.163 0-.296.103-.356.266l-5.028 14.178c-.073.22.059.396.294.396h2.353c.163 0 .296-.103.355-.266l2.453-6.819 1.458-5.265h.072l1.458 5.265 2.453 6.819c.059.163.192.266.355.266z" style="fill:#5f5c5d"/></g><g transform="translate(310.51 363.6)"><path d="m0 0c.118-.206.015-.427-.221-.427h-2.631c-.162 0-.309.073-.383.206l-4.186 6.25h-2.152v-6.162c0-.176-.117-.294-.294-.294h-2.354c-.176 0-.294.118-.294.294v14.252c0 .177.118.294.294.294h2.354c.177 0 .294-.117.294-.294v-5.76h2.156l3.675 5.834c.074.132.236.22.398.22h2.485c.236 0 .339-.221.221-.412l-4.184-6.712z" style="fill:#5f5c5d"/></g><g transform="translate(325.27 378.02)"><path d="m0 0c.176 0 .294-.117.294-.294v-14.252c0-.177-.118-.294-.294-.294h-2.354c-.177 0-.294.117-.294.294v6.099l.087 4.377h-.25l-2.433-4.231-3.649-6.23c-.104-.192-.178-.309-.385-.309h-2.883c-.177 0-.294.117-.294.294v14.252c0 .177.117.294.294.294h2.354c.176 0 .294-.117.294-.294v-5.676l-.088-4.8h.251l2.719 4.654 3.363 5.807c.103.192.178.309.384.309z" style="fill:#5f5c5d"/></g><g transform="translate(347.38 378.02)"><path d="m0 0c.176 0 .294-.117.294-.294v-14.252c0-.177-.118-.294-.294-.294h-2.354c-.176 0-.294.117-.294.294v6.099l.087 4.377h-.25l-2.433-4.231-3.649-6.23c-.103-.192-.178-.309-.385-.309h-2.883c-.177 0-.294.117-.294.294v14.252c0 .177.117.294.294.294h2.354c.176 0 .294-.117.294-.294v-5.676l-.087-4.8h.25l2.72 4.654 3.362 5.807c.104.192.178.309.384.309z" style="fill:#5f5c5d"/></g><g transform="translate(368.34 378.02)"><path d="m0 0c.176 0 .294-.118.294-.294v-1.742c0-.176-.118-.294-.294-.294h-4.558v-12.217c0-.176-.118-.294-.294-.294h-2.354c-.177 0-.295.118-.295.294v12.217h-4.557c-.177 0-.295.118-.295.294v1.742c0 .176.118.294.295.294z" style="fill:#5f5c5d"/></g><g transform="translate(376.84 376.19)"><path d="m0 0c-2.05 0-3.425-1.583-3.483-4.266h6.931c.035 2.897-1.045 4.266-3.268 4.266zm.282 2.213c3.533 0 5.928-2.228 5.928-6.577v-1.267c0-.25-.19-.44-.439-.44h-9.246l.004-1.021c-.004-2.576 1.799-3.949 4.193-3.949h.133c1.414 0 2.93.491 4.456 1.146.147.059.294-.029.294-.206v-1.784c0-.236-.088-.369-.265-.443-1.027-.522-3.219-1.071-4.863-1.071h-.251c-3.767 0-6.716 2.27-6.716 6.61v1.938c0 4.466 2.857 7.064 6.446 7.064z" style="fill:#5f5c5d"/></g><g transform="translate(397.42 378.02)"><path d="m0 0c.236 0 .339-.222.221-.413l-4.312-6.843 4.521-7.157c.118-.192.015-.428-.221-.428h-2.515c-.161 0-.294.073-.383.206l-2.633 4.122-.725 1.628h-.129l-.725-1.628-2.633-4.122c-.088-.133-.221-.206-.383-.206h-2.515c-.236 0-.339.236-.22.428l4.52 7.157-4.326 6.843c-.104.191-.016.413.22.413h2.456c.162 0 .325-.089.398-.221l2.483-3.866.728-1.627h.121l.73 1.627 2.468 3.866c.088.132.236.221.397.221z" style="fill:#5f5c5d"/></g><g transform="translate(412.48 378.02)"><path d="m0 0c.176 0 .294-.118.294-.294v-14.253c0-.176-.118-.294-.294-.294h-2.354c-.176 0-.294.118-.294.294v6.089h-6.761v-6.089c0-.176-.118-.294-.295-.294h-2.354c-.176 0-.294.118-.294.294v14.253c0 .176.118.294.294.294h2.354c.177 0 .295-.118.295-.294v-5.835h6.761v5.835c0 .176.118.294.294.294z" style="fill:#5f5c5d"/></g><g transform="translate(422.5 376)"><path d="m0 0c-2.14 0-3.654-1.437-3.654-4.174v-2.459c0-2.738 1.514-4.174 3.654-4.174h.209c2.14 0 3.653 1.436 3.653 4.174v2.459c0 2.737-1.513 4.174-3.653 4.174zm.268 2.403c3.619 0 6.595-2.359 6.595-6.708v-2.197c0-4.349-2.976-6.708-6.595-6.708h-.327c-3.619 0-6.595 2.359-6.595 6.708v2.197c0 4.349 2.976 6.708 6.595 6.708z" style="fill:#5f5c5d"/></g><g transform="translate(445.06 378.02)"><path d="m0 0c.177 0 .294-.118.294-.294v-14.253c0-.176-.117-.294-.294-.294h-2.354c-.176 0-.294.118-.294.294v12.217h-5.102l-.66-8.661c-.193-2.365-1.149-4.236-3.618-4.236h-.178c-.662 0-1.369.221-1.681.384-.178.088-.237.206-.237.369v1.608c0 .147.104.309.325.236.342-.135.61-.194.923-.194h.134c.956 0 1.358.855 1.462 2.153l.817 10.377c.015.176.118.294.294.294z" style="fill:#5f5c5d"/></g><g transform="translate(455.06 376)"><path d="m0 0c-2.14 0-3.654-1.437-3.654-4.174v-2.459c0-2.738 1.514-4.174 3.654-4.174h.209c2.14 0 3.653 1.436 3.653 4.174v2.459c0 2.737-1.513 4.174-3.653 4.174zm.268 2.403c3.619 0 6.595-2.359 6.595-6.708v-2.197c0-4.349-2.976-6.708-6.595-6.708h-.327c-3.619 0-6.595 2.359-6.595 6.708v2.197c0 4.349 2.976 6.708 6.595 6.708z" style="fill:#5f5c5d"/></g><g transform="translate(474.47 378.02)"><path d="m0 0c.177 0 .294-.118.294-.294v-1.742c0-.176-.117-.294-.294-.294h-6.542v-12.217c0-.176-.117-.294-.294-.294h-2.354c-.176 0-.294.118-.294.294v14.253c0 .176.118.294.294.294z" style="fill:#5f5c5d"/></g><g transform="translate(489.46 378.02)"><path d="m0 0c.176 0 .294-.117.294-.294v-14.252c0-.177-.118-.294-.294-.294h-2.354c-.177 0-.294.117-.294.294v6.099l.087 4.377h-.25l-2.433-4.231-3.649-6.23c-.104-.192-.178-.309-.385-.309h-2.883c-.177 0-.295.117-.295.294v14.252c0 .177.118.294.295.294h2.354c.176 0 .294-.117.294-.294v-5.676l-.088-4.8h.251l2.719 4.654 3.363 5.807c.103.192.178.309.384.309z" style="fill:#5f5c5d"/></g><g transform="translate(503.19 383.3)"><path d="m0 0c.206.104.383.015.383-.206v-1.449c0-.207-.088-.31-.206-.399-.564-.445-2.047-1.144-3.842-1.144-1.794 0-3.277.699-3.841 1.144-.118.089-.207.192-.207.399v1.449c0 .221.178.31.384.206.99-.505 2.045-1.058 3.665-1.058 1.619 0 2.674.553 3.664 1.058zm2.3-5.287c.176 0 .294-.118.294-.294v-14.252c0-.177-.118-.294-.294-.294h-2.354c-.177 0-.295.117-.295.294v6.099l.088 4.377h-.251l-2.433-4.231-3.649-6.23c-.103-.192-.178-.309-.385-.309h-2.883c-.176 0-.294.117-.294.294v14.252c0 .176.118.294.294.294h2.354c.177 0 .294-.118.294-.294v-5.676l-.087-4.8h.25l2.72 4.654 3.362 5.807c.104.191.178.309.385.309z" style="fill:#5f5c5d"/></g></g></g></g></svg>
