<?xml version="1.0" encoding="UTF-8" standalone="no"?>
<!-- Created with Inkscape (http://www.inkscape.org/) -->

<svg
   xmlns:dc="http://purl.org/dc/elements/1.1/"
   xmlns:cc="http://creativecommons.org/ns#"
   xmlns:rdf="http://www.w3.org/1999/02/22-rdf-syntax-ns#"
   xmlns:svg="http://www.w3.org/2000/svg"
   xmlns="http://www.w3.org/2000/svg"
   xmlns:sodipodi="http://sodipodi.sourceforge.net/DTD/sodipodi-0.dtd"
   xmlns:inkscape="http://www.inkscape.org/namespaces/inkscape"
   version="1.1"
   id="svg815"
   width="82.158493"
   height="107.13824"
   viewBox="0 0 82.15849 107.13824"
   sodipodi:docname="pomiran.svg"
   inkscape:version="0.92.3 (2405546, 2018-03-11)">
  <metadata
     id="metadata821">
    <rdf:RDF>
      <cc:Work
         rdf:about="">
        <dc:format>image/svg+xml</dc:format>
        <dc:type
           rdf:resource="http://purl.org/dc/dcmitype/StillImage" />
        <dc:title></dc:title>
      </cc:Work>
    </rdf:RDF>
  </metadata>
  <defs
     id="defs819" />
  <sodipodi:namedview
     pagecolor="#ffffff"
     bordercolor="#666666"
     borderopacity="1"
     objecttolerance="10"
     gridtolerance="10"
     guidetolerance="10"
     inkscape:pageopacity="0"
     inkscape:pageshadow="2"
     inkscape:window-width="1920"
     inkscape:window-height="1017"
     id="namedview817"
     showgrid="false"
     fit-margin-top="0"
     fit-margin-left="0"
     fit-margin-right="0"
     fit-margin-bottom="0"
     inkscape:zoom="1.21"
     inkscape:cx="38.075206"
     inkscape:cy="48.57822"
     inkscape:window-x="-9"
     inkscape:window-y="-9"
     inkscape:window-maximized="1"
     inkscape:current-layer="g833" />
  <g
     id="g833"
     transform="translate(-31.364796,-10.88)">
    <path
       style="display:inline;fill:#13305e;stroke-width:1;fill-opacity:1"
       d="m 36.403731,117.85368 c 0.398051,-0.0765 0.974051,-0.0736 1.28,0.006 0.305949,0.0801 -0.01974,0.14272 -0.723731,0.13917 -0.704,-0.004 -0.95432,-0.0691 -0.556269,-0.14563 z m 5.276269,0.006 c 0.308,-0.0805 0.812,-0.0805 1.12,0 0.308,0.0805 0.056,0.14635 -0.56,0.14635 -0.616,0 -0.868,-0.0659 -0.56,-0.14635 z m 6.565731,-0.0113 c 0.575152,-0.0712 1.439152,-0.0697 1.92,0.003 0.480848,0.073 0.01027,0.13129 -1.045731,0.12949 -1.056,-0.002 -1.449421,-0.0615 -0.874269,-0.13275 z m 6.874269,0.011 c 0.308,-0.0805 0.812,-0.0805 1.12,0 0.308,0.0805 0.056,0.14635 -0.56,0.14635 -0.616,0 -0.868,-0.0659 -0.56,-0.14635 z m 3.52609,-0.001 c 0.31135,-0.0811 0.74335,-0.0758 0.96,0.0119 0.216649,0.0876 -0.03809,0.15404 -0.56609,0.14751 -0.528,-0.007 -0.705261,-0.0782 -0.39391,-0.15937 z m 3.51391,0.001 c 0.308,-0.0805 0.812,-0.0805 1.12,0 0.308,0.0805 0.056,0.14635 -0.56,0.14635 -0.616,0 -0.868,-0.0659 -0.56,-0.14635 z m 3.683731,-0.006 c 0.398051,-0.0765 0.974051,-0.0736 1.28,0.006 0.305949,0.0801 -0.01974,0.14272 -0.723731,0.13917 -0.704,-0.004 -0.95432,-0.0691 -0.556269,-0.14563 z m 5.602359,0.005 c 0.31135,-0.0811 0.74335,-0.0758 0.96,0.0119 0.216649,0.0877 -0.03809,0.15404 -0.56609,0.14752 -0.528,-0.007 -0.705261,-0.0782 -0.39391,-0.15937 z m 7.837641,-0.005 c 0.398051,-0.0765 0.974051,-0.0736 1.28,0.006 0.305949,0.0801 -0.01974,0.14272 -0.723731,0.13917 -0.704,-0.004 -0.95432,-0.0691 -0.556269,-0.14563 z m 7.68,0 c 0.398051,-0.0765 0.974051,-0.0736 1.28,0.006 0.305949,0.0801 -0.01974,0.14272 -0.723731,0.13917 -0.704,-0.004 -0.95432,-0.0691 -0.556269,-0.14563 z m 5.916269,0.006 c 0.308,-0.0805 0.812,-0.0805 1.12,0 0.308,0.0805 0.056,0.14635 -0.56,0.14635 -0.616,0 -0.868,-0.0659 -0.56,-0.14635 z m 3.52609,-0.001 c 0.31135,-0.0811 0.74335,-0.0758 0.96,0.0119 0.216649,0.0876 -0.03809,0.15404 -0.56609,0.14751 -0.528,-0.007 -0.705261,-0.0782 -0.39391,-0.15937 z m 5.27764,-0.005 c 0.39805,-0.0765 0.97405,-0.0736 1.28,0.006 0.30595,0.0801 -0.0197,0.14272 -0.72373,0.13917 -0.704,-0.004 -0.95432,-0.0691 -0.55627,-0.14562 z M 35.84,112.32 v -5.12 h 3.84 3.84 v 5.12 5.12 h -1.28 -1.28 v -3.84 -3.84 l -1.2,-0.0454 -1.2,-0.0454 1.28,-0.22918 1.28,-0.22918 -1.353904,-0.0454 c -1.687933,-0.0566 -1.767155,0.18008 -1.627712,4.86318 l 0.101616,3.41276 -1.2,-6.4e-4 -1.2,-7.1e-4 z m 5.676826,-0.22832 c -0.0637,-1.01842 -0.116404,-0.26768 -0.117124,1.66832 -6.4e-4,1.936 0.05139,2.76926 0.115812,1.85168 0.06442,-0.91757 0.06501,-2.50157 0.0013,-3.52 z m 4.640294,4.53727 c -0.397584,-0.42456 -0.752992,-1.13575 -0.789795,-1.58043 -0.0368,-0.44469 -0.179507,-0.80852 -0.31712,-0.80852 -0.137613,0 -0.250205,-0.864 -0.250205,-1.92 0,-1.06667 0.142221,-1.92 0.32,-1.92 0.176,0 0.32,-0.36654 0.32,-0.81454 0,-1.2235 1.331658,-2.37918 2.785456,-2.41736 1.078662,-0.0283 1.125043,-0.0606 0.414544,-0.2881 -0.656112,-0.21012 -0.541002,-0.2579 0.64,-0.26561 1.080637,-0.007 1.280285,0.0592 0.8,0.26561 -0.56209,0.24154 -0.53009,0.27776 0.262858,0.29751 1.03399,0.0258 2.071078,0.82616 1.414284,1.09151 -0.299516,0.12101 -0.293196,0.16666 0.02573,0.18572 0.975508,0.0583 1.220112,0.84223 1.23098,3.94526 0.0093,2.65019 -0.06623,3.12074 -0.501456,3.1249 -0.447687,0.004 -0.451776,0.0441 -0.03238,0.3151 0.380825,0.24611 0.314707,0.31222 -0.32,0.32 -0.634707,0.008 -0.700826,0.0739 -0.32,0.32 0.380825,0.24611 0.314707,0.31222 -0.32,0.32 -0.634707,0.008 -0.700826,0.0739 -0.32,0.32 0.332352,0.21478 -0.258234,0.30569 -1.92,0.29553 -2.113319,-0.0129 -2.486349,-0.10688 -3.12288,-0.78658 z m 3.945738,-1.56609 c 0.251427,-0.25143 0.457142,-0.68343 0.457142,-0.96 0,-0.27658 0.18,-0.50506 0.4,-0.50776 0.266666,-0.003 0.24,-0.1083 -0.08,-0.3151 -0.307117,-0.19847 -0.338784,-0.31196 -0.08792,-0.3151 0.285814,-0.004 0.309642,-0.22173 0.08792,-0.8049 -0.204362,-0.53751 -0.194266,-0.8 0.03078,-0.8 0.184214,0 0.107328,-0.22761 -0.170861,-0.5058 -0.278189,-0.27819 -0.423977,-0.63819 -0.323971,-0.8 0.100003,-0.16181 -0.07867,-0.30432 -0.397059,-0.31669 -0.516727,-0.0201 -0.510167,-0.052 0.06111,-0.29751 0.48706,-0.2093 0.295882,-0.27922 -0.8,-0.29261 -1.041945,-0.0127 -1.307315,0.0682 -0.96,0.29261 0.354522,0.22911 0.36946,0.31148 0.05714,0.3151 -0.23257,0.003 -0.59257,0.1849 -0.8,0.4049 -0.457498,0.48522 -0.507767,4.07941 -0.05714,4.08548 0.176,0.002 0.104,0.14391 -0.16,0.31452 -0.369187,0.23859 -0.258374,0.31246 0.48,0.32 0.738375,0.008 0.849188,0.0814 0.48,0.32 -0.372428,0.24068 -0.277664,0.3113 0.422858,0.3151 0.49657,0.003 1.10857,-0.20082 1.36,-0.45224 z M 45.338595,113.22 c -0.10215,-0.25527 -0.177977,-0.17945 -0.193331,0.19333 -0.01389,0.33734 0.06173,0.52634 0.16807,0.42 0.106333,-0.10633 0.1177,-0.38233 0.02525,-0.61333 z m 9.274035,4.01719 c 0.238378,-0.0974 0.290106,-0.46301 0.143578,-1.01473 -0.251203,-0.94586 -0.187408,-4.513 0.107328,-6.00156 0.153027,-0.77286 0.129405,-0.8266 -0.132272,-0.3009 -0.265664,0.53371 -0.306339,0.45399 -0.244918,-0.48 0.04051,-0.616 0.217654,-1.2258 0.393654,-1.3551 0.198179,-0.1456 0.167722,-0.23696 -0.08,-0.24 -0.22,-0.003 -0.4,-0.1489 -0.4,-0.3249 0,-0.17724 0.843894,-0.32 1.891686,-0.32 1.621168,0 1.879335,0.0801 1.805325,0.56 -0.0475,0.308 0.07324,0.6658 0.268314,0.7951 0.232083,0.15384 0.188765,0.23849 -0.125325,0.2449 -0.34384,0.007 -0.37104,0.0791 -0.09589,0.25397 0.211264,0.13429 0.427111,1.06808 0.479661,2.0751 0.09088,1.74155 0.731728,2.63026 0.801098,1.11093 0.01808,-0.396 0.134969,-1.08 0.259753,-1.52 0.124781,-0.44 0.298544,-1.268 0.386135,-1.84 0.08759,-0.572 0.323504,-1.0422 0.524249,-1.0449 0.200743,-0.003 0.148989,-0.14449 -0.115011,-0.3151 -0.340707,-0.22018 0.05395,-0.31162 1.36,-0.3151 l 1.84,-0.005 v 5.12 5.12 h -0.96 -0.96 v -3.2 c 0,-1.79005 -0.132899,-3.2 -0.301626,-3.2 -0.165894,0 -0.246163,0.288 -0.178374,0.64 0.083,0.43099 -0.05363,0.64734 -0.418374,0.66249 -0.442138,0.0184 -0.424071,0.073 0.09837,0.29751 l 0.64,0.27502 -0.64,0.045 -0.64,0.045 0.64,0.27502 c 0.460422,0.19785 0.499648,0.28133 0.139795,0.29751 -0.368144,0.0165 -0.520873,0.42182 -0.578499,1.53504 -0.04306,0.8319 -0.230266,1.60647 -0.416003,1.72126 -0.218832,0.13525 -0.184157,0.26978 0.0985,0.38219 0.239914,0.0954 -0.144547,0.18484 -0.854358,0.19874 -1.210663,0.0237 -1.287895,-0.0292 -1.247386,-0.85474 0.02374,-0.484 -0.115494,-0.9858 -0.309434,-1.1151 -0.22936,-0.15292 -0.184835,-0.23853 0.127386,-0.2449 0.338432,-0.007 0.368179,-0.0809 0.100858,-0.2509 -0.385434,-0.24509 -0.666986,-1.43866 -0.714544,-3.0291 -0.01843,-0.61675 -0.193837,-0.87853 -0.586314,-0.8751 -0.375997,0.003 -0.434934,0.0844 -0.179376,0.24691 0.215302,0.1369 0.331606,0.72548 0.267763,1.3551 -0.06207,0.6122 -0.125353,1.94109 -0.140624,2.95309 l -0.02776,1.84 -1.2,-0.0253 c -0.66,-0.0139 -1.032317,-0.0938 -0.82737,-0.17754 z m 2.580704,-6.71052 c -0.106336,-0.10634 -0.382336,-0.1177 -0.613334,-0.0252 -0.255274,0.10215 -0.17945,0.17798 0.193334,0.19333 0.337332,0.0139 0.526333,-0.0617 0.42,-0.16807 z m 8.021946,1.79377 0.09528,-5.12044 1.184723,-2.4e-4 1.18472,-2.4e-4 -0.05534,2.56024 c -0.03043,1.40813 0.07756,2.56024 0.24,2.56024 0.162439,0 0.295341,-0.144 0.295341,-0.32 0,-0.176 0.252,-0.33012 0.56,-0.34249 0.478861,-0.0192 0.46727,-0.0623 -0.08,-0.29751 -0.57128,-0.24549 -0.57784,-0.27743 -0.06111,-0.29751 0.318388,-0.0124 0.489888,-0.16649 0.381114,-0.34249 -0.108774,-0.176 -0.03677,-0.32 0.16,-0.32 0.196774,0 0.275949,-0.13239 0.175946,-0.2942 -0.100007,-0.16181 0.02864,-0.50467 0.285875,-0.76191 0.257235,-0.25723 0.37856,-0.55684 0.269606,-0.66579 -0.10895,-0.10896 -0.0216,-0.1981 0.194125,-0.1981 0.215722,0 0.303222,-0.144 0.194448,-0.32 -0.108774,-0.176 -0.03677,-0.32 0.16,-0.32 0.196774,0 0.268774,-0.144 0.16,-0.32 -0.1208,-0.19546 0.37001,-0.32 1.261114,-0.32 H 73.28 v 5.12 5.12 H 72 70.72 v -2.56 c 0,-1.408 -0.135731,-2.56 -0.301626,-2.56 -0.165894,0 -0.246163,0.288 -0.178374,0.64 0.07907,0.41058 -0.04899,0.64 -0.357258,0.64 -0.264281,0 -0.398691,0.13239 -0.298688,0.2942 0.100007,0.16181 6.4e-4,0.48924 -0.221113,0.72762 -0.221616,0.23838 -0.450487,0.64463 -0.508599,0.90277 -0.05811,0.25815 -0.250409,0.55881 -0.427331,0.66816 -0.176921,0.10934 -0.309376,0.29071 -0.294342,0.40303 0.09586,0.71631 -0.130266,0.84426 -1.492669,0.84466 l -1.52,3.2e-4 0.09528,-5.12044 z M 72.877859,109.84 c -0.05998,-1.364 -0.109062,-0.248 -0.109062,2.48 0,2.728 0.04908,3.844 0.109062,2.48 0.05998,-1.364 0.05998,-3.596 0,-4.96 z M 78.56,112.32 v -5.12 h 3.12 c 2.906666,0 3.12,0.0438 3.12,0.64 0,0.352 0.144,0.64 0.32,0.64 0.179722,0 0.317853,0.87673 0.315101,2 -0.0035,1.40938 -0.09651,1.85825 -0.315101,1.52 -0.262586,-0.40632 -0.31095,-0.39053 -0.315101,0.10286 -0.0083,0.98678 -0.829997,1.49714 -2.410464,1.49714 h -1.49128 l 0.108423,1.92058 0.108422,1.92058 -1.28,-6.4e-4 -1.28,-6.4e-4 v -5.12 z m 4.48,-1.28 c 0.358803,-1.13049 -0.110614,-1.92 -1.141565,-1.92 -0.881507,0 -0.938435,0.0776 -0.938435,1.28 0,1.20235 0.05693,1.28 0.938435,1.28 0.657395,0 0.999271,-0.19167 1.141565,-0.64 z m 3.04,6.08 c 0,-0.176 0.18,-0.3222 0.4,-0.3249 0.266666,-0.003 0.24,-0.1083 -0.08,-0.3151 -0.32,-0.2068 -0.346666,-0.31183 -0.08,-0.3151 0.230022,-0.003 0.4,-0.41285 0.4,-0.9649 0,-0.55205 0.169978,-0.96208 0.4,-0.9649 0.266666,-0.003 0.24,-0.1083 -0.08,-0.3151 -0.32,-0.2068 -0.346666,-0.31183 -0.08,-0.3151 0.22,-0.003 0.4,-0.2929 0.4,-0.6449 0,-0.352 0.18,-0.6422 0.4,-0.6449 0.266666,-0.003 0.24,-0.1083 -0.08,-0.3151 -0.32,-0.2068 -0.346666,-0.31183 -0.08,-0.3151 0.230022,-0.003 0.4,-0.41285 0.4,-0.9649 0,-0.55205 0.169978,-0.96208 0.4,-0.9649 0.266666,-0.003 0.24,-0.1083 -0.08,-0.3151 -0.32,-0.2068 -0.346666,-0.31183 -0.08,-0.3151 0.22,-0.003 0.4,-0.2929 0.4,-0.6449 0,-0.352 0.18,-0.6422 0.4,-0.6449 0.266666,-0.003 0.24,-0.1083 -0.08,-0.3151 -0.343629,-0.22207 -0.0026,-0.31159 1.2,-0.3151 1.468301,-0.004 1.68,0.0757 1.68,0.6351 0,0.352 0.144,0.64 0.32,0.64 0.176,0 0.322205,0.612 0.324899,1.36 0.0036,0.99599 0.08793,1.23152 0.315101,0.88 0.227171,-0.35152 0.31151,-0.11599 0.315101,0.88 0.0026,0.748 0.148899,1.36 0.324899,1.36 0.176,0 0.334355,0.756 0.351898,1.68 0.02509,1.3218 0.08652,1.50943 0.288102,0.88 0.217648,-0.67961 0.261005,-0.59533 0.288102,0.56 l 0.0319,1.36 -1.36,-0.005 c -0.995987,-0.004 -1.231523,-0.0879 -0.88,-0.3151 0.34879,-0.2254 0.365494,-0.31154 0.06111,-0.3151 C 91.990726,116.80234 91.891226,116.656 92,116.48 c 0.122787,-0.19867 -0.476678,-0.32 -1.581114,-0.32 -1.565552,0 -1.778886,0.0768 -1.778886,0.64 0,0.53334 -0.213334,0.64 -1.28,0.64 -0.704,0 -1.28,-0.144 -1.28,-0.32 z m 5.04,-1.5092 c -0.484,-0.0733 -1.276,-0.0733 -1.76,0 -0.484,0.0733 -0.088,0.13331 0.88,0.13331 0.968,0 1.364,-0.06 0.88,-0.13331 z m -0.16,-1.58273 c -0.22,-0.0888 -0.58,-0.0888 -0.8,0 -0.22,0.0888 -0.04,0.16141 0.4,0.16141 0.44,0 0.62,-0.0726 0.4,-0.16141 z M 91.195101,112.24 c -0.0036,-0.99599 -0.08793,-1.23152 -0.315101,-0.88 -0.250838,0.38815 -0.311136,0.34222 -0.315101,-0.24 -0.0098,-1.43951 -0.645529,-0.67746 -0.667392,0.8 -0.01693,1.14367 -0.09058,1.36155 -0.297507,0.88 -0.262416,-0.61068 -0.276048,-0.60701 -0.297507,0.08 -0.0185,0.59166 0.148621,0.72 0.937507,0.72 0.916848,0 0.959779,-0.0611 0.955101,-1.36 z m 4.501043,0.08 -0.04133,-5.12 H 96.947408 98.24 v 1.92 1.92 h 1.28 c 1.05333,0 1.28708,-0.11333 1.32,-0.64 0.0941,-1.50606 0.14292,-1.78066 0.38379,-2.16 0.14482,-0.22808 0.10833,-0.4 -0.0849,-0.4 -0.18639,0 -0.33889,-0.144 -0.33889,-0.32 0,-0.176 0.576,-0.32 1.28,-0.32 h 1.28 v 5.12 5.12 L 102,117.435 c -0.99599,-0.004 -1.23152,-0.0879 -0.88,-0.3151 0.264,-0.17061 0.33086,-0.3124 0.14857,-0.3151 -0.18229,-0.003 -0.33143,-0.2929 -0.33143,-0.6449 0,-0.352 0.12164,-0.64 0.27032,-0.64 0.14867,0 0.15786,-0.18 0.0204,-0.4 -0.38031,-0.60877 -0.40825,-1.2 -0.0567,-1.2 0.173,0 0.0985,-0.216 -0.16546,-0.48 -0.28046,-0.28046 -0.98834,-0.46112 -1.702855,-0.43459 l -1.222858,0.0454 1.28,0.22918 1.280003,0.22918 -1.200003,0.0454 L 98.24,113.6 v 1.92 1.92 h -1.251264 -1.251261 z m 2.13577,2.16573 c -0.07122,-0.57515 -0.13096,-0.18173 -0.132756,0.87427 -0.0019,1.056 0.05647,1.52658 0.129492,1.04573 0.07301,-0.48085 0.07448,-1.34485 0.0033,-1.92 z M 97.825834,108.4 c -0.07627,-0.396 -0.138679,-0.072 -0.138679,0.72 0,0.792 0.06241,1.116 0.138679,0.72 0.07627,-0.396 0.07627,-1.044 0,-1.44 z M 98.96,110.49941 c 0.308,-0.0805 0.812,-0.0805 1.12,0 0.308,0.0805 0.056,0.14635 -0.56,0.14635 -0.616,0 -0.868,-0.0659 -0.56,-0.14635 z m -60.788317,-3.85624 c 1.018426,-0.0637 2.602426,-0.0631 3.52,0.001 0.917575,0.0644 0.08432,0.11654 -1.851683,0.11582 -1.936,-6.4e-4 -2.686742,-0.0534 -1.668317,-0.11713 z m 17.914407,0.0151 c 0.31135,-0.0811 0.74335,-0.0758 0.96,0.0119 0.216649,0.0877 -0.03809,0.15404 -0.56609,0.14752 -0.528,-0.007 -0.705261,-0.0782 -0.39391,-0.15938 z m 5.277641,-0.005 c 0.398051,-0.0765 0.974051,-0.0736 1.28,0.006 0.305949,0.0801 -0.01974,0.14272 -0.723731,0.13917 -0.704,-0.004 -0.95432,-0.0691 -0.556269,-0.14562 z m 10.576269,0.008 c 0.230998,-0.0924 0.506998,-0.0811 0.613334,0.0252 0.106333,0.10634 -0.08267,0.18197 -0.42,0.16807 -0.372784,-0.0154 -0.448608,-0.0912 -0.193334,-0.19333 z m 8.305731,-0.0133 c 0.575152,-0.0712 1.439152,-0.0697 1.92,0.003 0.480848,0.073 0.01027,0.13128 -1.045731,0.12949 -1.056,-0.002 -1.449421,-0.0615 -0.874269,-0.13276 z M 90.5,106.66141 c 0.230998,-0.0924 0.507002,-0.0811 0.613334,0.0252 0.106333,0.10634 -0.08267,0.18197 -0.42,0.16807 -0.372784,-0.0154 -0.448608,-0.0912 -0.193334,-0.19333 z m 5.58,-0.002 c 0.308,-0.0805 0.812,-0.0805 1.12,0 0.308,0.0805 0.056,0.14635 -0.56,0.14635 -0.616,0 -0.868,-0.0659 -0.56,-0.14635 z m 5.6,0.009 c 0.22,-0.0888 0.58,-0.0888 0.8,0 0.22,0.0888 0.04,0.16141 -0.4,0.16141 -0.44,0 -0.62,-0.0726 -0.4,-0.16141 z m -49.76,-2.268 c 8.58,-0.0474 22.62,-0.0474 31.2,0 8.58,0.0474 1.56,0.0862 -15.6,0.0862 -17.16,0 -24.18,-0.0388 -15.6,-0.0862 z m 48.16,0.0141 c 0.396,-0.0763 1.044,-0.0763 1.44,0 0.396,0.0763 0.072,0.13868 -0.72,0.13868 -0.792,0 -1.116,-0.0624 -0.72,-0.13868 z m -64.28407,-1.92979 c 0.07666,-0.96386 0.337497,-1.70379 0.716486,-2.03249 0.32777,-0.28427 0.502563,-0.610237 0.388432,-0.724368 C 36.786714,99.613382 36.933334,99.52 37.226666,99.52 37.52,99.52 37.76,99.297456 37.76,99.025456 c 0,-0.272 0.353456,-0.848 0.785456,-1.28 L 39.330909,96.96 47.585456,96.9551 C 53.033139,96.9519 55.676781,96.84472 55.36,96.64 c -0.382531,-0.24721 -0.317552,-0.316323 0.32,-0.340362 0.44,-0.01661 0.61408,-0.104771 0.386842,-0.195955 -0.310618,-0.124643 -0.270909,-0.297069 0.16,-0.694736 0.315238,-0.290921 0.620704,-0.743584 0.678816,-1.00592 0.05811,-0.262333 0.202112,-0.550333 0.32,-0.64 0.117888,-0.08966 0.249702,-0.667027 0.292918,-1.283027 0.04322,-0.616 0.218762,-1.768 0.390102,-2.56 0.171338,-0.792 0.37848,-1.872 0.460314,-2.4 0.08183,-0.528 0.292237,-1.428 0.467562,-2 0.175324,-0.572 0.251756,-1.04 0.169849,-1.04 -0.08191,0 -0.0042,-0.270474 0.172752,-0.60105 0.176919,-0.330576 0.387443,-1.734576 0.467827,-3.12 0.155047,-2.672144 0.39048,-3.63895 0.886141,-3.63895 0.167555,0 0.223251,-0.131702 0.12377,-0.292669 -0.09948,-0.160966 -0.05558,-0.340966 0.09757,-0.4 C 61.174909,76.265267 64.64,69.188995 64.64,68.492438 c 0,-0.333699 -0.182122,-0.797011 -0.404717,-1.02958 C 64.012691,67.230285 63.472938,66.356 63.035834,65.52 62.59873,64.684 62.132851,64 62.00055,64 61.868246,64 61.76,63.785219 61.76,63.52271 61.76,63.260202 61.472,62.865565 61.12,62.645738 60.768,62.42591 60.48,62.064688 60.48,61.843024 60.48,61.62136 60.352787,61.44 60.197306,61.44 c -0.42778,0 -0.63617,-1.556259 -0.230797,-1.723574 0.194419,-0.08024 0.07749,-0.157268 -0.259843,-0.171162 -0.337332,-0.01389 -0.516173,-0.122426 -0.397421,-0.241178 0.118752,-0.118748 -0.181248,-0.477801 -0.666666,-0.797891 C 57.635824,57.842336 54.625485,57.710432 52.797888,58.250099 52.18305,58.431654 50.528,58.723334 49.12,58.898278 c -2.848634,0.35394 -5.95488,1.200823 -6.315101,1.721741 -0.129305,0.186989 -0.237305,0.210954 -0.24,0.05326 -0.0054,-0.31786 -1.177421,0.917648 -1.924899,2.029219 -0.264,0.392592 -0.440432,0.85584 -0.39207,1.02944 0.04836,0.1736 -0.05964,0.224435 -0.24,0.112966 -0.180362,-0.111474 -0.32793,0.02182 -0.32793,0.29621 0,0.274387 -0.144,0.498886 -0.32,0.498886 -0.176,0 -0.32,0.288 -0.32,0.64 0,0.352 -0.144,0.64 -0.32,0.64 -0.176,0 -0.32,0.216 -0.32,0.48 0,0.264 -0.144,0.48 -0.32,0.48 -0.176,0 -0.32,0.2208 -0.32,0.490666 0,0.269868 -0.484294,0.974963 -1.076208,1.566876 -1.002496,1.002496 -1.065462,1.188068 -0.919286,2.709335 C 35.908781,73.148403 35.866576,73.28 35.240714,73.28 34.86632,73.28 34.56,73.424 34.56,73.6 c 0,0.176 -0.288,0.32 -0.64,0.32 -0.352,0 -0.64,0.144 -0.64,0.32 0,0.176 -0.432,0.32 -0.96,0.32 -0.835127,0 -0.959363,-0.114467 -0.9551,-0.88 0.0038,-0.685741 0.07338,-0.774038 0.3151,-0.4 0.227336,0.351776 0.320029,0.09533 0.346998,-0.96 0.03069,-1.200528 0.07941,-1.30696 0.293002,-0.64 0.213597,0.66696 0.262323,0.560528 0.293002,-0.64 0.02698,-1.055331 0.119664,-1.311776 0.346998,-0.96 0.233184,0.360829 0.312634,0.201933 0.32,-0.64 0.0074,-0.841933 0.08682,-1.000829 0.32,-0.64 0.224269,0.347034 0.317789,0.03677 0.33759,-1.12 0.02038,-1.19159 0.09759,-1.436637 0.30241,-0.96 0.262416,0.610675 0.276048,0.607008 0.297507,-0.08 0.01237,-0.396 0.166493,-0.72 0.342493,-0.72 0.176,0 0.32,-0.224499 0.32,-0.498886 0,-0.274388 0.144,-0.409888 0.32,-0.301114 0.176,0.108774 0.32,-0.03523 0.32,-0.32 0,-0.284774 0.144,-0.428774 0.32,-0.32 0.185939,0.114918 0.310576,-0.178806 0.297507,-0.701114 C 36.437731,62.988224 36.401907,62.957053 36.16,63.52 c -0.17456,0.406224 -0.283232,-0.791872 -0.297507,-3.28 -0.01386,-2.414995 0.100365,-3.92 0.297507,-3.92 0.176,0 0.32,-0.288 0.32,-0.64 0,-0.352 0.144,-0.64 0.32,-0.64 0.176,0 0.322205,-0.324 0.324899,-0.72 0.004,-0.582221 0.06426,-0.628147 0.315101,-0.24 0.233184,0.360829 0.312634,0.201933 0.32,-0.64 0.0074,-0.841933 0.08682,-1.000829 0.32,-0.64 0.233184,0.360829 0.312634,0.201933 0.32,-0.64 0.0074,-0.841933 0.08682,-1.000829 0.32,-0.64 0.233184,0.360829 0.312634,0.201933 0.32,-0.64 0.0074,-0.841933 0.08682,-1.000829 0.32,-0.64 0.230374,0.35648 0.311459,0.167456 0.315101,-0.734544 0.0054,-1.334614 1.120464,-2.781571 2.150355,-2.790355 0.488003,-0.0042 0.502243,-0.05163 0.09454,-0.315101 -0.334998,-0.216493 0.148346,-0.302045 1.6,-0.283203 1.522403,0.01974 1.865539,0.09568 1.28,0.283203 -0.648659,0.207738 -0.497315,0.266493 0.8,0.310595 1.206451,0.04101 1.442579,0.122032 0.96,0.329405 -0.476637,0.204819 -0.23159,0.28201 0.96,0.30241 1.156774,0.01981 1.467034,0.113321 1.12,0.33759 -0.340707,0.220182 0.05395,0.311622 1.36,0.315101 1.084778,0.0029 1.84,-0.134195 1.84,-0.333987 0,-0.186388 -0.144,-0.249888 -0.32,-0.141114 -0.176,0.108774 -0.32,-0.02672 -0.32,-0.301114 0,-0.274387 0.121306,-0.498886 0.269568,-0.498886 0.148262,0 0.30024,-0.972 0.337722,-2.16 0.03748,-1.188 0.205075,-2.208298 0.372425,-2.267331 0.167351,-0.05903 0.222877,-0.239034 0.123392,-0.4 -0.09948,-0.160967 0.07962,-0.294874 0.398007,-0.297568 0.490819,-0.0042 0.505862,-0.05209 0.09889,-0.315101 -0.32,-0.2068 -0.346666,-0.311834 -0.08,-0.315101 0.252515,-0.0032 0.4,-0.476845 0.4,-1.284899 0,-0.704 0.135731,-1.28 0.301626,-1.28 0.165894,0 0.246489,-0.286307 0.179097,-0.63624 -0.06739,-0.349933 0.09516,-0.853933 0.361232,-1.12 0.318077,-0.318077 0.352915,-0.48376 0.101719,-0.48376 -0.288797,0 -0.284813,-0.117152 0.01632,-0.48 0.275232,-0.331635 0.287344,-0.48 0.03918,-0.48 C 53.921632,35.2 53.76,34.799789 53.76,34.310643 c 0,-0.518928 -0.263603,-1.079353 -0.632883,-1.345513 -0.465139,-0.335255 -0.528752,-0.522308 -0.24,-0.705744 0.228032,-0.144861 -0.118557,-0.251642 -0.826003,-0.254487 -0.732151,-0.0029 -1.139911,0.122887 -1.021114,0.315101 0.117926,0.19081 -0.269638,0.32 -0.96,0.32 -0.690362,0 -1.077926,-0.12919 -0.96,-0.32 0.108774,-0.176 0.0093,-0.322205 -0.221114,-0.3249 -0.30438,-0.0036 -0.287676,-0.0897 0.06111,-0.3151 0.340397,-0.219981 -0.06064,-0.311625 -1.378886,-0.3151 -1.156656,-0.003 -1.784173,-0.125786 -1.661114,-0.3249 0.108774,-0.176 0.0093,-0.322205 -0.221114,-0.3249 -0.30438,-0.0036 -0.287676,-0.08969 0.06111,-0.3151 0.406976,-0.263009 0.391933,-0.310945 -0.09889,-0.3151 C 45.342726,30.082205 45.171226,29.936 45.28,29.76 45.388774,29.584 45.325274,29.44 45.138886,29.44 44.952499,29.44 44.8,29.008 44.8,28.48 c 0,-0.528 0.152499,-0.96 0.338886,-0.96 0.186388,0 0.249888,-0.144 0.141114,-0.32 -0.108774,-0.176 0.06273,-0.331368 0.381114,-0.345263 0.357785,-0.01561 0.421084,-0.08858 0.165728,-0.191053 -0.310618,-0.124643 -0.270909,-0.297069 0.16,-0.694737 0.315238,-0.290921 0.618118,-0.735828 0.673068,-0.988682 0.05495,-0.252854 0.400986,-0.720854 0.768964,-1.04 C 47.831619,23.590967 47.931574,23.36 47.68,23.36 c -0.271126,0 -0.204022,-0.196705 0.191037,-0.56 0.334931,-0.308 0.656509,-0.774637 0.714621,-1.036972 0.05811,-0.262334 0.274112,-0.584129 0.48,-0.715099 0.265849,-0.169114 0.244224,-0.239549 -0.07462,-0.243029 -0.291197,-0.0032 -0.189658,-0.229795 0.288963,-0.6449 0.478621,-0.415105 0.58016,-0.641722 0.288963,-0.6449 -0.364521,-0.004 -0.358685,-0.06324 0.03104,-0.3151 0.36984,-0.239009 0.380435,-0.311324 0.04616,-0.3151 -0.251405,-0.0028 -0.04956,-0.374949 0.48,-0.8849 0.502614,-0.484 0.964249,-1.235604 1.025856,-1.67023 0.06161,-0.434626 0.385606,-1.027517 0.72,-1.317534 0.63357,-0.549501 0.845023,-1.116508 0.28798,-0.772236 -0.176,0.108774 -0.32,-0.02673 -0.32,-0.301115 0,-0.274386 -0.18,-0.50109 -0.4,-0.503785 -0.266666,-0.0033 -0.24,-0.1083 0.08,-0.3151 0.32,-0.2068 0.346666,-0.311833 0.08,-0.3151 -0.22,-0.0027 -0.38863,-0.3289 -0.374736,-0.7249 0.01389,-0.396 0.09789,-0.54 0.186666,-0.32 0.08877,0.22 0.509404,0.4 0.934736,0.4 0.56,0 0.773334,-0.176552 0.773334,-0.64 0,-0.432781 0.213334,-0.64 0.658886,-0.64 0.362388,0 0.569888,0.144 0.461114,0.32 -0.108774,0.176 0.05073,0.32 0.354448,0.32 0.303722,0 0.463075,0.08914 0.354125,0.198095 -0.328736,0.328733 0.634467,1.079704 1.428569,1.113803 0.736989,0.03164 0.736538,0.03392 -0.05714,0.288102 -0.676045,0.216507 -0.586349,0.261147 0.578886,0.288102 0.844829,0.01954 1.302285,-0.09204 1.181114,-0.288102 -0.108774,-0.176 -0.04527,-0.32 0.141114,-0.32 0.186387,0 0.338886,0.144 0.338886,0.32 0,0.176 0.684,0.330121 1.52,0.342491 1.143667,0.01692 1.361546,0.09058 0.88,0.297509 -0.489379,0.210293 -0.301101,0.281464 0.8,0.302409 1.053126,0.02003 1.311043,0.110731 0.96,0.337591 -0.388147,0.25084 -0.342221,0.311138 0.24,0.3151 0.396,0.0027 0.72,0.1489 0.72,0.3249 0,0.176 0.288,0.32 0.64,0.32 0.352,0 0.64,0.144 0.64,0.32 0,0.176 0.324,0.322205 0.72,0.3249 0.582221,0.004 0.628147,0.06426 0.24,0.3151 -0.380826,0.246108 -0.314707,0.312225 0.32,0.32 0.634707,0.0078 0.700826,0.07389 0.32,0.32 -0.388147,0.25084 -0.342221,0.311138 0.24,0.3151 0.396,0.0027 0.72,0.1489 0.72,0.3249 0,0.176 0.324,0.322205 0.72,0.3249 0.582221,0.004 0.628147,0.06426 0.24,0.3151 -0.405962,0.262352 -0.38975,0.310956 0.105088,0.3151 0.321798,0.0027 1.138509,0.5809 1.814912,1.2849 0.676403,0.704 1.493114,1.282205 1.814912,1.2849 0.494838,0.0041 0.51105,0.05275 0.105088,0.3151 -0.351523,0.227172 -0.115987,0.311511 0.88,0.3151 0.748,0.0027 1.36,0.1489 1.36,0.3249 0,0.176 0.18,0.319842 0.4,0.319649 0.273264,-2.39e-4 0.384438,0.5067 0.350886,1.6 -0.03723,1.213347 0.06406,1.600351 0.418887,1.600351 0.257398,0 0.379001,0.144 0.270227,0.32 -0.108774,0.176 -0.04527,0.32 0.141114,0.32 0.186387,0 0.336681,0.252 0.333987,0.56 -0.0042,0.478575 -0.05,0.490207 -0.315101,0.08 -0.265098,-0.410207 -0.310912,-0.398575 -0.315101,0.08 -0.0032,0.3483 0.237043,0.56 0.635101,0.56 0.457856,0 0.63281,0.204912 0.614736,0.72 -0.01389,0.396 -0.09789,0.54 -0.186666,0.32 -0.08877,-0.22 -0.437404,-0.4 -0.774736,-0.4 C 75.796,28.16 75.52,28.016 75.52,27.84 c 0,-0.176 -0.252,-0.322205 -0.56,-0.3249 -0.478576,-0.0042 -0.490208,-0.05 -0.08,-0.3151 0.388147,-0.25084 0.342221,-0.311138 -0.24,-0.3151 -0.587757,-0.004 -0.72,0.171426 -0.72,0.9551 0,0.528 -0.12904,0.96 -0.286755,0.96 -0.157719,0 -0.290823,1.908 -0.295789,4.24 -0.0056,2.646934 0.09012,3.939421 0.254858,3.44 0.251299,-0.761827 0.265414,-0.750374 0.295788,0.24 0.01754,0.572 0.175898,1.04 0.351898,1.04 0.176,0 0.32,0.432 0.32,0.96 0,0.726851 0.146368,0.96 0.602678,0.96 0.731607,0 1.096032,-1.135574 0.54217,-1.68944 -0.401869,-0.401866 -0.557101,-1.510525 -0.211514,-1.510602 0.102666,-2.2e-5 0.192826,-0.720022 0.200356,-1.6 C 75.70121,33.999981 75.624074,33.28 75.522259,33.28 c -0.101814,0 -0.185117,-0.288 -0.185117,-0.64 0,-0.352 0.193642,-0.64 0.430314,-0.64 0.236672,0 0.341318,-0.144 0.232544,-0.32 -0.112611,-0.182208 0.162973,-0.32 0.64,-0.32 0.477027,0 0.752611,-0.137792 0.64,-0.32 -0.125053,-0.202341 0.662198,-0.318198 2.141114,-0.3151 1.628233,0.0034 2.193043,0.09915 1.858886,0.3151 -0.372429,0.240682 -0.277664,0.311298 0.422858,0.3151 1.032454,0.0056 1.814883,0.650618 1.822041,1.502042 0.0042,0.493392 0.05251,0.509181 0.315101,0.102858 0.250838,-0.388147 0.311136,-0.342221 0.315101,0.24 0.0026,0.396 0.148899,0.72 0.324899,0.72 0.187184,0 0.297075,0.896512 0.264768,2.16 l -0.05523,2.16 -0.209536,-2.08 -0.209536,-2.08 -0.05523,2.16 c -0.03253,1.272147 -0.194528,2.16 -0.394118,2.16 -0.186388,0 -0.249888,0.144 -0.141114,0.32 0.108774,0.176 -0.02672,0.32 -0.301114,0.32 -0.399155,0 -0.497907,0.399811 -0.493987,2 0.0035,1.409382 0.09651,1.858253 0.315101,1.52 0.250838,-0.388147 0.311136,-0.342221 0.315101,0.24 0.0026,0.396 0.148899,0.72 0.324899,0.72 0.176,0 0.322205,0.468 0.324899,1.04 0.0037,0.78919 0.07971,0.924243 0.315101,0.56 0.227171,-0.351523 0.31151,-0.115987 0.315101,0.88 0.0041,1.145034 0.106061,1.36 0.644899,1.36 0.352,0 0.64,0.144 0.64,0.32 0,0.176 0.288,0.32 0.64,0.32 0.352,0 0.64,0.144 0.64,0.32 0,0.176 0.432,0.32 0.96,0.32 0.528,0 0.96,0.144 0.96,0.32 0,0.176 0.468,0.322205 1.04,0.324899 0.78919,0.0037 0.924243,0.07971 0.56,0.315101 -0.364243,0.235392 -0.22919,0.311382 0.56,0.315101 0.572,0.0026 1.04,0.148899 1.04,0.324899 0,0.176 0.256211,0.32 0.569357,0.32 0.313145,0 0.776934,0.288 1.030643,0.64 0.253709,0.352 0.717498,0.64 1.030643,0.64 0.313146,0 0.569357,0.144 0.569357,0.32 0,0.176 0.2208,0.32 0.490666,0.32 0.675488,0 2.70822,2.088976 2.714233,2.789334 0.0042,0.485492 0.0512,0.499021 0.315101,0.09067 0.246109,-0.380826 0.312224,-0.314707 0.32,0.32 0.0078,0.634707 0.07389,0.700826 0.32,0.32 0.246106,-0.380826 0.312216,-0.314707 0.319996,0.32 0.008,0.634707 0.0739,0.700826 0.32,0.32 0.24956,-0.386166 0.31116,-0.335558 0.3151,0.258886 0.003,0.410192 0.14725,0.650906 0.3249,0.541114 0.176,-0.108774 0.32,0.03523 0.32,0.32 0,0.284774 0.144,0.428774 0.32,0.32 0.176,-0.108774 0.32,0.02672 0.32,0.301114 0,0.340985 0.30385,0.498886 0.96,0.498886 0.55205,0 0.96208,0.169978 0.9649,0.4 0.003,0.266666 0.1083,0.24 0.3151,-0.08 0.2068,-0.32 0.31183,-0.346666 0.3151,-0.08 0.003,0.230022 0.41285,0.4 0.9649,0.4 0.55205,0 0.96208,0.169978 0.9649,0.4 0.003,0.266666 0.1083,0.24 0.3151,-0.08 0.2068,-0.32 0.31183,-0.346666 0.3151,-0.08 0.003,0.22 0.2929,0.4 0.6449,0.4 0.352,0 0.64,0.152499 0.64,0.338886 0,0.186388 0.144,0.249888 0.32,0.141114 0.176,-0.108774 0.33137,0.06273 0.34526,0.381114 0.0156,0.357785 0.0886,0.421084 0.19106,0.165728 0.12009,-0.29929 0.32506,-0.22952 0.74368,0.253158 0.41862,0.482678 0.62359,0.552448 0.74368,0.253158 0.0912,-0.227238 0.17716,-0.08066 0.19106,0.325728 0.0139,0.40649 0.16922,0.649917 0.34526,0.541114 0.176,-0.108774 0.32,0.03523 0.32,0.32 0,0.284774 0.144,0.428774 0.32,0.32 0.19018,-0.117539 0.33294,0.296707 0.3519,1.021114 0.0283,1.080966 0.0609,1.128364 0.2881,0.418886 0.20223,-0.631462 0.26964,-0.429219 0.32,0.96 0.0504,1.389219 0.11777,1.591462 0.32,0.96 0.16493,-0.514995 0.25139,0.283018 0.24269,2.24 -0.01,2.234278 -0.0742,2.700749 -0.24269,1.76 -0.19948,-1.114109 -0.24052,-0.968957 -0.31672,1.12 -0.0716,1.96343 -0.13041,2.196269 -0.32328,1.28 -0.21508,-1.021802 -0.23987,-0.96569 -0.28277,0.64 -0.0338,1.265405 -0.1342,1.62511 -0.35723,1.28 -0.22595,-0.349626 -0.31286,-0.08888 -0.32,0.96 -0.007,1.04888 -0.0941,1.309626 -0.32,0.96 -0.22257,-0.3444 -0.3206,0.01722 -0.347,1.28 -0.0286,1.36727 -0.094,1.581488 -0.293,0.96 -0.1598,-0.498966 -0.2562,0.584749 -0.2562,2.88 0,2.295251 0.0964,3.378966 0.2562,2.88 0.17091,-0.533667 0.26682,0.18543 0.2881,2.16 0.0187,1.738736 0.16393,2.96 0.3519,2.96 0.18787,0 0.31798,1.090067 0.3151,2.64 -0.003,1.822678 -0.10094,2.491395 -0.3151,2.16 -0.2068,-0.32 -0.31183,-0.346666 -0.3151,-0.08 -0.004,0.293584 -0.79238,0.389926 -2.9649,0.362141 -2.04902,-0.02621 -2.66455,-0.113043 -2,-0.282141 0.84041,-0.213846 0.76068,-0.249606 -0.64,-0.28704 -1.16056,-0.03101 -1.46817,-0.127955 -1.12,-0.35296 0.32,-0.2068 0.34667,-0.311834 0.08,-0.315101 -0.26601,-0.0033 -0.4,-0.540845 -0.4,-1.604899 0,-0.88 -0.12544,-1.6 -0.27875,-1.6 -0.15331,0 -0.29967,-0.96496 -0.32525,-2.144358 -0.0256,-1.179396 -0.16604,-2.223396 -0.31214,-2.32 C 102.726,85.859034 102.72018,82.88 103.07757,82.88 c 0.15534,0 0.28243,-0.152499 0.28243,-0.338886 0,-0.186388 -0.144,-0.249888 -0.32,-0.141114 -0.176,0.108774 -0.32,-0.02672 -0.32,-0.301114 0,-0.274387 -0.144,-0.498886 -0.32,-0.498886 -0.176,0 -0.32,-0.800499 -0.32,-1.778886 0,-1.104436 -0.12132,-1.703901 -0.32,-1.581114 -0.20707,0.127974 -0.31827,-1.248822 -0.3151,-3.901114 0.003,-2.764662 0.10587,-3.942643 0.3151,-3.618886 0.23318,0.360829 0.31263,0.201933 0.32,-0.64 0.007,-0.841933 0.0868,-1.000829 0.32,-0.64 0.2396,0.370749 0.31644,0.261494 0.33759,-0.48 0.0236,-0.827254 0.0654,-0.871504 0.30241,-0.32 0.22164,0.515795 0.27938,0.410781 0.29751,-0.541114 0.0124,-0.649612 0.16649,-1.270112 0.34249,-1.378886 0.176,-0.108774 0.3178,-0.369274 0.3151,-0.578886 -0.003,-0.228996 -0.12871,-0.189527 -0.3151,0.09889 -0.23318,0.360829 -0.31263,0.201933 -0.32,-0.64 -0.005,-0.616 -0.11559,-0.971798 -0.2449,-0.790662 -0.1293,0.181136 -0.5591,0.308796 -0.9551,0.283692 -0.56957,-0.03611 -0.7247,0.129079 -0.74249,0.790663 -0.0203,0.754579 -0.0494,0.773763 -0.29751,0.196307 -0.21029,-0.489379 -0.28146,-0.301101 -0.30241,0.8 -0.02,1.053126 -0.11073,1.311043 -0.33759,0.96 -0.23859,-0.369187 -0.31246,-0.258374 -0.32,0.48 -0.008,0.738374 -0.0814,0.849187 -0.32,0.48 -0.238586,-0.369187 -0.312461,-0.258374 -0.32,0.48 -0.0076,0.738374 -0.08141,0.849187 -0.32,0.48 -0.246109,-0.380826 -0.312224,-0.314707 -0.32,0.32 -0.0078,0.634707 -0.07389,0.700826 -0.32,0.32 -0.246109,-0.380826 -0.312224,-0.314707 -0.32,0.32 -0.0078,0.634707 -0.07389,0.700826 -0.32,0.32 -0.262586,-0.406323 -0.31095,-0.390534 -0.315101,0.102858 -0.0066,0.784908 -0.851209,1.645536 -1.073923,1.094284 -0.08825,-0.218428 -0.171818,-0.121142 -0.185712,0.216192 -0.01389,0.337332 -0.118646,0.519952 -0.232778,0.405818 -0.114131,-0.114131 -0.460156,0.08379 -0.768947,0.439827 -0.409187,0.471795 -0.60639,0.535299 -0.727222,0.234179 C 94.525133,73.30592 94.436954,73.48 94.420362,73.92 94.39633,74.557552 94.32721,74.622531 94.08,74.24 c -0.22183,-0.343258 -0.311597,0.004 -0.315101,1.218886 -0.0029,1.052208 0.116909,1.623604 0.315101,1.501114 0.176,-0.108774 0.32,0.02672 0.32,0.301114 0,0.274387 0.144,0.498886 0.32,0.498886 0.176,0 0.322205,0.252 0.324899,0.56 0.0042,0.478576 0.05,0.490208 0.315101,0.08 0.249562,-0.386166 0.311158,-0.335558 0.315101,0.258886 0.0029,0.410192 0.147251,0.650906 0.324899,0.541114 0.176,-0.108774 0.32,0.03523 0.32,0.32 0,0.284774 0.144,0.428774 0.32,0.32 0.176,-0.108774 0.32,0.03523 0.32,0.32 0,0.284774 0.144,0.428774 0.32,0.32 0.176,-0.108774 0.32,0.03523 0.32,0.32 0,0.284774 0.144,0.428774 0.32,0.32 0.192102,-0.118726 0.32,0.29313 0.32,1.03047 0,0.861149 -0.191283,1.366112 -0.64,1.68953 -0.352,0.253709 -0.64,0.653994 -0.64,0.88953 0,0.235532 -0.144,0.339244 -0.32,0.23047 -0.177648,-0.109792 -0.322179,0.130922 -0.324899,0.541114 C 96.311165,86.095558 96.249562,86.146166 96,85.76 95.749162,85.371853 95.688864,85.417779 95.684899,86 95.682339,86.396 95.536,86.72 95.36,86.72 c -0.176,0 -0.322205,0.324 -0.324899,0.72 -0.004,0.582221 -0.06426,0.628147 -0.315101,0.24 -0.256278,-0.396563 -0.311053,-0.367123 -0.315101,0.169357 C 94.402205,88.206502 94.112,88.706291 93.76,88.96 c -0.352,0.253709 -0.64,0.685709 -0.64,0.96 0,0.274291 -0.288,0.706291 -0.64,0.96 -0.352,0.253709 -0.64,0.717498 -0.64,1.030643 0,0.313146 -0.144,0.569357 -0.32,0.569357 -0.176,0 -0.322205,0.324 -0.324899,0.72 -0.004,0.582221 -0.06426,0.628147 -0.315101,0.24 -0.240682,-0.372429 -0.311299,-0.277664 -0.315101,0.422858 -0.0055,1.021356 0.793706,2.083609 1.064125,1.414284 0.12696,-0.314246 0.165722,-0.313651 0.185712,0.0029 0.01424,0.225498 0.44407,0.4 0.985264,0.4 0.775558,0 0.96432,0.138333 0.982493,0.72 0.02147,0.687008 0.03509,0.690676 0.297507,0.08 0.235168,-0.54727 0.278275,-0.55886 0.297507,-0.08 0.01936,0.482045 0.35977,0.56 2.445351,0.56 2.54071,0 3.332442,0.354672 3.342042,1.497143 0.004,0.493392 0.0525,0.509181 0.3151,0.102857 0.25628,-0.396563 0.31105,-0.367123 0.3151,0.169357 0.003,0.357146 0.2929,0.856935 0.6449,1.110643 0.352,0.253708 0.6422,0.753498 0.6449,1.110648 0.004,0.53648 0.0588,0.56592 0.3151,0.16935 0.225,-0.34817 0.32194,-0.0406 0.35296,1.12 0.0374,1.40068 0.0732,1.48041 0.28704,0.64 l 0.24428,-0.96 0.0379,1.04 L 103.36,104 H 69.517693 35.675389 l 0.120541,-1.51563 z M 63.154285,96.16 c 0.264,-0.264 0.894765,-0.48 1.401696,-0.48 1.220189,0 2.099587,-0.658608 1.8272,-1.368442 C 66.266771,94.008202 66.034435,93.76 65.866877,93.76 c -0.167555,0 -0.215651,-0.144 -0.106877,-0.32 0.108774,-0.176 0.460813,-0.32 0.782307,-0.32 0.77193,0 2.305389,-0.805638 2.039517,-1.07151 -0.114669,-0.114669 0.01718,-0.20849 0.293037,-0.20849 0.352749,0 0.592486,-0.498371 0.808141,-1.68 0.439548,-2.4084 0.50096,-2.58753 1.069635,-3.12 0.281949,-0.264 0.740809,-0.923174 1.019686,-1.464829 0.383165,-0.744208 0.911917,-1.115587 2.164112,-1.52 0.911383,-0.294345 1.91504,-0.535171 2.230352,-0.535171 0.414669,0 0.527248,-0.176086 0.406874,-0.6364 C 76.482128,82.533578 76.27961,82.326077 76.123619,82.422483 75.967629,82.518893 75.84,82.373274 75.84,82.098886 75.84,81.824499 75.696,81.6 75.52,81.6 75.344,81.6 75.2,81.309731 75.2,80.95496 75.2,80.053763 74.454848,77.76 74.162086,77.76 74.028938,77.76 73.92,77.446224 73.92,77.06272 c 0,-0.904605 -0.689526,-2.865866 -1.195843,-3.401421 -0.323392,-0.342067 -0.543031,-0.271517 -1.2,0.385453 C 71.081869,74.48904 70.72,75.025456 70.72,75.238787 c 0,0.213335 -0.08952,0.298362 -0.198928,0.188951 C 70.411661,75.318326 69.77495,75.798326 69.10616,76.494406 68.43737,77.190483 67.654387,77.76 67.366202,77.76 c -0.288186,0 -0.434976,0.144 -0.326202,0.32 0.108774,0.176 0.03873,0.32 -0.155661,0.32 -0.194387,0 -0.706883,0.353456 -1.138883,0.785456 -0.73463,0.734627 -0.785456,1.003814 -0.785456,4.16 0,2.48369 -0.105597,3.375837 -0.4,3.379443 -0.266666,0.0033 -0.24,0.108301 0.08,0.315101 0.32,0.2068 0.346666,0.311834 0.08,0.315101 -0.22,0.0027 -0.4,0.292899 -0.4,0.644899 0,0.352 -0.152499,0.64 -0.338886,0.64 -0.186388,0 -0.249888,0.144 -0.141114,0.32 0.108774,0.176 -0.03523,0.32 -0.32,0.32 -0.284774,0 -0.435949,0.13239 -0.335946,0.294202 0.100007,0.161811 6.4e-4,0.489238 -0.221113,0.727619 -0.221616,0.238381 -0.449741,0.645987 -0.506941,0.905798 -0.0572,0.259808 -0.2372,0.520381 -0.4,0.579047 -0.1628,0.05867 -0.296,0.382668 -0.296,0.72 0,0.337334 -0.152499,0.613334 -0.338886,0.613334 -0.186388,0 -0.249888,0.144 -0.141114,0.32 0.108774,0.176 -0.06273,0.322205 -0.381114,0.324899 -0.490819,0.0042 -0.505862,0.05209 -0.09889,0.315101 0.32,0.2068 0.346666,0.311834 0.08,0.315101 -0.22,0.0027 -0.4,0.292899 -0.4,0.644899 0,0.352 -0.144,0.64 -0.32,0.64 -0.63112,0 -0.305114,0.598355 0.4,0.734166 1.455642,0.280368 2.125366,0.214756 2.594285,-0.254166 z M 82.550643,95.053658 C 82.863498,94.619146 83.380755,94.4 84.093501,94.4 c 1.119581,0 2.496521,-0.949994 1.741648,-1.201616 -0.219527,-0.07318 -0.323488,-0.25545 -0.231027,-0.405053 0.09246,-0.149606 -0.190551,-0.630669 -0.628916,-1.069033 -0.533907,-0.533908 -0.667974,-0.849309 -0.406115,-0.955399 0.217565,-0.08814 0.136135,-0.169574 -0.183635,-0.183635 C 83.761965,90.557846 81.978675,88.96 82.571565,88.96 c 0.198361,0 -0.227091,-0.56471 -0.945453,-1.254912 C 80.90775,87.014886 80.32,86.222886 80.32,85.945088 c 0,-0.381658 -0.332352,-0.503891 -1.36,-0.500189 -0.995987,0.0036 -1.231523,0.08793 -0.88,0.315101 0.351776,0.227334 0.09533,0.320029 -0.96,0.346998 -1.200528,0.03069 -1.30696,0.0794 -0.64,0.293002 0.757974,0.242746 0.745366,0.257882 -0.24,0.288102 C 75.668,86.705645 75.2,86.864 75.2,87.04 c 0,0.176 -0.468,0.330122 -1.04,0.342493 -0.87153,0.01885 -0.936326,0.06704 -0.4,0.297507 0.54727,0.235168 0.558861,0.278275 0.08,0.297507 -0.631162,0.02534 -0.780912,0.968541 -0.16,1.007757 0.32,0.02022 0.32,0.05754 0,0.186666 -0.22,0.08877 -0.4,0.5179 -0.4,0.953622 0,0.446659 -0.139581,0.705952 -0.32,0.594448 -0.176,-0.108774 -0.32,-0.04527 -0.32,0.141114 0,0.186387 0.18,0.341091 0.4,0.343785 0.266666,0.0033 0.24,0.108301 -0.08,0.315101 -0.391123,0.252765 -0.351622,0.311107 0.213334,0.315101 0.381332,0.0026 0.741332,0.147657 0.8,0.322141 0.05867,0.174483 0.502666,0.349891 0.986666,0.389795 0.484,0.0399 0.88,0.185145 0.88,0.322758 0,0.137613 0.288,0.250205 0.64,0.250205 0.362173,0 0.64,0.213334 0.64,0.491434 0,0.270291 0.324,0.822531 0.72,1.2272 1.017658,1.039939 4.018077,1.176896 4.710643,0.215024 z m 6.759747,-4.846192 c 0.509943,-0.545895 0.84722,-1.121895 0.749504,-1.28 C 89.962179,88.76936 90.034742,88.64 90.221114,88.64 c 0.186387,0 0.341091,-0.324 0.343785,-0.72 0.004,-0.582221 0.06426,-0.628147 0.315101,-0.24 0.235392,0.364243 0.311382,0.22919 0.315101,-0.56 0.0026,-0.572 0.148899,-1.04 0.324899,-1.04 0.176,0 0.32,-0.288 0.32,-0.64 0,-0.352 0.1728,-0.64 0.384,-0.64 0.298666,0 0.298666,-0.08533 0,-0.384 -0.2112,-0.2112 -0.384,-0.6432 -0.384,-0.96 0,-0.3168 -0.144,-0.576 -0.32,-0.576 -0.176,0 -0.32,-0.296499 -0.32,-0.658886 0,-0.362388 -0.144,-0.569888 -0.32,-0.461114 -0.176,0.108774 -0.32,0.03873 -0.32,-0.155661 0,-0.480208 -1.483536,-1.934134 -1.726061,-1.691613 C 88.727274,80.019395 88.64,79.866666 88.64,79.573334 88.64,79.28 88.496,79.04 88.32,79.04 c -0.176,0 -0.317795,0.468 -0.315101,1.04 0.0037,0.78919 0.07971,0.924243 0.315101,0.56 0.224061,-0.346707 0.311562,-0.05267 0.315101,1.058886 C 88.637981,82.644413 88.516614,83.161514 88.32,83.04 88.144,82.931226 88,82.994726 88,83.181114 88,83.367501 87.424,83.52 86.72,83.52 h -1.28 l 0.0225,1.36 c 0.01741,1.053293 0.08451,1.215667 0.297507,0.72 0.217072,-0.505155 0.280787,-0.37031 0.30241,0.64 0.02032,0.949389 0.107513,1.156019 0.33759,0.8 0.250839,-0.388147 0.311136,-0.342221 0.315101,0.24 0.0026,0.396 0.148899,0.72 0.324899,0.72 0.176,0 0.322205,0.468 0.324899,1.04 0.0037,0.78919 0.07971,0.924243 0.315101,0.56 0.235392,-0.364243 0.311383,-0.22919 0.315101,0.56 0.0026,0.572 0.09113,1.04 0.196512,1.04 0.105386,0 0.608838,-0.44664 1.118778,-0.992534 z M 64.53193,83.76 c -0.08877,-0.22 -0.161405,-0.04 -0.161405,0.4 0,0.44 0.07263,0.62 0.161405,0.4 0.08877,-0.22 0.08877,-0.58 0,-0.8 z m 0.0067,-2.54 c -0.102151,-0.255274 -0.177978,-0.17945 -0.193332,0.193334 -0.01389,0.337332 0.06173,0.526333 0.168071,0.42 0.106333,-0.106336 0.117699,-0.382336 0.02525,-0.613334 z M 82.36055,79.211347 C 82.338778,78.197424 82.188752,77.276086 82.027088,77.163926 81.517949,76.810698 80.89753,74.323117 80.380022,70.56 c -0.1607,-1.168557 -0.371036,-1.625354 -0.780032,-1.694029 -0.486662,-0.08171 -0.555824,0.169728 -0.528102,1.92 0.02365,1.493536 0.09811,1.807283 0.288102,1.214029 0.160336,-0.500646 0.280077,0.816502 0.32,3.52 0.03992,2.703498 0.159664,4.020646 0.32,3.52 0.255911,-0.799078 0.25624,-0.798938 0.288103,0.122464 0.03288,0.950758 1.155613,2.227648 1.769478,2.012432 0.196231,-0.0688 0.325562,-0.907085 0.302935,-1.963549 z M 80.370525,73.92 c 0,-0.44 0.07263,-0.62 0.161405,-0.4 0.08877,0.22 0.08877,0.58 0,0.8 -0.08877,0.22 -0.161405,0.04 -0.161405,-0.4 z m 12.971232,1.04609 C 93.260624,74.654739 93.188906,74.832 93.182384,75.36 c -0.0065,0.528 0.05986,0.782739 0.147517,0.56609 0.08765,-0.21665 0.09299,-0.64865 0.01187,-0.96 z M 65.057846,65.194781 c -0.07814,-0.134871 -0.279686,-0.16017 -0.447884,-0.05622 -0.168202,0.103952 -0.26625,0.0487 -0.217892,-0.12278 0.04836,-0.171482 -0.04172,-0.362186 -0.200182,-0.423786 -0.158461,-0.0616 -0.338896,0.220768 -0.400966,0.627482 -0.06705,0.43935 0.01834,0.658403 0.210374,0.539718 0.177773,-0.109872 0.419389,0.05083 0.536922,0.35712 0.196524,0.512138 0.231696,0.507338 0.437696,-0.05971 0.123203,-0.339133 0.16007,-0.726954 0.08193,-0.861824 z M 38.96,60.4 c -0.044,-0.22 0.11992,-0.35736 0.364262,-0.305245 0.339597,0.07243 0.400605,-0.174285 0.258957,-1.047171 -0.111101,-0.684624 -0.06377,-1.06681 0.118189,-0.954352 0.351818,0.217434 1.258592,-0.59616 1.258592,-1.129261 0,-0.198957 0.144,-0.272745 0.32,-0.163971 0.176,0.108774 0.32,0.04527 0.32,-0.141114 0,-0.186387 0.612,-0.353241 1.36,-0.370784 C 44.115334,56.260998 44.19961,56.217648 43.52,56 42.762026,55.757254 42.774634,55.742118 43.76,55.711898 44.332,55.694355 44.8,55.536 44.8,55.36 c 0,-0.176 0.612,-0.330122 1.36,-0.342493 1.053293,-0.01741 1.215667,-0.08451 0.72,-0.297507 -0.603379,-0.25928 -0.597494,-0.276304 0.102858,-0.297507 0.408569,-0.01238 0.960179,-0.239818 1.225798,-0.505434 0.265616,-0.265619 0.615331,-0.40112 0.777142,-0.301113 C 49.14761,53.715949 49.28,53.645274 49.28,53.458886 49.28,53.272499 49.04489,53.12 48.757536,53.12 c -0.287357,0 -0.791357,-0.310032 -1.12,-0.688963 C 47.30889,52.052106 47.04,51.914653 47.04,52.125581 c 0,0.210931 -0.369299,0.01421 -0.820662,-0.437152 -0.451364,-0.451363 -0.943063,-0.745011 -1.092669,-0.652551 -0.149603,0.09246 -0.320304,0.03386 -0.379338,-0.130224 -0.05903,-0.164083 -0.485619,-0.392147 -0.947974,-0.506806 -0.651159,-0.161482 -1.031213,-0.01789 -1.686115,0.637002 -0.465012,0.465011 -0.762224,0.980176 -0.660474,1.144812 0.101754,0.164637 0.05853,0.299338 -0.09604,0.299338 -0.154573,0 -0.477101,0.72 -0.716733,1.6 -0.239632,0.88 -0.522256,1.6 -0.628051,1.6 -0.105799,0 -0.225008,0.396 -0.264912,0.88 -0.0399,0.484 -0.215312,0.928 -0.389795,0.986666 -0.174484,0.05867 -0.319447,0.562668 -0.322141,1.12 C 39.031357,59.438621 38.95631,59.565661 38.72,59.2 38.484608,58.835757 38.408618,58.97081 38.404899,59.76 38.402339,60.332 38.544,60.8 38.72,60.8 c 0.176,0 0.284,-0.18 0.24,-0.4 z m 12,-11.97193 c -0.22,-0.08877 -0.58,-0.08877 -0.8,0 -0.22,0.08877 -0.04,0.161405 0.4,0.161405 0.44,0 0.62,-0.07263 0.4,-0.161405 z M 84.378595,46.02 c -0.10215,-0.255274 -0.177977,-0.17945 -0.193331,0.193334 -0.01389,0.337332 0.06174,0.526333 0.16807,0.42 0.106333,-0.106336 0.1177,-0.382336 0.02525,-0.613334 z m -1.92,-6.08 c -0.10215,-0.255274 -0.177977,-0.17945 -0.193331,0.193334 -0.01389,0.337332 0.06174,0.526333 0.16807,0.42 0.106333,-0.106336 0.1177,-0.382336 0.02525,-0.613334 z M 55.2,32.32 54.56,32.044982 55.2,31.997228 c 0.37551,-0.02802 0.469254,-0.11627 0.226842,-0.213544 -0.296106,-0.11882 -0.21424,-0.338311 0.288963,-0.774737 0.479616,-0.415969 0.559843,-0.616953 0.253158,-0.63421 -0.327977,-0.01845 -0.340633,-0.06894 -0.04697,-0.187332 0.221097,-0.08914 0.327772,-0.282159 0.237059,-0.428938 -0.09071,-0.146779 0.06267,-0.494479 0.340864,-0.772669 0.378333,-0.378334 0.399235,-0.507033 0.08294,-0.510698 -0.257527,-0.003 -0.297744,-0.09682 -0.102858,-0.24 0.176,-0.129305 0.362314,-0.4871 0.414029,-0.7951 0.06951,-0.413984 -0.123149,-0.56 -0.738887,-0.56 -0.473788,0 -0.747641,0.137973 -0.635142,0.32 0.108774,0.176 0.03873,0.32 -0.155661,0.32 -0.194387,0 -0.697741,0.344311 -1.118566,0.765136 -0.892199,0.892199 -1.007952,3.053941 -0.165773,3.09592 0.320998,0.016 0.267997,0.115028 -0.16,0.298944 -0.57128,0.245487 -0.57784,0.277432 -0.06111,0.297509 C 54.177274,31.98988 54.348774,32.144 54.24,32.32 c -0.114918,0.185939 0.178806,0.310576 0.701114,0.297507 C 55.731776,32.597731 55.762947,32.561907 55.2,32.32 Z m -2.96,-0.85193 c -0.22,-0.08877 -0.58,-0.08877 -0.8,0 -0.22,0.08877 -0.04,0.161404 0.4,0.161404 0.44,0 0.62,-0.07263 0.4,-0.161404 z m -3.2,-0.64 c -0.22,-0.08877 -0.58,-0.08877 -0.8,0 -0.22,0.08877 -0.04,0.161404 0.4,0.161404 0.44,0 0.62,-0.07263 0.4,-0.161404 z M 53.618566,12.510042 C 53.520003,12.350564 53.151507,12.295359 52.79968,12.387364 51.919184,12.617619 51.99839,12.8 52.978886,12.8 c 0.450388,0 0.738244,-0.130481 0.63968,-0.289958 z M 112.08716,92.48 c 0,-0.792 0.0624,-1.116 0.13867,-0.72 0.0763,0.396 0.0763,1.044 0,1.44 -0.0763,0.396 -0.13867,0.072 -0.13867,-0.72 z m -0.64646,-4.64 c 0.004,-0.704 0.0691,-0.95432 0.14562,-0.556269 0.0765,0.398051 0.0736,0.974051 -0.006,1.28 -0.0801,0.305949 -0.14272,-0.01974 -0.13917,-0.723731 z m -0.65832,-5.44 c 0.007,-0.528 0.0782,-0.705261 0.15938,-0.39391 0.0811,0.31135 0.0758,0.74335 -0.0119,0.96 -0.0876,0.216649 -0.15403,-0.03809 -0.14751,-0.56609 z m -9.95712,-7.706666 c 0.0154,-0.372784 0.0912,-0.448608 0.19334,-0.193334 0.0924,0.230998 0.0811,0.506998 -0.0252,0.613334 -0.10634,0.106333 -0.18197,-0.08267 -0.16807,-0.42 z m 0,-1.28 c 0.0154,-0.372784 0.0912,-0.448608 0.19334,-0.193334 0.0924,0.230998 0.0811,0.506998 -0.0252,0.613334 -0.10634,0.106333 -0.18197,-0.08267 -0.16807,-0.42 z M 73.650525,32.64 c 0,-0.44 0.07263,-0.62 0.161405,-0.4 0.08877,0.22 0.08877,0.58 0,0.8 -0.08877,0.22 -0.161405,0.04 -0.161405,-0.4 z M 59.12,12.90807 c 0.22,-0.08877 0.58,-0.08877 0.8,0 0.22,0.08877 0.04,0.161404 -0.4,0.161404 -0.44,0 -0.62,-0.07263 -0.4,-0.161404 z"
       id="path835"
       inkscape:connector-curvature="0" />
  </g>
</svg>
