<svg width="161" height="161" viewBox="0 0 161 161" fill="none" xmlns="http://www.w3.org/2000/svg">
<path d="M12.88 76.5931C14.1895 76.7004 14.9408 75.6056 15.0455 74.3122L15.1635 72.8552L11.3747 72.5466C11.3076 73.145 11.2485 73.6548 11.2136 74.0734C11.0661 75.8954 11.8764 76.5126 12.88 76.5931ZM137.722 59.3607C138.608 61.7435 141.127 62.6988 143.491 61.8213C145.855 60.9439 147.127 58.5396 146.244 56.1568C145.362 53.774 142.839 52.8214 140.475 53.6989C138.111 54.5763 136.85 56.9806 137.722 59.3607ZM60.5628 140.102C60.2623 141.138 60.909 141.994 62.6102 142.488L65.1567 143.226L66.1334 139.858L63.4313 139.072C61.9582 138.642 60.8956 138.962 60.5628 140.102ZM59.7578 145.469C59.4761 146.435 60.0745 147.256 61.4618 147.658L63.6916 148.305L64.6388 145.042L62.5673 144.438C61.18 144.047 60.0798 144.32 59.7444 145.48L59.7578 145.469ZM94.4695 17.9971L93.2512 12.6117L90.1788 17.1948C90.8979 17.3048 91.617 17.4256 92.3254 17.5597C93.0338 17.6939 93.7557 17.8388 94.4695 17.9971ZM16.9775 88.5017L12.3165 91.4695L17.6832 92.8111C17.5436 92.0956 17.4157 91.38 17.2994 90.6645C17.1733 89.948 17.0687 89.2235 16.9775 88.5017ZM61.7167 22.5803C64.1317 21.7967 65.205 19.3173 64.4 16.9211C63.595 14.5249 61.2739 13.1644 58.8562 13.9372C56.4385 14.71 55.3679 17.1975 56.1729 19.5964C56.9779 21.9953 59.3017 23.3665 61.7167 22.5803ZM48.241 134.851C47.5755 135.986 48.0478 137.092 49.5129 137.953L51.1819 138.935L53.3286 135.296L51.6273 134.295C50.1998 133.453 48.9842 133.606 48.2517 134.851H48.241ZM145.839 87.694C143.392 87.262 141.044 88.6869 140.601 91.1824C140.159 93.6779 141.852 95.7816 144.334 96.2217C146.816 96.6617 149.132 95.2288 149.572 92.7333C150.012 90.2378 148.324 88.1314 145.839 87.694ZM78.187 56.8169H91.2709C90.9382 54.3026 89.9749 51.7964 88.4158 49.91C85.4159 46.1855 81.1708 45.5657 78.3802 45.5657H70.9125V113.116H78.187V87.906H87.6806V113.089H95.9077V101.355C95.9077 85.754 90.9167 77.2371 78.0931 77.2371V73.467H78.1762C82.9767 73.467 86.3765 71.0654 88.4427 68.4787C90.7933 65.6263 91.287 62.9376 91.3943 60.5387H78.1923L78.187 56.8169ZM80.5 0C36.0399 0 0 36.0399 0 80.5C0 124.96 36.0399 161 80.5 161C124.96 161 161 124.96 161 80.5C161 36.0399 124.96 0 80.5 0ZM151.531 70.1719L146.196 70.671H146.167C146.344 71.8784 146.494 73.086 146.607 74.3096C146.719 75.5331 146.8 76.7433 146.848 77.9642H146.88L152.175 77.4678L152.282 79.7138L139.646 80.8998L139.59 78.6458L144.806 78.1575H144.857C144.811 76.9392 144.731 75.7156 144.618 74.5028C144.506 73.2899 144.35 72.0717 144.173 70.8668H144.122L138.903 71.3552L138.543 69.1307L151.171 67.9474L151.531 70.1719ZM148.192 55.4726C149.561 59.1568 147.723 62.7632 144.312 64.0297C140.902 65.2962 137.142 63.7292 135.774 60.045C134.405 56.3607 136.244 52.7543 139.654 51.4878C143.065 50.2213 146.824 51.7883 148.192 55.4726ZM138.728 38.5112L134.282 41.4307L134.993 42.504L141.82 43.2768L143.196 45.5093L135.433 44.4065L134.092 48.563C133.633 50.0254 133.635 51.029 134.338 51.6381L132.704 52.7114C131.188 51.4315 131.363 49.5692 132.066 47.6426L133.383 43.851L132.538 42.5604L128.116 45.461L126.796 43.6391L137.368 36.6973L138.728 38.5112ZM117.844 30.9496L120.087 31.2582C119.937 31.9771 119.98 32.723 120.211 33.4201C120.442 34.1172 120.854 34.7405 121.405 35.2268C123.031 36.7053 125.29 36.6704 126.954 35.4441C126.009 34.4755 125.033 33.5283 124.032 32.6213C123.629 32.2537 123.227 31.8887 122.805 31.5319L124.112 30.0211C124.534 30.3861 124.96 30.7644 125.376 31.1401C126.374 32.0497 127.351 32.9916 128.296 33.9603C129.369 32.1839 129.17 29.9863 127.552 28.5158C127.027 28.0289 126.386 27.684 125.69 27.5136C124.994 27.3431 124.267 27.3528 123.576 27.5417L123.079 25.2985C124.114 25.0851 125.185 25.1249 126.201 25.4146C127.217 25.7043 128.149 26.2352 128.915 26.9621C131.824 29.6052 131.851 33.7054 129.431 36.3699C127.01 39.0345 122.953 39.4235 120.039 36.7805C119.221 36.0646 118.592 35.1579 118.209 34.1406C117.825 33.1234 117.699 32.0273 117.841 30.9496H117.844ZM107.779 20.9864C108.006 20.5327 108.363 20.1568 108.805 19.9063C109.246 19.6559 109.752 19.5422 110.258 19.5796C110.764 19.617 111.248 19.8039 111.648 20.1165C112.048 20.4292 112.346 20.8535 112.504 21.3357C112.662 21.8179 112.674 22.3363 112.537 22.8251C112.401 23.3139 112.122 23.7511 111.737 24.0813C111.351 24.4115 110.876 24.6198 110.372 24.6798C109.868 24.7398 109.358 24.6488 108.906 24.4183C108.302 24.112 107.844 23.5789 107.632 22.9357C107.42 22.2924 107.472 21.5915 107.776 20.9864H107.779ZM106.239 102.772V117.262H60.6219V41.7983H76.6011C76.7514 41.7983 76.8695 41.7983 76.9875 41.7983H80.8596C88.5124 41.7983 91.7136 43.1399 95.3496 45.9387C100.62 50.071 101.451 56.0683 101.451 59.0709C101.451 62.7954 100.314 66.7264 97.5204 69.9304C96.0607 71.6799 93.8335 73.9849 90.1761 75.4902C101.768 79.5957 106.239 88.9096 106.239 102.772ZM92.7575 9.78343L94.8049 10.1672L97.9739 24.0373L95.5991 23.3611L94.9202 20.1572C93.9408 19.9237 92.948 19.7118 91.9686 19.5266C90.9892 19.3415 89.9856 19.1805 88.9901 19.0409L87.1654 21.7833L84.7746 21.5606L92.7575 9.78343ZM69.9492 20.286C70.1912 20.34 70.4398 20.3581 70.6871 20.3397C71.9804 20.2431 73.1208 19.3307 72.5412 11.694L72.501 11.1841L72.3507 9.1931L72.67 9.15553L77.5 8.78792C78.7075 8.73693 79.915 8.71547 81.1252 8.72352L81.2782 10.7226L82.0832 21.2708L79.8426 21.4425L79.0376 10.736C77.7764 10.7655 76.5126 10.8273 75.2594 10.9239L74.6154 10.9775L74.7121 12.1904C75.3292 20.3021 73.9768 22.0355 71.4625 22.2261C70.9397 22.2539 70.4154 22.227 69.8981 22.1455L69.9492 20.286ZM58.282 11.9677C62.0199 10.7548 65.5485 12.7405 66.6728 16.1993C67.7971 19.6581 66.0744 23.3504 62.3365 24.5659C58.5987 25.7815 55.0728 23.7931 53.9484 20.3343C52.8241 16.8755 54.5388 13.1752 58.274 11.9596L58.282 11.9677ZM40.4432 20.981L43.2017 25.5105L44.3126 24.8316L45.3054 18.0374L47.5809 16.7333L46.2392 24.4559L50.3501 25.9264C51.7964 26.4362 52.7999 26.463 53.4305 25.7788L54.4502 27.4478C53.1246 28.9237 51.2651 28.6875 49.3519 27.9228L45.5952 26.4845L44.2777 27.2895L47.0335 31.8002L45.1712 33.0614L38.5917 22.2717L40.4432 20.981ZM22.3978 38.4227L30.531 45.3993C31.4916 44.0362 32.5041 42.7151 33.5685 41.436L25.4917 34.4594C25.9711 33.8851 26.4612 33.3181 26.9621 32.7581L35.0363 39.7348C36.1633 38.4826 37.3422 37.2733 38.5729 36.1069L30.4397 29.1303C30.9764 28.6061 31.5193 28.0927 32.0685 27.59L40.2044 34.615L41.7956 35.9916C37.5559 39.677 33.8631 43.948 30.8288 48.6757L29.2483 47.3072L21.1017 40.25C21.5239 39.64 21.9532 39.0318 22.3897 38.4253L22.3978 38.4227ZM17.4068 55.2176C17.5957 54.7473 17.9198 54.3435 18.3382 54.0574C18.7566 53.7713 19.2505 53.6157 19.7573 53.6102C20.2641 53.6048 20.7612 53.7498 21.1856 54.0269C21.6101 54.304 21.9428 54.7007 22.1417 55.1669C22.3406 55.6331 22.3969 56.1478 22.3033 56.646C22.2097 57.1441 21.9704 57.6033 21.6158 57.9655C21.2612 58.3276 20.8071 58.5765 20.3111 58.6806C19.815 58.7847 19.2992 58.7394 18.8289 58.5503C18.1982 58.2978 17.6933 57.8054 17.4252 57.1811C17.157 56.5568 17.1475 55.8516 17.3987 55.2203L17.4068 55.2176ZM9.06162 74.0278C9.09114 73.6656 9.39167 70.8642 9.51511 70.1558L22.1697 71.1701L21.8558 73.4348L17.2672 73.0216L17.1384 74.5886L20.1438 77.1083C21.6357 78.3668 21.9175 79.8748 21.4291 80.9159L19.4917 80.9535C19.7601 80.2585 19.3468 79.2442 18.7458 78.7183L16.5186 76.7943C16.0678 77.822 14.863 79.1342 12.6761 78.9571C10.4891 78.78 8.77181 77.5108 9.05356 74.0305L9.06162 74.0278ZM9.50168 90.8281L21.4667 83.1619L21.6357 85.6225L18.8477 87.3452C18.9604 88.3461 19.0973 89.3523 19.2583 90.3452C19.4193 91.338 19.6018 92.3308 19.8084 93.3156L23.0042 94.1206L23.6026 96.4444L9.81564 92.8997L9.50168 90.8281ZM20.235 119.567C19.8307 118.939 19.4345 118.305 19.0463 117.664L28.65 112.901C27.768 111.484 26.946 110.036 26.184 108.557L16.6045 113.266C16.2646 112.601 15.9336 111.928 15.6116 111.248L25.1938 106.539C24.4783 105.011 23.8253 103.454 23.235 101.867L13.6233 106.625C13.3532 105.929 13.0929 105.23 12.8424 104.527L22.5024 99.7798L24.3808 98.8513C26.1197 104.193 28.6107 109.26 31.7787 113.899L29.9004 114.825L20.235 119.567ZM27.5552 129.337C26.8209 128.577 26.2812 127.651 25.9822 126.637C25.6831 125.624 25.6336 124.553 25.8378 123.517L28.0838 123.991C27.9019 124.684 27.8994 125.412 28.0764 126.107C28.2533 126.801 28.604 127.439 29.0954 127.96C30.8208 129.822 33.5148 129.747 35.3663 128.033C37.2178 126.318 37.4754 123.613 35.75 121.751C35.2575 121.207 34.6296 120.802 33.9301 120.579C33.2307 120.356 32.4847 120.323 31.768 120.482L31.4379 118.241C32.5148 118.089 33.6126 118.205 34.6336 118.58C35.6546 118.954 36.5672 119.575 37.2903 120.388C39.9602 123.272 39.6355 127.305 36.9683 129.779C34.3011 132.253 30.2251 132.229 27.5552 129.337ZM37.1722 138.007L44.5326 127.542L46.3546 128.824L38.9969 139.289L37.1722 138.007ZM49.7839 145.71L47.8626 144.578L50.1971 140.609L48.4503 139.582C45.9762 138.125 45.029 135.914 46.3385 133.694C47.6479 131.475 50.0656 131.033 52.6175 132.533L56.2722 134.679L49.7839 145.71ZM65.2667 150.758L60.587 149.569C59.1809 149.161 58.2122 148.375 57.7131 147.468C57.5182 147.119 57.3977 146.734 57.3594 146.336C57.3211 145.938 57.3657 145.537 57.4904 145.158C57.9171 143.684 58.9904 143.14 60.0396 142.93C58.7435 142.021 57.9842 140.905 58.4779 139.203C59.1138 137.008 61.2632 136.356 64.0029 137.153L68.8114 138.551L65.2667 150.758ZM80.5268 148.598C80.02 148.598 79.5246 148.447 79.1031 148.166C78.6817 147.884 78.3533 147.484 78.1593 147.016C77.9654 146.547 77.9146 146.032 78.0135 145.535C78.1124 145.038 78.3564 144.581 78.7148 144.223C79.0732 143.865 79.5298 143.621 80.0269 143.522C80.524 143.423 81.0392 143.474 81.5075 143.668C81.9757 143.861 82.376 144.19 82.6575 144.611C82.9391 145.033 83.0894 145.528 83.0894 146.035C83.0912 146.372 83.0263 146.707 82.8984 147.019C82.7706 147.331 82.5823 147.615 82.3444 147.854C82.1065 148.093 81.8237 148.283 81.5122 148.412C81.2008 148.542 80.8668 148.608 80.5295 148.608L80.5268 148.598ZM105.766 147.658L102.941 138.865L99.1062 149.8L96.9837 150.336L93.1117 138.253L95.2583 137.717L98.1107 146.593L101.967 135.559L103.936 134.754L107.827 146.859L105.766 147.658ZM120.954 139.786L118.155 135.264L117.05 135.948L116.1 142.753L113.83 144.071L115.139 136.343L111.018 134.894C109.569 134.395 108.565 134.357 107.937 135.06L106.909 133.397C108.227 131.915 110.086 132.141 111.992 132.895L115.748 134.312L117.06 133.507L114.278 129.009L116.132 127.737L122.792 138.492L120.954 139.786ZM135.667 126.401L128.862 120.154L130.947 131.564L129.369 133.085L120.009 124.499L121.619 122.969L128.486 129.275L126.385 117.761L127.7 116.089L137.065 124.689L135.667 126.401ZM146.298 109.212C146.298 109.212 137.634 108.267 136.201 107.942L136.174 107.996C137.247 108.938 143.231 115.421 143.231 115.421L141.621 118.171L129.771 113.204L131.027 111.171L135.836 113.253C137.357 113.913 139.179 114.699 140.741 115.493L140.768 115.44C139.563 114.35 133.112 107.29 133.112 107.29L133.952 105.589C133.952 105.589 143.293 106.711 144.887 107.095L144.905 107.057C143.43 106.252 141.64 105.286 140.113 104.422L135.621 101.865L136.426 99.6966L147.527 106.217L146.298 109.212ZM151.608 93.1278C150.927 96.9971 147.516 99.1787 143.934 98.5481C140.352 97.9175 137.899 94.6626 138.583 90.7933C139.268 86.9239 142.676 84.7397 146.258 85.3729C149.84 86.0062 152.282 89.2584 151.608 93.1278Z" fill="#0F2D69"/>
</svg>
