<svg width="256" height="60" viewBox="0 0 256 60" fill="none" xmlns="http://www.w3.org/2000/svg">
<path d="M29.0598 59.6439C29.6665 59.6277 30.6335 59.6278 31.2087 59.644C31.7838 59.6602 31.2875 59.6734 30.1057 59.6733C28.9239 59.6733 28.4532 59.66 29.0598 59.6438V59.6439ZM27.4897 59.4685C24.4898 59.1614 21.6717 58.4935 19.1051 57.4814C10.9062 54.248 4.54269 47.5905 1.74082 39.3145C-1.30013 30.333 0.17312 20.4356 5.69763 12.7337C9.9109 6.85974 16.1997 2.64377 23.1909 1.00857C25.7081 0.419486 27.3919 0.234122 30.1994 0.237067C32.6057 0.239587 33.913 0.36192 36.0385 0.783499C40.2272 1.61425 44.4029 3.44056 47.7645 5.91207C48.6468 6.56072 48.6697 6.58668 48.4997 6.74567C48.1699 7.05395 43.2849 10.5766 43.1884 10.5757C43.1355 10.5752 42.7835 10.3761 42.406 10.1334C41.3563 9.45828 39.0319 8.37922 37.6209 7.91199C33.0247 6.39003 28.1978 6.28966 23.5583 7.61946C15.868 9.82374 9.70028 16.0246 7.58229 23.6817C5.92817 29.6613 6.72 36.042 9.77054 41.3143C12.1604 45.4451 15.5799 48.6327 19.8289 50.6903C21.5227 51.5105 22.6723 51.937 24.3 52.3491C26.4697 52.8985 27.3833 53 30.1525 52.9997C32.8427 52.9994 33.5992 52.9179 35.742 52.3973C41.4135 51.0194 46.3226 47.5875 49.6523 42.6722C52.0488 39.1345 53.4998 34.5244 53.5127 30.4073L53.5159 29.3882L56.5724 27.1558C58.2535 25.928 59.6398 24.9318 59.653 24.9419C59.6662 24.9521 59.7497 25.4358 59.8386 26.0168C59.9649 26.843 60.0001 27.689 60 29.8974C59.9998 32.917 59.9265 33.708 59.4302 36.044C57.9381 43.0666 53.8317 49.3793 47.9041 53.7645C44.7498 56.0978 40.9304 57.8503 36.9732 58.7802C34.6685 59.3217 33.4468 59.4546 30.5267 59.4817C29.0623 59.4952 27.6959 59.4891 27.4904 59.4681L27.4897 59.4685ZM24.4433 33.8432L18.8844 30.3866L18.8357 22.2825L19.0469 22.4179C19.7704 22.8818 29.4154 28.8584 29.7125 29.027C29.9126 29.1405 30.1439 29.2087 30.2263 29.1783C30.3088 29.148 35.6703 25.2566 42.141 20.5309C51.7201 13.5348 53.9306 11.959 54.0389 12.0482C54.4497 12.386 56.6691 15.9771 57.1399 17.0655L57.3211 17.4845L43.7555 27.3939C36.2943 32.8442 30.1479 37.3023 30.0965 37.3014C30.0451 37.3002 27.5016 35.7439 24.4442 33.8427L24.4433 33.8432ZM0 29.8979C0 29.3631 0.0154406 29.1444 0.0343138 29.4117C0.0531869 29.6791 0.053186 30.1166 0.0343138 30.384C0.0154416 30.6513 0 30.4326 0 29.8979ZM29.7013 0.0142034C29.9469 -0.00493389 30.3253 -0.00470241 30.5422 0.0147163C30.759 0.034135 30.558 0.0497926 30.0956 0.0495111C29.6331 0.0492287 29.4557 0.0333406 29.7013 0.0142034Z" fill="white"/>
<path d="M96.84 41.12C96.4933 41.5467 96.0133 41.96 95.4 42.36C94.7867 42.76 94.0533 43.12 93.2 43.44C92.3733 43.76 91.44 44.0133 90.4 44.2C89.3867 44.3867 88.28 44.48 87.08 44.48C84.76 44.48 82.6267 44.16 80.68 43.52C78.76 42.8533 77.1067 41.9067 75.72 40.68C74.3333 39.4267 73.2533 37.9067 72.48 36.12C71.7067 34.3333 71.32 32.28 71.32 29.96C71.32 27.8 71.6933 25.84 72.44 24.08C73.2133 22.2933 74.2933 20.7733 75.68 19.52C77.0933 18.24 78.76 17.2533 80.68 16.56C82.6267 15.8667 84.7867 15.52 87.16 15.52C89.2933 15.52 91.1333 15.7467 92.68 16.2C94.2267 16.6533 95.48 17.16 96.44 17.72V26C95.9867 25.4133 95.4533 24.8533 94.84 24.32C94.2267 23.7867 93.52 23.32 92.72 22.92C91.9467 22.4933 91.0933 22.16 90.16 21.92C89.2267 21.6533 88.2267 21.52 87.16 21.52C85.8 21.52 84.5733 21.7333 83.48 22.16C82.3867 22.56 81.4533 23.1333 80.68 23.88C79.9333 24.6 79.3467 25.48 78.92 26.52C78.52 27.56 78.32 28.72 78.32 30C78.32 31.1733 78.5067 32.28 78.88 33.32C79.2533 34.3333 79.8 35.2267 80.52 36C81.2667 36.7467 82.1867 37.3467 83.28 37.8C84.4 38.2533 85.6933 38.48 87.16 38.48C89.5067 38.48 91.4933 38.08 93.12 37.28C94.7467 36.4533 95.9867 35.36 96.84 34V41.12ZM101.801 16H122.361V22H108.201V25.6H113.641C121.188 25.6 124.961 28.5867 124.961 34.56C124.961 36.1067 124.668 37.4667 124.081 38.64C123.495 39.8133 122.681 40.8 121.641 41.6C120.628 42.4 119.415 43 118.001 43.4C116.588 43.8 115.055 44 113.401 44H101.801V16ZM108.201 31.6V38H113.481C114.148 38 114.775 37.96 115.361 37.88C115.948 37.7733 116.468 37.6 116.921 37.36C117.375 37.0933 117.735 36.7467 118.001 36.32C118.268 35.8667 118.401 35.2933 118.401 34.6C118.401 33.96 118.281 33.4533 118.041 33.08C117.801 32.68 117.468 32.3733 117.041 32.16C116.615 31.9467 116.108 31.8 115.521 31.72C114.935 31.64 114.295 31.6 113.601 31.6H108.201ZM148.209 32.6H136.409V38H150.129V44H130.009V16H149.689V22H136.409V26.6H148.209V32.6ZM162.273 36.16V44H155.873V16H165.393C167.846 16 169.913 16.2133 171.593 16.64C173.3 17.0667 174.673 17.7067 175.713 18.56C176.78 19.3867 177.54 20.4133 177.993 21.64C178.473 22.8667 178.713 24.2667 178.713 25.84C178.713 29.3333 177.593 31.9333 175.353 33.64C173.113 35.32 169.793 36.16 165.393 36.16H162.273ZM162.273 22V30.16H166.193C168.22 30.16 169.713 29.8133 170.673 29.12C171.633 28.4267 172.113 27.3467 172.113 25.88C172.113 24.5467 171.673 23.5733 170.793 22.96C169.94 22.32 168.513 22 166.513 22H162.273Z" fill="white"/>
</svg>
