<svg width="132" height="37" fill="none" version="1.1" viewBox="0 0 132 37" xmlns="http://www.w3.org/2000/svg">
	<path d="m32.099 7.4453c.8447 1.115 1.5487 2.3379 2.147 3.6327l-16.261 12.265-6.8281-4.388v-5.2512l6.7929 4.352 14.149-10.61z" fill="white"/>
	<path d="m4.2236 18.595c0-.2517 0-.4675.0352-.7193l-4.118-.2158c0 .2877-.035196.6114-.035196.8992 0 5.0355 2.0062 9.6033 5.2442 12.912l2.9213-2.9853c-2.4989-2.5178-4.0476-6.0066-4.0476-9.8911z" fill="white"/>
	<path d="m17.95 4.5679c.2463 0 .4575 0 .7039.03597l.2112-4.2082c-.2816 0-.5984-.035967-.8799-.035967-4.9275 0-9.3975 2.0502-12.636 5.3592l2.9213 2.9853c2.4638-2.5537 5.913-4.1363 9.679-4.1363z" fill="white"/>
	<path d="m17.95 32.623c-.2464 0-.4576 0-.704-.036l-.2111 4.2083c.2815 0 .5983.0358.8799.0358 4.9274 0 9.3974-2.05 12.635-5.3591l-2.9213-2.9853c-2.4637 2.5896-5.8777 4.1363-9.6789 4.1363z" fill="white"/>
	<path d="m25.693 7.0137 3.4844-2.6256c-3.062-2.5177-6.9688-4.0643-11.228-4.0643v4.2082c2.8861.03598 5.5612.93516 7.7432 2.4818z" fill="white"/>
	<path d="m35.83 18.595c0-1.115-.1057-2.194-.2817-3.273l-3.8363 2.9134v.3596c0 4.1363-1.76 7.8411-4.5404 10.395l2.7804 3.1292c3.59-3.309 5.878-8.1645 5.878-13.524z" fill="white"/>
	<path d="m17.95 32.623c-4.0476 0-7.6728-1.7984-10.172-4.6399l-3.0621 2.8415c3.2733 3.7046 7.9896 6.0065 13.234 6.0065v-4.2081z" fill="white"/>
	<path d="m8.7639 8.2006-2.7805-3.1292c-3.6252 3.345-5.8778 8.1647-5.8778 13.524h4.118c0-4.1003 1.7598-7.8409 4.5403-10.395z" fill="white"/>
	<path class="cls-2" d="m53.517 15.861c-2.5868-.64148-4.8215-1.1893-4.8215-3.0791 0-2.5287 2.9756-2.802 4.2549-2.802 1.7736 0 2.7818.25659 4.1028.88268l3.5656-2.7481c-1.9281-1.283-4.8228-2.2888-7.6377-2.2888-6.708 0-9.0985 3.7321-9.0985 7.2243 0 5.0292 4.1813 6.0774 7.8695 7.0011 2.5917.64918 4.8289 1.2098 4.8289 3.1266 0 .98275-.56053 2.6326-4.3174 2.6326-2.4936 0-5.2239-.91475-7.163-2.3953l-1.6301 3.9002c1.9747 1.6217 5.4005 2.648 8.7612 2.648 5.5648 0 9.1611-2.8225 9.1611-7.1846 0-4.9753-4.185-6.0068-7.8756-6.9177z" style="fill:#ffffff"/>
	<path class="cls-2" d="m81.771 17.533-.23059-.079544.21342-.1283c1.8398-1.0418 2.8468-2.8469 2.8468-5.0844 0-3.7655-3.0516-6.0132-8.1626-6.0132h-10.565v23.337h11.193c5.5648 0 8.63-2.2426 8.63-6.316-.0036-2.7712-1.4326-4.8547-3.9249-5.7156zm-11.083-7.4142h5.1282c3.2332 0 3.9114 1.5588 3.9114 2.852 0 1.877-1.3492 2.852-3.9114 2.852h-5.1282zm0 5.704h5.1282m.87453 9.857h-6.0027v-5.9722h6.0027c2.7401 0 4.1298.99301 4.1298 2.9854 0 1.9924-1.3541 2.9867-4.1322 2.9867z" style="fill:#ffffff"/>
	<polygon class="cls-2" transform="matrix(.12265 0 0 .1283 -4.9688 -2.1622)" points="814.93 170.46 898.75 170.46 898.75 140.18 814.93 140.18 814.93 95.72 872.11 95.72 913.19 65.44 775.69 65.44 775.69 247.3 913.19 247.3 913.19 217.02 814.93 217.02" style="fill:#ffffff;stroke-width:7.9717"/>
	<path class="cls-2" d="m130.54 29.564-4.8988-7.5797c2.8897-1.3189 4.5566-3.9182 4.5566-7.4014 0-5.1498-3.6404-8.3495-9.4996-8.3495h-9.1819v23.331h4.813v-6.6085h4.369.40721l4.2757 6.6149zm-14.211-19.446h4.2659c3.0835 0 4.7835 1.5896 4.7835 4.4762 0 2.8867-1.6988 4.4762-4.7835 4.4762h-4.2659z" style="fill:#ffffff"/>
</svg>
