<svg width="132" height="37" viewBox="0 0 132 37" fill="none" xmlns="http://www.w3.org/2000/svg">
<path d="M104.181 11.258L109.038 7.58936H92.7776V29.5656H109.038V25.8969H97.4236V20.2859H107.349V16.6172H97.4236V11.258H104.181Z" fill="#21A038"/>
<path d="M80.4941 16.1496H74.8628V11.258H83.8731L88.7301 7.58936H70.2168V29.5656H79.8958C85.3161 29.5656 88.4485 27.0478 88.4485 22.6598C88.4485 18.4515 85.6328 16.1496 80.4941 16.1496ZM79.7198 25.8969H74.8628V19.8183H79.7198C82.6764 19.8183 84.0491 20.8254 84.0491 22.8756C84.0491 24.9258 82.5708 25.8969 79.7198 25.8969Z" fill="#21A038"/>
<path d="M122.202 7.58936H113.368V29.5656H118.013V23.3431H122.237C127.868 23.3431 131.388 20.3219 131.388 15.4663C131.388 10.6106 127.868 7.58936 122.202 7.58936ZM122.096 19.6744H117.978V11.258H122.096C125.088 11.258 126.707 12.7687 126.707 15.4663C126.707 18.1638 125.088 19.6744 122.096 19.6744Z" fill="#21A038"/>
<path d="M62.2623 24.8174C61.0306 25.5008 59.6579 25.8605 58.25 25.8605C54.0616 25.8605 51.0347 22.8033 51.0347 18.5951C51.0347 14.3869 54.0616 11.3296 58.25 11.3296C59.7634 11.2937 61.2417 11.7972 62.4736 12.6964L65.8173 10.1787L65.606 9.96286C63.6703 8.20045 61.0657 7.30127 58.1093 7.30127C54.9063 7.30127 51.985 8.41626 49.8733 10.4304C47.7614 12.5166 46.5647 15.4299 46.6353 18.4512C46.6 21.5085 47.7614 24.4579 49.8733 26.6157C52.0906 28.738 55.047 29.9248 58.074 29.853C61.4177 29.853 64.339 28.666 66.31 26.5079L63.3183 24.242L62.2623 24.8174Z" fill="#21A038"/>
<path d="M32.099 7.44531C32.9437 8.56032 33.6477 9.78322 34.246 11.078L17.9853 23.3429L11.1572 18.9549V13.7037L17.9501 18.0557L32.099 7.44531Z" fill="#21A038"/>
<path d="M4.22345 18.5953C4.22345 18.3436 4.22345 18.1277 4.25864 17.876L0.140665 17.6602C0.140665 17.9479 0.105469 18.2716 0.105469 18.5594C0.105469 23.5949 2.11166 28.1627 5.34972 31.4717L8.27102 28.4864C5.77208 25.9686 4.22345 22.4798 4.22345 18.5953Z" fill="url(#paint0_linear_171_248)"/>
<path d="M17.9502 4.56807C18.1965 4.56807 18.4077 4.56807 18.6541 4.60404L18.8653 0.39583C18.5837 0.39583 18.2669 0.359863 17.9854 0.359863C13.0579 0.359863 8.58792 2.41002 5.34985 5.71903L8.27115 8.70434C10.7349 6.15064 14.1841 4.56807 17.9502 4.56807Z" fill="url(#paint1_linear_171_248)"/>
<path d="M17.9503 32.6226C17.7039 32.6226 17.4927 32.6226 17.2463 32.5866L17.0352 36.7949C17.3167 36.7949 17.6335 36.8307 17.9151 36.8307C22.8425 36.8307 27.3124 34.7807 30.5505 31.4717L27.6291 28.4863C25.1655 31.0759 21.7515 32.6226 17.9503 32.6226Z" fill="url(#paint2_linear_171_248)"/>
<path d="M25.6934 7.01371L29.1778 4.38807C26.1157 1.87034 22.209 0.32373 17.9502 0.32373V4.53193C20.8363 4.5679 23.5113 5.46708 25.6934 7.01371Z" fill="url(#paint3_linear_171_248)"/>
<path d="M35.83 18.5953C35.83 17.4803 35.7243 16.4013 35.5483 15.3223L31.712 18.2356C31.712 18.3436 31.712 18.4874 31.712 18.5953C31.712 22.7316 29.952 26.4363 27.1716 28.9899L29.952 32.1191C33.542 28.8101 35.83 23.9546 35.83 18.5953Z" fill="#21A038"/>
<path d="M17.9501 32.6228C13.9026 32.6228 10.2773 30.8244 7.7784 27.9829L4.71631 30.8244C7.98957 34.5289 12.7059 36.8309 17.9501 36.8309V32.6228Z" fill="url(#paint4_linear_171_248)"/>
<path d="M8.76378 8.20049L5.98327 5.07129C2.35804 8.41627 0.105469 13.2359 0.105469 18.5951H4.22345C4.22345 14.4948 5.98327 10.7542 8.76378 8.20049Z" fill="url(#paint5_linear_171_248)"/>
<defs>
<linearGradient id="paint0_linear_171_248" x1="4.9103" y1="30.9597" x2="0.598857" y2="18.5767" gradientUnits="userSpaceOnUse">
<stop offset="0.1444" stop-color="#F2E913"/>
<stop offset="0.3037" stop-color="#E7E518"/>
<stop offset="0.5823" stop-color="#CADB26"/>
<stop offset="0.891" stop-color="#A3CD39"/>
</linearGradient>
<linearGradient id="paint1_linear_171_248" x1="6.52368" y1="5.24417" x2="17.2363" y2="1.18785" gradientUnits="userSpaceOnUse">
<stop offset="0.0592" stop-color="#0FA8E0"/>
<stop offset="0.5385" stop-color="#0099F9"/>
<stop offset="0.9234" stop-color="#0291EB"/>
</linearGradient>
<linearGradient id="paint2_linear_171_248" x1="16.7934" y1="33.2519" x2="29.5363" y2="30.3904" gradientUnits="userSpaceOnUse">
<stop offset="0.1226" stop-color="#A3CD39"/>
<stop offset="0.2846" stop-color="#86C339"/>
<stop offset="0.8693" stop-color="#21A038"/>
</linearGradient>
<linearGradient id="paint3_linear_171_248" x1="17.1041" y1="3.00405" x2="27.7104" y2="6.2557" gradientUnits="userSpaceOnUse">
<stop offset="0.0566" stop-color="#0291EB"/>
<stop offset="0.79" stop-color="#0C8ACB"/>
</linearGradient>
<linearGradient id="paint4_linear_171_248" x1="5.76336" y1="31.4911" x2="17.1671" y2="35.7248" gradientUnits="userSpaceOnUse">
<stop offset="0.1324" stop-color="#F2E913"/>
<stop offset="0.2977" stop-color="#EBE716"/>
<stop offset="0.5306" stop-color="#D9E01F"/>
<stop offset="0.8023" stop-color="#BBD62D"/>
<stop offset="0.9829" stop-color="#A3CD39"/>
</linearGradient>
<linearGradient id="paint5_linear_171_248" x1="3.26075" y1="19.1034" x2="7.91896" y2="7.06303" gradientUnits="userSpaceOnUse">
<stop offset="0.0698" stop-color="#A3CD39"/>
<stop offset="0.2599" stop-color="#81C55F"/>
<stop offset="0.9216" stop-color="#0FA8E0"/>
</linearGradient>
</defs>
</svg>
