<svg width="131" height="135" viewBox="0 0 131 135" fill="none" xmlns="http://www.w3.org/2000/svg">
<path d="M63.4473 134.933C64.7719 134.897 66.8832 134.897 68.1389 134.934C69.3947 134.97 68.311 135 65.7307 135C63.1504 135 62.1229 134.97 63.4473 134.933V134.933ZM60.0192 134.536C53.4693 133.842 47.3164 132.331 41.7129 130.041C23.8118 122.726 9.91821 107.665 3.80079 88.9419C-2.83861 68.6228 0.377978 46.2319 12.4398 28.8076C21.6388 15.5189 35.3694 5.98104 50.6334 2.2817C56.1293 0.949009 59.8056 0.529659 65.9353 0.53632C71.189 0.542021 74.0434 0.818778 78.6842 1.77252C87.8295 3.65194 96.9462 7.78365 104.286 13.375C106.212 14.8424 106.262 14.9012 105.891 15.2609C105.171 15.9583 94.5053 23.9277 94.2948 23.9256C94.1793 23.9244 93.4105 23.4741 92.5865 22.925C90.2945 21.3976 85.2197 18.9564 82.1389 17.8994C72.1038 14.4563 61.5653 14.2292 51.4356 17.2376C34.6452 22.2244 21.1789 36.2526 16.5547 53.5754C12.9432 67.1032 14.672 81.5384 21.3323 93.466C26.5502 102.811 34.0161 110.023 43.293 114.678C46.9912 116.533 49.5012 117.498 53.055 118.43C57.7923 119.673 59.7868 119.903 65.833 119.902C71.7067 119.902 73.3583 119.717 78.0366 118.539C90.4196 115.422 101.138 107.658 108.407 96.5381C113.64 88.5346 116.808 78.1052 116.836 68.7909L116.843 66.4854L123.516 61.4351C127.187 58.6575 130.214 56.4037 130.242 56.4265C130.271 56.4495 130.453 57.5438 130.648 58.8583C130.923 60.7273 131 62.6413 131 67.6375C131 74.4687 130.84 76.2583 129.756 81.5429C126.498 97.4302 117.533 111.712 104.591 121.632C97.7036 126.911 89.3646 130.876 80.7248 132.979C75.693 134.204 73.0255 134.505 66.65 134.566C63.4526 134.597 60.4694 134.583 60.0206 134.536L60.0192 134.536ZM53.3678 76.564L41.2309 68.744L41.1245 50.4101L41.5857 50.7164C43.1653 51.7658 64.2236 65.2869 64.8722 65.6682C65.3093 65.9251 65.8141 66.0793 65.9941 66.0107C66.1741 65.9421 77.8801 57.1385 92.0079 46.4475C112.922 30.6199 117.748 27.055 117.985 27.2568C118.882 28.0211 123.728 36.1453 124.755 38.6076L125.151 39.5555L95.5328 61.9736C79.2426 74.304 65.8229 84.3896 65.7107 84.3875C65.5985 84.385 60.0451 80.8639 53.3698 76.563L53.3678 76.564ZM0 67.6384C0 66.4287 0.0337121 65.9338 0.0749184 66.5387C0.116125 67.1435 0.116123 68.1333 0.0749184 68.7382C0.0337141 69.343 0 68.8482 0 67.6384ZM64.8479 0.0321325C65.3842 -0.011162 66.2103 -0.0106383 66.6837 0.033293C67.1571 0.0772243 66.7183 0.112647 65.7086 0.11201C64.6989 0.111371 64.3116 0.075427 64.8479 0.0321325Z" fill="white" fill-opacity="0.5"/>
</svg>
