<svg width="132" height="37" viewBox="0 0 132 37" fill="none" xmlns="http://www.w3.org/2000/svg">
<path d="M104.181 11.2579L109.038 7.58917H92.7776V29.5654H109.038V25.8967H97.4236V20.2857H107.349V16.617H97.4236V11.2579H104.181Z" fill="white"/>
<path d="M80.494 16.1494H74.8627V11.2579H83.873L88.73 7.58917H70.2167V29.5654H79.8957C85.316 29.5654 88.4484 27.0476 88.4484 22.6596C88.4484 18.4514 85.6327 16.1494 80.494 16.1494ZM79.7197 25.8967H74.8627V19.8182H79.7197C82.6763 19.8182 84.049 20.8252 84.049 22.8754C84.049 24.9256 82.5707 25.8967 79.7197 25.8967Z" fill="white"/>
<path d="M122.202 7.58917H113.368V29.5654H118.013V23.3429H122.237C127.868 23.3429 131.388 20.3217 131.388 15.4661C131.388 10.6104 127.868 7.58917 122.202 7.58917ZM122.096 19.6743H117.978V11.2579H122.096C125.088 11.2579 126.707 12.7685 126.707 15.4661C126.707 18.1636 125.088 19.6743 122.096 19.6743Z" fill="white"/>
<path d="M62.2624 24.8175C61.0306 25.501 59.658 25.8607 58.25 25.8607C54.0617 25.8607 51.0347 22.8034 51.0347 18.5952C51.0347 14.387 54.0617 11.3298 58.25 11.3298C59.7634 11.2938 61.2417 11.7974 62.4736 12.6966L65.8173 10.1788L65.606 9.96301C63.6703 8.2006 61.0657 7.30142 58.1093 7.30142C54.9063 7.30142 51.985 8.41641 49.8733 10.4306C47.7614 12.5167 46.5647 15.4301 46.6353 18.4514C46.6 21.5086 47.7614 24.458 49.8733 26.6159C52.0907 28.7382 55.047 29.9249 58.074 29.8531C61.4177 29.8531 64.339 28.6661 66.31 26.5081L63.3183 24.2422L62.2624 24.8175Z" fill="white"/>
<path d="M32.099 7.44528C32.9437 8.56029 33.6477 9.78319 34.246 11.078L17.9853 23.3429L11.1572 18.9549V13.7037L17.9501 18.0557L32.099 7.44528Z" fill="white"/>
<path d="M4.22357 18.5952C4.22357 18.3435 4.22357 18.1277 4.25877 17.8759L0.140787 17.6601C0.140787 17.9478 0.105591 18.2715 0.105591 18.5593C0.105591 23.5948 2.11178 28.1626 5.34984 31.4716L8.27114 28.4863C5.7722 25.9685 4.22357 22.4797 4.22357 18.5952Z" fill="white"/>
<path d="M17.9502 4.56789C18.1965 4.56789 18.4077 4.56789 18.6541 4.60386L18.8653 0.395647C18.5837 0.395647 18.2669 0.35968 17.9854 0.35968C13.0579 0.35968 8.58792 2.40983 5.34985 5.71884L8.27115 8.70416C10.7349 6.15046 14.1841 4.56789 17.9502 4.56789Z" fill="white"/>
<path d="M17.9502 32.6226C17.7038 32.6226 17.4926 32.6226 17.2462 32.5866L17.0351 36.7949C17.3166 36.7949 17.6334 36.8307 17.915 36.8307C22.8424 36.8307 27.3124 34.7807 30.5504 31.4716L27.6291 28.4863C25.1654 31.0759 21.7514 32.6226 17.9502 32.6226Z" fill="white"/>
<path d="M25.6933 7.01369L29.1777 4.38805C26.1157 1.87032 22.2089 0.323713 17.9501 0.323713V4.53191C20.8362 4.56789 23.5113 5.46707 25.6933 7.01369Z" fill="white"/>
<path d="M35.83 18.5952C35.83 17.4802 35.7243 16.4012 35.5483 15.3222L31.712 18.2356C31.712 18.3435 31.712 18.4873 31.712 18.5952C31.712 22.7315 29.952 26.4363 27.1716 28.9898L29.952 32.119C33.542 28.81 35.83 23.9545 35.83 18.5952Z" fill="white"/>
<path d="M17.9502 32.6226C13.9026 32.6226 10.2774 30.8242 7.77842 27.9827L4.71632 30.8242C7.98959 34.5288 12.7059 36.8307 17.9502 36.8307V32.6226Z" fill="white"/>
<path d="M8.7639 8.20062L5.9834 5.07142C2.35817 8.41641 0.105591 13.2361 0.105591 18.5952H4.22357C4.22357 14.4949 5.9834 10.7543 8.7639 8.20062Z" fill="white"/>
</svg>

