<?xml version="1.0" encoding="UTF-8" standalone="no"?>
<!-- Created with Inkscape (http://www.inkscape.org/) -->

<svg
   xmlns:dc="http://purl.org/dc/elements/1.1/"
   xmlns:cc="http://creativecommons.org/ns#"
   xmlns:rdf="http://www.w3.org/1999/02/22-rdf-syntax-ns#"
   xmlns:svg="http://www.w3.org/2000/svg"
   xmlns="http://www.w3.org/2000/svg"
   xmlns:sodipodi="http://sodipodi.sourceforge.net/DTD/sodipodi-0.dtd"
   xmlns:inkscape="http://www.inkscape.org/namespaces/inkscape"
   version="1.1"
   id="svg1949"
   width="693.33331"
   height="426.66666"
   viewBox="0 0 693.33331 426.66666"
   sodipodi:docname="Oceanology.svg"
   inkscape:version="0.92.3 (2405546, 2018-03-11)">
  <metadata
     id="metadata1955">
    <rdf:RDF>
      <cc:Work
         rdf:about="">
        <dc:format>image/svg+xml</dc:format>
        <dc:type
           rdf:resource="http://purl.org/dc/dcmitype/StillImage" />
        <dc:title></dc:title>
      </cc:Work>
    </rdf:RDF>
  </metadata>
  <defs
     id="defs1953" />
  <sodipodi:namedview
     pagecolor="#ffffff"
     bordercolor="#666666"
     borderopacity="1"
     objecttolerance="10"
     gridtolerance="10"
     guidetolerance="10"
     inkscape:pageopacity="0"
     inkscape:pageshadow="2"
     inkscape:window-width="1920"
     inkscape:window-height="1017"
     id="namedview1951"
     showgrid="false"
     inkscape:zoom="0.78"
     inkscape:cx="400.17185"
     inkscape:cy="213.33333"
     inkscape:window-x="-9"
     inkscape:window-y="-9"
     inkscape:window-maximized="1"
     inkscape:current-layer="svg1949" />
  <g
     id="g2502">
    <path
       style="display:inline;fill:#0469e7;stroke-width:1"
       d="M 195.99999,413.26846 C 148.36044,407.33335 105.29913,386.64265 72.66157,354.00509 45.754628,327.09815 25.46277,289.92462 18.024314,253.91276 10.804691,218.96032 12.804121,184.34034 23.995801,150.51696 59.448195,43.37307 176.12145,-14.104285 284.85902,22.006538 c 16.22785,5.389131 34.55256,14.351937 49.34706,24.136176 5.98003,3.95484 11.28728,7.190618 11.79391,7.190618 0.50663,0 5.81388,-3.235778 11.7939,-7.190618 70.75543,-46.79356256 161.81363,-46.58411835 231.48682,0.532447 74.43117,50.334143 106.73809,143.151599 79.24892,227.681359 -5.19505,15.9749 -19.56831,43.72176 -29.51476,56.97681 -25.48308,33.95977 -60.93798,59.36586 -101.27499,72.57114 -23.43031,7.67046 -38.34196,9.94859 -65.07323,9.94159 -17.85993,-0.005 -25.77767,-0.62033 -37.33693,-2.90319 -28.02948,-5.53556 -54.44711,-16.22642 -76.42871,-30.92968 -6.58892,-4.40725 -12.37795,-8.0132 -12.8645,-8.0132 -0.48655,0 -6.39381,3.64327 -13.12725,8.09616 -22.70154,15.01275 -48.17434,25.34891 -75.44687,30.61427 -16.34861,3.15633 -46.56546,4.41395 -61.4624,2.55804 z m 42.34039,-2.61475 c 34.84137,-3.67058 68.12106,-15.57449 94.99294,-33.97832 6.23334,-4.26904 11.93334,-7.76189 12.66667,-7.76189 0.73333,0 6.43333,3.49285 12.66666,7.76189 79.54143,54.47578 190.0715,43.98031 258.55268,-24.55106 28.90011,-28.92131 46.25231,-60.96128 54.94739,-101.45767 4.29742,-20.01476 4.33499,-57.16778 0.0777,-76.91788 C 667.38343,151.1975 656.8905,125.08967 645.60419,107.46421 638.73449,96.73601 625.41505,80.514027 615.78595,71.148031 575.00938,31.485592 522.83362,11.590165 465.33328,13.778085 c -39.75601,1.512739 -73.9956,12.51216 -106.382,34.17506 -6.61659,4.42577 -12.44469,8.046854 -12.95133,8.046854 -0.50664,0 -6.33475,-3.621084 -12.95133,-8.046854 C 311.42118,33.486763 285.89852,22.763152 259.58454,17.086421 241.14118,13.107626 198.69437,12.757981 181.33333,16.441846 138.66296,25.496137 106.16647,42.330295 76.848524,70.568132 54.341488,92.245981 37.282967,118.79529 26.829886,148.41545 19.058747,170.43598 16.843823,184.49254 16.810729,212 c -0.03196,26.56226 2.069865,40.67858 9.330642,62.66666 19.239965,58.26512 68.866624,107.17163 128.525289,126.6602 27.25212,8.90239 56.62484,12.17648 83.67372,9.32685 z m -37.00705,-4.82982 C 112.79546,397.45593 40.626187,332.23062 24.494367,246 21.186485,228.31812 21.172181,196.28413 24.464598,179.33333 32.424579,138.35188 49.468305,106.19239 78.539057,77.301245 107.96608,48.056029 138.92777,31.325942 179.99999,22.47703 c 18.542,-3.994829 56.8894,-4.354012 75.12801,-0.703689 31.16607,6.237653 59.7965,19.314772 88.70379,40.515991 1.86439,1.367382 3.93545,0.391035 13.16429,-6.205954 22.0982,-15.796293 52.55781,-28.871562 79.87589,-34.28798 16.87896,-3.346633 53.77965,-3.334709 71.79468,0.0232 40.53738,7.555959 75.16878,25.896915 104.71602,55.458109 26.51174,26.524243 42.57413,54.416283 51.17279,88.860573 18.32409,73.40224 -8.16548,150.1682 -68.09124,197.32627 -68.01448,53.52343 -162.97207,57.11246 -234.18594,8.8513 -7.28919,-4.93984 -13.95413,-9.4967 -14.811,-10.12636 -1.0044,-0.73808 -5.56853,1.75597 -12.84594,7.01964 -21.7378,15.72268 -53.13383,28.89954 -81.22315,34.08924 -11.45429,2.11626 -41.1558,3.55757 -52.06486,2.52652 z m 246.91872,-21.50368 c 0.50531,-4.57155 1.24871,-8.84578 1.65199,-9.49831 0.94497,-1.529 -1.50156,-3.40935 -6.71237,-5.15893 -4.87239,-1.63598 -6.12272,-1.02412 -8.86914,4.34017 -1.12724,2.20173 -3.31096,5.14472 -4.8527,6.53999 -1.54175,1.39525 -2.80318,3.94384 -2.80318,5.66352 0,3.40221 1.28342,3.9766 3.63374,1.62628 2.37646,-2.37647 11.19009,-0.18663 12.01986,2.98645 0.40127,1.53444 1.5976,2.46893 2.85212,2.22789 1.59123,-0.30572 2.40316,-2.60654 3.07968,-8.72706 z m -10.54896,-1.81711 c -2.11973,-2.11973 0.68466,-7.83644 3.84426,-7.83644 2.72597,0 3.17469,2.82615 1.0724,6.75432 -1.57752,2.94763 -2.78532,3.21345 -4.91666,1.08212 z m 32.96356,8.25212 c 0,-0.68463 -1.64487,-1.43463 -3.65527,-1.66667 -5.31784,-0.61378 -5.54212,-4.51574 -0.3196,-5.56025 4.73104,-0.94621 4.16718,-3.52831 -0.77049,-3.52831 -4.48979,0 -4.21964,-3.70864 0.3092,-4.24477 1.96012,-0.23204 3.82192,-1.20729 4.13733,-2.16723 0.43131,-1.31261 -1.03077,-1.64318 -5.89717,-1.33333 l -6.47067,0.412 -0.40536,7.85071 c -0.22294,4.31788 -0.0917,8.66788 0.29148,9.66666 0.79444,2.07027 12.78055,2.60596 12.78055,0.57119 z m 15.78817,-2.32936 c 1.16514,-2.08197 1.42432,-2.07052 3.65644,0.16161 2.31435,2.31434 2.49507,2.28802 4.92912,-0.71792 2.3054,-2.84705 2.63906,-2.9196 3.8094,-0.82828 2.35194,4.20266 3.81687,2.3656 3.81687,-4.78644 0,-7.38673 -2.47495,-12.68808 -5.15127,-11.03402 -0.85569,0.52884 -2.49224,3.1705 -3.63677,5.87036 l -2.08097,4.90882 -2.64014,-5.08338 c -3.63504,-6.99904 -7.01184,-6.26179 -7.57857,1.6546 -0.72428,10.11704 1.83469,15.28897 4.87589,9.85465 z M 226.85229,386.7613 c 2.5254,-2.06352 2.8182,-2.90705 1.48104,-4.26667 -1.2963,-1.31805 -2.02223,-1.33908 -3.26667,-0.0947 -2.3342,2.3342 -4.77993,1.96046 -6.34831,-0.97008 -2.1985,-4.10794 -0.3109,-6.9474 4.3163,-6.49288 5.07941,0.49894 6.31528,-2.37914 1.88784,-4.39642 -2.52855,-1.15208 -4.16786,-1.07716 -7.10474,0.32474 -3.27926,1.56533 -3.87437,2.69682 -4.21912,8.02193 -0.33622,5.19368 0.0905,6.54404 2.63002,8.32279 3.99401,2.79752 6.79557,2.67917 10.62364,-0.44878 z m -31.47387,-5.99377 c 1.25505,-10.04516 -0.96628,-12.94854 -5.6878,-7.4342 -3.12399,3.64856 -5.69063,3.34788 -5.69063,-0.66667 0,-1.96895 -0.76438,-3.33333 -1.86748,-3.33333 -1.84948,0 -5.24272,14.15154 -3.91638,16.33333 1.21185,1.99347 5.72382,0.93688 7.1172,-1.66667 1.78588,-3.33696 4,-3.45996 4,-0.22222 0,2.8615 1.11494,4.22222 3.45961,4.22222 1.0358,0 2.02895,-2.77818 2.58548,-7.23246 z m 324.04083,1.23246 c 2.32007,-5.55272 2.91112,-5.72476 4.58073,-1.33333 1.28551,3.38113 3.24392,4.30204 4.57358,2.15064 0.40201,-0.65049 0.0547,-4.55049 -0.77206,-8.66667 -1.19682,-5.95942 -2.02284,-7.48397 -4.05494,-7.48397 -1.63675,0 -3.05204,1.43452 -3.94636,4 -1.61595,4.63548 -3.2628,5.12705 -4.46688,1.33333 -0.46551,-1.46666 -1.78323,-2.66666 -2.9283,-2.66666 -1.72801,0 -1.93121,1.13605 -1.1954,6.6829 0.48759,3.6756 1.22908,7.5756 1.64776,8.66667 1.32836,3.46167 4.5438,2.147 6.56187,-2.68291 z M 257.094,381.55247 c 0.39662,-2.69636 0.63372,-2.76077 3.29668,-0.89557 1.57812,1.10537 3.33582,2.00976 3.90599,2.00976 2.03153,0 0.99087,-3.62813 -1.75289,-6.1112 -2.12302,-1.92131 -2.62092,-3.5636 -2.08383,-6.87332 0.53924,-3.32289 0.22424,-4.34881 -1.33528,-4.34881 -1.12255,0 -2.3548,1.2 -2.73835,2.66666 -0.80058,3.06144 -1.85252,3.33382 -4.11966,1.06667 -3.11612,-3.11612 -4.28811,0.66159 -2.27767,7.34176 1.05147,3.49377 2.28908,6.96281 2.75024,7.70899 1.32141,2.1381 3.88511,0.6281 4.35477,-2.56494 z m 161.57265,-8.88581 c 0,-12.15573 -1.6511,-12.86048 -10.28286,-4.38905 -7.07478,6.94336 -7.2268,8.7392 -0.72303,8.54113 3.97949,-0.1212 5.26271,0.45741 6.31617,2.84792 0.72714,1.65 2.07979,3 3.0059,3 1.20654,0 1.68382,-2.83453 1.68382,-10 z m -259.37743,-0.0456 c 3.00124,-10.32392 1.23783,-12.41012 -6.0834,-7.19695 l -3.87249,2.75747 v -4.0908 c 0,-6.86293 -3.58615,-4.9714 -6.18092,3.26016 -2.96033,9.39128 -1.27751,12.05503 4.78444,7.57323 5.09196,-3.76464 5.39648,-3.70394 5.39648,1.07582 0,6.82919 3.57849,4.79902 5.95589,-3.37893 z m 386.56811,2.60321 c 0.44513,-1.15997 0.80932,-3.25997 0.80932,-4.66666 0,-3.14056 2.09836,-3.33635 3.76869,-0.35163 0.74095,1.32401 2.09753,1.87483 3.39304,1.37769 1.92728,-0.73957 1.8278,-1.58284 -0.92872,-7.87245 -1.69797,-3.87428 -4.09684,-7.23859 -5.33081,-7.47624 -2.3009,-0.44311 -2.68294,0.19356 -4.2594,7.09835 l -0.91327,4 -2.0274,-3 c -2.28968,-3.38811 -5.70213,-4.00791 -5.70213,-1.03567 0,1.08039 1.31956,4.68039 2.93236,8 2.99484,6.16429 6.71997,7.93549 8.25832,3.92661 z m -248.82069,-2.63321 c 2.08663,-1.46153 2.96335,-3.43389 2.96335,-6.66667 0,-9.37308 -10.35431,-13.46556 -15.97859,-6.31544 -6.86514,8.72762 3.84188,19.40738 13.01524,12.98211 z m -8.44061,-4.66912 c -1.85987,-2.05511 -2.13909,-3.2914 -1.1114,-4.92064 2.19987,-3.48751 4.18587,-3.41036 6.58811,0.25592 1.80894,2.7608 1.92274,3.80831 0.58838,5.41612 -2.1858,2.63371 -3.10464,2.51988 -6.06509,-0.7514 z m 101.85892,-1.63915 c -0.34016,-5.05086 0.88038,-7.61613 3.62373,-7.61613 1.05672,0 1.92131,-0.975 1.92131,-2.16667 0,-1.69629 -0.86838,-1.99298 -4,-1.36666 -3.36428,0.67285 -4,0.38148 -4,-1.83334 0,-4.89849 -3.93554,-2.6719 -7.41547,4.19542 -2.47472,4.88362 -3.0508,7.23832 -2.02245,8.26666 1.02833,1.02834 1.89366,0.98218 3.03792,-0.16208 2.29797,-2.29797 3.73333,-1.9733 3.73333,0.84444 0,2.90935 1.11856,4.22223 3.59732,4.22223 1.22809,0 1.72359,-1.42499 1.52431,-4.38387 z m -197.78829,-0.94946 c 0.48207,-0.78 -0.90127,-1.33334 -3.33333,-1.33334 -2.43207,0 -3.8154,0.55334 -3.33334,1.33334 0.45323,0.73333 1.95323,1.33333 3.33334,1.33333 1.3801,0 2.8801,-0.6 3.33333,-1.33333 z m -68.84149,-4.45602 c 1.76875,-2.13121 0.67014,-3.54398 -2.75591,-3.54398 -3.2065,0 -4.34458,-3.03804 -2.45836,-6.56248 1.92774,-3.60202 4.55749,-3.51714 7.09933,0.22914 1.53989,2.26958 2.42116,2.62906 3.61948,1.47648 2.20841,-2.1241 -0.48697,-6.88873 -4.83142,-8.54049 -3.89372,-1.48039 -7.34432,-0.0343 -10.42991,4.371 -3.04263,4.34396 -2.52845,8.47091 1.44476,11.59624 4.08508,3.21332 6.24369,3.46629 8.31203,0.97409 z m 119.80521,-0.983 c 13.57492,-2.11561 30.5431,-7.57658 43.69846,-14.06373 20.54255,-10.12989 36.79275,-23.65649 55.56699,-46.25369 l 3.12093,-3.75643 9.6298,11.36822 c 32.85005,38.78023 80.30007,58.24413 131.44888,53.92001 56.10361,-4.743 106.90166,-41.94367 127.49198,-93.36552 9.81264,-24.50592 13.03144,-53.16823 8.80759,-78.42868 -2.29174,-13.7056 -7.904,-31.76684 -13.04502,-41.98116 -6.36672,-12.64957 -18.17889,-28.81594 -28.85648,-39.49353 -58.6589,-58.658903 -153.94228,-59.829866 -213.88146,-2.62845 -5.71336,5.4524 -12.51445,12.81038 -15.11356,16.35105 -2.59909,3.54068 -5.52342,6.4376 -6.4985,6.4376 -0.97508,0 -3.89941,-2.89692 -6.49851,-6.4376 -11.09141,-15.10951 -33.13109,-33.054719 -52.53814,-42.777729 -18.1859,-9.111209 -47.38571,-16.118005 -67.16944,-16.118005 -19.68516,0 -46.52816,5.782722 -64.16883,13.823734 -25.21398,11.4931 -49.7963,32.31793 -63.951437,54.17626 -9.261157,14.30106 -11.73843,19.24906 -16.734802,33.42534 -20.911109,59.3314 -0.855735,126.51974 49.346819,165.31883 33.8161,26.13482 76.80014,37.11396 119.34473,30.48348 z m -53.46309,-4.55968 C 171.1263,351.39931 151.75807,343.38398 135.03677,332.51945 123.7206,325.16685 100.2897,301.08882 93.011334,289.33333 70.258295,252.58426 64.740682,207.33436 78.128343,167.27801 102.96255,92.973193 183.44622,51.150863 259.93836,72.80271 c 31.31155,8.863038 63.12275,31.27395 80.26308,56.54515 2.45587,3.62086 5.06522,6.58338 5.79855,6.58338 0.73333,0 3.34268,-2.96252 5.79854,-6.58338 17.181,-25.33116 48.94279,-47.677535 80.44466,-56.59777 76.20935,-21.579844 156.84974,20.389173 181.62844,94.52792 13.36168,39.97861 7.88783,85.33661 -14.69465,121.76415 -7.4706,12.05074 -30.75491,36.03197 -42.21377,43.47729 -18.22793,11.84345 -39.71235,20.27985 -59.86872,23.50896 -15.30301,2.45158 -46.79227,1.05405 -61.0945,-2.71147 -33.0932,-8.71283 -65.79178,-30.85172 -83.22163,-56.34604 -2.87189,-4.20066 -5.92216,-7.63757 -6.77837,-7.63757 -0.85621,0 -3.90648,3.43691 -6.77837,7.63757 -17.41916,25.47867 -50.02335,47.56241 -83.22163,56.3684 -14.56857,3.86437 -51.38956,4.98039 -65.8327,1.99533 z m 25.53314,-25.82398 c 0.2258,-13.42237 -0.15606,-22.45308 -0.99201,-23.46033 -1.18343,-1.42595 -13.89992,-2.64463 -40.04176,-3.8374 L 169.99999,302 l 0.49322,16.95833 c 0.68868,23.67954 1.06818,25.05474 7.53608,27.30836 7.97105,2.77736 24.52569,5.58565 31.30404,5.31033 l 6,-0.24369 z m 36.74225,18.64536 c 5.74348,-1.37943 11.05698,-3.12235 11.80776,-3.87314 0.7946,-0.7946 1.4454,-9.91497 1.55731,-21.82397 L 265.99999,302 l -4,0.2192 c -2.2,0.12053 -12.1,0.65245 -22,1.18198 -9.9,0.52952 -18.75,1.55435 -19.66666,2.27739 -1.85942,1.46665 -2.47711,43.70088 -0.66667,45.58354 1.51181,1.57215 20.97864,-0.27268 32.77602,-3.1061 z m 220.59108,-18.64536 c 0.22558,-13.40993 -0.15636,-22.45344 -0.99078,-23.45885 -0.8712,-1.04972 -7.93222,-1.98798 -19.70045,-2.61775 -10.0884,-0.53988 -20.14254,-1.0834 -22.34254,-1.20783 l -4,-0.22622 -0.37147,12 c -0.20432,6.59999 0.0957,16.19773 0.66667,21.3283 l 1.03813,9.32831 5.29193,1.73292 c 8.81571,2.88682 24.93653,5.4429 32.70807,5.1861 l 7.33333,-0.2423 z m 34.59094,18.41482 c 5.65326,-1.44586 10.7998,-3.15 11.43679,-3.78698 1.66459,-1.66459 4.01567,-40.26132 2.54224,-41.73475 -0.71604,-0.71604 -5.72703,-0.63652 -12.36875,0.19628 C 503.09421,303.37001 493.8242,304 488.63496,304 c -5.56054,0 -10.09202,0.65704 -11.03498,1.6 -1.7952,1.7952 -2.34797,43.85306 -0.6,45.65053 1.50552,1.54816 18.99551,-0.3508 30.62472,-3.32506 z M 167.76937,321.33333 c -0.62334,-9.9 -1.38823,-18.69953 -1.6998,-19.55452 -0.31156,-0.85497 -4.05467,-2.25203 -8.31803,-3.10456 -9.59328,-1.91833 -24.089,-6.01129 -33.63442,-9.49688 -8.76655,-3.20119 -9.40127,-2.58517 -9.43004,9.15212 -0.0189,7.70089 0.34115,8.72971 4.77078,13.63277 11.16523,12.35859 44.67677,32.66821 47.93352,29.05007 1.08935,-1.21023 1.19488,-6.70459 0.37799,-19.679 z m 111.77877,17.33282 c 12.36442,-5.60629 29.12797,-17.11749 37.78518,-25.94634 7.16116,-7.30313 7.33334,-7.65764 7.33334,-15.09927 0,-12.81806 0.0655,-12.78274 -14.25604,-7.68456 -6.82584,2.42987 -18.24568,5.75882 -25.3774,7.39767 -7.13174,1.63884 -13.50312,3.65921 -14.15864,4.48971 -1.32948,1.68432 -3.05252,38.88759 -1.85646,40.08366 1.07992,1.07992 0.83338,1.1558 10.53002,-3.24087 z m 143.29655,-16.11661 c -0.26876,-10.56892 -1.0337,-19.8957 -1.69989,-20.72618 -0.66619,-0.8305 -7.04631,-2.85087 -14.17804,-4.48971 -7.13172,-1.63885 -18.48288,-4.94325 -25.22479,-7.34312 -6.74192,-2.39987 -12.59192,-4.02949 -13,-3.6214 -0.40809,0.40808 -0.74198,5.04687 -0.74198,10.30841 v 9.56644 l 8.39885,8.06499 c 4.61936,4.43573 12.69872,10.84656 17.95412,14.24625 10.83935,7.01195 25.65393,14.33155 27.64703,13.65988 0.83709,-0.28209 1.15148,-7.60125 0.8447,-19.66556 z m 122.79,10.04623 c 10.48064,-6.14254 22.1673,-15.16633 27.48376,-21.22143 3.77129,-4.29526 4.21272,-5.67258 4.19445,-13.08741 -0.0288,-11.69153 -0.66808,-12.30908 -9.43004,-9.10956 -9.54543,3.48559 -24.04114,7.57855 -33.63442,9.49688 -4.26336,0.85253 -8.00647,2.24959 -8.31803,3.10456 -1.31965,3.62135 -2.71929,37.66594 -1.60891,39.13461 1.42604,1.88616 8.83944,-1.00699 21.31319,-8.31765 z m -291.6347,-32.65481 c 13.97133,-1.68388 14.45919,-2.34566 13.56199,-18.39698 -0.38294,-6.85081 -0.98499,-12.74476 -1.3379,-13.09766 -0.3529,-0.35291 -11.0477,-0.74771 -23.76619,-0.87732 l -23.12456,-0.23567 -0.3769,15.81089 c -0.22302,9.35607 0.17754,16.47895 0.98118,17.44727 1.50984,1.81925 15.84134,1.54555 34.06238,-0.65053 z m 217.89057,0.85756 c 0.99245,-1.19584 1.41109,-6.1142 1.16326,-13.66667 l -0.38717,-11.79852 -6.65701,-0.41961 c -3.66136,-0.23078 -7.64139,-1.31046 -8.84452,-2.39927 -2.9332,-2.65452 -29.63129,-4.3296 -31.10113,-1.95133 -1.79619,2.90628 -2.50296,22.12533 -0.92227,25.07886 1.75869,3.28616 6.26699,4.21602 27.3004,5.63083 8.19016,0.55092 15.56773,1.08991 16.39461,1.19776 0.82687,0.10787 2.20109,-0.64457 3.05383,-1.67205 z M 112,292.91473 v -8.4186 l -8.90148,-4.94757 c -4.895815,-2.72118 -9.399855,-4.78146 -10.00898,-4.57842 -2.550259,0.8501 14.08848,26.25075 17.24379,26.32432 1.16146,0.0271 1.66667,-2.51301 1.66667,-8.37973 z M 215.33333,284 v -16.66667 h -22.66667 -22.66667 l -0.37642,14.13431 c -0.28998,10.8885 0.0552,14.49253 1.5031,15.69418 2.82502,2.34455 15.9218,3.91295 30.87332,3.69723 l 13.33334,-0.19239 z m 294.89675,15.88362 c 5.73268,-0.79734 10.8669,-2.14734 11.4094,-3 1.70992,-2.68757 1.18773,-20.44278 -0.6395,-21.74376 -0.91666,-0.65265 -11.26666,-0.87612 -23,-0.49658 l -21.33333,0.69005 -0.39084,11.22188 c -0.21496,6.17204 -0.0837,12.02204 0.29148,13 0.85931,2.23929 18.67447,2.41309 33.66279,0.32841 z m 78.61073,-6.25582 c 6.84325,-9.47782 11.53418,-18.16947 10.06962,-18.65766 -0.60912,-0.20304 -5.11316,1.85724 -10.00897,4.57842 l -8.90148,4.94757 v 8.4186 c 0,10.63883 1.58201,10.76643 8.84083,0.71307 z m -223.76824,-3.87046 c -0.39278,-6.01885 -0.66462,-6.38196 -8.40592,-11.22812 -4.4,-2.75446 -9.007,-5.05036 -10.23777,-5.102 -2.96696,-0.12453 -18.01012,8.89163 -18.95834,11.36267 -1.19339,3.10991 0.73424,14.02815 2.384,13.50315 0.81333,-0.25883 4.3484,-4.62026 7.85569,-9.69207 3.50731,-5.0718 6.89545,-9.74 7.52923,-10.37377 0.64754,-0.64755 3.63237,2.55477 6.81378,7.31024 3.11381,4.65441 6.89376,9.82694 8.39988,11.49452 2.343,2.59414 2.90355,2.7369 3.88191,0.98868 0.6289,-1.12382 0.96081,-4.8423 0.73754,-8.2633 z m -198.69388,-7.46426 c 0.28457,-10.77755 -0.0497,-14.50638 -1.34527,-15.00351 -0.94816,-0.36384 -9.21857,-1.10284 -18.37868,-1.64223 L 130,264.66666 l -3.46609,-9.93313 c -5.53631,-15.86601 -6.48105,-14.65609 -9.45753,12.11209 -1.56793,14.10075 -1.52492,14.86218 0.94146,16.66564 4.91608,3.59472 40.63397,13.96732 45.98215,13.35338 1.61294,-0.18515 2.0733,-3.00528 2.3787,-14.57156 z m 123.15007,11.21493 c 8.33064,-2.10393 19.34464,-5.56729 24.47559,-7.69636 9.04208,-3.752 9.34187,-4.02675 9.74835,-8.9344 C 324.47478,268.15886 323.97719,268 295.94784,268 c -18.84689,0 -25.2037,0.41316 -25.64282,1.66666 -0.64258,1.83428 0.25966,23.33767 1.0909,26 0.6973,2.2333 0.78307,2.2231 18.13284,-2.15865 z M 421.447,284.65329 c 0.44944,-6.90372 0.23887,-12.69337 -0.49659,-13.65329 -0.93984,-1.22668 -7.75326,-1.66667 -25.80893,-1.66667 h -24.532 l -1.47396,3.23501 c -2.84043,6.23404 -0.61751,9.48606 9.18648,13.43938 9.98955,4.02813 37.21461,11.40661 40.34465,10.93412 1.53812,-0.23219 2.18022,-3.07012 2.78035,-12.28855 z m 115.46581,10.76611 c 10.93444,-2.303 30.2763,-8.29707 35.60518,-11.0341 3.85126,-1.97808 3.85134,-1.97837 3.0184,-11.83182 -1.29853,-15.36171 -2.39745,-20.7209 -4.15914,-20.28316 -0.87731,0.218 -5.63747,5.04634 -10.57815,10.72968 l -8.98304,10.33333 h -11.13232 c -15.69418,0 -15.35042,-0.26695 -15.35042,11.92043 0,8.86698 0.56782,12.07957 2.13505,12.07957 0.19651,0 4.44651,-0.86127 9.44444,-1.91393 z M 114.2592,266.27422 c 0.89199,-7.16553 2.2287,-16.31128 2.97047,-20.3239 0.74178,-4.01263 1.0372,-8.1074 0.6565,-9.0995 -0.38071,-0.99209 -3.21084,-2.54418 -6.28918,-3.44908 -3.07835,-0.9049 -11.46704,-4.39044 -18.641541,-7.74562 -16.174553,-7.56412 -16.789886,-7.25551 -14.651072,7.34808 0.832032,5.68102 3.067496,15.23946 4.967698,21.24098 3.699559,11.68454 5.903379,14.20815 19.394585,22.2089 9.07352,5.3809 9.72693,4.80713 11.59254,-10.17986 z m 474.95697,10.18592 c 13.40121,-7.75496 15.79709,-10.48277 19.51173,-22.21496 1.9002,-6.00152 4.13567,-15.55996 4.96769,-21.24098 2.12335,-14.49795 1.3727,-14.9418 -13.33965,-7.8875 -11.59131,5.55783 -11.68929,5.64631 -11.68929,10.55487 0,4.59404 -0.4555,5.16649 -6.33334,7.95961 -7.20165,3.4222 -7.05564,2.79699 -4.89177,20.94519 2.14148,17.96037 1.82528,17.64124 11.77463,11.88377 z m -254.74053,-0.36269 c 10.54796,-5.38117 9.99516,-8.66017 -1.32312,-7.84824 -4.92526,0.35332 -5.8866,0.8932 -6.25797,3.51443 -0.45993,3.24633 0.48476,6.90302 1.78337,6.90302 0.41891,0 3.02787,-1.15614 5.79772,-2.56921 z M 365.33332,274 v -4.66667 h -8.16325 c -7.26195,0 -7.97172,0.2308 -6.4284,2.09039 1.98886,2.39644 10.44457,7.09632 12.92498,7.18401 1.0271,0.0363 1.66667,-1.73187 1.66667,-4.60773 z m 185.71107,-9 c 2.86034,-2.14667 22.28892,-30.41594 22.28892,-32.43116 0,-0.878 -3.21221,-1.86063 -7.54382,-2.3077 -8.11484,-0.83752 -10.91839,0.1152 -21.36308,7.2597 -4.70467,3.21814 -6.9058,3.81249 -14.11931,3.81249 -7.82157,0 -8.67445,-0.28247 -10.06452,-3.33333 -2.32217,-5.09663 -8.99348,-4.56231 -15.80209,1.2656 l -5.37283,4.59894 -173.2005,0.75184 -173.2005,0.75186 -3.17187,-4.68412 c -3.00022,-4.43066 -3.57743,-4.68302 -10.66666,-4.66371 -11.46797,0.0312 -11.76076,0.54737 -7.26878,12.81327 l 3.84515,10.49965 9.29775,0.42996 c 5.11376,0.23648 96.29774,1.80407 202.63107,3.48353 106.33333,1.67946 195.16865,3.13598 197.41182,3.23671 2.24317,0.10067 5.07784,-0.56687 6.29925,-1.48353 z m -93.53625,-8.12268 c -1.95444,-2.35496 -0.59652,-3.54399 4.0474,-3.54399 4.11443,0 5.27299,3.14093 1.66872,4.52401 -3.08089,1.18226 -4.06105,1.0142 -5.71612,-0.98002 z m -305.17481,-1.76036 c -3.35623,-1.35427 -1.73295,-4.4503 2.33333,-4.4503 4.31129,0 5.60632,3.0983 1.89095,4.52402 -1.15998,0.44513 -2.20998,0.76194 -2.33334,0.70405 -0.12333,-0.0579 -0.97428,-0.40789 -1.89094,-0.77777 z m 217.57452,-0.59936 c -1.7269,-2.79422 3.83179,-4.81952 7.26296,-2.64626 2.56512,1.62472 0.6421,4.12866 -3.17082,4.12866 -1.74678,0 -3.58824,-0.66708 -4.09214,-1.4824 z m 39.6793,-0.85094 c 0.28346,-1.47194 1.66642,-2.33333 3.74617,-2.33333 2.07975,0 3.46271,0.86139 3.74617,2.33333 0.3511,1.82307 -0.46813,2.33334 -3.74617,2.33334 -3.27804,0 -4.09727,-0.51027 -3.74617,-2.33334 z m 86.66371,0.0153 c 0.55159,-2.86415 4.54958,-3.78407 7.13183,-1.641 2.70491,2.24488 1.16389,3.95902 -3.55916,3.95902 -3.09988,0 -3.91697,-0.53016 -3.57267,-2.31802 z m -210.25087,-0.34867 c -1.32529,-2.14437 0.56684,-4 4.07869,-4 2.36575,0 3.25464,0.72831 3.25464,2.66667 0,1.93836 -0.88889,2.66666 -3.25464,2.66666 -1.79005,0 -3.62546,-0.6 -4.07869,-1.33333 z m 42.85948,-0.64501 c -0.90796,-2.36611 1.64252,-3.839 5.39597,-3.11616 3.72123,0.71664 2.90078,4.37106 -1.08512,4.8333 -2.24497,0.26034 -3.78786,-0.35424 -4.31085,-1.71714 z M 193.58421,251.0153 c 0.55158,-2.86414 4.54957,-3.78406 7.13182,-1.641 2.70491,2.24488 1.1639,3.95903 -3.55916,3.95903 -3.09988,0 -3.91697,-0.53016 -3.57266,-2.31803 z m 45.84249,1.13578 c -1.07312,-1.73635 2.73005,-4.44482 5.49393,-3.91254 1.31014,0.25231 2.58296,1.50186 2.82848,2.77676 0.34431,1.78787 -0.47278,2.31803 -3.57266,2.31803 -2.2105,0 -4.34788,-0.53201 -4.74975,-1.18225 z m -76.98432,-13.50483 c 5.21372,-0.0479 5.98692,-2.16156 8.36485,-22.8668 2.28128,-19.86368 7.04024,-45.0054 11.28594,-59.62387 1.14657,-3.94776 1.59465,-7.64514 0.99574,-8.2164 C 181.58255,146.50236 165.26281,140 163.16299,140 c -2.96984,0 -17.39501,26.80165 -27.62859,51.33333 -5.25421,12.59523 -12.04239,36.08636 -11.12137,38.48651 0.68733,1.79114 2.94591,2.18016 12.65806,2.18016 11.52022,0 11.91461,0.10453 15.47756,4.10336 2.22885,2.50152 4.43946,3.80276 5.66277,3.33333 1.10367,-0.42351 3.0076,-0.77921 4.23096,-0.79044 z m 201.55761,-1.78063 c 0,-0.99056 -0.6587,-3.69056 -1.46378,-6 -1.36648,-3.9199 -1.8873,-4.19896 -7.83673,-4.19896 -4.03827,0 -6.98105,0.7327 -8.03283,2 -2.08157,2.50815 -8.94579,2.50815 -13.33333,0 -2.68613,-1.53553 -11.31976,-1.91468 -44.46666,-1.95274 l -41.13334,-0.0473 -4.86666,5 -4.86667,5 14.66667,0.73644 c 8.06666,0.40504 36.41666,0.85504 63,1 39.83105,0.2172 48.33333,-0.0532 48.33333,-1.53748 z m 34.66666,0.46771 C 398.66665,236.6 396.23124,236 393.25463,236 c -3.26848,0 -5.08564,0.52809 -4.58798,1.33333 0.45323,0.73333 2.88864,1.33333 5.41203,1.33333 2.52339,0 4.58797,-0.6 4.58797,-1.33333 z m -216.59191,-9.04305 c 7.57281,-11.40547 12.02433,-19.26803 12.97123,-22.91059 0.92504,-3.55849 -3.01266,-13.18681 -7.48899,-18.31185 -4.51167,-5.16548 -2.1706,-7.06532 8.73451,-7.08826 5.33968,-0.0107 10.42069,-0.47326 11.29114,-1.02676 4.42834,-2.81581 9.38982,-22.64406 6.36604,-25.44153 -1.21789,-1.12673 -19.18885,-4.17796 -24.60713,-4.17796 -2.87308,0 -3.47031,1.70691 -8.63071,24.66667 -3.50294,15.5854 -8.71084,49.74098 -8.71084,57.12944 0,8.52033 3.1154,7.64237 10.07475,-2.83916 z m 31.78108,7.94298 C 214.91731,234.51573 200.88954,210 198.84529,210 c -2.17778,0 -17.83314,24.40164 -16.7646,26.13056 0.93085,1.50614 30.848,1.60285 31.77513,0.10266 z m 236.14416,-1.5666 c 0,-2.34617 -6.97949,-3.55384 -8.97958,-1.55374 -2.24188,2.24188 0.34696,4.39169 4.77138,3.96222 2.67019,-0.25918 4.2082,-1.13944 4.2082,-2.40848 z m 31.08363,-0.33333 C 481.47789,232.26702 480.29698,232 470.76441,232 c -8.08147,0 -10.76443,0.44309 -10.76443,1.77777 0,3.16623 1.72468,3.66783 11.26095,3.27509 7.68743,-0.3166 9.45768,-0.80672 9.82268,-2.71953 z m -244.06002,-7.02576 c 3.12966,-3.96564 6.01918,-9.18215 6.42118,-11.59225 1.80229,-10.80542 1.2733,-10.21642 9.56399,-10.64904 l 7.6579,-0.39962 -0.42364,-5.33333 c -0.62196,-7.83012 -7.8153,-40.08772 -9.88811,-44.34195 -1.69924,-3.48754 -2.20184,-3.64832 -10.78258,-3.44922 -4.95014,0.1148 -9.87678,0.54518 -10.94807,0.95628 -1.65032,0.63328 -1.94299,6.96526 -1.91623,41.45784 0.0361,46.54178 -6e-4,46.4231 10.31556,33.35129 z M 501.33332,232 c 0,-2.26636 -0.8889,-2.66667 -5.92131,-2.66667 -5.88304,0 -8.3232,1.44701 -6.74536,4 0.45323,0.73333 3.48864,1.33333 6.74536,1.33333 5.03241,0 5.92131,-0.4003 5.92131,-2.66666 z m -381.65055,-1.66667 c 0.73845,-0.91667 1.77245,-3.76667 2.29777,-6.33333 3.71513,-18.1515 18.5506,-54.06467 31.49115,-76.23263 2.85724,-4.89461 5.19497,-9.43008 5.19497,-10.07883 0,-0.64873 -3.68652,-3.72341 -8.19225,-6.83262 l -8.19225,-5.65312 -3.93694,3.73193 c -9.30302,8.8186 -22.92029,26.32745 -36.60439,47.06527 -5.829319,8.83413 -20.407499,36.2922 -20.407499,38.4376 0,2.23725 9.282614,7.72844 21.749439,12.866 12.14624,5.00545 14.64152,5.46088 16.6,3.02973 z m 276.20996,-11.04208 c 12.71967,-12.2618 21.039,-22.89796 25.78482,-32.96557 2.23745,-4.74644 3.97806,-6.60746 6.9219,-7.40067 3.64754,-0.98284 4.15288,-1.92521 6.96711,-12.99236 1.66888,-6.56296 3.04912,-13.27123 3.06721,-14.90725 0.0528,-4.77966 -5.41849,-5.19031 -20.55412,-1.54266 l -13.413,3.23251 -4.94912,9.30904 c -11.34193,21.33359 -25.34017,63.08065 -22.35693,66.67524 3.12492,3.76529 6.80432,1.89736 18.53213,-9.40828 z m 27.76659,8.37541 c 0.72555,-0.91666 1.71995,-4.96666 2.20976,-9 0.48983,-4.03333 1.24749,-9.34232 1.68372,-11.79774 0.64868,-3.65126 0.40105,-4.37983 -1.35951,-4 -3.20992,0.6925 -32.7995,24.15022 -32.03121,25.39336 1.13191,1.83146 28.00569,1.28882 29.49724,-0.59562 z m 20.65517,-3.20742 c 1.09182,-0.66026 -8.8369,-21.13402 -10.85322,-22.38018 -1.98834,-1.22885 -2.71303,0.89064 -4.27632,12.5069 -1.97858,14.70189 -1.72195,15.15653 7.08605,12.55364 3.88428,-1.14786 7.50384,-2.35402 8.04349,-2.68036 z m 106.4408,0.74961 c 2.73594,-3.84228 3.33514,-4.06476 8.75745,-3.25164 5.55793,0.83347 5.82057,0.72181 5.82057,-2.47433 0,-2.23087 -1.44518,-4.41459 -4.33333,-6.54778 C 554.59317,208.20304 533.85097,196 532.2144,196 c -0.77838,0 -1.89506,-0.78011 -2.4815,-1.73358 -1.45062,-2.35849 -9.09902,-7.59976 -11.09008,-7.59976 -1.09566,0 -1.35337,1.3883 -0.80438,4.33334 0.44428,2.38333 1.71945,11.50229 2.83372,20.26436 1.16264,9.14245 2.72945,16.37784 3.67688,16.97958 0.90802,0.57671 6.56009,1.05775 12.56016,1.06898 10.68222,0.02 10.9703,-0.0653 13.84609,-4.10407 z m -31.56984,1.69707 c 1.00623,-1.62811 -4.48959,-39.04698 -6.29525,-42.86198 -2.04966,-4.33049 -32.52916,-27.13446 -35.00022,-26.18624 -1.51208,0.58024 -1.89,4.63034 -1.89,20.2546 v 19.52935 l 7,6.68864 c 11.22915,10.72969 14.48103,12.78007 21.00427,13.24363 5.44076,0.38664 6.22187,0.88888 8.43888,5.42608 2.29499,4.69678 5.20989,6.38544 6.74232,3.90592 z m -43.18547,-1.57259 c 0,-0.74075 -3.55556,-1.33333 -8,-1.33333 -4.44444,0 -8,0.59258 -8,1.33333 0,0.74075 3.55556,1.33333 8,1.33333 4.44444,0 8,-0.59258 8,-1.33333 z m 123.89045,-3.06521 c 4.70642,-2.40984 9.15056,-5.32234 9.87588,-6.47219 2.06328,-3.27099 -11.88929,-29.05451 -29.73478,-54.94811 -6.23092,-9.041 -20.64224,-26.47716 -26.37678,-31.91309 l -3.93693,-3.73193 -8.19225,5.65312 c -4.50573,3.10921 -8.19225,6.18389 -8.19225,6.83262 0,0.64875 2.33773,5.18422 5.19497,10.07883 8.67461,14.86016 18.0106,34.78269 23.41093,49.95787 5.51045,15.48456 6.77116,16.91332 16.06076,18.20173 4.84536,0.67201 5.44635,1.19717 6.56849,5.73969 1.56771,6.34624 3.92194,6.43864 15.32196,0.60146 z M 376.83384,213.261 c 4.29507,-15.77242 9.2256,-29.21918 16.00876,-43.65982 3.20323,-6.81934 5.82405,-12.96934 5.82405,-13.66666 0,-1.65658 -0.42793,-1.6369 -19.2583,0.88518 -18.04854,2.41738 -17.76174,2.23735 -26.83834,16.84696 -2.6197,4.21667 -5.55264,7.66667 -6.51763,7.66667 -0.96499,0 -4.16995,-3.85236 -7.12214,-8.5608 -2.95218,-4.70844 -6.7692,-9.43771 -8.48226,-10.50948 -2.03524,-1.27335 -8.54407,-2.21724 -18.78132,-2.72364 -18.3448,-0.90743 -17.95462,-1.34943 -11,12.46059 2.56666,5.09672 4.66666,10.10828 4.66666,11.13678 0,3.04768 3.82188,5.57467 5.65651,3.74004 1.03028,-1.03028 8.11583,-1.54349 21.30983,-1.54349 h 19.76633 l 1.30033,3.42013 c 0.71519,1.88107 1.30033,5.74202 1.30033,8.57987 0,8.67677 1.81555,11.62181 7.78648,12.6306 5.52826,0.93399 6.8234,2.8492 6.86199,10.14717 0.02,3.78232 1.14599,5.51296 3.15185,4.84435 0.71518,-0.2384 2.68027,-5.50089 4.36687,-11.69445 z m 197.23794,6.85517 c -1.03359,-1.67237 -4.73847,-1.97171 -4.73847,-0.38284 0,0.58667 0.72,1.78667 1.6,2.66667 1.86399,1.86398 4.51135,-0.0624 3.13847,-2.28383 z m -212.38589,1.75347 c 1.78368,-1.78367 -0.87785,-4.53631 -4.38617,-4.53631 -5.49737,0 -8.02227,-1.30667 -9.36887,-4.84851 -1.12536,-2.9599 -1.86367,-3.15149 -12.14526,-3.15149 -9.08612,0 -11.4262,0.45013 -13.76561,2.64789 -2.39752,2.25235 -5.45383,2.78127 -20.46024,3.54076 -17.01307,0.86107 -17.73863,0.78884 -20.36182,-2.02682 -2.50382,-2.68754 -3.78804,-2.88956 -16.1506,-2.54076 -10.99153,0.31012 -13.69292,0.796 -14.87561,2.67557 -3.24194,5.15221 -0.054,5.6384 46.89453,7.15197 60.56815,1.95264 63.70196,2.0054 64.61965,1.0877 z m 111.37888,-12.24782 c 0.39269,-8.26406 0.31331,-8.47745 -5.82863,-15.66666 -3.42472,-4.00867 -6.75386,-7.2885 -7.39812,-7.2885 -1.39016,0 -1.60138,29.79222 -0.22101,31.17258 0.52269,0.5227 3.67269,0.7727 7,0.55556 L 472.66665,218 Z m 16.98517,7.63068 c 1.11359,-1.80182 -8.71906,-10.61701 -11.38329,-10.20537 -2.51293,0.38825 -3.39397,7.13661 -1.26641,9.70016 1.84297,2.22065 11.35472,2.60055 12.6497,0.50521 z M 215.66557,201.71825 c 0.26228,-10.57323 -0.0887,-13.74288 -1.66667,-15.05249 -1.59844,-1.32659 -2.41912,-1.3102 -4.09636,0.0817 -2.24421,1.86253 -7.23588,10.93332 -7.23588,13.14896 0,2.35305 9.94929,16.08477 11.33333,15.64192 0.74182,-0.23736 1.48074,-6.36853 1.66558,-13.82017 z m 236.08159,-0.31496 c 0.0655,-6.94068 -0.4673,-12.35764 -1.26383,-12.84992 -1.71825,-1.06195 -10.48334,3.53368 -10.48334,5.49652 0,2.71489 9.47663,20.68559 10.55639,20.01825 0.59266,-0.36628 1.12851,-6.06546 1.19078,-12.66485 z M 83.16916,203 c 10.515112,-21.64372 31.00641,-51.72155 48.05925,-70.54305 4.09104,-4.51534 7.43825,-8.89108 7.43825,-9.72387 0,-1.81402 -10.5821,-16.06642 -11.92897,-16.06642 -1.90505,0 -21.10468,20.9132 -26.35744,28.70984 C 87.915293,153.87814 79.083436,178.67637 77.720815,199 c -0.46562,6.94474 -0.275099,11.66666 0.47073,11.66666 0.689116,0 2.929043,-3.45 4.977615,-7.66666 z m 219.27704,3.84621 c 0.70488,-4.98185 -1.452,-5.69197 -6.14138,-2.02197 -5.05298,3.95454 -4.46518,6.162 1.48697,5.58424 3.26283,-0.31672 4.30844,-1.11698 4.65441,-3.56227 z M 614.27917,199 c -1.40846,-21.00718 -10.86131,-46.79868 -24.01054,-65.51118 -5.82254,-8.28598 -23.09942,-26.82216 -24.99996,-26.82216 -1.35138,0 -11.93536,14.24728 -11.93536,16.06642 0,0.83279 3.34722,5.20853 7.43826,9.72387 17.05284,18.8215 37.54413,48.89933 48.05925,70.54305 2.04857,4.21666 4.28849,7.66666 4.97761,7.66666 0.74583,0 0.93635,-4.72192 0.47074,-11.66666 z m -299.86898,2.44704 c 0.41692,-7.31274 -0.99188,-9.90762 -4.62263,-8.51436 -1.17902,0.45244 -1.78757,3.05825 -1.78757,7.65441 0,7.50975 0.72061,9.05656 3.93499,8.44651 1.49664,-0.28404 2.17792,-2.37218 2.47521,-7.58656 z m 246.89147,4.21962 c -0.0175,-1.28333 -1.55852,-5.93333 -3.42471,-10.33333 -1.86618,-4.4 -3.8806,-9.54727 -4.47646,-11.43836 C 549.97262,173.01604 531.4691,140 528.79998,140 c -2.04329,0 -18.38633,6.50658 -19.8542,7.90446 -0.92017,0.87631 0.51915,7.59314 5.807,27.09916 1.1024,4.06659 3.1332,6.2514 10.84424,11.66667 5.21831,3.66467 10.10507,6.66304 10.85947,6.66304 0.75439,0 2.61029,1.14283 4.12423,2.53963 3.07548,2.8375 18.19631,12.11828 19.75259,12.12361 0.55,0.001 0.98576,-1.04657 0.96835,-2.32991 z m -268.40243,-6 c 10.59761,-7.10969 12.40671,-9.78261 10.04541,-14.84192 -0.7251,-1.55361 -3.25113,-7.44225 -5.6134,-13.08586 -2.36226,-5.64363 -5.27818,-11.09624 -6.47981,-12.11694 -2.35836,-2.00324 -33.90308,-7.0321 -35.99616,-5.73852 -0.77669,0.48003 -0.52455,3.63327 0.65028,8.13218 2.15477,8.25152 6.83727,29.54106 8.06116,36.65106 1.20796,7.01744 2.57895,8 11.16245,8 7.11844,0 8.5689,-0.55878 18.17007,-7 z m 130.10076,-0.0647 c 6.75085,-6.0646 7.45185,-7.68051 4.42253,-10.19462 -1.5458,-1.28289 -2.36263,-0.86838 -4.27617,2.17008 -1.30096,2.06575 -3.7411,5.45194 -5.42254,7.52487 -3.08596,3.80447 -3.89558,6.24856 -2.05716,6.21011 0.55,-0.012 3.85,-2.5812 7.33334,-5.71044 z m -75.74103,1.85168 c 0.41232,-0.66715 0.37403,-2.19195 -0.0851,-3.38844 -0.68457,-1.78396 -2.54483,-2.10552 -10.33766,-1.78699 -8.70156,0.35568 -9.5388,0.64141 -9.92893,3.38844 -0.4094,2.88264 -0.0343,3 9.58797,3 5.50773,0 10.3514,-0.54585 10.76373,-1.21301 z m -145.19674,-8.24067 c 1.17189,-2.26619 1.80613,-4.96619 1.40943,-6 -0.81962,-2.13585 -8.3913,-2.52188 -11.45624,-0.58405 -1.64592,1.04062 -1.2031,2.06105 2.59488,5.97957 2.51872,2.59865 4.74637,4.72483 4.95036,4.72483 0.20397,0 1.32969,-1.85416 2.50157,-4.12035 z M 473.03472,173 472.66665,152.66666 h -6.66667 -6.66666 l -0.37784,13.47296 -0.37784,13.47296 6.16806,6.86038 c 3.39244,3.7732 6.7281,6.86037 7.41258,6.86037 0.73213,0 1.09296,-8.37136 0.87644,-20.33333 z m -28.93452,13.61554 c 6.70902,-3.42269 5.8073,-5.14894 -2.06549,-3.95414 -6.95651,1.05573 -8.00483,1.756 -6.90795,4.61442 1.04047,2.71142 2.58748,2.59759 8.97344,-0.66028 z m 6.23312,-9.62749 c 1.11008,-0.87557 1.66666,-5.27851 1.66666,-13.18432 0,-11.63928 -0.0692,-11.89604 -3.56425,-13.22487 -5.01085,-1.90512 -6.32097,-0.0451 -9.75022,13.84332 -3.60951,14.61836 -3.23824,15.89763 4.28074,14.75027 3.13523,-0.47841 6.4504,-1.4614 7.36707,-2.1844 z M 219.60763,169 c -0.3178,-1.65 -0.57782,-0.3 -0.57782,3 0,3.3 0.26002,4.65 0.57782,3 0.31782,-1.65 0.31782,-4.35 0,-6 z m 131.69026,1.35113 c 2.58615,-3.84021 4.7021,-7.74021 4.7021,-8.66667 0,-2.12544 -18.08383,-2.37288 -19.3864,-0.26526 -0.78256,1.26621 7.83695,15.91413 9.3646,15.91413 0.33969,0 2.73356,-3.14199 5.3197,-6.9822 z m 159.36132,1.9822 c -0.004,-1.28333 -0.56568,-4.43333 -1.24797,-7 -0.6823,-2.56667 -1.92166,-7.28933 -2.75411,-10.49483 l -1.51356,-5.82814 -8.23847,0.93013 c -11.31121,1.27707 -15.57178,2.21147 -15.57178,3.41511 0,1.2063 26.64124,21.31106 28.23974,21.31106 0.60148,0 1.09024,-1.05 1.08615,-2.33333 z M 325.24666,156.08177 c 1.52002,-0.96184 -0.16691,-3.76695 -8.2066,-13.64624 -5.56598,-6.83955 -11.57155,-13.79108 -13.34574,-15.44786 l -3.22578,-3.01233 -7.90094,5.60326 c -4.34552,3.0818 -8.32618,6.2327 -8.84593,7.00201 -0.83635,1.23795 5.39656,14.11449 8.37576,17.30343 0.94713,1.01381 8.55548,1.87346 28.56923,3.22798 1.46666,0.0992 3.52766,-0.36434 4.58,-1.03025 z M 354.28696,156 c 4.86009,0 6.51877,-0.67348 9.03044,-3.66667 17.24332,-20.5491 24.68259,-29.90405 24.68259,-31.03858 0,-0.74356 -1.59879,-3.76785 -3.55286,-6.72064 -2.52453,-3.81483 -4.34265,-5.25372 -6.28165,-4.97141 -3.46233,0.50409 -20.39365,20.0857 -26.32512,30.44582 -2.47887,4.32969 -5.10704,7.87217 -5.84037,7.87217 -0.73333,0 -3.36151,-3.54248 -5.84037,-7.87217 -5.93147,-10.36012 -22.86279,-29.94173 -26.32512,-30.44582 -1.939,-0.28231 -3.75712,1.15658 -6.28166,4.97141 -1.95406,2.95279 -3.55285,5.97708 -3.55285,6.72064 0,0.74356 4.66067,6.90643 10.35704,13.69525 5.69636,6.78884 11.71209,14.25805 13.36829,16.59826 3.13315,4.42716 8.3955,5.964 16.77467,4.89898 C 346.60832,156.21925 351.01245,156 354.28696,156 Z m 36.37969,-4.14904 c 4.03334,-0.75238 8.40584,-1.6742 9.71668,-2.04851 3.00991,-0.85948 9.15686,-10.44411 8.17366,-12.74475 -0.40532,-0.9484 -4.34727,-4.30567 -8.75988,-7.46059 -6.83502,-4.8869 -8.33775,-5.47915 -10.14915,-4 -4.71484,3.85003 -22.85556,26.86099 -22.11744,28.0553 0.82665,1.33755 10.23596,0.60491 23.13613,-1.80145 z m -103.99999,0.0799 c 0,-2.84018 -6.06214,-11.91061 -7.96699,-11.92056 -1.68304,-0.009 -19.6546,6.40039 -21.25524,7.58023 -1.38093,1.01791 1.87667,2.3264 9.56188,3.84076 10.58208,2.08519 19.66035,2.31587 19.66035,0.49957 z m -71.60201,-5.39553 c 0.8758,-1.39973 0.92196,-9.40956 0.13446,-23.33334 L 213.99999,102 l -4.80616,-0.40227 c -4.6441,-0.3887 -4.90821,-0.16502 -7.83309,6.63407 -5.0994,11.85387 -12.02741,31.7512 -12.02741,34.54286 0,3.01996 1.22308,3.64224 10.19988,5.18954 8.94682,1.54213 13.96113,1.08081 15.53144,-1.42891 z m 251.602,1.90303 c 0,-1.67438 -4.40608,-5.77166 -6.20665,-5.77166 -1.84064,0 -2.49598,4.18627 -0.90446,5.77778 1.1602,1.16021 7.11111,1.15508 7.11111,-0.007 z m 31.76975,-1.67096 c 2.12864,-0.5656 3.72266,-2.02346 3.95864,-3.62046 0.39001,-2.63944 -5.87204,-21.23796 -11.7558,-34.9151 -2.92488,-6.79909 -3.18899,-7.02277 -7.8331,-6.63407 L 477.99998,102 l -1.15512,21.67648 c -1.39748,26.22476 -1.37118,26.28926 10.1729,24.94944 4.32028,-0.50143 9.45866,-1.33778 11.41864,-1.85856 z m -82.02047,-0.19362 c 5.74586,-1.59556 5.87859,-3.92152 0.33555,-5.88021 -3.14796,-1.11236 -4.07168,-0.84411 -6.21724,1.80555 -2.31279,2.85617 -2.37187,5.51164 -0.12227,5.49348 0.50672,-0.004 3.20848,-0.64255 6.00392,-1.41882 z m 34.79216,-1.61641 c 1.00184,-1.58824 0.94324,-2.67265 -0.20657,-3.82247 -2.4013,-2.40129 -7.63479,2.49554 -5.46337,5.11194 1.81726,2.18968 3.75305,1.74945 5.66994,-1.28947 z m -228.21198,-8.70811 c 1.49698,-0.28485 2.78642,0.75864 3.60814,2.91994 1.24397,3.2719 2.59769,3.88953 15.20552,6.93742 7.57213,1.83055 7.09307,-1.41445 -4.50911,-30.54321 l -5.66792,-14.23004 h -5.76947 c -4.19982,0 -6.12032,0.6556 -7.05913,2.40977 -0.78292,1.46292 -0.94641,10.50011 -0.41607,23 0.48048,11.32463 1.18972,18.19604 1.5761,15.2698 0.48208,-3.65109 1.43337,-5.45949 3.03194,-5.76368 z m 250.75073,-9.7559 c 0.51561,-12.561 0.32457,-21.11418 -0.5063,-22.66666 -0.98813,-1.84636 -2.83281,-2.49333 -7.10912,-2.49333 H 460.3567 L 454.15706,117 c -3.40981,8.61666 -6.19006,16.41666 -6.17836,17.33333 0.0289,2.26343 2.0019,2.09988 4.02128,-0.33333 2.38574,-2.87464 5.1731,-2.46443 6.79491,1 1.27561,2.72489 11.42837,11.59368 13.33113,11.6452 0.436,0.012 1.16536,-9.05654 1.62082,-20.15188 z m -212.28892,16.32945 c 11.30883,-3.93848 14.54207,-5.74696 14.54207,-8.13397 0,-4.45349 -27.86792,-40.022135 -31.3572,-40.022135 -2.60905,0 -9.95796,4.453479 -9.9677,6.040475 -0.004,0.7556 2.00028,6.1556 4.45536,12 2.45509,5.84441 5.83494,14.82619 7.51081,19.95952 3.02852,9.27668 4.80736,12.66667 6.64658,12.66667 0.52875,0 4.20528,-1.12975 8.17008,-2.51056 z m -76.25739,-0.66275 c 0.83986,-1.012 3.23334,-6.862 5.31882,-13 2.08548,-6.13801 5.40155,-14.96267 7.36904,-19.61036 3.74262,-8.84098 3.25664,-12.216328 -1.75888,-12.216328 -3.4584,0 -30.79618,33.862818 -30.79618,38.146678 0,1.01932 0.15,1.85609 0.33333,1.85949 0.18333,0.004 3.93333,1.48916 8.33333,3.3017 9.45263,3.89389 9.25198,3.86669 11.20054,1.51882 z m 335.13279,-2.47685 c 3.48333,-1.47303 6.33333,-3.43833 6.33333,-4.36736 0,-4.1521 -27.42967,-37.982478 -30.79619,-37.982478 -5.01552,0 -5.50149,3.375348 -1.75888,12.216328 1.9675,4.64769 5.28356,13.47235 7.36904,19.61036 5.60295,16.49066 5.23142,16.28328 18.8527,10.52315 z m -81.31695,0.44061 c 2.02568,-0.77197 4.24007,-2.76562 4.92087,-4.43034 5.0952,-12.4591 13.39608,-34.30624 13.39608,-35.25726 0,-1.862564 -8.9951,-6.184615 -11.15028,-5.357592 -4.03589,1.54872 -30.18305,36.192932 -30.18305,39.991662 0,2.57268 11.80512,7.76373 16,7.03565 1.83333,-0.3182 4.9907,-1.21014 7.01638,-1.98212 z m -268.6146,-17.79045 c 4.42532,-6.05 11.0496,-14.51999 14.7206,-18.82221 3.79732,-4.450236 6.36332,-8.633276 5.95256,-9.703704 -1.19931,-3.125363 -5.41796,-4.741111 -8.32155,-3.187161 -7.42772,3.975193 -37.42005,29.805165 -37.42005,32.226865 0,1.71114 12.361,10.41546 14.84452,10.45316 1.21022,0.0184 5.75277,-4.85432 10.22392,-10.96695 z m 119.81039,5.62347 c 3.91664,-2.95708 7.12116,-5.88441 7.12116,-6.50516 0,-3.12963 -39.04873,-36.118308 -42.75328,-36.118308 -2.10345,0 -6.58005,3.925416 -6.58005,5.769879 0,0.746117 2.89969,4.703125 6.44376,8.793349 3.54407,4.09023 10.77359,13.28677 16.06561,20.43677 5.29202,7.15 10.2878,13 11.10175,13 0.81395,0 4.68441,-2.41944 8.60105,-5.37653 z m 130.09485,-5.74267 c 4.2022,-6.03991 11.23228,-15.15896 15.62239,-20.26456 4.39012,-5.105597 8.00196,-9.835661 8.02631,-10.51125 0.0711,-1.973844 -4.19474,-6.104988 -6.3041,-6.104988 -3.86985,0 -42.98496,32.850728 -42.98496,36.100808 0,1.717 13.74538,11.86165 16,11.80865 1.1,-0.0259 5.43816,-4.98876 9.64036,-11.02866 z m 119.05137,7.10195 c 3.21139,-2.20948 6.23695,-4.66133 6.72347,-5.44854 1.19705,-1.93688 -5.51805,-8.72244 -21.04091,-21.26167 C 510.1056,90.541223 507.65269,89.038644 504.7262,90.161645 c -5.29815,2.033094 -4.79406,5.208912 2.11148,13.302255 3.69297,4.32819 10.33521,12.81943 14.76053,18.86943 4.42533,6.05 8.91799,11 9.98368,11 1.06569,0 4.56512,-1.80776 7.77649,-4.01725 z m -386.90143,-18.0945 c 4.51534,-4.09479 13.12996,-11.14479 19.14362,-15.666663 9.00781,-6.773284 10.94556,-8.87487 11,-11.930098 0.0369,-2.074316 -0.79338,-4.038323 -1.88432,-4.456958 -6.25399,-2.39988 -50.13717,19.818488 -50.01653,25.323719 0.0601,2.74132 9.28516,14.17508 11.43685,14.17508 1.16087,0 5.80504,-3.35028 10.32038,-7.44508 z m 404.16368,1.11175 c 2.55562,-3.48333 4.66144,-7.01212 4.67963,-7.84175 0.12067,-5.505231 -43.76254,-27.723599 -50.01653,-25.323719 -1.08843,0.417667 -1.92404,2.387434 -1.89073,4.456958 0.0491,3.048805 1.91685,5.094533 10.49968,11.499956 5.74198,4.285293 14.26513,11.306985 18.94032,15.603755 4.67517,4.29678 9.54449,7.84063 10.82069,7.87523 1.27621,0.0346 4.41133,-2.7871 6.96694,-6.27043 z m -250.66871,0.0238 c 1.85978,-2.73691 3.3814,-5.64997 3.3814,-6.47349 0,-0.82351 -3.45,-3.90854 -7.66666,-6.855612 -17.04144,-11.910443 -47,-24.161075 -47,-19.219203 0,0.628205 5.64862,5.44401 12.5525,10.70179 6.90388,5.25778 16.65388,13.417875 21.66667,18.133535 5.01279,4.71567 10.14253,8.59986 11.39943,8.63155 1.25689,0.0317 3.80689,-2.18168 5.66666,-4.91858 z m 96.34923,-3.10703 c 4.75253,-4.44577 14.57898,-12.644342 21.83657,-18.219051 7.25757,-5.57471 13.1956,-10.637266 13.1956,-11.250124 0,-4.91524 -30.01564,7.376549 -47,19.247103 -4.21667,2.947072 -7.66667,6.032102 -7.66667,6.855612 0,2.75984 6.73816,11.44966 8.87816,11.44966 1.16344,0 6.00379,-3.63744 10.75634,-8.08321 z M 236.7929,94.984044 c 6.85364,-3.548783 13.87376,-11.422255 13.87376,-15.560233 0,-2.824744 -0.8719,-3.3019 -8.44255,-4.620272 -10.74753,-1.871601 -39.32348,-1.681627 -48.89078,0.325028 -5.93492,1.244793 -7.41226,2.092444 -7.74722,4.445101 -0.62517,4.391084 8.03396,13.154113 16.18759,16.3818 9.31203,3.68625 26.96997,3.196422 35.0192,-0.971424 z m 253.05343,0.958929 c 8.52593,-3.18996 17.22081,-11.780808 16.56753,-16.369305 -0.33496,-2.352657 -1.81229,-3.200308 -7.74721,-4.445101 -9.56731,-2.006655 -38.14325,-2.196629 -48.89079,-0.325028 -7.57065,1.318372 -8.44254,1.795528 -8.44254,4.620272 0,5.885526 10.11724,14.993494 19.99137,17.997066 6.77652,2.061328 21.03721,1.322383 28.52164,-1.477904 z m -169.30407,259.867817 0.88309,-5.52252 3.25252,3.05559 c 5.12609,4.81571 5.84261,0.14759 1.1238,-7.32159 -4.39103,-6.95036 -8.45689,-8.07864 -8.48876,-2.35561 -0.0301,5.41556 -1.77151,7.66057 -3.92721,5.06311 -2.00011,-2.40998 -5.38571,-2.74708 -5.38571,-0.53626 0,2.95456 7.35888,13.13507 9.49625,13.13743 1.50536,10e-4 2.4314,-1.67656 3.04602,-5.52015 z m 50.01391,-5.20976 c 3.00436,-14.0089 0.86974,-16.00968 -9.19682,-8.62014 -7.60459,5.58228 -8.31708,7.35244 -2.95936,7.35244 4.28789,0 6.93333,2.1367 6.93333,5.6 0,1.32 0.85028,2.4 1.88952,2.4 1.19035,0 2.42376,-2.4911 3.33333,-6.7323 z m -5.88952,-5.2677 c 0.45323,-0.73334 1.08864,-1.33334 1.41203,-1.33334 0.32339,0 0.58797,0.6 0.58797,1.33334 0,0.73333 -0.63541,1.33333 -1.41202,1.33333 -0.77662,0 -1.0412,-0.6 -0.58798,-1.33333 z m 219.33333,9.24568 c 0,-0.78155 -0.58739,-2.51855 -1.30532,-3.86 -1.93391,-3.61355 1.47176,-6.13702 5.16756,-3.82895 2.04964,1.28001 3.12001,1.32768 4.25809,0.1896 2.20576,-2.20576 -8.1623,-13.19385 -11.30972,-11.98607 -1.81982,0.69834 -1.97658,1.39442 -0.80645,3.58084 2.11677,3.95523 0.46091,5.53364 -4.7748,4.55142 -6.09769,-1.14394 -5.98363,1.20654 0.37457,7.71793 4.82172,4.93789 8.39607,6.48547 8.39607,3.63523 z M 99.664551,339.00819 c 0.30371,-0.91214 -0.99657,-2.2473 -2.889512,-2.967 -4.260527,-1.61984 -4.555386,-6.01802 -0.547262,-8.1631 2.398588,-1.28368 3.198052,-1.13386 4.666663,0.8746 0.97472,1.33301 1.77222,2.90897 1.77222,3.50214 0,0.59318 0.9,1.0785 2,1.0785 1.1,0 2,-1.01134 2,-2.2474 0,-3.44732 -5.4014,-8.41927 -9.146481,-8.41927 -4.314057,0 -9.520182,4.89963 -9.520182,8.95969 0,6.22454 9.952742,12.52307 11.664554,7.38184 z m 213.695519,0.29291 c 2.57172,-3.09873 1.00468,-3.4296 -2.71333,-0.57289 -2.46998,1.89777 -2.76102,2.55337 -1.14334,2.57546 1.19354,0.0163 2.92904,-0.88484 3.85667,-2.00257 z m 287.97324,-3.70111 c 0,-3.90753 2.35914,-6.26666 6.26667,-6.26666 5.49517,0 3.23779,-3.4279 -4.78144,-7.26074 -11.43007,-5.46306 -12.78787,-3.92317 -7.82535,8.8748 3.03482,7.82655 6.34012,10.25211 6.34012,4.6526 z m 23.21214,-11.98237 c 1.08498,-1.72005 0.27344,-4.50572 -3.58351,-12.30045 -4.64528,-9.38796 -7.85731,-12.86627 -9.94937,-10.7742 -0.47983,0.47983 0.14605,2.59652 1.39084,4.70377 1.24478,2.10726 2.26324,4.22556 2.26324,4.70734 0,0.48178 -2.77654,0.45961 -6.17008,-0.0493 -8.30799,-1.24585 -7.42203,1.759 1.60374,5.43938 9.12446,3.7206 9.89967,4.36106 9.89967,8.17895 0,3.67916 2.25475,3.72604 4.54547,0.0945 z M 79.180475,311.82704 c 5.035399,-2.29428 6.865311,-7.91507 4.233649,-13.00414 -4.414023,-8.53578 -15.638928,-5.70554 -16.485497,4.15664 -0.325965,3.79735 0.292695,5.2632 3.179812,7.5342 4.147095,3.26211 4.638666,3.33327 9.072036,1.3133 z M 72.140254,306.169 c -1.951143,-2.35099 -0.611922,-5.8396 2.637654,-6.87098 3.210919,-1.0191 5.222089,0.20586 5.222089,3.18067 0,4.76119 -5.016302,7.11644 -7.859743,3.69031 z M 632.58394,290.57528 c -2.01079,-2.2219 -1.90505,-2.40375 1.63303,-2.80883 5.43926,-0.62275 4.96749,-4.31932 -0.61976,-4.85611 -3.14882,-0.30252 -4.82818,-1.35665 -5.89642,-3.7012 -1.90354,-4.17781 -4.48668,-3.35817 -3.98368,1.26404 0.30311,2.78532 -0.18746,3.52682 -2.33333,3.52682 -4.61631,0 -3.01475,3.49082 3.56528,7.77109 4.71925,3.06983 6.71816,3.72503 8.03364,2.63327 1.43159,-1.18811 1.3588,-1.887 -0.39876,-3.82908 z M 66.999998,280.35613 c 1.283333,-1.15652 2.333333,-3.41759 2.333333,-5.0246 0,-3.07959 -3.402401,-10.80481 -5.266008,-11.95659 -1.67655,-1.03617 -20.827899,9.10391 -20.067324,10.62506 0.366666,0.73333 2.106699,1.35702 3.866739,1.38598 2.014935,0.0332 3.588262,1.10203 4.248244,2.88614 2.160218,5.83962 9.566916,6.87661 14.885016,2.08401 z m -10.517832,-3.68947 c -1.267165,-3.30217 0.560141,-6 4.063963,-6 4.426682,0 5.56157,2.2677 2.711168,5.41735 -2.79347,3.08675 -5.717715,3.33823 -6.775131,0.58265 z M 649.08088,236.90978 c -0.60502,-4.24992 -7.16815,-4.83585 -8.46318,-0.75556 -0.66481,2.09462 -0.24929,3.48428 1.40307,4.69252 3.26425,2.38688 7.61501,-0.0392 7.06011,-3.93696 z M 51.333332,226 c 0,-3.37191 -0.520548,-4 -3.315074,-4 -2.137932,0 -3.479961,0.8562 -3.77943,2.41121 -0.779003,4.04504 0.870864,6.47255 4.088542,6.01564 2.356214,-0.33459 3.005962,-1.29147 3.005962,-4.42685 z M 649.25927,202.08921 c 1.2606,-1.51892 1.02064,-2.47595 -1.17008,-4.66667 -1.51573,-1.51573 -3.35588,-2.75588 -4.08921,-2.75588 -2.54484,0 -1.31508,-2.24694 2.07518,-3.79165 1.87468,-0.85416 3.03927,-2.15047 2.58798,-2.88068 -0.89651,-1.45059 -11.17113,-1.81652 -14.55411,-0.51835 -3.19786,1.22714 -2.52406,5.18463 1.22428,7.19068 4.20083,2.24822 4.18712,3.18295 -0.0752,5.12499 -1.87468,0.85416 -3.03926,2.15047 -2.58797,2.88068 1.29884,2.10157 14.75353,1.62863 16.58912,-0.58312 z M 61.333331,184.20665 c 0,-1.35301 -1.2,-3.546 -2.666666,-4.87332 -3.54718,-3.21016 -3.363667,-4.66667 0.587977,-4.66667 1.790055,0 3.606859,-0.56989 4.037344,-1.26644 1.107418,-1.79184 -2.907367,-3.64606 -10.291988,-4.75336 -5.72487,-0.85841 -6.333333,-0.6985 -6.333333,1.6644 0,1.43772 1.253653,4.05584 2.785895,5.81806 l 2.785896,3.20401 L 48.562558,180 c -8.551811,1.55097 -2.504722,6.24277 8.43744,6.54641 3.366557,0.0935 4.333333,-0.42859 4.333333,-2.33976 z M 637.33331,166.16788 c 7.85904,-2.34675 8.54879,-5.51755 1.81252,-8.33215 -4.71542,-1.97023 -4.89082,-2.23717 -2.5802,-3.92675 1.36355,-0.99705 3.1441,-2.05945 3.95676,-2.3609 1.06707,-0.3958 1.05158,-1.00188 -0.0557,-2.18144 -1.20703,-1.28575 -3.14069,-1.16611 -9.08579,0.56218 -8.76545,2.54819 -9.48774,5.40318 -2.23356,8.82844 l 4.44578,2.0992 -3.5057,2.297 c -3.39545,2.2248 -3.58274,4.8676 -0.34201,4.8263 0.87339,-0.0107 4.28797,-0.82648 7.58797,-1.81188 z M 74.666664,136.57142 c 0,-1.15237 -0.874506,-2.96974 -1.943346,-4.03858 -2.982342,-2.98234 -1.085002,-5.8893 3.602377,-5.51928 6.548509,0.51694 5.70852,-2.55933 -1.882668,-6.89484 -7.772696,-4.43917 -10.802581,-3.77326 -7.858823,1.7272 2.218626,4.14554 0.819947,6.38998 -3.332586,5.34776 -2.609765,-0.65501 -3.25162,-0.30544 -3.25162,1.7709 0,1.7026 2.165124,3.79209 6.333333,6.1121 7.423623,4.13197 8.333333,4.29514 8.333333,1.49474 z M 621.10771,126.44806 c 4.0267,-1.61454 4.61811,-1.53859 6.33834,0.81396 1.38613,1.89564 2.29456,2.19735 3.37201,1.1199 1.85697,-1.85698 -2.44756,-9.71526 -5.32175,-9.71526 -3.33772,0 -13.49633,6.68272 -13.49633,8.87838 0,2.22743 1.16731,2.08683 9.10773,-1.09698 z m -12.38046,-21.72079 c 3.99818,-3.99817 4.13832,-7.267241 0.50929,-11.880793 -5.33153,-6.777953 -15.90323,-2.908976 -15.90323,5.820188 0,8.514145 9.28492,12.169625 15.39394,6.060605 z m -10.99146,-4.26828 c -1.03242,-2.690457 4.16702,-7.335079 6.99602,-6.24949 2.34604,0.900261 2.52974,4.66226 0.33484,6.85717 -2.30326,2.30325 -6.34231,1.96844 -7.33086,-0.60768 z M 110.23247,96.498996 c 2.11258,-3.224207 1.62287,-7.165664 -0.8903,-7.165664 -0.77449,0 -1.97847,1.5 -2.67551,3.333333 -1.42699,3.753289 -1.80369,3.889005 -5.42098,1.953088 -3.458007,-1.850665 -3.399389,-7.427538 0.0877,-8.33942 2.97939,-0.779128 3.69255,-4.947001 0.84648,-4.947001 -3.185567,0 -8.84648,5.417933 -8.84648,8.466765 0,3.783107 3.502137,8.768328 7.09294,10.096651 3.95458,1.462892 7.40465,0.267482 9.8062,-3.397752 z M 381.23655,87.15352 c 1.51989,-1.932229 2.76344,-4.551315 2.76344,-5.820188 0,-1.268873 -1.24355,-3.887959 -2.76344,-5.820188 -5.31486,-6.756741 -15.90323,-3.275188 -15.90323,5.229127 0,9.297701 10.35049,13.470412 15.90323,6.411249 z M 370.5834,82.511112 c -1.83796,-3.434276 0.99699,-7.100083 4.46244,-5.770264 2.47189,0.948552 4.2162,5.217105 2.96152,7.247219 -1.44369,2.335937 -5.8528,1.458766 -7.42396,-1.476955 z m 211.85722,-4.395751 c 2.32432,-3.236549 4.22603,-6.484643 4.22603,-7.217985 0,-0.733342 -2.55,-3.216629 -5.66667,-5.518414 l -5.66667,-4.185066 -4,4.552931 c -2.2,2.504113 -5.09989,4.935801 -6.44421,5.403753 -1.34431,0.467952 -2.1946,1.600506 -1.88951,2.516787 1.08902,3.270706 5.33759,2.528916 9.69283,-1.692344 6.46932,-6.270315 10.22879,-2.715056 4.64089,4.388804 -1.46666,1.864564 -2.66666,4.345478 -2.66666,5.513144 0,3.885732 3.49737,2.193449 7.77397,-3.76161 z m -268.18908,0.495524 c 2.14001,-2.543272 4.42356,-3.910669 6.1233,-3.666666 4.78214,0.686485 3.90515,-2.507613 -1.85069,-6.740505 -5.97033,-4.390628 -8.77356,-4.406754 -6.43495,-0.03701 1.15895,2.165496 0.78079,3.522382 -1.99638,7.163453 -1.88439,2.470556 -3.42616,5.131954 -3.42616,5.914216 0,2.813739 4.24008,1.341572 7.58488,-2.633484 z M 145.33333,68.521763 c 0,-1.093139 -0.91073,-3.748685 -2.02385,-5.901215 -1.63694,-3.165486 -1.71031,-4.415744 -0.3838,-6.539816 2.60469,-4.17079 0.17242,-4.821717 -6.28827,-1.68287 -6.59076,3.202036 -8.0105,6.93547 -2.63741,6.93547 1.83333,0 3.33557,0.45 3.33832,1 0.003,0.55 1.21198,2.979699 2.6872,5.399331 2.63189,4.316793 5.30781,4.714616 5.30781,0.7891 z M 403.99999,67.28642 c 0,-2.928778 0.34445,-3.195898 2.57901,-2 3.50167,1.87404 5.42099,1.734384 5.42099,-0.394448 0,-0.976081 -1.5,-2.577469 -3.33334,-3.55864 -2.53138,-1.354758 -3.33333,-2.852462 -3.33333,-6.225306 0,-5.300572 -2.20673,-5.824683 -4.05509,-0.963107 -1.11335,2.928315 -1.6441,3.211303 -3.35684,1.789843 -1.4035,-1.164787 -2.46284,-1.259995 -3.41583,-0.306996 -0.953,0.952998 -0.30825,3.499206 2.07896,8.210157 3.73108,7.362925 7.41547,9.076317 7.41547,3.448497 z M 274.0863,62.333332 c 11.06018,-11.807106 11.84544,-12.934922 10.17149,-14.608867 -1.20919,-1.20918 -2.46796,-0.716654 -5.43608,2.126988 -3.85156,3.690027 -6.61141,2.998288 -4.98172,-1.248636 1.03105,-2.68689 -0.41909,-5.936151 -2.64932,-5.936151 -1.37835,0 -1.85735,2.03502 -1.85735,7.890951 0,9.027531 -0.86454,12.109049 -3.39729,12.109049 -2.23356,0 -3.69076,2.2395 -2.60271,4 1.6929,2.739166 5.6045,1.162836 10.75298,-4.333334 z m 275.09528,-0.666666 c 9.55931,-7.936712 -1.15345,-22.649929 -10.90597,-14.978593 -4.95483,3.897469 -4.99957,10.69119 -0.0959,14.548486 4.29183,3.375955 7.31151,3.494007 11.00179,0.430107 z m -8.66954,-4.922116 c -0.40567,-1.057163 -0.52863,-3.007163 -0.27323,-4.333333 0.63141,-3.278651 6.88872,-3.290162 7.51968,-0.01383 0.91709,4.762104 -5.5894,8.66537 -7.24645,4.347165 z M 182.86645,53.333332 c 1.6987,-4.872889 2.89986,-5.036614 4.89094,-0.666666 2.79794,6.140804 4.68635,3.985042 3.719,-4.24552 -1.12544,-9.575729 -2.87816,-12.042512 -6.33424,-8.914801 -1.36152,1.232158 -2.47549,3.011885 -2.47549,3.954949 0,3.395705 -2.70027,3.290607 -4.01071,-0.156105 -1.72561,-4.538708 -4.73761,-3.503195 -4.38369,1.507096 0.65945,9.335773 1.81039,12.521047 4.52417,12.521047 1.77415,0 3.14542,-1.347681 4.07002,-4 z m 263.68561,1.822916 c 5.15395,-1.030788 4.68667,-3.822915 -0.6398,-3.822915 -4.80465,0 -6.32513,-4.227435 -1.76131,-4.897052 4.82589,-0.708071 4.70329,-3.769615 -0.15096,-3.769615 -4.9143,0 -4.9143,-2.839893 0,-4 1.72459,-0.407121 3.41001,-1.563391 3.74538,-2.569487 0.47776,-1.433286 -0.61813,-1.66457 -5.0626,-1.068444 -3.11978,0.418452 -6.14502,1.258172 -6.72274,1.866043 -1.01248,1.065327 0.75226,15.688357 2.17018,17.982602 0.82958,1.34228 2.78162,1.406918 8.42185,0.278868 z M 232.49294,51.666666 c 0.44219,-1.65 0.81217,-4.406172 0.82219,-6.124827 0.012,-1.994108 0.98313,-3.377161 2.68486,-3.822174 3.18474,-0.832826 3.51874,-3.77406 0.55762,-4.910347 -3.45859,-1.327187 -12.55762,-0.917173 -12.55762,0.565861 0,0.756348 0.9,1.720542 2,2.142652 1.43567,0.550919 2,2.796424 2,7.958154 0,5.233386 0.50207,7.190681 1.8445,7.190681 1.01446,0 2.20628,-1.35 2.64845,-3 z m 281.54431,0 c 1.70317,-4.576613 2.78371,-14.327659 1.76163,-15.897492 -0.89356,-1.372456 -1.70936,-1.049788 -3.6381,1.438947 -2.87914,3.715101 -6.82746,3.040645 -6.82746,-1.166275 0,-2.684779 -3.18503,-3.772532 -4.55512,-1.555672 -0.39187,0.634063 -1.1099,4.534063 -1.5956,8.666667 -0.72128,6.137004 -0.5222,7.513825 1.08645,7.513825 1.08327,0 2.64761,-1.488173 3.47636,-3.307051 1.82264,-4.000269 5.58791,-3.173164 5.58791,1.22748 0,4.496386 3.35844,6.695085 4.70393,3.079571 z m -41.20557,-1.615911 c 1.20637,-3.143774 5.74753,-3.876517 8.51317,-1.37365 4.65175,4.209766 5.24672,0.853132 1.36467,-7.698868 -4.79067,-10.553656 -7.54352,-10.971984 -10.82444,-1.644904 -1.2898,3.666666 -2.39159,8.016666 -2.44843,9.666666 -0.11533,3.347675 2.23453,4.074948 3.39503,1.050756 z"
       id="path2506"
       inkscape:connector-curvature="0" />
    <path
       style="display:inline;fill:#454444;stroke-width:1"
       d="M 190.16729,355.33463 C 171.1263,351.39931 151.75807,343.38398 135.03677,332.51945 123.7206,325.16685 100.2897,301.08882 93.011334,289.33333 70.258295,252.58426 64.740682,207.33436 78.128343,167.27801 102.96255,92.973193 183.44622,51.150863 259.93836,72.80271 c 31.31155,8.863038 63.12275,31.27395 80.26308,56.54515 2.45587,3.62086 5.06522,6.58338 5.79855,6.58338 0.73333,0 3.34268,-2.96252 5.79854,-6.58338 17.181,-25.33116 48.94279,-47.677535 80.44466,-56.59777 76.20935,-21.579844 156.84974,20.389173 181.62844,94.52792 13.36168,39.97861 7.88783,85.33661 -14.69465,121.76415 -7.4706,12.05074 -30.75491,36.03197 -42.21377,43.47729 -18.22793,11.84345 -39.71235,20.27985 -59.86872,23.50896 -15.30301,2.45158 -46.79227,1.05405 -61.0945,-2.71147 -33.0932,-8.71283 -65.79178,-30.85172 -83.22163,-56.34604 -2.87189,-4.20066 -5.92216,-7.63757 -6.77837,-7.63757 -0.85621,0 -3.90648,3.43691 -6.77837,7.63757 -17.41916,25.47867 -50.02335,47.56241 -83.22163,56.3684 -14.56857,3.86437 -51.38956,4.98039 -65.8327,1.99533 z m 25.53314,-25.82398 c 0.2258,-13.42237 -0.15606,-22.45308 -0.99201,-23.46033 -1.18343,-1.42595 -13.89992,-2.64463 -40.04176,-3.8374 L 169.99999,302 l 0.49322,16.95833 c 0.68868,23.67954 1.06818,25.05474 7.53608,27.30836 7.97105,2.77736 24.52569,5.58565 31.30404,5.31033 l 6,-0.24369 z m 36.74225,18.64536 c 5.74348,-1.37943 11.05698,-3.12235 11.80776,-3.87314 0.7946,-0.7946 1.4454,-9.91497 1.55731,-21.82397 L 265.99999,302 l -4,0.2192 c -2.2,0.12053 -12.1,0.65245 -22,1.18198 -9.9,0.52952 -18.75,1.55435 -19.66666,2.27739 -1.85942,1.46665 -2.47711,43.70088 -0.66667,45.58354 1.51181,1.57215 20.97864,-0.27268 32.77602,-3.1061 z m 220.59108,-18.64536 c 0.22558,-13.40993 -0.15636,-22.45344 -0.99078,-23.45885 -0.8712,-1.04972 -7.93222,-1.98798 -19.70045,-2.61775 -10.0884,-0.53988 -20.14254,-1.0834 -22.34254,-1.20783 l -4,-0.22622 -0.37147,12 c -0.20432,6.59999 0.0957,16.19773 0.66667,21.3283 l 1.03813,9.32831 5.29193,1.73292 c 8.81571,2.88682 24.93653,5.4429 32.70807,5.1861 l 7.33333,-0.2423 z m 34.59094,18.41482 c 5.65326,-1.44586 10.7998,-3.15 11.43679,-3.78698 1.66459,-1.66459 4.01567,-40.26132 2.54224,-41.73475 -0.71604,-0.71604 -5.72703,-0.63652 -12.36875,0.19628 C 503.09421,303.37001 493.8242,304 488.63496,304 c -5.56054,0 -10.09202,0.65704 -11.03498,1.6 -1.7952,1.7952 -2.34797,43.85306 -0.6,45.65053 1.50552,1.54816 18.99551,-0.3508 30.62472,-3.32506 z M 167.76937,321.33333 c -0.62334,-9.9 -1.38823,-18.69953 -1.6998,-19.55452 -0.31156,-0.85497 -4.05467,-2.25203 -8.31803,-3.10456 -9.59328,-1.91833 -24.089,-6.01129 -33.63442,-9.49688 -8.76655,-3.20119 -9.40127,-2.58517 -9.43004,9.15212 -0.0189,7.70089 0.34115,8.72971 4.77078,13.63277 11.16523,12.35859 44.67677,32.66821 47.93352,29.05007 1.08935,-1.21023 1.19488,-6.70459 0.37799,-19.679 z m 111.77877,17.33282 c 12.36442,-5.60629 29.12797,-17.11749 37.78518,-25.94634 7.16116,-7.30313 7.33334,-7.65764 7.33334,-15.09927 0,-12.81806 0.0655,-12.78274 -14.25604,-7.68456 -6.82584,2.42987 -18.24568,5.75882 -25.3774,7.39767 -7.13174,1.63884 -13.50312,3.65921 -14.15864,4.48971 -1.32948,1.68432 -3.05252,38.88759 -1.85646,40.08366 1.07992,1.07992 0.83338,1.1558 10.53002,-3.24087 z m 143.29655,-16.11661 c -0.26876,-10.56892 -1.0337,-19.8957 -1.69989,-20.72618 -0.66619,-0.8305 -7.04631,-2.85087 -14.17804,-4.48971 -7.13172,-1.63885 -18.48288,-4.94325 -25.22479,-7.34312 -6.74192,-2.39987 -12.59192,-4.02949 -13,-3.6214 -0.40809,0.40808 -0.74198,5.04687 -0.74198,10.30841 v 9.56644 l 8.39885,8.06499 c 4.61936,4.43573 12.69872,10.84656 17.95412,14.24625 10.83935,7.01195 25.65393,14.33155 27.64703,13.65988 0.83709,-0.28209 1.15148,-7.60125 0.8447,-19.66556 z m 122.79,10.04623 c 10.48064,-6.14254 22.1673,-15.16633 27.48376,-21.22143 3.77129,-4.29526 4.21272,-5.67258 4.19445,-13.08741 -0.0288,-11.69153 -0.66808,-12.30908 -9.43004,-9.10956 -9.54543,3.48559 -24.04114,7.57855 -33.63442,9.49688 -4.26336,0.85253 -8.00647,2.24959 -8.31803,3.10456 -1.31965,3.62135 -2.71929,37.66594 -1.60891,39.13461 1.42604,1.88616 8.83944,-1.00699 21.31319,-8.31765 z m -291.6347,-32.65481 c 13.97133,-1.68388 14.45919,-2.34566 13.56199,-18.39698 -0.38294,-6.85081 -0.98499,-12.74476 -1.3379,-13.09766 -0.3529,-0.35291 -11.0477,-0.74771 -23.76619,-0.87732 l -23.12456,-0.23567 -0.3769,15.81089 c -0.22302,9.35607 0.17754,16.47895 0.98118,17.44727 1.50984,1.81925 15.84134,1.54555 34.06238,-0.65053 z m 217.89057,0.85756 c 0.99245,-1.19584 1.41109,-6.1142 1.16326,-13.66667 l -0.38717,-11.79852 -6.65701,-0.41961 c -3.66136,-0.23078 -7.64139,-1.31046 -8.84452,-2.39927 -2.9332,-2.65452 -29.63129,-4.3296 -31.10113,-1.95133 -1.79619,2.90628 -2.50296,22.12533 -0.92227,25.07886 1.75869,3.28616 6.26699,4.21602 27.3004,5.63083 8.19016,0.55092 15.56773,1.08991 16.39461,1.19776 0.82687,0.10787 2.20109,-0.64457 3.05383,-1.67205 z M 112,292.91473 v -8.4186 l -8.90148,-4.94757 c -4.895815,-2.72118 -9.399855,-4.78146 -10.00898,-4.57842 -2.550259,0.8501 14.08848,26.25075 17.24379,26.32432 1.16146,0.0271 1.66667,-2.51301 1.66667,-8.37973 z M 215.33333,284 v -16.66667 h -22.66667 -22.66667 l -0.37642,14.13431 c -0.28998,10.8885 0.0552,14.49253 1.5031,15.69418 2.82502,2.34455 15.9218,3.91295 30.87332,3.69723 l 13.33334,-0.19239 z m 294.89675,15.88362 c 5.73268,-0.79734 10.8669,-2.14734 11.4094,-3 1.70992,-2.68757 1.18773,-20.44278 -0.6395,-21.74376 -0.91666,-0.65265 -11.26666,-0.87612 -23,-0.49658 l -21.33333,0.69005 -0.39084,11.22188 c -0.21496,6.17204 -0.0837,12.02204 0.29148,13 0.85931,2.23929 18.67447,2.41309 33.66279,0.32841 z m 78.61073,-6.25582 c 6.84325,-9.47782 11.53418,-18.16947 10.06962,-18.65766 -0.60912,-0.20304 -5.11316,1.85724 -10.00897,4.57842 l -8.90148,4.94757 v 8.4186 c 0,10.63883 1.58201,10.76643 8.84083,0.71307 z m -223.76824,-3.87046 c -0.39278,-6.01885 -0.66462,-6.38196 -8.40592,-11.22812 -4.4,-2.75446 -9.007,-5.05036 -10.23777,-5.102 -2.96696,-0.12453 -18.01012,8.89163 -18.95834,11.36267 -1.19339,3.10991 0.73424,14.02815 2.384,13.50315 0.81333,-0.25883 4.3484,-4.62026 7.85569,-9.69207 3.50731,-5.0718 6.89545,-9.74 7.52923,-10.37377 0.64754,-0.64755 3.63237,2.55477 6.81378,7.31024 3.11381,4.65441 6.89376,9.82694 8.39988,11.49452 2.343,2.59414 2.90355,2.7369 3.88191,0.98868 0.6289,-1.12382 0.96081,-4.8423 0.73754,-8.2633 z m -198.69388,-7.46426 c 0.28457,-10.77755 -0.0497,-14.50638 -1.34527,-15.00351 -0.94816,-0.36384 -9.21857,-1.10284 -18.37868,-1.64223 L 130,264.66666 l -3.46609,-9.93313 c -5.53631,-15.86601 -6.48105,-14.65609 -9.45753,12.11209 -1.56793,14.10075 -1.52492,14.86218 0.94146,16.66564 4.91608,3.59472 40.63397,13.96732 45.98215,13.35338 1.61294,-0.18515 2.0733,-3.00528 2.3787,-14.57156 z m 123.15007,11.21493 c 8.33064,-2.10393 19.34464,-5.56729 24.47559,-7.69636 9.04208,-3.752 9.34187,-4.02675 9.74835,-8.9344 C 324.47478,268.15886 323.97719,268 295.94784,268 c -18.84689,0 -25.2037,0.41316 -25.64282,1.66666 -0.64258,1.83428 0.25966,23.33767 1.0909,26 0.6973,2.2333 0.78307,2.2231 18.13284,-2.15865 z M 421.447,284.65329 c 0.44944,-6.90372 0.23887,-12.69337 -0.49659,-13.65329 -0.93984,-1.22668 -7.75326,-1.66667 -25.80893,-1.66667 h -24.532 l -1.47396,3.23501 c -2.84043,6.23404 -0.61751,9.48606 9.18648,13.43938 9.98955,4.02813 37.21461,11.40661 40.34465,10.93412 1.53812,-0.23219 2.18022,-3.07012 2.78035,-12.28855 z m 115.46581,10.76611 c 10.93444,-2.303 30.2763,-8.29707 35.60518,-11.0341 3.85126,-1.97808 3.85134,-1.97837 3.0184,-11.83182 -1.29853,-15.36171 -2.39745,-20.7209 -4.15914,-20.28316 -0.87731,0.218 -5.63747,5.04634 -10.57815,10.72968 l -8.98304,10.33333 h -11.13232 c -15.69418,0 -15.35042,-0.26695 -15.35042,11.92043 0,8.86698 0.56782,12.07957 2.13505,12.07957 0.19651,0 4.44651,-0.86127 9.44444,-1.91393 z M 114.2592,266.27422 c 0.89199,-7.16553 2.2287,-16.31128 2.97047,-20.3239 0.74178,-4.01263 1.0372,-8.1074 0.6565,-9.0995 -0.38071,-0.99209 -3.21084,-2.54418 -6.28918,-3.44908 -3.07835,-0.9049 -11.46704,-4.39044 -18.641541,-7.74562 -16.174553,-7.56412 -16.789886,-7.25551 -14.651072,7.34808 0.832032,5.68102 3.067496,15.23946 4.967698,21.24098 3.699559,11.68454 5.903379,14.20815 19.394585,22.2089 9.07352,5.3809 9.72693,4.80713 11.59254,-10.17986 z m 474.95697,10.18592 c 13.40121,-7.75496 15.79709,-10.48277 19.51173,-22.21496 1.9002,-6.00152 4.13567,-15.55996 4.96769,-21.24098 2.12335,-14.49795 1.3727,-14.9418 -13.33965,-7.8875 -11.59131,5.55783 -11.68929,5.64631 -11.68929,10.55487 0,4.59404 -0.4555,5.16649 -6.33334,7.95961 -7.20165,3.4222 -7.05564,2.79699 -4.89177,20.94519 2.14148,17.96037 1.82528,17.64124 11.77463,11.88377 z m -254.74053,-0.36269 c 10.54796,-5.38117 9.99516,-8.66017 -1.32312,-7.84824 -4.92526,0.35332 -5.8866,0.8932 -6.25797,3.51443 -0.45993,3.24633 0.48476,6.90302 1.78337,6.90302 0.41891,0 3.02787,-1.15614 5.79772,-2.56921 z M 365.33332,274 v -4.66667 h -8.16325 c -7.26195,0 -7.97172,0.2308 -6.4284,2.09039 1.98886,2.39644 10.44457,7.09632 12.92498,7.18401 1.0271,0.0363 1.66667,-1.73187 1.66667,-4.60773 z m 185.71107,-9 c 2.86034,-2.14667 22.28892,-30.41594 22.28892,-32.43116 0,-0.878 -3.21221,-1.86063 -7.54382,-2.3077 -8.11484,-0.83752 -10.91839,0.1152 -21.36308,7.2597 -4.70467,3.21814 -6.9058,3.81249 -14.11931,3.81249 -7.82157,0 -8.67445,-0.28247 -10.06452,-3.33333 -2.32217,-5.09663 -8.99348,-4.56231 -15.80209,1.2656 l -5.37283,4.59894 -173.2005,0.75184 -173.2005,0.75186 -3.17187,-4.68412 c -3.00022,-4.43066 -3.57743,-4.68302 -10.66666,-4.66371 -11.46797,0.0312 -11.76076,0.54737 -7.26878,12.81327 l 3.84515,10.49965 9.29775,0.42996 c 5.11376,0.23648 96.29774,1.80407 202.63107,3.48353 106.33333,1.67946 195.16865,3.13598 197.41182,3.23671 2.24317,0.10067 5.07784,-0.56687 6.29925,-1.48353 z m -93.53625,-8.12268 c -1.95444,-2.35496 -0.59652,-3.54399 4.0474,-3.54399 4.11443,0 5.27299,3.14093 1.66872,4.52401 -3.08089,1.18226 -4.06105,1.0142 -5.71612,-0.98002 z m -305.17481,-1.76036 c -3.35623,-1.35427 -1.73295,-4.4503 2.33333,-4.4503 4.31129,0 5.60632,3.0983 1.89095,4.52402 -1.15998,0.44513 -2.20998,0.76194 -2.33334,0.70405 -0.12333,-0.0579 -0.97428,-0.40789 -1.89094,-0.77777 z m 217.57452,-0.59936 c -1.7269,-2.79422 3.83179,-4.81952 7.26296,-2.64626 2.56512,1.62472 0.6421,4.12866 -3.17082,4.12866 -1.74678,0 -3.58824,-0.66708 -4.09214,-1.4824 z m 39.6793,-0.85094 c 0.28346,-1.47194 1.66642,-2.33333 3.74617,-2.33333 2.07975,0 3.46271,0.86139 3.74617,2.33333 0.3511,1.82307 -0.46813,2.33334 -3.74617,2.33334 -3.27804,0 -4.09727,-0.51027 -3.74617,-2.33334 z m 86.66371,0.0153 c 0.55159,-2.86415 4.54958,-3.78407 7.13183,-1.641 2.70491,2.24488 1.16389,3.95902 -3.55916,3.95902 -3.09988,0 -3.91697,-0.53016 -3.57267,-2.31802 z m -210.25087,-0.34867 c -1.32529,-2.14437 0.56684,-4 4.07869,-4 2.36575,0 3.25464,0.72831 3.25464,2.66667 0,1.93836 -0.88889,2.66666 -3.25464,2.66666 -1.79005,0 -3.62546,-0.6 -4.07869,-1.33333 z m 42.85948,-0.64501 c -0.90796,-2.36611 1.64252,-3.839 5.39597,-3.11616 3.72123,0.71664 2.90078,4.37106 -1.08512,4.8333 -2.24497,0.26034 -3.78786,-0.35424 -4.31085,-1.71714 z M 193.58421,251.0153 c 0.55158,-2.86414 4.54957,-3.78406 7.13182,-1.641 2.70491,2.24488 1.1639,3.95903 -3.55916,3.95903 -3.09988,0 -3.91697,-0.53016 -3.57266,-2.31803 z m 45.84249,1.13578 c -1.07312,-1.73635 2.73005,-4.44482 5.49393,-3.91254 1.31014,0.25231 2.58296,1.50186 2.82848,2.77676 0.34431,1.78787 -0.47278,2.31803 -3.57266,2.31803 -2.2105,0 -4.34788,-0.53201 -4.74975,-1.18225 z m -76.98432,-13.50483 c 5.21372,-0.0479 5.98692,-2.16156 8.36485,-22.8668 2.28128,-19.86368 7.04024,-45.0054 11.28594,-59.62387 1.14657,-3.94776 1.59465,-7.64514 0.99574,-8.2164 C 181.58255,146.50236 165.26281,140 163.16299,140 c -2.96984,0 -17.39501,26.80165 -27.62859,51.33333 -5.25421,12.59523 -12.04239,36.08636 -11.12137,38.48651 0.68733,1.79114 2.94591,2.18016 12.65806,2.18016 11.52022,0 11.91461,0.10453 15.47756,4.10336 2.22885,2.50152 4.43946,3.80276 5.66277,3.33333 1.10367,-0.42351 3.0076,-0.77921 4.23096,-0.79044 z m 201.55761,-1.78063 c 0,-0.99056 -0.6587,-3.69056 -1.46378,-6 -1.36648,-3.9199 -1.8873,-4.19896 -7.83673,-4.19896 -4.03827,0 -6.98105,0.7327 -8.03283,2 -2.08157,2.50815 -8.94579,2.50815 -13.33333,0 -2.68613,-1.53553 -11.31976,-1.91468 -44.46666,-1.95274 l -41.13334,-0.0473 -4.86666,5 -4.86667,5 14.66667,0.73644 c 8.06666,0.40504 36.41666,0.85504 63,1 39.83105,0.2172 48.33333,-0.0532 48.33333,-1.53748 z m 34.66666,0.46771 C 398.66665,236.6 396.23124,236 393.25463,236 c -3.26848,0 -5.08564,0.52809 -4.58798,1.33333 0.45323,0.73333 2.88864,1.33333 5.41203,1.33333 2.52339,0 4.58797,-0.6 4.58797,-1.33333 z m -216.59191,-9.04305 c 7.57281,-11.40547 12.02433,-19.26803 12.97123,-22.91059 0.92504,-3.55849 -3.01266,-13.18681 -7.48899,-18.31185 -4.51167,-5.16548 -2.1706,-7.06532 8.73451,-7.08826 5.33968,-0.0107 10.42069,-0.47326 11.29114,-1.02676 4.42834,-2.81581 9.38982,-22.64406 6.36604,-25.44153 -1.21789,-1.12673 -19.18885,-4.17796 -24.60713,-4.17796 -2.87308,0 -3.47031,1.70691 -8.63071,24.66667 -3.50294,15.5854 -8.71084,49.74098 -8.71084,57.12944 0,8.52033 3.1154,7.64237 10.07475,-2.83916 z m 31.78108,7.94298 C 214.91731,234.51573 200.88954,210 198.84529,210 c -2.17778,0 -17.83314,24.40164 -16.7646,26.13056 0.93085,1.50614 30.848,1.60285 31.77513,0.10266 z m 236.14416,-1.5666 c 0,-2.34617 -6.97949,-3.55384 -8.97958,-1.55374 -2.24188,2.24188 0.34696,4.39169 4.77138,3.96222 2.67019,-0.25918 4.2082,-1.13944 4.2082,-2.40848 z m 31.08363,-0.33333 C 481.47789,232.26702 480.29698,232 470.76441,232 c -8.08147,0 -10.76443,0.44309 -10.76443,1.77777 0,3.16623 1.72468,3.66783 11.26095,3.27509 7.68743,-0.3166 9.45768,-0.80672 9.82268,-2.71953 z m -244.06002,-7.02576 c 3.12966,-3.96564 6.01918,-9.18215 6.42118,-11.59225 1.80229,-10.80542 1.2733,-10.21642 9.56399,-10.64904 l 7.6579,-0.39962 -0.42364,-5.33333 c -0.62196,-7.83012 -7.8153,-40.08772 -9.88811,-44.34195 -1.69924,-3.48754 -2.20184,-3.64832 -10.78258,-3.44922 -4.95014,0.1148 -9.87678,0.54518 -10.94807,0.95628 -1.65032,0.63328 -1.94299,6.96526 -1.91623,41.45784 0.0361,46.54178 -6e-4,46.4231 10.31556,33.35129 z M 501.33332,232 c 0,-2.26636 -0.8889,-2.66667 -5.92131,-2.66667 -5.88304,0 -8.3232,1.44701 -6.74536,4 0.45323,0.73333 3.48864,1.33333 6.74536,1.33333 5.03241,0 5.92131,-0.4003 5.92131,-2.66666 z m -381.65055,-1.66667 c 0.73845,-0.91667 1.77245,-3.76667 2.29777,-6.33333 3.71513,-18.1515 18.5506,-54.06467 31.49115,-76.23263 2.85724,-4.89461 5.19497,-9.43008 5.19497,-10.07883 0,-0.64873 -3.68652,-3.72341 -8.19225,-6.83262 l -8.19225,-5.65312 -3.93694,3.73193 c -9.30302,8.8186 -22.92029,26.32745 -36.60439,47.06527 -5.829319,8.83413 -20.407499,36.2922 -20.407499,38.4376 0,2.23725 9.282614,7.72844 21.749439,12.866 12.14624,5.00545 14.64152,5.46088 16.6,3.02973 z m 276.20996,-11.04208 c 12.71967,-12.2618 21.039,-22.89796 25.78482,-32.96557 2.23745,-4.74644 3.97806,-6.60746 6.9219,-7.40067 3.64754,-0.98284 4.15288,-1.92521 6.96711,-12.99236 1.66888,-6.56296 3.04912,-13.27123 3.06721,-14.90725 0.0528,-4.77966 -5.41849,-5.19031 -20.55412,-1.54266 l -13.413,3.23251 -4.94912,9.30904 c -11.34193,21.33359 -25.34017,63.08065 -22.35693,66.67524 3.12492,3.76529 6.80432,1.89736 18.53213,-9.40828 z m 27.76659,8.37541 c 0.72555,-0.91666 1.71995,-4.96666 2.20976,-9 0.48983,-4.03333 1.24749,-9.34232 1.68372,-11.79774 0.64868,-3.65126 0.40105,-4.37983 -1.35951,-4 -3.20992,0.6925 -32.7995,24.15022 -32.03121,25.39336 1.13191,1.83146 28.00569,1.28882 29.49724,-0.59562 z m 20.65517,-3.20742 c 1.09182,-0.66026 -8.8369,-21.13402 -10.85322,-22.38018 -1.98834,-1.22885 -2.71303,0.89064 -4.27632,12.5069 -1.97858,14.70189 -1.72195,15.15653 7.08605,12.55364 3.88428,-1.14786 7.50384,-2.35402 8.04349,-2.68036 z m 106.4408,0.74961 c 2.73594,-3.84228 3.33514,-4.06476 8.75745,-3.25164 5.55793,0.83347 5.82057,0.72181 5.82057,-2.47433 0,-2.23087 -1.44518,-4.41459 -4.33333,-6.54778 C 554.59317,208.20304 533.85097,196 532.2144,196 c -0.77838,0 -1.89506,-0.78011 -2.4815,-1.73358 -1.45062,-2.35849 -9.09902,-7.59976 -11.09008,-7.59976 -1.09566,0 -1.35337,1.3883 -0.80438,4.33334 0.44428,2.38333 1.71945,11.50229 2.83372,20.26436 1.16264,9.14245 2.72945,16.37784 3.67688,16.97958 0.90802,0.57671 6.56009,1.05775 12.56016,1.06898 10.68222,0.02 10.9703,-0.0653 13.84609,-4.10407 z m -31.56984,1.69707 c 1.00623,-1.62811 -4.48959,-39.04698 -6.29525,-42.86198 -2.04966,-4.33049 -32.52916,-27.13446 -35.00022,-26.18624 -1.51208,0.58024 -1.89,4.63034 -1.89,20.2546 v 19.52935 l 7,6.68864 c 11.22915,10.72969 14.48103,12.78007 21.00427,13.24363 5.44076,0.38664 6.22187,0.88888 8.43888,5.42608 2.29499,4.69678 5.20989,6.38544 6.74232,3.90592 z m -43.18547,-1.57259 c 0,-0.74075 -3.55556,-1.33333 -8,-1.33333 -4.44444,0 -8,0.59258 -8,1.33333 0,0.74075 3.55556,1.33333 8,1.33333 4.44444,0 8,-0.59258 8,-1.33333 z m 123.89045,-3.06521 c 4.70642,-2.40984 9.15056,-5.32234 9.87588,-6.47219 2.06328,-3.27099 -11.88929,-29.05451 -29.73478,-54.94811 -6.23092,-9.041 -20.64224,-26.47716 -26.37678,-31.91309 l -3.93693,-3.73193 -8.19225,5.65312 c -4.50573,3.10921 -8.19225,6.18389 -8.19225,6.83262 0,0.64875 2.33773,5.18422 5.19497,10.07883 8.67461,14.86016 18.0106,34.78269 23.41093,49.95787 5.51045,15.48456 6.77116,16.91332 16.06076,18.20173 4.84536,0.67201 5.44635,1.19717 6.56849,5.73969 1.56771,6.34624 3.92194,6.43864 15.32196,0.60146 z M 376.83384,213.261 c 4.29507,-15.77242 9.2256,-29.21918 16.00876,-43.65982 3.20323,-6.81934 5.82405,-12.96934 5.82405,-13.66666 0,-1.65658 -0.42793,-1.6369 -19.2583,0.88518 -18.04854,2.41738 -17.76174,2.23735 -26.83834,16.84696 -2.6197,4.21667 -5.55264,7.66667 -6.51763,7.66667 -0.96499,0 -4.16995,-3.85236 -7.12214,-8.5608 -2.95218,-4.70844 -6.7692,-9.43771 -8.48226,-10.50948 -2.03524,-1.27335 -8.54407,-2.21724 -18.78132,-2.72364 -18.3448,-0.90743 -17.95462,-1.34943 -11,12.46059 2.56666,5.09672 4.66666,10.10828 4.66666,11.13678 0,3.04768 3.82188,5.57467 5.65651,3.74004 1.03028,-1.03028 8.11583,-1.54349 21.30983,-1.54349 h 19.76633 l 1.30033,3.42013 c 0.71519,1.88107 1.30033,5.74202 1.30033,8.57987 0,8.67677 1.81555,11.62181 7.78648,12.6306 5.52826,0.93399 6.8234,2.8492 6.86199,10.14717 0.02,3.78232 1.14599,5.51296 3.15185,4.84435 0.71518,-0.2384 2.68027,-5.50089 4.36687,-11.69445 z m 197.23794,6.85517 c -1.03359,-1.67237 -4.73847,-1.97171 -4.73847,-0.38284 0,0.58667 0.72,1.78667 1.6,2.66667 1.86399,1.86398 4.51135,-0.0624 3.13847,-2.28383 z m -212.38589,1.75347 c 1.78368,-1.78367 -0.87785,-4.53631 -4.38617,-4.53631 -5.49737,0 -8.02227,-1.30667 -9.36887,-4.84851 -1.12536,-2.9599 -1.86367,-3.15149 -12.14526,-3.15149 -9.08612,0 -11.4262,0.45013 -13.76561,2.64789 -2.39752,2.25235 -5.45383,2.78127 -20.46024,3.54076 -17.01307,0.86107 -17.73863,0.78884 -20.36182,-2.02682 -2.50382,-2.68754 -3.78804,-2.88956 -16.1506,-2.54076 -10.99153,0.31012 -13.69292,0.796 -14.87561,2.67557 -3.24194,5.15221 -0.054,5.6384 46.89453,7.15197 60.56815,1.95264 63.70196,2.0054 64.61965,1.0877 z m 111.37888,-12.24782 c 0.39269,-8.26406 0.31331,-8.47745 -5.82863,-15.66666 -3.42472,-4.00867 -6.75386,-7.2885 -7.39812,-7.2885 -1.39016,0 -1.60138,29.79222 -0.22101,31.17258 0.52269,0.5227 3.67269,0.7727 7,0.55556 L 472.66665,218 Z m 16.98517,7.63068 c 1.11359,-1.80182 -8.71906,-10.61701 -11.38329,-10.20537 -2.51293,0.38825 -3.39397,7.13661 -1.26641,9.70016 1.84297,2.22065 11.35472,2.60055 12.6497,0.50521 z M 215.66557,201.71825 c 0.26228,-10.57323 -0.0887,-13.74288 -1.66667,-15.05249 -1.59844,-1.32659 -2.41912,-1.3102 -4.09636,0.0817 -2.24421,1.86253 -7.23588,10.93332 -7.23588,13.14896 0,2.35305 9.94929,16.08477 11.33333,15.64192 0.74182,-0.23736 1.48074,-6.36853 1.66558,-13.82017 z m 236.08159,-0.31496 c 0.0655,-6.94068 -0.4673,-12.35764 -1.26383,-12.84992 -1.71825,-1.06195 -10.48334,3.53368 -10.48334,5.49652 0,2.71489 9.47663,20.68559 10.55639,20.01825 0.59266,-0.36628 1.12851,-6.06546 1.19078,-12.66485 z M 83.16916,203 c 10.515112,-21.64372 31.00641,-51.72155 48.05925,-70.54305 4.09104,-4.51534 7.43825,-8.89108 7.43825,-9.72387 0,-1.81402 -10.5821,-16.06642 -11.92897,-16.06642 -1.90505,0 -21.10468,20.9132 -26.35744,28.70984 C 87.915293,153.87814 79.083436,178.67637 77.720815,199 c -0.46562,6.94474 -0.275099,11.66666 0.47073,11.66666 0.689116,0 2.929043,-3.45 4.977615,-7.66666 z m 219.27704,3.84621 c 0.70488,-4.98185 -1.452,-5.69197 -6.14138,-2.02197 -5.05298,3.95454 -4.46518,6.162 1.48697,5.58424 3.26283,-0.31672 4.30844,-1.11698 4.65441,-3.56227 z M 614.27917,199 c -1.40846,-21.00718 -10.86131,-46.79868 -24.01054,-65.51118 -5.82254,-8.28598 -23.09942,-26.82216 -24.99996,-26.82216 -1.35138,0 -11.93536,14.24728 -11.93536,16.06642 0,0.83279 3.34722,5.20853 7.43826,9.72387 17.05284,18.8215 37.54413,48.89933 48.05925,70.54305 2.04857,4.21666 4.28849,7.66666 4.97761,7.66666 0.74583,0 0.93635,-4.72192 0.47074,-11.66666 z m -299.86898,2.44704 c 0.41692,-7.31274 -0.99188,-9.90762 -4.62263,-8.51436 -1.17902,0.45244 -1.78757,3.05825 -1.78757,7.65441 0,7.50975 0.72061,9.05656 3.93499,8.44651 1.49664,-0.28404 2.17792,-2.37218 2.47521,-7.58656 z m 246.89147,4.21962 c -0.0175,-1.28333 -1.55852,-5.93333 -3.42471,-10.33333 -1.86618,-4.4 -3.8806,-9.54727 -4.47646,-11.43836 C 549.97262,173.01604 531.4691,140 528.79998,140 c -2.04329,0 -18.38633,6.50658 -19.8542,7.90446 -0.92017,0.87631 0.51915,7.59314 5.807,27.09916 1.1024,4.06659 3.1332,6.2514 10.84424,11.66667 5.21831,3.66467 10.10507,6.66304 10.85947,6.66304 0.75439,0 2.61029,1.14283 4.12423,2.53963 3.07548,2.8375 18.19631,12.11828 19.75259,12.12361 0.55,0.001 0.98576,-1.04657 0.96835,-2.32991 z m -268.40243,-6 c 10.59761,-7.10969 12.40671,-9.78261 10.04541,-14.84192 -0.7251,-1.55361 -3.25113,-7.44225 -5.6134,-13.08586 -2.36226,-5.64363 -5.27818,-11.09624 -6.47981,-12.11694 -2.35836,-2.00324 -33.90308,-7.0321 -35.99616,-5.73852 -0.77669,0.48003 -0.52455,3.63327 0.65028,8.13218 2.15477,8.25152 6.83727,29.54106 8.06116,36.65106 1.20796,7.01744 2.57895,8 11.16245,8 7.11844,0 8.5689,-0.55878 18.17007,-7 z m 130.10076,-0.0647 c 6.75085,-6.0646 7.45185,-7.68051 4.42253,-10.19462 -1.5458,-1.28289 -2.36263,-0.86838 -4.27617,2.17008 -1.30096,2.06575 -3.7411,5.45194 -5.42254,7.52487 -3.08596,3.80447 -3.89558,6.24856 -2.05716,6.21011 0.55,-0.012 3.85,-2.5812 7.33334,-5.71044 z m -75.74103,1.85168 c 0.41232,-0.66715 0.37403,-2.19195 -0.0851,-3.38844 -0.68457,-1.78396 -2.54483,-2.10552 -10.33766,-1.78699 -8.70156,0.35568 -9.5388,0.64141 -9.92893,3.38844 -0.4094,2.88264 -0.0343,3 9.58797,3 5.50773,0 10.3514,-0.54585 10.76373,-1.21301 z m -145.19674,-8.24067 c 1.17189,-2.26619 1.80613,-4.96619 1.40943,-6 -0.81962,-2.13585 -8.3913,-2.52188 -11.45624,-0.58405 -1.64592,1.04062 -1.2031,2.06105 2.59488,5.97957 2.51872,2.59865 4.74637,4.72483 4.95036,4.72483 0.20397,0 1.32969,-1.85416 2.50157,-4.12035 z M 473.03472,173 472.66665,152.66666 h -6.66667 -6.66666 l -0.37784,13.47296 -0.37784,13.47296 6.16806,6.86038 c 3.39244,3.7732 6.7281,6.86037 7.41258,6.86037 0.73213,0 1.09296,-8.37136 0.87644,-20.33333 z m -28.93452,13.61554 c 6.70902,-3.42269 5.8073,-5.14894 -2.06549,-3.95414 -6.95651,1.05573 -8.00483,1.756 -6.90795,4.61442 1.04047,2.71142 2.58748,2.59759 8.97344,-0.66028 z m 6.23312,-9.62749 c 1.11008,-0.87557 1.66666,-5.27851 1.66666,-13.18432 0,-11.63928 -0.0692,-11.89604 -3.56425,-13.22487 -5.01085,-1.90512 -6.32097,-0.0451 -9.75022,13.84332 -3.60951,14.61836 -3.23824,15.89763 4.28074,14.75027 3.13523,-0.47841 6.4504,-1.4614 7.36707,-2.1844 z M 219.60763,169 c -0.3178,-1.65 -0.57782,-0.3 -0.57782,3 0,3.3 0.26002,4.65 0.57782,3 0.31782,-1.65 0.31782,-4.35 0,-6 z m 131.69026,1.35113 c 2.58615,-3.84021 4.7021,-7.74021 4.7021,-8.66667 0,-2.12544 -18.08383,-2.37288 -19.3864,-0.26526 -0.78256,1.26621 7.83695,15.91413 9.3646,15.91413 0.33969,0 2.73356,-3.14199 5.3197,-6.9822 z m 159.36132,1.9822 c -0.004,-1.28333 -0.56568,-4.43333 -1.24797,-7 -0.6823,-2.56667 -1.92166,-7.28933 -2.75411,-10.49483 l -1.51356,-5.82814 -8.23847,0.93013 c -11.31121,1.27707 -15.57178,2.21147 -15.57178,3.41511 0,1.2063 26.64124,21.31106 28.23974,21.31106 0.60148,0 1.09024,-1.05 1.08615,-2.33333 z M 325.24666,156.08177 c 1.52002,-0.96184 -0.16691,-3.76695 -8.2066,-13.64624 -5.56598,-6.83955 -11.57155,-13.79108 -13.34574,-15.44786 l -3.22578,-3.01233 -7.90094,5.60326 c -4.34552,3.0818 -8.32618,6.2327 -8.84593,7.00201 -0.83635,1.23795 5.39656,14.11449 8.37576,17.30343 0.94713,1.01381 8.55548,1.87346 28.56923,3.22798 1.46666,0.0992 3.52766,-0.36434 4.58,-1.03025 z M 354.28696,156 c 4.86009,0 6.51877,-0.67348 9.03044,-3.66667 17.24332,-20.5491 24.68259,-29.90405 24.68259,-31.03858 0,-0.74356 -1.59879,-3.76785 -3.55286,-6.72064 -2.52453,-3.81483 -4.34265,-5.25372 -6.28165,-4.97141 -3.46233,0.50409 -20.39365,20.0857 -26.32512,30.44582 -2.47887,4.32969 -5.10704,7.87217 -5.84037,7.87217 -0.73333,0 -3.36151,-3.54248 -5.84037,-7.87217 -5.93147,-10.36012 -22.86279,-29.94173 -26.32512,-30.44582 -1.939,-0.28231 -3.75712,1.15658 -6.28166,4.97141 -1.95406,2.95279 -3.55285,5.97708 -3.55285,6.72064 0,0.74356 4.66067,6.90643 10.35704,13.69525 5.69636,6.78884 11.71209,14.25805 13.36829,16.59826 3.13315,4.42716 8.3955,5.964 16.77467,4.89898 C 346.60832,156.21925 351.01245,156 354.28696,156 Z m 36.37969,-4.14904 c 4.03334,-0.75238 8.40584,-1.6742 9.71668,-2.04851 3.00991,-0.85948 9.15686,-10.44411 8.17366,-12.74475 -0.40532,-0.9484 -4.34727,-4.30567 -8.75988,-7.46059 -6.83502,-4.8869 -8.33775,-5.47915 -10.14915,-4 -4.71484,3.85003 -22.85556,26.86099 -22.11744,28.0553 0.82665,1.33755 10.23596,0.60491 23.13613,-1.80145 z m -103.99999,0.0799 c 0,-2.84018 -6.06214,-11.91061 -7.96699,-11.92056 -1.68304,-0.009 -19.6546,6.40039 -21.25524,7.58023 -1.38093,1.01791 1.87667,2.3264 9.56188,3.84076 10.58208,2.08519 19.66035,2.31587 19.66035,0.49957 z m -71.60201,-5.39553 c 0.8758,-1.39973 0.92196,-9.40956 0.13446,-23.33334 L 213.99999,102 l -4.80616,-0.40227 c -4.6441,-0.3887 -4.90821,-0.16502 -7.83309,6.63407 -5.0994,11.85387 -12.02741,31.7512 -12.02741,34.54286 0,3.01996 1.22308,3.64224 10.19988,5.18954 8.94682,1.54213 13.96113,1.08081 15.53144,-1.42891 z m 251.602,1.90303 c 0,-1.67438 -4.40608,-5.77166 -6.20665,-5.77166 -1.84064,0 -2.49598,4.18627 -0.90446,5.77778 1.1602,1.16021 7.11111,1.15508 7.11111,-0.007 z m 31.76975,-1.67096 c 2.12864,-0.5656 3.72266,-2.02346 3.95864,-3.62046 0.39001,-2.63944 -5.87204,-21.23796 -11.7558,-34.9151 -2.92488,-6.79909 -3.18899,-7.02277 -7.8331,-6.63407 L 477.99998,102 l -1.15512,21.67648 c -1.39748,26.22476 -1.37118,26.28926 10.1729,24.94944 4.32028,-0.50143 9.45866,-1.33778 11.41864,-1.85856 z m -82.02047,-0.19362 c 5.74586,-1.59556 5.87859,-3.92152 0.33555,-5.88021 -3.14796,-1.11236 -4.07168,-0.84411 -6.21724,1.80555 -2.31279,2.85617 -2.37187,5.51164 -0.12227,5.49348 0.50672,-0.004 3.20848,-0.64255 6.00392,-1.41882 z m 34.79216,-1.61641 c 1.00184,-1.58824 0.94324,-2.67265 -0.20657,-3.82247 -2.4013,-2.40129 -7.63479,2.49554 -5.46337,5.11194 1.81726,2.18968 3.75305,1.74945 5.66994,-1.28947 z m -228.21198,-8.70811 c 1.49698,-0.28485 2.78642,0.75864 3.60814,2.91994 1.24397,3.2719 2.59769,3.88953 15.20552,6.93742 7.57213,1.83055 7.09307,-1.41445 -4.50911,-30.54321 l -5.66792,-14.23004 h -5.76947 c -4.19982,0 -6.12032,0.6556 -7.05913,2.40977 -0.78292,1.46292 -0.94641,10.50011 -0.41607,23 0.48048,11.32463 1.18972,18.19604 1.5761,15.2698 0.48208,-3.65109 1.43337,-5.45949 3.03194,-5.76368 z m 250.75073,-9.7559 c 0.51561,-12.561 0.32457,-21.11418 -0.5063,-22.66666 -0.98813,-1.84636 -2.83281,-2.49333 -7.10912,-2.49333 H 460.3567 L 454.15706,117 c -3.40981,8.61666 -6.19006,16.41666 -6.17836,17.33333 0.0289,2.26343 2.0019,2.09988 4.02128,-0.33333 2.38574,-2.87464 5.1731,-2.46443 6.79491,1 1.27561,2.72489 11.42837,11.59368 13.33113,11.6452 0.436,0.012 1.16536,-9.05654 1.62082,-20.15188 z m -212.28892,16.32945 c 11.30883,-3.93848 14.54207,-5.74696 14.54207,-8.13397 0,-4.45349 -27.86792,-40.022135 -31.3572,-40.022135 -2.60905,0 -9.95796,4.453479 -9.9677,6.040475 -0.004,0.7556 2.00028,6.1556 4.45536,12 2.45509,5.84441 5.83494,14.82619 7.51081,19.95952 3.02852,9.27668 4.80736,12.66667 6.64658,12.66667 0.52875,0 4.20528,-1.12975 8.17008,-2.51056 z m -76.25739,-0.66275 c 0.83986,-1.012 3.23334,-6.862 5.31882,-13 2.08548,-6.13801 5.40155,-14.96267 7.36904,-19.61036 3.74262,-8.84098 3.25664,-12.216328 -1.75888,-12.216328 -3.4584,0 -30.79618,33.862818 -30.79618,38.146678 0,1.01932 0.15,1.85609 0.33333,1.85949 0.18333,0.004 3.93333,1.48916 8.33333,3.3017 9.45263,3.89389 9.25198,3.86669 11.20054,1.51882 z m 335.13279,-2.47685 c 3.48333,-1.47303 6.33333,-3.43833 6.33333,-4.36736 0,-4.1521 -27.42967,-37.982478 -30.79619,-37.982478 -5.01552,0 -5.50149,3.375348 -1.75888,12.216328 1.9675,4.64769 5.28356,13.47235 7.36904,19.61036 5.60295,16.49066 5.23142,16.28328 18.8527,10.52315 z m -81.31695,0.44061 c 2.02568,-0.77197 4.24007,-2.76562 4.92087,-4.43034 5.0952,-12.4591 13.39608,-34.30624 13.39608,-35.25726 0,-1.862564 -8.9951,-6.184615 -11.15028,-5.357592 -4.03589,1.54872 -30.18305,36.192932 -30.18305,39.991662 0,2.57268 11.80512,7.76373 16,7.03565 1.83333,-0.3182 4.9907,-1.21014 7.01638,-1.98212 z m -268.6146,-17.79045 c 4.42532,-6.05 11.0496,-14.51999 14.7206,-18.82221 3.79732,-4.450236 6.36332,-8.633276 5.95256,-9.703704 -1.19931,-3.125363 -5.41796,-4.741111 -8.32155,-3.187161 -7.42772,3.975193 -37.42005,29.805165 -37.42005,32.226865 0,1.71114 12.361,10.41546 14.84452,10.45316 1.21022,0.0184 5.75277,-4.85432 10.22392,-10.96695 z m 119.81039,5.62347 c 3.91664,-2.95708 7.12116,-5.88441 7.12116,-6.50516 0,-3.12963 -39.04873,-36.118308 -42.75328,-36.118308 -2.10345,0 -6.58005,3.925416 -6.58005,5.769879 0,0.746117 2.89969,4.703125 6.44376,8.793349 3.54407,4.09023 10.77359,13.28677 16.06561,20.43677 5.29202,7.15 10.2878,13 11.10175,13 0.81395,0 4.68441,-2.41944 8.60105,-5.37653 z m 130.09485,-5.74267 c 4.2022,-6.03991 11.23228,-15.15896 15.62239,-20.26456 4.39012,-5.105597 8.00196,-9.835661 8.02631,-10.51125 0.0711,-1.973844 -4.19474,-6.104988 -6.3041,-6.104988 -3.86985,0 -42.98496,32.850728 -42.98496,36.100808 0,1.717 13.74538,11.86165 16,11.80865 1.1,-0.0259 5.43816,-4.98876 9.64036,-11.02866 z m 119.05137,7.10195 c 3.21139,-2.20948 6.23695,-4.66133 6.72347,-5.44854 1.19705,-1.93688 -5.51805,-8.72244 -21.04091,-21.26167 C 510.1056,90.541223 507.65269,89.038644 504.7262,90.161645 c -5.29815,2.033094 -4.79406,5.208912 2.11148,13.302255 3.69297,4.32819 10.33521,12.81943 14.76053,18.86943 4.42533,6.05 8.91799,11 9.98368,11 1.06569,0 4.56512,-1.80776 7.77649,-4.01725 z m -386.90143,-18.0945 c 4.51534,-4.09479 13.12996,-11.14479 19.14362,-15.666663 9.00781,-6.773284 10.94556,-8.87487 11,-11.930098 0.0369,-2.074316 -0.79338,-4.038323 -1.88432,-4.456958 -6.25399,-2.39988 -50.13717,19.818488 -50.01653,25.323719 0.0601,2.74132 9.28516,14.17508 11.43685,14.17508 1.16087,0 5.80504,-3.35028 10.32038,-7.44508 z m 404.16368,1.11175 c 2.55562,-3.48333 4.66144,-7.01212 4.67963,-7.84175 0.12067,-5.505231 -43.76254,-27.723599 -50.01653,-25.323719 -1.08843,0.417667 -1.92404,2.387434 -1.89073,4.456958 0.0491,3.048805 1.91685,5.094533 10.49968,11.499956 5.74198,4.285293 14.26513,11.306985 18.94032,15.603755 4.67517,4.29678 9.54449,7.84063 10.82069,7.87523 1.27621,0.0346 4.41133,-2.7871 6.96694,-6.27043 z m -250.66871,0.0238 c 1.85978,-2.73691 3.3814,-5.64997 3.3814,-6.47349 0,-0.82351 -3.45,-3.90854 -7.66666,-6.855612 -17.04144,-11.910443 -47,-24.161075 -47,-19.219203 0,0.628205 5.64862,5.44401 12.5525,10.70179 6.90388,5.25778 16.65388,13.417875 21.66667,18.133535 5.01279,4.71567 10.14253,8.59986 11.39943,8.63155 1.25689,0.0317 3.80689,-2.18168 5.66666,-4.91858 z m 96.34923,-3.10703 c 4.75253,-4.44577 14.57898,-12.644342 21.83657,-18.219051 7.25757,-5.57471 13.1956,-10.637266 13.1956,-11.250124 0,-4.91524 -30.01564,7.376549 -47,19.247103 -4.21667,2.947072 -7.66667,6.032102 -7.66667,6.855612 0,2.75984 6.73816,11.44966 8.87816,11.44966 1.16344,0 6.00379,-3.63744 10.75634,-8.08321 z M 236.7929,94.984044 c 6.85364,-3.548783 13.87376,-11.422255 13.87376,-15.560233 0,-2.824744 -0.8719,-3.3019 -8.44255,-4.620272 -10.74753,-1.871601 -39.32348,-1.681627 -48.89078,0.325028 -5.93492,1.244793 -7.41226,2.092444 -7.74722,4.445101 -0.62517,4.391084 8.03396,13.154113 16.18759,16.3818 9.31203,3.68625 26.96997,3.196422 35.0192,-0.971424 z m 253.05343,0.958929 c 8.52593,-3.18996 17.22081,-11.780808 16.56753,-16.369305 -0.33496,-2.352657 -1.81229,-3.200308 -7.74721,-4.445101 -9.56731,-2.006655 -38.14325,-2.196629 -48.89079,-0.325028 -7.57065,1.318372 -8.44254,1.795528 -8.44254,4.620272 0,5.885526 10.11724,14.993494 19.99137,17.997066 6.77652,2.061328 21.03721,1.322383 28.52164,-1.477904 z"
       id="path2504"
       inkscape:connector-curvature="0" />
  </g>
</svg>
