<svg width="1704" height="1146" version="1.1" viewBox="0 0 1704 1146" xmlns="http://www.w3.org/2000/svg">
	<g>
		<path d="m270.75 863.25-260.75-260.75v-1.4986h522v523h-.50144zm552.23 138.22-18.162-20.55.46939-1.2121.46939-1.2121 34.499-36.5h1.3551l6.3923 6.5952v1.6497l-30.087 29.255 32.94 34.928-.68875 1.1144-9.0253 6.4815zm57.685 18.032-3.8378-1.4625-8.1282-5.9775-6.4915-9.1304-3.4669-12.808.44578-10.819.44577-10.819 5.1914-11.34 8.3962-9.1088 11.006-5.3846 15.447-.89423 10.83 3.1531 8.5465 6.2919 5.8197 8.4586 4.1338 12.271-.0148 7.7815-.0148 7.7816-1.481 6.2815-1.481 6.2815-3.8046 7.437-3.6645 3.7649-3.6645 3.7648-10.375 5.3581-20 .5812-3.8378-1.4626zm20.894-9.3925 4.0558-1.8422 3.5673-4.1676 3.5673-4.1676 3.6998-11.437-.1148-17-3.4237-8-2.4675-3.5736-2.4675-3.5736-7.4725-4.1354-6.4667-1.369-10.756 3.1268-8.0031 8.6824-1.8872 5.4212-1.8873 5.4212.0642 19 4.543 10 5.3928 5.7522 4 1.8519 4 1.852h8l4.0558-1.8422zm132.87 9.0488-4.0708-1.9044-6.0756-7.3708-1.1415-3.8098-1.1414-3.8097.022-3.884.022-3.884 1.852-4 1.8519-4 5.7522-5.3804 13.155-6.1468 21.341-3.4728v-9.5642l-1.3944-3.3372-1.3943-3.3372-2.3282-1.6307-2.3281-1.6307h-9.3519l-11.703 6.1506-1.5787 1.4247-1.5788 1.4247-1.8425-.0248-4.7278-7.2948 4.7278-3.6348 14.919-7.4262 16.081-.76052 9 4.6411 4.6134 9-.2768 25.5-.2768 25.5 2.5106 4.5h4.8116l1.236-2h1.8306l1.5132 2.9262 1.5132 2.9261-7.0312 4.3456-7.9061 1.0604-6.132-2.54-1.4529-2.8095-1.4528-2.8095v-3.2693l-4.5246 3.9828-4.5246 3.9827-3.7254 1.7891-3.7254 1.789-5.5.3468-5.5.3467-4.0707-1.9044zm17.026-9.1457 2.5855-.983 10.694-8.0739.5227-10.23.5227-10.23-.7586-.81869-.7587-.81868-17.7 4.2038-8.5512 5.0113-1.667 3.2111-1.6671 3.2111-.01 4.0308-.01 4.0308 1.8099 2.7623 1.8099 2.7624 2.6068 1.4168 2.6067 1.4168 5.3698.08 2.5855-.983zm-114.46 5.6032v-4.6202h4.3243l8.53-4.9989 4.9066-10.501 3.148-13 2.9606-22 1.3887-16.5 43.242-.00132-.2441 34.251-.244 34.251-.5513 3.25-.5512 3.25h-11.409l.25482-19.751.25483-19.751.24517-12.752.24518-12.752-21.312.004-.64706 5.25-.64705 5.25-1.9637 14.199-1.9637 14.199-1.9802 6.3006-1.9802 6.3006-2.2649 3.9646-2.2649 3.9646-9.6309 5.9544-11.845.8568v-4.6202zm-264.66-22.282.66033-25.662v-23.676h12.258l-.61051 5.75-.61052 5.75-.14334 27-.14335 27 14.468.2758 14.468.2759.65627-13.684.65627-13.684v-38.684h12.022l-.67295 33.028-.67295 33.028 29.824-.5553 1.2286-64 .27136-1.5h11.596l-.62252 54.5-1.166 20.5h-94.128zm119.42-8.5878.29689-34.25 1.0338-6.5 11.409-.00164-.22992 28.251-.22991 28.251-1.2268 18.5h-11.35zm-109.4-120.73-4.145-.88373-9.7101-5.092-3.7022-2.9165 5.4928-7.2015.61708.2849.61707.2849 11.805 5.8963 11.739.8491 8.8039-3.3622 7.0143-7.764 1.5564-5.2411 1.5564-5.2411v-6.637h-30v-9h30v-4.7486l-1.479-4.1918-1.479-4.1918-2.1053-2.9566-2.1053-2.9566-8.1581-4.162-13.454.76021-12.452 6.4217-.83749-.51759-.83749-.5176-4.1757-5.8642 10.583-6.9395 11.83-3.3736 15.447.89423 11.138 5.4496 6.1263 7.7351 1.9929 4.5052 1.9929 4.5052 1.1252 7.9563 1.1252 7.9563-1.1534 7.755-1.1534 7.755-5.9368 12.439-9.1833 8.4649-9.1069 4.0284-15.244.70098zm95.145-19.718-18-20.604-1.2563 34.798-.24366 4.5-11.5.00035.26122-32.75.26123-32.75 1.1215-10.5h11.458l-.36754 18.25-.36755 18.25 11.662-12 25.482-26.882 6.9894 6.7744v2.4594l-29.916 28.548 8.4161 9.5423 24.582 25.904-9.3697 7.1543-1.2124-.0898-18-20.604zm61.429 19.39-4.5706-1.2959-9.443-5.534-6.1396-8.3663-2.0266-4.5-2.0266-4.5-.48408-11.167-.48408-11.167 2.1213-6.8331 2.1213-6.8331 7.0979-9.6044 9.4048-5.976 10.896-3.1765 13.685 1.1473 10.552 4.831 7.6475 7.7786 6.2193 13-.0926 25-4.4724 11.29-6.0172 8.3066-9.3487 5.9288-7.069 2.0456-13 .92146-4.5706-1.2959zm19.096-10.991 4.3395-2.2948 6.4704-9.3892 3.1651-13.916v-6.0068l-1.1232-5.2992-1.1232-5.2992-1.7892-3.5-1.7892-3.5-6.6753-6.3773-5.6302-2.1227-9.3698.044-8.1415 3.6978-6.3428 7.6949-3.468 10.063-.0272 19 2.5911 5.5 2.5911 5.5 5.7972 5.7773 6 2.6444 10.185.0782 4.3395-2.2948zm149.12 11.28-4.3533-.91623-8.5957-5.0374-8.1311-9.2374-4.2754-11.294-.50697-8-.50698-8 1.1203-6 1.1203-6 5.0447-10.327 8.4374-8.484 11-5.168 19 .0356 5.6614 2.7526 5.6613 2.7526 7.407 8.1986 4.8622 10.62 1.0271 6.3098 1.0272 6.3098-1.2992 11-2.1422 9-1.9234 3.8494-1.9235 3.8494-7.8629 8.5303-11.641 5.224-13.854.94839-4.3532-.91622zm17.796-10.956 3.8634-1.971 6.2528-7.558 1.9703-6.3553 1.9704-6.3553v-13.426l-1.4901-5.0178-1.4902-5.0179-5.9929-8.273-8.362-4.266-12.453.79296-7.7117 5.3862-4.3471 6.5325-1.6926 5.2533-1.6926 5.2533.42748 9.7467.42747 9.7467 2.5897 5 2.5897 5 4.698 4.3671 6 3.1205 10.58.012 3.8634-1.971zm328.39 11.074-3.168-.8173-8.9532-5.2469-5.5305-6.5392-4.625-10.059-1.0527-7.4229-1.0528-7.4229 2.0978-15.095 5.7288-12.247 7.4025-8.1937 5.2937-2.59 5.2938-2.59 11.114-1.1471 9.4057 2.3684 8.5957 5.914 6.4866 13.176.8822 16.809h-49.541l.5903 7.0404.5902 7.0404 4.868 10.633 7.3859 5.6335 10.632.88165 3.617-1.1937 3.6171-1.1937 5.2239-3.9252 5.224-3.9252 6.9731 6.9731-1.9655 1.5416-1.9655 1.5416-8 5.6788-8.6776 4.4049-13.322.78948zm25.328-53.808-.6013-3.705-4.5592-8.8541-6.9688-3.736h-6.6109l-3.7101 1.9027-3.7102 1.9027-4.2794 4.6946-5.2206 10.434v1.0665h36.262zm53.26 53.679-4.5795-.75956-7.9308-4.046-8.5893-9.3183-2.5843-5.6448-2.5842-5.6448-.4529-10.184-.453-10.184 4.1818-13.768 7.9992-11.171 9.5726-6.0263 7.7737-2.4742 14.515.93151 9.0006 5.2747 5.2932 6.2906-1.78 1.9669-1.78 1.9669-1.8682.99983-1.8682.99982-6.286-6.0622-5.6302-2.1227h-7.934l-6.4358 2.7672-3.7006 3.8664-3.7007 3.8664-4.2204 9.5635-1.17 13.956 3.5166 12.991 5.5954 7.7242 4.4056 2.1327 4.4055 2.1327h8.2384l5.0256-1.9108 8.1898-7.399 6.921 6.7081-6.5062 6.7188-12 5.7119-8 .90465zm76.58-19.725-18-20.614-.6196 18.932-.6197 18.932-.1303.75-.1304.75-11.5.00061.2536-30.75.2535-30.75.5818-7.25.5817-7.25h11.641l-.9846 36.5 12.712-13 24.458-25.894 7.0021 6.7867v2.4336l-30.014 28.838 22.301 23.836 10.91 11.258-9.4851 7.2424-1.2124-.1368-18-20.614zm117.7 17.612-4.3028-3.044.3028-.84716.3029-.84715 18.838-23.966 4.662-2.495v-1.662h-4.0797l-7.4203-3.7872-3.2588-3.7128-3.2412-6.4007.044-10.599 1.8211-4.0086 1.821-4.0086 7.2858-6.397 10.391-3.0858h31.441l-.4802 36.75-.4803 36.75-.7806 2.5h-11.161l.5978-31.003-7 .0468-8.4605 3.8406-21.139 28.615-1.4004.40517-4.3029-3.044zm42.803-52.361v-12.5h-16.87l-5.6302 2.1332-4.503 4.2183-.943 3.415-.9429 3.415 1.1944 3.6227 1.1945 3.6227 6.7958 4.5731h19.704zm-601.16 52.928-4.6558-1.4331 5.4129-20.747 5.4128-20.747 4.2174-16.294 4.2175-16.294 9.9956.58895 15.52 50 2.3532 10.5h1.3651l2.5308-8.5 23.166-52.5h9.5821l.5043 2.25.5042 2.25 5.1468 34.818 5.1467 34.818-.882.80232-.8819.80231-9.2641 1.1887-1.0488-5.4294-6.3426-48-.51-2.5-.5101-2.5-2.2932 7-2.2933 7-19.086 43-9.7043.589-15.444-47.589-1.1654-4.5-1.1655-4.5-2.599 15-10.526 42.5-2.0471-.1394-4.6557-1.4331zm112.16.15535-3.5-1.2649.2998-31.909.2998-31.909 1.1308-10.5h11.075l-1.3312 43.5-.544 8.5-.5439 8.5 6.6138-10.694 33.517-50.306.8983-.30231.8984-.30231 7.5059 3.1362-1.3198 51.293v22.676h-11.846l.8066-14.5.4693-21.366.4692-21.366-.6362.63624-.6362.63623-8.1269 13.565-30 43.38-2-.1372-3.5-1.2649zm376.9-.57389-3.5996-1.9026-6.1916-7.0518-1.049-3.7773-1.0489-3.7773-.01-3.9343-.01-3.9343 4.1558-8.5848 6.3442-5.357 10-4.6561 14-2.9248 9.5-1.2314v-10.377l-1.7485-3.4861-1.7484-3.4861-5-2.4983-7-.01-5.4927 2.5567-5.4928 2.5567-6.2904 4.7979-5.5332-7.9844 3.8091-2.9576 16.841-8.4848 17.159-.004 7 4.0458 4.5806 8.9542-.2008 26.204-.2009 26.204 2.566 3.0918h3.8866l3.7998-2.0336 3.016 5.8324-1.2236.97561-1.2237.97561-3.2003 1.625-3.2004 1.625h-9.1902l-4.9489-4.9489-.6071-3.0358-.6072-3.0358-4.4326 4.0859-4.4327 4.0859-8.3806 3.8048-11-.0444-3.5997-1.9026zm20.6-10.505 4-2.3594 6.3117-5.6444.6085-10.391.6084-10.391-10.529 1.1615-10.177 3.1028-3.3196 2.2593-3.3197 2.2592-4.0172 5.4234v9.1531l1.9877 2.7117 1.9878 2.7117 6.8578 3.546 5-1.1828zm-674.16-14.754.65844-26.25.002-11.75.00209-11.75h12v31.047l34.5-.54723 1.2418-30 .2582-.5h11.781l-.41936 29.75-.41935 29.75-.56109 8.25-.56108 8.25h-12.051l1.4603-36h-34.952l-1.2612 10.5-.009 12.75-.00838 12.75h-12.321zm394.66 9.143v-17.107l-3.5 1.4431-10.45 3.7709h-15.735l-8.8146-4.5875-4.5-8.8363v-33.576h12.134l-.2983 15.452-.2983 15.452 4.098 5.4888 5.8645 1.6748 10.458-1.2058 6.0209-3.0087 6.021-3.0087v-30.844h11v41.5l-.6544 17.25-.6543 17.25h-10.685v-17.107zm-530.56-138.77-3.062-.79652-10.523-5.7274-5.5868-7.1021-4.0197-8-2.2464-10.598v-11.803l1.1076-5.2992 1.1076-5.2992 4.9167-10 8.1333-8.3459 12.235-5.5432 17.104.0612 11.192 5.1238 7.9161 7.9161 5.2188 10.788 1.0691 6.846 1.0691 6.846-1.0895 8.154-1.0895 8.154-5.6163 12-7.6384 7.5313-10.604 5.1881-16.531.70319-3.062-.79652zm15.254-9.6273 5.0553-1.5013 8.1463-8.8377 2.1866-7.1989 2.1866-7.1989-.54084-8.131-.54084-8.131-3.2308-7.5446-7.4546-8.2612-6.4358-2.6943-8.5642.044-8.1116 3.6844-6.9899 8.1661-1.8362 5.8028-1.8362 5.8028.086 16 4.1749 11.082 7.7438 7.5616 7.769 2.769 3.137.0878 5.0553-1.5013zm66.481 9.0777-4.3267-1.4107-7.7832-5.3938-5.1874-6.801-5.376-11.471.04-25 2.3006-5.7467 2.3006-5.7467 10.175-11.133 10.184-5.3453 17-.004 8.3874 4.4592 7.1126 7.3236-.014 1.1932-7.0572 4.8063-2.7146-2.6001-2.7143-2.6002-7.4358-3.1061-6.5642.044-8.0172 3.6421-6.7715 7.7124-2.0862 4.5508-2.0862 4.5508.0208 20 4.724 10.587 7.8333 6.705 8.9756 2.2601 7.46-2.0088 6.9473-5.084 2.5043-3.3475 7.0074 6.7918-7.5117 7.6934-10.489 5.1324-12.511.75767-4.3267-1.4107zm67.822.13241-4.5046-1.275-9.0983-6.2598-5.2992-7.674-4.4156-10-.4702-9.7-.4702-9.7001 1.2066-4.7999 1.2066-4.8 4.9812-10 8.3681-8.6684 9.4925-4.8615 11.874-1.2411 9.4195 2.3719 8.4095 5.7859 3.3739 5.1492-5.5697 4.9008-2.19.0632-3.81-4.2825-8-3.6736h-7l-8.1116 3.6844-7.4686 8.7254-4.1897 13.794.54734 7.2372.54735 7.2372 4.459 10.365 7.8333 6.705 8.9756 2.2601 7.7828-2.0957 9.8768-7.8072 6.3245 6.5252-9.2255 8.5038-9.1245 4.0362-11.227.76939zm234.5.42194-3-.78682-7.5134-3.5782-9.8454-10.772-4.3344-11.493-1.086-15.404 1.2326-6.2649 1.2325-6.2649 4.9392-9.7471 8.0919-8.7786 10.549-5.1613 11-1.1352 10.196 2.4459 9.0023 6.8738 2.2448 4.1944-5.7087 4.6696-2.19.072-3.81-4.2128-3.7102-1.8936-3.7101-1.8936-7.5797.044-8 3.7039-5.3869 5.7522-2.766 6-2.7659 6 .136 18 1.6606 4.4313 1.6605 4.4313 2.5383 3.3279 2.5384 3.3279 8.2688 4.2184 9.1153.109 6.473-3.3834 6.7066-5.8884 6.8204 7.0873-8 6.9308-9.6005 4.9923-12.4.83295-3-.78683zm78-19.821-18-20.6-.2711 19.645-.2712 19.645h-11.958v-44.5l1.3064-31.5h11.98l-1.421 36h.8642l18.764-19.471 18.153-18.755 6.6512 8.3978-29.594 29.643 4.79 5.9887 27.5 28.935v.92251l-8.827 6.339-1.673-.0898-18-20.6zm117.73 17.578-4.2676-3.0224.7095-1.183.7096-1.183 17.947-22.731 5.9482-3.6173-7.9768-2.1479-3.4011-2.2602-3.401-2.2602-4.5-8.9076.02-9.0762 4.697-10 1.9283-1.7118 1.9283-1.7118 4.9634-2.239 4.9635-2.239 34.826-.83224-1.3206 43.734v32.5h-12.312l1.3014-30.067-3.2975-1.2654-9.1916 2.4508-5.7134 5.3816-18.959 25.5-1.328-.0892-4.2676-3.0224zm42.548-52.259.2808-12.871-18.562.86458-6.4661 3.4105-1.517 2.9334-1.5169 2.9334v7.9459l5.0132 5.9579 7.4868 2.0274 15-.33184zm-422.69 52.814-3.4072-1.4787 1.3143-36.285v-37.679h12.229l-.62842 17.25-.62841 17.25-.54234 13-.54235 13 2.2085-3.5 2.2085-3.5 35.973-54.5h1.4779l7.555 3.1567-.6526 18.672-.6525 18.672v36.5h-12.111l1.1376-32.5.5477-12.478.5478-12.478-1.4952 1.4952-8.1269 13.565-30 43.38-1.5-.0317-1.5-.0316-3.4072-1.4787zm83.001.00034-3.4063-1.4783.6563-16.642.6564-16.642v-40.681h12.244l-1.279 37.5-1.0886 23 2.2143-3.5 2.2144-3.5 17.987-27.25 17.987-27.25h1.4779l7.5566 3.1574-.6536 20.171-.6535 20.171v33.5h-12.046l.5358-15.25.5359-15.25 1.0456-26.904-1.4442 1.4442-8.1269 13.667-30 43.266-3-.0514-3.4064-1.4783zm228.34.14407-3.0637-1.3342-7.1646-8.3703-1.104-4.3843-1.104-4.3843.02-3.6144 2.1406-7.7094 7.8532-8.5197 11.963-5.3686 13.532-2.8675 8.5-.0348v-12.5l-1.9188-3.1469-1.9189-3.1469-7.2327-2.387-9.6801 2.3222-11.742 7.7642-1.7784-2.2028-1.7785-2.2028-.9706-1.6826-.9707-1.6826 5.8396-4.1582 15.441-7.3328 15.218-.115 8 4.1479 2.2335 3.9116 2.2336 3.9116.016 26.639.016 26.639 3.6702 4.5326 6.352-3.1688 3.1664 6.1232-2.6886 1.8078-6 3.2498-8.3423.01-2.505-1.6413-2.5049-1.6413-2.4976-6.9071-7.9991 6.8469-8.2825 4.0095-11.869-.0782-3.0637-1.3343zm17-8.9962 3.3716-1.4088 10.02-7.4809 1.417-20.79-.6732-.67325-.6733-.67325-16.297 3.3698-9.1014 4.6836-4.5 6.6772.015 4.1021.015 4.1021 1.2498 2.47 1.2498 2.47 3.3834 2.28 3.3833 2.28h3.7684l3.3717-1.4088zm-623.06-16.341.60868-25.75.62271-26.75.6227-26.75h35.675l9.8891 2.1208 10.655 6.3792 3.2772 6.3374 3.2772 6.3374v16.506l-6.1194 12.246-7.3806 5.7841-4.7788 2.509-6.2212 2.0511-27 1.2293-.539 43.5h-13.197zm40.943-31.139 4.816-2.3538 2.684-4.0558 2.684-4.0558v-16.146l-4.6684-6.5453-8.3316-4.3817-24.5-.77868v41.422l22.5-.75058zm353.91-30.523-4.2782-1.3942-3.3853-2.582-3.3852-2.582-3.2884-3.2884 6.4568-5.3903 10.897 6.5616 8.5774 1.2863 6.6845-1.4342 7-3.3862 2.2418-1.4249 2.2419-1.4249 5.4162 5.4163-2.4499 2.6263-2.45 2.6263-10 5.1434-16 .64142zm-106.72-82.096-10-1.4153-19.745-4.2225-22.255-7.5084-17.446-7.7974-4.1442-3.126 17.304-41.923.60019-.64747 5.9482 3.0759 25.738 8.8013 18 4.1573 19.421 2.113 12.579-.039 21-2.8372 18-5.2001 18-8.8802 7.8493-6.2339 7.8494-6.2339 6.4619-8.0378 6.462-8.0378 4.9281-10 4.9282-10 2.4498-8.6524 2.4499-8.6524.6899-6.0976.6898-6.0976h-132.26v-47h133.29l-.6266-7.25-.6265-7.25-4.1708-14.945-8.0356-15.445-11.334-13.466-14-10.753-16.256-7.9435-19.112-4.848-21.632-2.3461-25 1.3696-22 3.7777-17.796 5.1774-15.74 6.2199-.68615-.79699-14.135-42.539 9.3575-4.715 19.674-7.3442 23.326-5.8918 28-4.4572 49-.0532 15 2.6465 18.472 4.9086 16.275 6.8641 14.252 8.3933 16.102 12.485 7.6702 8.1534 7.6701 8.1534 11.958 17.878 7.079 14.918 4.8118 12.784 2.1373 8.5311 2.1372 8.5311 1.4476 10.877 1.4476 10.877.019 16.699.02 16.699-1.5403 11.801-1.5404 11.801-2.5552 10.5-2.5551 10.5-3.5305 9.5-3.5304 9.5-4.4734 9-4.4735 9-6.644 10-6.6441 10-11.006 11.028-11.007 11.028-14.451 9.5386-16.573 8.8165-13.976 5.3405-17 4.7608-17 3.2106-45 .68567-10-1.4153zm-950.33-5.3104.33333-.81751 263-254.38 231.73-239.49 26.769-27.523v523.02h-522.17zm655.84-8.9325.0113-9.75 4.9568-278 .0104-8.25.01028-8.25h118.08l19.236 2.145 19.185 4.8473 18 8.7244 12.752 9.6425 10.901 13.141 8.7225 18 3.0925 12 1.1818 10.776 1.1818 10.776-1.1581 11.835-1.1581 11.835-5.1055 17.777-7.8832 16-10.667 14-14.86 12.546-22 10.964-19.191 4.8462-22.809 2.1365-52.21.006-1.3114 73.5-1.2699 48.5h-57.709l.0113-9.75zm119.28-158.05 7.7959-2.1412 12.689-6.0561 10.007-8.9973 6.0561-9.505 4.0864-12.232.66286-7.9482.66285-7.9482-3.4069-16.814-5.2155-11.058-11.253-11.279-12.224-6.1706-14.657-4.3494-52.32-.8934-1.116 12.692-1.2269 95.676 51.663-.83503zm407.71 165.55.01-2.25 4.9568-278 .022-31.5h59l-.028 14.5-1.9703 110.5-1.9704 110.5-.032 28.5h100.7l1.2588-45.5 3.1552-210 .5035-4.25.5036-4.25h57.914l-1.2268 55.5-3.5536 207 .4308.75.4307.75h100.88l-.046-10.5 4.0824-229 1.1646-24.5h57.799l-.022 31.5-4.9512 275-.026 7.5h-379l.01-2.25z" style="fill:#095594"/>
		<path d="m823 1001-17.5-20.001v-1.6759l35-37.121 7.5357 7.2659-30.387 30.435 32.811 34.362-7.9593 6.733h-2l-17.5-20.001zm58.332 18.241-5.1675-1.8512-7.1072-5.4209-5.205-6.8241-4.0867-10.618-.50668-8.5-.50667-8.5 1.1882-5.7195 1.1882-5.7195 5.9645-11.936 7.3151-6.4227 11.091-5.1708 18-.0314 11.405 5.6007 8.9873 9.996 4.0982 10.953 1.268 13.643-1.1876 6.9033-1.1876 6.9033-2.3269 5.12-2.3269 5.12-7.4069 8.1986-11.285 5.3389-17.037.788-5.1676-1.8511zm23.874-10.787 4.2931-3.0119 7-13.714-.0149-10.601-.015-10.601-4.1538-9-5.7336-6.7846-8.0827-3.6715-6.768-.044-8.232 2.4597-8.3944 8.3821-4.3435 14.3.84686 17.713 5.936 11.645 9.955 6.6915 13.414-.752 4.2931-3.0118zm131.68 11.245-3.615-1.3446-3.0492-2.1712-3.0492-2.1713-2.3089-4.743-2.3088-4.743.056-11 2.189-4.1975 2.1891-4.1975 9.3062-6.4028 13.748-4.6512 15.118-1.877.5968-.59675.5967-.59675-.2882-10.955-1.5252-2.9494-1.5252-2.9494-1.125-.69532-1.1251-.69532-6.6916-1.5092-8.7606 1.8685-5.9059 3.9279-5.906 3.9279-2.245-2.7256-2.2451-2.7256v-1.1458l-.01-1.1458 9.5-6.0793 10-4.4325 16-.1966 3.9355 2.0645 3.9354 2.0646 2.0646 3.9354 2.0645 3.9355v53.177l1.3724 1.6616 1.3725 1.6616h3.8866l1.9437-1.0402 1.9437-1.0403.9977 2.6242.9977 2.6241-.6305 1.0202-.6305 1.0203-8.2533 3.7478-5 .036-6.1594-3.756-1.3429-3.3682-1.3429-3.3683-.3606-.5392-3.855 3.5311-3.855 3.531-8.1803 3.96-8.9039 1.0348-3.6149-1.3446zm19.746-12.294 5.1312-3.4589 1.5729-1.7381 1.573-1.7381.7028-10.872.7029-10.872-10.389 1.3782-5.993 1.8652-5.9931 1.8652-3.5754 2.7272-3.5755 2.7272-2.7878 6.6721v5.7684l2.2699 3.3979 2.27 3.3979 6.9601 3.5234 6-1.1854zm-118.8 8.2367.36711-4.6158h3.8979l5.7973-2.9979 4.9326-6.5021 4.3174-12.872 3.8415-26.128.65354-9.25.65353-9.25h42.705v44.682l-.6561 15.159-.6562 15.159h-11.002l1.1798-66h-21.775l-.50003 3.25-.50002 3.25-4.0875 31-2.147 7.863-2.147 7.8629-3.1512 4.1371-3.1512 4.137-8.3947 4.6433-10.545 1.0883zm-265.49-10.866.65189-14.25.004-23.25.00332-23.25h11.319l-1.218 66h29.649l1.25-6.25v-47.457l.64246-6.1467.64245-6.1467h10.329l-.6473 52.5-.26618 6.75-.26619 6.75h30.565l.006-31.5 1.3087-34.5h10.685l-.006 37.5-.65529 18.75-.65528 18.75h-93.995l.65189-14.25zm119.66-9 .004-23.25 1.3038-28.5h10.689l-.006 37.5-.65529 18.75-.65528 18.75h-10.684l.004-23.25zm-107.4-131.78-4.8917-.84839-6.2166-2.5024-7.5-4.6479.036-1.2374.036-1.2375 2.214-2.6951 2.214-2.6951 14.269 7.0903h12.187l9.099-4.4047 4.9064-6.4326 2.7548-7.8627.70352-4.75.70351-4.75h-31.123v-9h31.091l-1.3194-7.5-3.4376-8-7.3073-6.4158-8.3841-2.2576-8.9028 1.3351-5.2394 2.2675-7.5482 4.6264-4.8886-5.5555-.0632-1.4875 8.1444-5.8998 10.356-3.5432 17 .00186 10 4.5273 7.3381 7.1491 5.5279 12.252.43969 11.167.43969 11.167-4.2296 13.925-6.6325 9.6243-9.558 6.5868-7.3252 1.8705-10 .98157-4.8917-.84838zm93.506-19.618-18.072-20.567 1.9295-3.2892 33.858-35 3.6063 3.4669 3.6063 3.4669-30.502 30.549 12.06 12.517 20.399 21.528-.078 1.4721-8.7357 6.423zm577.23 19.624-4.1562-.84356-3.8438-1.9834-3.8437-1.9834-7.2796-7.6695-1.766-3.5-1.7659-3.5-2.6648-10 .026-16 1.0116-4.3882 1.0117-4.3882 4.9886-10.545 8.1284-8.3758 11.203-5.1287 14.108-.1108 9.4947 4.6125 6.8967 8.0574 3.2494 9.2668 1.145 15.5h-50.355l.6189 5.25.6188 5.25 1.4422 5.2455 1.4423 5.2456 6.2436 7.1111 6.1563 3.1835 10.047-.023 7-2.9715 9.1957-7.0458 5.408 6.7777-.5714.92468-.5715.92467-13.461 8.8688-7 2.1189-8 .96321-4.1563-.84355zm23.651-51.73-.01-2.75-1.0675-3.8444-1.0675-3.8444-6.5243-7.1193-11.002-.9124-3.3009 1.707-3.301 1.707-4.934 5.3065-4.7912 9.4335v3.0665h36l-.01-2.75zm130.17 32.103-18.132-20.583 1.9737-2.6349 1.9738-2.6349 15.928-16.5 15.928-16.5 7.2118 6.9338-30.401 30.449 27.859 29.314 2.3638 2.9545 2.3639 2.9545-.3639.25428-.3638.25427-8.2076 6.3223zm-675.7 16.845-6.0404-2.9149-8.3526-9.489-4.4834-11.294v-24l4.7417-12 12.175-12.177 11-3.7317 7.5.0304 7.5.0305 12.616 5.6736 7.6949 8.7419 2.2225 4.7164 2.2225 4.7164 1.0628 6.8365 1.0628 6.8365-2.3402 16.056-5.1464 11.271-7.3955 7.6728-10 5.215-20 .72523-6.0404-2.9149zm20.32-6.3728 4.6651-1.1747 9.2673-9.2673 3.788-10.883v-20.143l-6.0208-11.771-8.4728-6.4624-8.6487-1.2969-8.5391 2.2993-8.5922 7.92-4.7259 10.454-.00033 11-.00032 11 5.6729 11.553 6.784 5.4473 7.5431 2.3463 1.3072.0768 1.3072.0769zm149.92 7.7324-3.7974-1.3545-7.7435-5.1244-2.5509-3.3444-2.5509-3.3444-1.987-4.492-1.987-4.492-1.1764-7.1234-1.1764-7.1234 2.3194-15.594 4.7178-10.305 7.1226-7.8838 9.6071-5.2114 12.536-2.2594 11.063 2.0452 8.4002 3.7783 7.7738 7.7712 3.0817 6.5 3.0818 6.5.3897 9.5526.3898 9.5526-3.3012 12.886-5.6132 10.009-9.8024 7.5314-9.863 2.9686-15.137-.0878-3.7973-1.3545zm21.085-8.9481 2.7536-1.4239 5.7556-5.6857 2.5594-5.5 2.5593-5.5.4045-9.6535.4045-9.6535-1.7368-5.2288-1.7367-5.2288-9.2514-9.5491-4.4946-1.1976-4.4945-1.1976-10.124 2.2657-7.4556 6.1455-4.7753 9.4236-2.3462 12.874.66662 6 .66661 6 1.8933 4.2975 1.8933 4.2975 4.1439 5.2682 2.1347 1.4952 2.1346 1.4952 7.1572 2.6642 8.5345-.9842zm118.84-16.532-3.6675-26.578.021-3.45.022-3.45-1.7786 1.9-3.1682 11-19.834 45-9.828.59097-7.6722-23.795-7.6721-23.795-.9344-4.3279-.9344-4.3279-.4555-.45554-.4556-.45554-.6618 5.2834-.6618 5.2834-11.426 46.748-1.1536.4427-1.1537.4427-8.2096-2.2106v-1.5587l18.707-71.864 9.1497-.60372 7.0204 22.604 5.0369 16.36 5.037 16.36 1.2718 6.7793 1.2774-.006 2.7666-7.7474 2.7667-7.7474 20.534-46 9.4331-.60958v1.0671l10.979 73.397-.7262.72626-9.9608 1.5746-3.6675-26.578zm37.126 25.232-3.75-1.5234v-43.468l.6561-15.159.6562-15.159h10.893l-.5868 13.25-.5867 13.25-1.1538 35 9.7579-16 30.641-46 .237-.29185.2371-.29184 8.5454 3.4192-.6442 14.082-.6443 14.082v44.5h-11l.088-36.5.8703-10.5.8704-10.5-.3094-.31206-.3093-.31206-5.0233 8.3121-5.0234 8.3121-28.396 41-1.1333 1.1665-1.1334 1.1665-3.75-1.5234zm243.56-1.2838-6.1876-3.1194-6.1126-6.962-4.0218-7.8834-1.4953-5.7406-1.4952-5.7406v-12.16l1.4952-5.7406 1.4953-5.7406 4.1516-8.1378 4.0374-4.3801 4.0375-4.3801 11.283-5.5409 16 .0346 8 4.2959 7.5998 7.856-3.4427 2.6259-3.4428 2.6259-7.0249-6.6253-9.1894-2.5729-4.4581 1.2482-4.4582 1.2482-7.9618 6.815-2.7611 5.6434-2.761 5.6434-.4184 8.7501-.4183 8.7501 1.7625 5.6036 1.7626 5.6036 3.9371 4.4727 3.937 4.4728 10.646 3.0949 5.6916-1.3669 5.473-2.7567 6.8714-6.0332 2.7665 3.627 2.7664 3.627-3.9386 3.3841-3.9387 3.3841-9 4.5171-15 .67637-6.1875-3.1194zm136.69 2.2738-1.5-.54256-6.7324-3.0952-5.6572-7.8095-2.3192-10.363 1.1674-4.3352 1.1673-4.3352 7.8791-8.5479 11.64-5.2237 14.486-3.0472h7.6192l1.2-6-.5594-3.25-.5593-3.25-2.113-5.5943-5.619-2.9057-8.5993.044-8.9431 4.0567-6.8456 5.2214-5.6006-6.822 1.1947-1.1792 1.1946-1.1792 7.5756-4.0636 7.5757-4.0636 10.849-2.0957 9.4783 1.266 6.5217 4.3314 4.6806 8.9839-1.2528 48 2.2394 6.4183 3.7573 1.1925 4.4172-2.364 1.3291 1.8177 1.3292 1.8177v2.4393l-8.6314 4.1784h-7.2151l-3.0033-2.527-3.0032-2.527-.6611-3.0102-.6612-3.0102-8.0456 7.2687-5.1395 2.3931-5.1396 2.3931-8-.1384-1.5-.54257zm13.517-9.7422 3.4528-1.4427 9.5302-7.2582 1.3022-10.357.099-6.3113.099-6.3113-9.5 1.3848-12 3.685-7.2142 4.9306-3.2858 6.9244v5.7289l1.8273 3.4071 1.8272 3.4071 3.4072 1.8273 3.4071 1.8273h3.5954l3.4528-1.4427zm51.697 7.5903-4.2862-2.8438 10.087-12.724 10.087-12.724 7.3979-3.2024-8.3472-1.5225-6.0888-3.1486-4.884-5.2672-1.2186-4.3524-1.2186-4.3524 1.3102-8.1933 1.8671-3.6582 1.8671-3.6582 1.8929-1.7118 1.893-1.7118 4.9634-2.239 4.9635-2.239 34-.81573-.4784 44.717-1.2322 30.5h-11.046l.7233-15 .7234-15h-9.2899l-5.4007 2.8294-6.2111 6.6706-16.454 22.5-1.3345-.008-4.2862-2.8438zm42.786-51.239v-13.091l-20.86.68205-5.6401 4.1812-2.8732 8.1298 1.2279 4.0986 1.228 4.0986 4.9674 3.2548 6.4499 1.5324 15.5.20472zm-922 30.341.003-21.75 1.3065-31.5h10.687l-.006 40.5-1.3087 34.5h-10.685l.003-21.75zm156.34 6.591.65613-15.159v-44.682h12v31h34.696l.65196-10.656.65197-10.656v-9.6889h11l-.006 43.5-1.3065 31.5-11.187.002.29459-17.501.29393-17.501h-36.089v35h-12.312zm394.66-1.7248v-16.884l-12.5 5.0604-13 .92978-8.5263-2.3068-6.6284-5.8198-1.1726-3.914-1.1727-3.914v-15.966l.6467-7.6509.6468-7.6509h10.847l-.7023 13.835-.7023 13.835 2.4306 7.3646 6.2058 3.2092 12.675-1.0174 5.7263-2.8633 5.7264-2.8632.6243-14.5.6244-14.5.1256-1.25.1257-1.25h10v19.5l-.6589 27.75-.6588 27.75h-10.678v-16.884zm180-3.3662v-20.25l.6544-17.25.6543-17.25h10.685v43.5l-1.3064 31.5h-10.687v-20.25zm-710.92-135.34-5.4186-1.4568-6.1627-3.8227-6.3917-6.6319-2.6401-5.7776-2.6401-5.7776-2.0705-13.95 2.2113-14.868 4.8755-11.024 8.7078-8.7078 9.9478-4.8952h21l10.127 5.3446 7.6028 8.4154 5.1636 11.24.85442 17.564-1.2155 6.1782-1.2155 6.1782-5.6806 11.253-7.1917 6.3144-7.4444 3.7659-10.598 2.2464-6.4016-.1316-5.4186-1.4568zm19.509-10.069 3.9098-2.019 6.1173-7.9776 3.61-11.477-.802-19.369-5.9254-10.843-7.6856-6.1569h-15.642l-8.4647 6-5.6709 10.093-2.3927 15.39 1.123 6.0383 1.1229 6.0384 2.2842 4.5737 2.2842 4.5737 6.0417 5.0927 6 2.732 10.18-.67059zm66.132 10.603-4.7774-.78785-8.4453-4.9877-6.3613-6.6702-5.0971-10.208-2.2973-10.712.5235-8.0402.5235-8.0402 4.2795-11.305 6.9677-9.1253 8.8349-6.0786 12.401-3.177 9.2256 1.3763 6.2791 2.6153 8.2209 7.4271v2.3912l-6.1946 4.5799-6.3054-5.9638-4.3685-2.24h-10.74l-9.0163 5.7179-6.2746 9.4729-1.1852 5.2958-1.1852 5.2958.93702 16.186 5.8632 11.465 9.386 5.8029 8.9465 1.0084 8.7578-4.2396 5.5899-5.8346 6.2369 7.1034-7.9477 6.9857-10 4.521-8 .95303zm67 0-4.7774-.78785-8.671-5.0815-6.278-7.1503-4.7475-9.4262-2.2488-10.598v-11.481l3.104-11.92 5.0269-8.5795 6.0402-6.8794 13.174-6.4855 14.155.01 9.0606 4.3994 7.615 7.7985-7.4024 5.6461-2.3059-3.1535-7.7464-5.2569h-11.045l-8.6119 5.0469-5.8152 8.4531-1.6243 4.785-1.6243 4.7849v14.612l1.4314 4.7562 1.4314 4.7562 5.3633 7.7392 10.167 5.0662h6.6716l6.7149-2.8057 7.8223-7.067 5.7611 7.2202-7.8626 6.9121-10 4.521-8 .95303-4.7774-.78785zm233 0-4.7773-.78785-8.671-5.0815-6.5721-7.4852-2.4558-5.3643-2.4559-5.3643-1.0728-6.9314-1.0729-6.9314 1.0836-7.0005 1.0835-7.0005 5.9906-12.802 8.4016-8.4016 5.6479-2.5907 5.648-2.5907 13-.1146 9.0936 3.5102 8.5874 8.7499-7.3826 5.631-.938-1.6762-.9381-1.6762-8.598-5.0388h-9.3885l-6.4358 2.7044-6.7548 6.7956-5.0706 10.891-.4721 7.3552-.472 7.3552 3.4518 12.752 7.2061 8.4187 8.1116 3.6844 6.5642.044 7.4358-3.0976 7.2642-7.078 5.5338 7.2552-5.779 6.032-12.019 5.7176-8 .90465-4.7774-.78785zm77.371-19.613-18.121-20.623 5.7446-6.1048 5.7447-6.1048 12.292-12.96 12.292-12.96 7.4532 7.591-30.859 29.711 25.859 27.196 6.949 8.1517-5.949 4.8687-3.2852 1.8565zm117.65 17.516-4.7317-3.0779 10.424-13.27 8.7022-11 7.8106-4.306-3.1114-1.194h-3.205l-8.6597-4.1921-4.7756-8.3079-.6872-3.2941-.6872-3.2942 2.4708-10.299 4.6037-4.5838 4.6038-4.5838 8.232-2.4446h32.979l-.3841 31.25-.3842 31.25-1.1022 12.5h-10.515l.9422-31h-8.3474l-3.9969 2.0391-3.997 2.0391-10.126 13.711-10.126 13.711-.5998.71302-.5997.71303zm42.269-48.098.011-9.25.6198-3.75.6199-3.75h-18.132l-5.6302 2.1332-4.503 4.2183-1.9564 7.0854 2.0094 7.4625 5.45 3.8671 4 1.0015 17.5.232zm-422.08 48.662-3.5729-1.4848.34136-27.214.34137-27.214.57487-9.25.57488-9.25h10.719l-.42352 4.75-.42353 4.75-.5071 23.61-.50711 23.61-.62924 1.6398-.62925 1.6398 1.714-.002 5.8926-10.498 33.861-51 .196-.23925.196-.23924 3.9329 1.5449 3.9328 1.5449-.2753 32.694-.2753 32.694-1.0828 8.5h-9.8775l.174-40.5 1.337-17.5-1.0111.018-11.336 18.482-28.26 40.5-1.4037-.103-3.5729-1.4848zm83.034.0107-3.5387-1.4682.5992-50.455 1.1756-22.5h10.777l-.9334 14.5-.5363 21.209-.5363 21.209-.5912 1.5408-.5913 1.5408 1.714-.002 2.9407-5.2356 2.9406-5.2356 27.875-42.027 6.7841-9.3232 7.5444 2.9635-.3252 33.68-.3252 33.68-.5126 3.25-.5125 3.25h-9.9094l.174-40.5 1.337-17.5-1.0111.018-11.337 18.482-27.707 39.848-1.956.54309-3.5388-1.4683zm226.95-.74961-4.4073-2.3268-5.9395-8.4326-.3839-6.7936-.3838-6.7936 2.0943-4.1053 2.0944-4.1054 6.6029-5.0362 10.916-4.9426 15.416-3.137h7.3735l-.6043-6.4718-.6044-6.4718-1.4652-2.8335-1.4653-2.8335-2.6221-1.1947-2.622-1.1947h-7.6372l-7.0231 3.5135-7.0232 3.5135-1.253 1.5098-1.2531 1.5098-2.5112-3.6955-2.5111-3.6955 5.806-4.7225 12.906-6.2294 13.416-.95987 7.2209 1.3546 6.6895 5.8735 1.2706 4.5383 1.2707 4.5383-.9732 45.451.9121 3.3053.912 3.3053 3.1704 1.2166 6.0732-2.2924.2347.23466.2346.23466.6729 2.6809.6729 2.6809-8.1035 4.1341h-7.81l-5.1249-4.0313-2.3282-7.0544-8.936 8.2369-8.3806 3.8048-10.185.044-4.4073-2.3268zm22.858-10.675 5.9933-4.0022 1.3596-1.6382 1.3595-1.6382.7432-21.714-6.721 1.1775-11.497 2.7746-7.7513 3.9544-5.172 6.1466-1.226 6.5349 1.7245 4.3098 1.7244 4.3098 3.0988 1.8896 3.0987 1.8896 7.2721.008 5.9933-4.0022zm-628.39-.74782.59928-12.75 1.2757-79.729 39.249.97145 10.746 3.4076 9.6039 9.6039 3.1504 10.609v10.274l-3.1299 10.54-10.37 10.569-12 4.5219-26.5.99374v43.739h-13.223zm41.248-43.993 4.1242-2.1696 5.1747-6.1498 1.0328-3.7189 1.0329-3.719v-5l-1.0329-3.719-1.0328-3.7189-5.3404-6.3467-8.0827-3.6715-23.5-.04392v34.75l-.64637 3.2319-.64637 3.2318 24.793-.78674zm485.38 45.493v-11.25l.6584-26.25.6585-26.25 11.179-.00152-.2368 29.251-.2369 29.251-1.2058 16.5h-10.82v-11.25zm-131.8-76.583-5.2951-1.8901-7.4099-5.9974v-2.5636l5.4512-4.0699 1.7924 1.6221 1.7924 1.6221 8.964 4.066 11.355.044 12.99-6.7711 5.3148 5.5474-6.77 5.1637-4.9288 2.1803-4.9289 2.1803-13.032.75652-5.295-1.8901zm-101.15-81.249-8.4494-.94797-25.101-5.0598-26.021-8.6706-19.55-9.1356 1.6008-3.8019 1.6008-3.8019 14.093-34 .73093-.78906 20.544 8.0699 14.747 4.3774 19.253 3.9018 28 1.2048 17.44-2.3313 14.956-3.8251 15.604-6.2321 15-9.3114 16.18-16.065 8.0465-12 2.9966-6 2.9967-6 2.5882-8 2.5883-8 2.0202-12 .8064-5.5h-132.72v-18.684l1.3101-27.316h131.69l-.034-11.5-2.834-13.372-2.461-6.0929-2.4611-6.0929-6.7092-11.395-18-18.253-14-8.019-6.9954-2.7676-6.9953-2.7676-19.009-4.1717-41 .0488-20 3.4368-18.339 4.9647-14.661 6.1367-1.3894.17229-1.3901.17233-13.721-40.963v-1.4963l8.2974-4.233 17.925-6.9225 26.54-6.8022 27.738-4.127 33-1.2429 24 2.4746 22 5.5708 16 6.1943 16.526 9.5472 6.1786 4.5 6.1785 4.5 8.5585 8.5672 8.5584 8.5672 11.578 16.198 9.754 19.158 6.1568 18.51 1.9479 9 1.948 9 2.374 22-1.138 34-2.0192 11.5-2.0193 11.5-5.9916 21.199-8.9694 21-4.892 8.5016-4.8921 8.5016-11.837 15.794-8.0639 8.0155-8.064 8.0155-8.936 6.11-8.9361 6.11-18.79 9.419-23.21 7.7394-23 4.2726-39 .68807zm-300.04-7.6676.0118-2.75 2.4782-138.5 2.4782-138.5.01-15.827.01-15.827 127.5.82346 17.518 3.4022 13.482 4.1133 15.733 7.8167 9.6747 7.1019 12.873 13.904 8.1121 15.592 5.3865 17.901.93806 33-3.3102 17.653-5.968 16.493-9.057 15.472-14.245 14.996-16.356 10.883-14.046 5.7923-10.734 3.1164-17.762 3.0936h-64.447l-1.274 48.5-1.3111 74.5h-57.706l.0118-2.75zm114.49-163.63 7-1.4407 12-4.4764 10.442-6.6398 8.2514-8.5025 5.8247-11.539 2.952-12.521-.006-15-2.8691-13.54-6.2879-11.797-10.084-10.032-11.224-5.9362-14-4.544-55.172-.83476-1.3251 76.683-.001 16.397-.001 16.397 47.5-1.2335 7-1.4408zm412.95 151.13.5765-15.25 4.019-259 .5796-12.25.5795-12.25h57.853l-.6329 29.75-.6328 29.75-3.4772 204 .8064 1.5h100.68l.5855-13.25.5854-13.25 1.5074-100 1.5075-100 1.2376-38.5h57.528l-.3916 13.25-.3917 13.25-1.4599 92.5-1.46 92.5-1.2888 52.5h102.25l.022-5.5 4.9576-254 .02-4.5h58l-.022 16.5-4.956 276-.022 21.5h-379.13l.5765-15.25z" style="fill:#333333"/>
		<path d="m10.167 531.18.33333-.81751 263-254.38 231.73-239.49 26.769-27.523v523.02h-522.17z" style="fill:#db0d15"/>
	</g>
</svg>
